M48
METRIC,TZ
T1C0.300
T2C0.750
T3C0.800
T4C1.400
T5C1.500
T6C3.200
%
G90
G05
T1
X125500Y-93500
X125500Y-95000
X125500Y-101500
X125500Y-103000
X125500Y-104500
X125500Y-106000
X125500Y-107500
X125500Y-114000
X125500Y-115500
X133000Y-87000
X133000Y-122000
X134500Y-87000
X134500Y-122000
X136000Y-87000
X136000Y-93000
X136000Y-96500
X136000Y-110500
X136000Y-114000
X136000Y-122000
X137500Y-87000
X137500Y-122000
X139000Y-87000
X139000Y-122000
X140500Y-87000
X140500Y-122000
X142000Y-87000
X142000Y-98000
X142000Y-115500
X142000Y-122000
X143500Y-87000
X143500Y-122000
X145000Y-87000
X145000Y-122000
X146500Y-87000
X146500Y-122000
X147500Y-93000
X147500Y-110500
X148000Y-87000
X148000Y-122000
X149500Y-87000
X149500Y-122000
X150000Y-94500
X150000Y-112000
X151000Y-87000
X151000Y-122000
X152500Y-87000
X152500Y-122000
X153500Y-98000
X153500Y-115500
X154000Y-87000
X154000Y-122000
X155500Y-87000
X155500Y-122000
X157000Y-87000
X157000Y-122000
X158500Y-87000
X158500Y-122000
X159000Y-93000
X159000Y-110500
X160000Y-87000
X160000Y-122000
X161500Y-87000
X161500Y-122000
X163000Y-87000
X163000Y-122000
X164500Y-87000
X164500Y-122000
X165000Y-98000
X165000Y-115500
X166000Y-87000
X166000Y-122000
X167500Y-87000
X167500Y-111000
X167500Y-112000
X167500Y-114500
X167500Y-115500
X167500Y-122000
X169000Y-87000
X169000Y-122000
X170500Y-87000
X170500Y-122000
X172000Y-87000
X172000Y-122000
X173500Y-87000
X173500Y-93500
X173500Y-94500
X173500Y-97000
X173500Y-98000
X173500Y-122000
X175000Y-87000
X175000Y-122000
X176500Y-87000
X176500Y-122000
X183500Y-93500
X183500Y-95000
X183500Y-101500
X183500Y-103000
X183500Y-104500
X183500Y-106000
X183500Y-107500
X183500Y-114000
X183500Y-115500
T2
X175000Y-102500
X175000Y-104500
X175000Y-106500
X166500Y-104000
X168500Y-104000
X170500Y-104000
T3
X146380Y-92000
X146380Y-99620
X148920Y-92000
X148920Y-99620
X151460Y-92000
X151460Y-99620
X154000Y-92000
X154000Y-99620
X146380Y-109500
X146380Y-117120
X148920Y-109500
X148920Y-117120
X151460Y-109500
X151460Y-117120
X154000Y-109500
X154000Y-117120
X157880Y-92000
X157880Y-99620
X160420Y-92000
X160420Y-99620
X162960Y-92000
X162960Y-99620
X165500Y-92000
X165500Y-99620
X157880Y-109500
X157880Y-117120
X160420Y-109500
X160420Y-117120
X162960Y-109500
X162960Y-117120
X165500Y-109500
X165500Y-117120
X170500Y-98000
X170500Y-100000
X170500Y-91500
X170500Y-93500
X134880Y-109500
X134880Y-117120
X137420Y-109500
X137420Y-117120
X139960Y-109500
X139960Y-117120
X142500Y-109500
X142500Y-117120
X170500Y-109000
X170500Y-111000
X134880Y-92000
X134880Y-99620
X137420Y-92000
X137420Y-99620
X139960Y-92000
X139960Y-99620
X142500Y-92000
X142500Y-99620
X170500Y-115500
X170500Y-117500
T5
X178500Y-98000
X130500Y-111000
X178500Y-111000
X130500Y-98000
T6
X128500Y-90000
X128500Y-119000
X180500Y-90000
X180500Y-119000
T4
X179200Y-93050G85X177800Y-93050
G05
X179200Y-102950G85X177800Y-102950
G05
X183500Y-98700G85X183500Y-97300
G05
X125500Y-110300G85X125500Y-111700
G05
X129800Y-106050G85X131200Y-106050
G05
X129800Y-115950G85X131200Y-115950
G05
X179200Y-106050G85X177800Y-106050
G05
X179200Y-115950G85X177800Y-115950
G05
X183500Y-111700G85X183500Y-110300
G05
X125500Y-97300G85X125500Y-98700
G05
X129800Y-93050G85X131200Y-93050
G05
X129800Y-102950G85X131200Y-102950
G05
T0
M30
