G04 #@! TF.GenerationSoftware,KiCad,Pcbnew,(5.0.1)-rc2*
G04 #@! TF.CreationDate,2019-04-28T00:00:37+02:00*
G04 #@! TF.ProjectId,RIAA,524941412E6B696361645F7063620000,rev?*
G04 #@! TF.SameCoordinates,Original*
G04 #@! TF.FileFunction,Paste,Bot*
G04 #@! TF.FilePolarity,Positive*
%FSLAX46Y46*%
G04 Gerber Fmt 4.6, Leading zero omitted, Abs format (unit mm)*
G04 Created by KiCad (PCBNEW (5.0.1)-rc2) date 28-04-2019 00:00:37*
%MOMM*%
%LPD*%
G01*
G04 APERTURE LIST*
%ADD10C,0.100000*%
%ADD11C,0.590000*%
G04 APERTURE END LIST*
D10*
G04 #@! TO.C,C1*
G36*
X133186958Y-112720710D02*
X133201276Y-112722834D01*
X133215317Y-112726351D01*
X133228946Y-112731228D01*
X133242031Y-112737417D01*
X133254447Y-112744858D01*
X133266073Y-112753481D01*
X133276798Y-112763202D01*
X133286519Y-112773927D01*
X133295142Y-112785553D01*
X133302583Y-112797969D01*
X133308772Y-112811054D01*
X133313649Y-112824683D01*
X133317166Y-112838724D01*
X133319290Y-112853042D01*
X133320000Y-112867500D01*
X133320000Y-113162500D01*
X133319290Y-113176958D01*
X133317166Y-113191276D01*
X133313649Y-113205317D01*
X133308772Y-113218946D01*
X133302583Y-113232031D01*
X133295142Y-113244447D01*
X133286519Y-113256073D01*
X133276798Y-113266798D01*
X133266073Y-113276519D01*
X133254447Y-113285142D01*
X133242031Y-113292583D01*
X133228946Y-113298772D01*
X133215317Y-113303649D01*
X133201276Y-113307166D01*
X133186958Y-113309290D01*
X133172500Y-113310000D01*
X132827500Y-113310000D01*
X132813042Y-113309290D01*
X132798724Y-113307166D01*
X132784683Y-113303649D01*
X132771054Y-113298772D01*
X132757969Y-113292583D01*
X132745553Y-113285142D01*
X132733927Y-113276519D01*
X132723202Y-113266798D01*
X132713481Y-113256073D01*
X132704858Y-113244447D01*
X132697417Y-113232031D01*
X132691228Y-113218946D01*
X132686351Y-113205317D01*
X132682834Y-113191276D01*
X132680710Y-113176958D01*
X132680000Y-113162500D01*
X132680000Y-112867500D01*
X132680710Y-112853042D01*
X132682834Y-112838724D01*
X132686351Y-112824683D01*
X132691228Y-112811054D01*
X132697417Y-112797969D01*
X132704858Y-112785553D01*
X132713481Y-112773927D01*
X132723202Y-112763202D01*
X132733927Y-112753481D01*
X132745553Y-112744858D01*
X132757969Y-112737417D01*
X132771054Y-112731228D01*
X132784683Y-112726351D01*
X132798724Y-112722834D01*
X132813042Y-112720710D01*
X132827500Y-112720000D01*
X133172500Y-112720000D01*
X133186958Y-112720710D01*
X133186958Y-112720710D01*
G37*
D11*
X133000000Y-113015000D03*
D10*
G36*
X133186958Y-113690710D02*
X133201276Y-113692834D01*
X133215317Y-113696351D01*
X133228946Y-113701228D01*
X133242031Y-113707417D01*
X133254447Y-113714858D01*
X133266073Y-113723481D01*
X133276798Y-113733202D01*
X133286519Y-113743927D01*
X133295142Y-113755553D01*
X133302583Y-113767969D01*
X133308772Y-113781054D01*
X133313649Y-113794683D01*
X133317166Y-113808724D01*
X133319290Y-113823042D01*
X133320000Y-113837500D01*
X133320000Y-114132500D01*
X133319290Y-114146958D01*
X133317166Y-114161276D01*
X133313649Y-114175317D01*
X133308772Y-114188946D01*
X133302583Y-114202031D01*
X133295142Y-114214447D01*
X133286519Y-114226073D01*
X133276798Y-114236798D01*
X133266073Y-114246519D01*
X133254447Y-114255142D01*
X133242031Y-114262583D01*
X133228946Y-114268772D01*
X133215317Y-114273649D01*
X133201276Y-114277166D01*
X133186958Y-114279290D01*
X133172500Y-114280000D01*
X132827500Y-114280000D01*
X132813042Y-114279290D01*
X132798724Y-114277166D01*
X132784683Y-114273649D01*
X132771054Y-114268772D01*
X132757969Y-114262583D01*
X132745553Y-114255142D01*
X132733927Y-114246519D01*
X132723202Y-114236798D01*
X132713481Y-114226073D01*
X132704858Y-114214447D01*
X132697417Y-114202031D01*
X132691228Y-114188946D01*
X132686351Y-114175317D01*
X132682834Y-114161276D01*
X132680710Y-114146958D01*
X132680000Y-114132500D01*
X132680000Y-113837500D01*
X132680710Y-113823042D01*
X132682834Y-113808724D01*
X132686351Y-113794683D01*
X132691228Y-113781054D01*
X132697417Y-113767969D01*
X132704858Y-113755553D01*
X132713481Y-113743927D01*
X132723202Y-113733202D01*
X132733927Y-113723481D01*
X132745553Y-113714858D01*
X132757969Y-113707417D01*
X132771054Y-113701228D01*
X132784683Y-113696351D01*
X132798724Y-113692834D01*
X132813042Y-113690710D01*
X132827500Y-113690000D01*
X133172500Y-113690000D01*
X133186958Y-113690710D01*
X133186958Y-113690710D01*
G37*
D11*
X133000000Y-113985000D03*
G04 #@! TD*
D10*
G04 #@! TO.C,C5*
G36*
X135176958Y-111180710D02*
X135191276Y-111182834D01*
X135205317Y-111186351D01*
X135218946Y-111191228D01*
X135232031Y-111197417D01*
X135244447Y-111204858D01*
X135256073Y-111213481D01*
X135266798Y-111223202D01*
X135276519Y-111233927D01*
X135285142Y-111245553D01*
X135292583Y-111257969D01*
X135298772Y-111271054D01*
X135303649Y-111284683D01*
X135307166Y-111298724D01*
X135309290Y-111313042D01*
X135310000Y-111327500D01*
X135310000Y-111672500D01*
X135309290Y-111686958D01*
X135307166Y-111701276D01*
X135303649Y-111715317D01*
X135298772Y-111728946D01*
X135292583Y-111742031D01*
X135285142Y-111754447D01*
X135276519Y-111766073D01*
X135266798Y-111776798D01*
X135256073Y-111786519D01*
X135244447Y-111795142D01*
X135232031Y-111802583D01*
X135218946Y-111808772D01*
X135205317Y-111813649D01*
X135191276Y-111817166D01*
X135176958Y-111819290D01*
X135162500Y-111820000D01*
X134867500Y-111820000D01*
X134853042Y-111819290D01*
X134838724Y-111817166D01*
X134824683Y-111813649D01*
X134811054Y-111808772D01*
X134797969Y-111802583D01*
X134785553Y-111795142D01*
X134773927Y-111786519D01*
X134763202Y-111776798D01*
X134753481Y-111766073D01*
X134744858Y-111754447D01*
X134737417Y-111742031D01*
X134731228Y-111728946D01*
X134726351Y-111715317D01*
X134722834Y-111701276D01*
X134720710Y-111686958D01*
X134720000Y-111672500D01*
X134720000Y-111327500D01*
X134720710Y-111313042D01*
X134722834Y-111298724D01*
X134726351Y-111284683D01*
X134731228Y-111271054D01*
X134737417Y-111257969D01*
X134744858Y-111245553D01*
X134753481Y-111233927D01*
X134763202Y-111223202D01*
X134773927Y-111213481D01*
X134785553Y-111204858D01*
X134797969Y-111197417D01*
X134811054Y-111191228D01*
X134824683Y-111186351D01*
X134838724Y-111182834D01*
X134853042Y-111180710D01*
X134867500Y-111180000D01*
X135162500Y-111180000D01*
X135176958Y-111180710D01*
X135176958Y-111180710D01*
G37*
D11*
X135015000Y-111500000D03*
D10*
G36*
X136146958Y-111180710D02*
X136161276Y-111182834D01*
X136175317Y-111186351D01*
X136188946Y-111191228D01*
X136202031Y-111197417D01*
X136214447Y-111204858D01*
X136226073Y-111213481D01*
X136236798Y-111223202D01*
X136246519Y-111233927D01*
X136255142Y-111245553D01*
X136262583Y-111257969D01*
X136268772Y-111271054D01*
X136273649Y-111284683D01*
X136277166Y-111298724D01*
X136279290Y-111313042D01*
X136280000Y-111327500D01*
X136280000Y-111672500D01*
X136279290Y-111686958D01*
X136277166Y-111701276D01*
X136273649Y-111715317D01*
X136268772Y-111728946D01*
X136262583Y-111742031D01*
X136255142Y-111754447D01*
X136246519Y-111766073D01*
X136236798Y-111776798D01*
X136226073Y-111786519D01*
X136214447Y-111795142D01*
X136202031Y-111802583D01*
X136188946Y-111808772D01*
X136175317Y-111813649D01*
X136161276Y-111817166D01*
X136146958Y-111819290D01*
X136132500Y-111820000D01*
X135837500Y-111820000D01*
X135823042Y-111819290D01*
X135808724Y-111817166D01*
X135794683Y-111813649D01*
X135781054Y-111808772D01*
X135767969Y-111802583D01*
X135755553Y-111795142D01*
X135743927Y-111786519D01*
X135733202Y-111776798D01*
X135723481Y-111766073D01*
X135714858Y-111754447D01*
X135707417Y-111742031D01*
X135701228Y-111728946D01*
X135696351Y-111715317D01*
X135692834Y-111701276D01*
X135690710Y-111686958D01*
X135690000Y-111672500D01*
X135690000Y-111327500D01*
X135690710Y-111313042D01*
X135692834Y-111298724D01*
X135696351Y-111284683D01*
X135701228Y-111271054D01*
X135707417Y-111257969D01*
X135714858Y-111245553D01*
X135723481Y-111233927D01*
X135733202Y-111223202D01*
X135743927Y-111213481D01*
X135755553Y-111204858D01*
X135767969Y-111197417D01*
X135781054Y-111191228D01*
X135794683Y-111186351D01*
X135808724Y-111182834D01*
X135823042Y-111180710D01*
X135837500Y-111180000D01*
X136132500Y-111180000D01*
X136146958Y-111180710D01*
X136146958Y-111180710D01*
G37*
D11*
X135985000Y-111500000D03*
G04 #@! TD*
D10*
G04 #@! TO.C,C6*
G36*
X138186958Y-112720710D02*
X138201276Y-112722834D01*
X138215317Y-112726351D01*
X138228946Y-112731228D01*
X138242031Y-112737417D01*
X138254447Y-112744858D01*
X138266073Y-112753481D01*
X138276798Y-112763202D01*
X138286519Y-112773927D01*
X138295142Y-112785553D01*
X138302583Y-112797969D01*
X138308772Y-112811054D01*
X138313649Y-112824683D01*
X138317166Y-112838724D01*
X138319290Y-112853042D01*
X138320000Y-112867500D01*
X138320000Y-113162500D01*
X138319290Y-113176958D01*
X138317166Y-113191276D01*
X138313649Y-113205317D01*
X138308772Y-113218946D01*
X138302583Y-113232031D01*
X138295142Y-113244447D01*
X138286519Y-113256073D01*
X138276798Y-113266798D01*
X138266073Y-113276519D01*
X138254447Y-113285142D01*
X138242031Y-113292583D01*
X138228946Y-113298772D01*
X138215317Y-113303649D01*
X138201276Y-113307166D01*
X138186958Y-113309290D01*
X138172500Y-113310000D01*
X137827500Y-113310000D01*
X137813042Y-113309290D01*
X137798724Y-113307166D01*
X137784683Y-113303649D01*
X137771054Y-113298772D01*
X137757969Y-113292583D01*
X137745553Y-113285142D01*
X137733927Y-113276519D01*
X137723202Y-113266798D01*
X137713481Y-113256073D01*
X137704858Y-113244447D01*
X137697417Y-113232031D01*
X137691228Y-113218946D01*
X137686351Y-113205317D01*
X137682834Y-113191276D01*
X137680710Y-113176958D01*
X137680000Y-113162500D01*
X137680000Y-112867500D01*
X137680710Y-112853042D01*
X137682834Y-112838724D01*
X137686351Y-112824683D01*
X137691228Y-112811054D01*
X137697417Y-112797969D01*
X137704858Y-112785553D01*
X137713481Y-112773927D01*
X137723202Y-112763202D01*
X137733927Y-112753481D01*
X137745553Y-112744858D01*
X137757969Y-112737417D01*
X137771054Y-112731228D01*
X137784683Y-112726351D01*
X137798724Y-112722834D01*
X137813042Y-112720710D01*
X137827500Y-112720000D01*
X138172500Y-112720000D01*
X138186958Y-112720710D01*
X138186958Y-112720710D01*
G37*
D11*
X138000000Y-113015000D03*
D10*
G36*
X138186958Y-113690710D02*
X138201276Y-113692834D01*
X138215317Y-113696351D01*
X138228946Y-113701228D01*
X138242031Y-113707417D01*
X138254447Y-113714858D01*
X138266073Y-113723481D01*
X138276798Y-113733202D01*
X138286519Y-113743927D01*
X138295142Y-113755553D01*
X138302583Y-113767969D01*
X138308772Y-113781054D01*
X138313649Y-113794683D01*
X138317166Y-113808724D01*
X138319290Y-113823042D01*
X138320000Y-113837500D01*
X138320000Y-114132500D01*
X138319290Y-114146958D01*
X138317166Y-114161276D01*
X138313649Y-114175317D01*
X138308772Y-114188946D01*
X138302583Y-114202031D01*
X138295142Y-114214447D01*
X138286519Y-114226073D01*
X138276798Y-114236798D01*
X138266073Y-114246519D01*
X138254447Y-114255142D01*
X138242031Y-114262583D01*
X138228946Y-114268772D01*
X138215317Y-114273649D01*
X138201276Y-114277166D01*
X138186958Y-114279290D01*
X138172500Y-114280000D01*
X137827500Y-114280000D01*
X137813042Y-114279290D01*
X137798724Y-114277166D01*
X137784683Y-114273649D01*
X137771054Y-114268772D01*
X137757969Y-114262583D01*
X137745553Y-114255142D01*
X137733927Y-114246519D01*
X137723202Y-114236798D01*
X137713481Y-114226073D01*
X137704858Y-114214447D01*
X137697417Y-114202031D01*
X137691228Y-114188946D01*
X137686351Y-114175317D01*
X137682834Y-114161276D01*
X137680710Y-114146958D01*
X137680000Y-114132500D01*
X137680000Y-113837500D01*
X137680710Y-113823042D01*
X137682834Y-113808724D01*
X137686351Y-113794683D01*
X137691228Y-113781054D01*
X137697417Y-113767969D01*
X137704858Y-113755553D01*
X137713481Y-113743927D01*
X137723202Y-113733202D01*
X137733927Y-113723481D01*
X137745553Y-113714858D01*
X137757969Y-113707417D01*
X137771054Y-113701228D01*
X137784683Y-113696351D01*
X137798724Y-113692834D01*
X137813042Y-113690710D01*
X137827500Y-113690000D01*
X138172500Y-113690000D01*
X138186958Y-113690710D01*
X138186958Y-113690710D01*
G37*
D11*
X138000000Y-113985000D03*
G04 #@! TD*
D10*
G04 #@! TO.C,C11*
G36*
X147646958Y-111180710D02*
X147661276Y-111182834D01*
X147675317Y-111186351D01*
X147688946Y-111191228D01*
X147702031Y-111197417D01*
X147714447Y-111204858D01*
X147726073Y-111213481D01*
X147736798Y-111223202D01*
X147746519Y-111233927D01*
X147755142Y-111245553D01*
X147762583Y-111257969D01*
X147768772Y-111271054D01*
X147773649Y-111284683D01*
X147777166Y-111298724D01*
X147779290Y-111313042D01*
X147780000Y-111327500D01*
X147780000Y-111672500D01*
X147779290Y-111686958D01*
X147777166Y-111701276D01*
X147773649Y-111715317D01*
X147768772Y-111728946D01*
X147762583Y-111742031D01*
X147755142Y-111754447D01*
X147746519Y-111766073D01*
X147736798Y-111776798D01*
X147726073Y-111786519D01*
X147714447Y-111795142D01*
X147702031Y-111802583D01*
X147688946Y-111808772D01*
X147675317Y-111813649D01*
X147661276Y-111817166D01*
X147646958Y-111819290D01*
X147632500Y-111820000D01*
X147337500Y-111820000D01*
X147323042Y-111819290D01*
X147308724Y-111817166D01*
X147294683Y-111813649D01*
X147281054Y-111808772D01*
X147267969Y-111802583D01*
X147255553Y-111795142D01*
X147243927Y-111786519D01*
X147233202Y-111776798D01*
X147223481Y-111766073D01*
X147214858Y-111754447D01*
X147207417Y-111742031D01*
X147201228Y-111728946D01*
X147196351Y-111715317D01*
X147192834Y-111701276D01*
X147190710Y-111686958D01*
X147190000Y-111672500D01*
X147190000Y-111327500D01*
X147190710Y-111313042D01*
X147192834Y-111298724D01*
X147196351Y-111284683D01*
X147201228Y-111271054D01*
X147207417Y-111257969D01*
X147214858Y-111245553D01*
X147223481Y-111233927D01*
X147233202Y-111223202D01*
X147243927Y-111213481D01*
X147255553Y-111204858D01*
X147267969Y-111197417D01*
X147281054Y-111191228D01*
X147294683Y-111186351D01*
X147308724Y-111182834D01*
X147323042Y-111180710D01*
X147337500Y-111180000D01*
X147632500Y-111180000D01*
X147646958Y-111180710D01*
X147646958Y-111180710D01*
G37*
D11*
X147485000Y-111500000D03*
D10*
G36*
X146676958Y-111180710D02*
X146691276Y-111182834D01*
X146705317Y-111186351D01*
X146718946Y-111191228D01*
X146732031Y-111197417D01*
X146744447Y-111204858D01*
X146756073Y-111213481D01*
X146766798Y-111223202D01*
X146776519Y-111233927D01*
X146785142Y-111245553D01*
X146792583Y-111257969D01*
X146798772Y-111271054D01*
X146803649Y-111284683D01*
X146807166Y-111298724D01*
X146809290Y-111313042D01*
X146810000Y-111327500D01*
X146810000Y-111672500D01*
X146809290Y-111686958D01*
X146807166Y-111701276D01*
X146803649Y-111715317D01*
X146798772Y-111728946D01*
X146792583Y-111742031D01*
X146785142Y-111754447D01*
X146776519Y-111766073D01*
X146766798Y-111776798D01*
X146756073Y-111786519D01*
X146744447Y-111795142D01*
X146732031Y-111802583D01*
X146718946Y-111808772D01*
X146705317Y-111813649D01*
X146691276Y-111817166D01*
X146676958Y-111819290D01*
X146662500Y-111820000D01*
X146367500Y-111820000D01*
X146353042Y-111819290D01*
X146338724Y-111817166D01*
X146324683Y-111813649D01*
X146311054Y-111808772D01*
X146297969Y-111802583D01*
X146285553Y-111795142D01*
X146273927Y-111786519D01*
X146263202Y-111776798D01*
X146253481Y-111766073D01*
X146244858Y-111754447D01*
X146237417Y-111742031D01*
X146231228Y-111728946D01*
X146226351Y-111715317D01*
X146222834Y-111701276D01*
X146220710Y-111686958D01*
X146220000Y-111672500D01*
X146220000Y-111327500D01*
X146220710Y-111313042D01*
X146222834Y-111298724D01*
X146226351Y-111284683D01*
X146231228Y-111271054D01*
X146237417Y-111257969D01*
X146244858Y-111245553D01*
X146253481Y-111233927D01*
X146263202Y-111223202D01*
X146273927Y-111213481D01*
X146285553Y-111204858D01*
X146297969Y-111197417D01*
X146311054Y-111191228D01*
X146324683Y-111186351D01*
X146338724Y-111182834D01*
X146353042Y-111180710D01*
X146367500Y-111180000D01*
X146662500Y-111180000D01*
X146676958Y-111180710D01*
X146676958Y-111180710D01*
G37*
D11*
X146515000Y-111500000D03*
G04 #@! TD*
D10*
G04 #@! TO.C,C15*
G36*
X163176958Y-115180710D02*
X163191276Y-115182834D01*
X163205317Y-115186351D01*
X163218946Y-115191228D01*
X163232031Y-115197417D01*
X163244447Y-115204858D01*
X163256073Y-115213481D01*
X163266798Y-115223202D01*
X163276519Y-115233927D01*
X163285142Y-115245553D01*
X163292583Y-115257969D01*
X163298772Y-115271054D01*
X163303649Y-115284683D01*
X163307166Y-115298724D01*
X163309290Y-115313042D01*
X163310000Y-115327500D01*
X163310000Y-115672500D01*
X163309290Y-115686958D01*
X163307166Y-115701276D01*
X163303649Y-115715317D01*
X163298772Y-115728946D01*
X163292583Y-115742031D01*
X163285142Y-115754447D01*
X163276519Y-115766073D01*
X163266798Y-115776798D01*
X163256073Y-115786519D01*
X163244447Y-115795142D01*
X163232031Y-115802583D01*
X163218946Y-115808772D01*
X163205317Y-115813649D01*
X163191276Y-115817166D01*
X163176958Y-115819290D01*
X163162500Y-115820000D01*
X162867500Y-115820000D01*
X162853042Y-115819290D01*
X162838724Y-115817166D01*
X162824683Y-115813649D01*
X162811054Y-115808772D01*
X162797969Y-115802583D01*
X162785553Y-115795142D01*
X162773927Y-115786519D01*
X162763202Y-115776798D01*
X162753481Y-115766073D01*
X162744858Y-115754447D01*
X162737417Y-115742031D01*
X162731228Y-115728946D01*
X162726351Y-115715317D01*
X162722834Y-115701276D01*
X162720710Y-115686958D01*
X162720000Y-115672500D01*
X162720000Y-115327500D01*
X162720710Y-115313042D01*
X162722834Y-115298724D01*
X162726351Y-115284683D01*
X162731228Y-115271054D01*
X162737417Y-115257969D01*
X162744858Y-115245553D01*
X162753481Y-115233927D01*
X162763202Y-115223202D01*
X162773927Y-115213481D01*
X162785553Y-115204858D01*
X162797969Y-115197417D01*
X162811054Y-115191228D01*
X162824683Y-115186351D01*
X162838724Y-115182834D01*
X162853042Y-115180710D01*
X162867500Y-115180000D01*
X163162500Y-115180000D01*
X163176958Y-115180710D01*
X163176958Y-115180710D01*
G37*
D11*
X163015000Y-115500000D03*
D10*
G36*
X164146958Y-115180710D02*
X164161276Y-115182834D01*
X164175317Y-115186351D01*
X164188946Y-115191228D01*
X164202031Y-115197417D01*
X164214447Y-115204858D01*
X164226073Y-115213481D01*
X164236798Y-115223202D01*
X164246519Y-115233927D01*
X164255142Y-115245553D01*
X164262583Y-115257969D01*
X164268772Y-115271054D01*
X164273649Y-115284683D01*
X164277166Y-115298724D01*
X164279290Y-115313042D01*
X164280000Y-115327500D01*
X164280000Y-115672500D01*
X164279290Y-115686958D01*
X164277166Y-115701276D01*
X164273649Y-115715317D01*
X164268772Y-115728946D01*
X164262583Y-115742031D01*
X164255142Y-115754447D01*
X164246519Y-115766073D01*
X164236798Y-115776798D01*
X164226073Y-115786519D01*
X164214447Y-115795142D01*
X164202031Y-115802583D01*
X164188946Y-115808772D01*
X164175317Y-115813649D01*
X164161276Y-115817166D01*
X164146958Y-115819290D01*
X164132500Y-115820000D01*
X163837500Y-115820000D01*
X163823042Y-115819290D01*
X163808724Y-115817166D01*
X163794683Y-115813649D01*
X163781054Y-115808772D01*
X163767969Y-115802583D01*
X163755553Y-115795142D01*
X163743927Y-115786519D01*
X163733202Y-115776798D01*
X163723481Y-115766073D01*
X163714858Y-115754447D01*
X163707417Y-115742031D01*
X163701228Y-115728946D01*
X163696351Y-115715317D01*
X163692834Y-115701276D01*
X163690710Y-115686958D01*
X163690000Y-115672500D01*
X163690000Y-115327500D01*
X163690710Y-115313042D01*
X163692834Y-115298724D01*
X163696351Y-115284683D01*
X163701228Y-115271054D01*
X163707417Y-115257969D01*
X163714858Y-115245553D01*
X163723481Y-115233927D01*
X163733202Y-115223202D01*
X163743927Y-115213481D01*
X163755553Y-115204858D01*
X163767969Y-115197417D01*
X163781054Y-115191228D01*
X163794683Y-115186351D01*
X163808724Y-115182834D01*
X163823042Y-115180710D01*
X163837500Y-115180000D01*
X164132500Y-115180000D01*
X164146958Y-115180710D01*
X164146958Y-115180710D01*
G37*
D11*
X163985000Y-115500000D03*
G04 #@! TD*
D10*
G04 #@! TO.C,C16*
G36*
X159146958Y-111180710D02*
X159161276Y-111182834D01*
X159175317Y-111186351D01*
X159188946Y-111191228D01*
X159202031Y-111197417D01*
X159214447Y-111204858D01*
X159226073Y-111213481D01*
X159236798Y-111223202D01*
X159246519Y-111233927D01*
X159255142Y-111245553D01*
X159262583Y-111257969D01*
X159268772Y-111271054D01*
X159273649Y-111284683D01*
X159277166Y-111298724D01*
X159279290Y-111313042D01*
X159280000Y-111327500D01*
X159280000Y-111672500D01*
X159279290Y-111686958D01*
X159277166Y-111701276D01*
X159273649Y-111715317D01*
X159268772Y-111728946D01*
X159262583Y-111742031D01*
X159255142Y-111754447D01*
X159246519Y-111766073D01*
X159236798Y-111776798D01*
X159226073Y-111786519D01*
X159214447Y-111795142D01*
X159202031Y-111802583D01*
X159188946Y-111808772D01*
X159175317Y-111813649D01*
X159161276Y-111817166D01*
X159146958Y-111819290D01*
X159132500Y-111820000D01*
X158837500Y-111820000D01*
X158823042Y-111819290D01*
X158808724Y-111817166D01*
X158794683Y-111813649D01*
X158781054Y-111808772D01*
X158767969Y-111802583D01*
X158755553Y-111795142D01*
X158743927Y-111786519D01*
X158733202Y-111776798D01*
X158723481Y-111766073D01*
X158714858Y-111754447D01*
X158707417Y-111742031D01*
X158701228Y-111728946D01*
X158696351Y-111715317D01*
X158692834Y-111701276D01*
X158690710Y-111686958D01*
X158690000Y-111672500D01*
X158690000Y-111327500D01*
X158690710Y-111313042D01*
X158692834Y-111298724D01*
X158696351Y-111284683D01*
X158701228Y-111271054D01*
X158707417Y-111257969D01*
X158714858Y-111245553D01*
X158723481Y-111233927D01*
X158733202Y-111223202D01*
X158743927Y-111213481D01*
X158755553Y-111204858D01*
X158767969Y-111197417D01*
X158781054Y-111191228D01*
X158794683Y-111186351D01*
X158808724Y-111182834D01*
X158823042Y-111180710D01*
X158837500Y-111180000D01*
X159132500Y-111180000D01*
X159146958Y-111180710D01*
X159146958Y-111180710D01*
G37*
D11*
X158985000Y-111500000D03*
D10*
G36*
X158176958Y-111180710D02*
X158191276Y-111182834D01*
X158205317Y-111186351D01*
X158218946Y-111191228D01*
X158232031Y-111197417D01*
X158244447Y-111204858D01*
X158256073Y-111213481D01*
X158266798Y-111223202D01*
X158276519Y-111233927D01*
X158285142Y-111245553D01*
X158292583Y-111257969D01*
X158298772Y-111271054D01*
X158303649Y-111284683D01*
X158307166Y-111298724D01*
X158309290Y-111313042D01*
X158310000Y-111327500D01*
X158310000Y-111672500D01*
X158309290Y-111686958D01*
X158307166Y-111701276D01*
X158303649Y-111715317D01*
X158298772Y-111728946D01*
X158292583Y-111742031D01*
X158285142Y-111754447D01*
X158276519Y-111766073D01*
X158266798Y-111776798D01*
X158256073Y-111786519D01*
X158244447Y-111795142D01*
X158232031Y-111802583D01*
X158218946Y-111808772D01*
X158205317Y-111813649D01*
X158191276Y-111817166D01*
X158176958Y-111819290D01*
X158162500Y-111820000D01*
X157867500Y-111820000D01*
X157853042Y-111819290D01*
X157838724Y-111817166D01*
X157824683Y-111813649D01*
X157811054Y-111808772D01*
X157797969Y-111802583D01*
X157785553Y-111795142D01*
X157773927Y-111786519D01*
X157763202Y-111776798D01*
X157753481Y-111766073D01*
X157744858Y-111754447D01*
X157737417Y-111742031D01*
X157731228Y-111728946D01*
X157726351Y-111715317D01*
X157722834Y-111701276D01*
X157720710Y-111686958D01*
X157720000Y-111672500D01*
X157720000Y-111327500D01*
X157720710Y-111313042D01*
X157722834Y-111298724D01*
X157726351Y-111284683D01*
X157731228Y-111271054D01*
X157737417Y-111257969D01*
X157744858Y-111245553D01*
X157753481Y-111233927D01*
X157763202Y-111223202D01*
X157773927Y-111213481D01*
X157785553Y-111204858D01*
X157797969Y-111197417D01*
X157811054Y-111191228D01*
X157824683Y-111186351D01*
X157838724Y-111182834D01*
X157853042Y-111180710D01*
X157867500Y-111180000D01*
X158162500Y-111180000D01*
X158176958Y-111180710D01*
X158176958Y-111180710D01*
G37*
D11*
X158015000Y-111500000D03*
G04 #@! TD*
D10*
G04 #@! TO.C,C22*
G36*
X141146958Y-97680710D02*
X141161276Y-97682834D01*
X141175317Y-97686351D01*
X141188946Y-97691228D01*
X141202031Y-97697417D01*
X141214447Y-97704858D01*
X141226073Y-97713481D01*
X141236798Y-97723202D01*
X141246519Y-97733927D01*
X141255142Y-97745553D01*
X141262583Y-97757969D01*
X141268772Y-97771054D01*
X141273649Y-97784683D01*
X141277166Y-97798724D01*
X141279290Y-97813042D01*
X141280000Y-97827500D01*
X141280000Y-98172500D01*
X141279290Y-98186958D01*
X141277166Y-98201276D01*
X141273649Y-98215317D01*
X141268772Y-98228946D01*
X141262583Y-98242031D01*
X141255142Y-98254447D01*
X141246519Y-98266073D01*
X141236798Y-98276798D01*
X141226073Y-98286519D01*
X141214447Y-98295142D01*
X141202031Y-98302583D01*
X141188946Y-98308772D01*
X141175317Y-98313649D01*
X141161276Y-98317166D01*
X141146958Y-98319290D01*
X141132500Y-98320000D01*
X140837500Y-98320000D01*
X140823042Y-98319290D01*
X140808724Y-98317166D01*
X140794683Y-98313649D01*
X140781054Y-98308772D01*
X140767969Y-98302583D01*
X140755553Y-98295142D01*
X140743927Y-98286519D01*
X140733202Y-98276798D01*
X140723481Y-98266073D01*
X140714858Y-98254447D01*
X140707417Y-98242031D01*
X140701228Y-98228946D01*
X140696351Y-98215317D01*
X140692834Y-98201276D01*
X140690710Y-98186958D01*
X140690000Y-98172500D01*
X140690000Y-97827500D01*
X140690710Y-97813042D01*
X140692834Y-97798724D01*
X140696351Y-97784683D01*
X140701228Y-97771054D01*
X140707417Y-97757969D01*
X140714858Y-97745553D01*
X140723481Y-97733927D01*
X140733202Y-97723202D01*
X140743927Y-97713481D01*
X140755553Y-97704858D01*
X140767969Y-97697417D01*
X140781054Y-97691228D01*
X140794683Y-97686351D01*
X140808724Y-97682834D01*
X140823042Y-97680710D01*
X140837500Y-97680000D01*
X141132500Y-97680000D01*
X141146958Y-97680710D01*
X141146958Y-97680710D01*
G37*
D11*
X140985000Y-98000000D03*
D10*
G36*
X140176958Y-97680710D02*
X140191276Y-97682834D01*
X140205317Y-97686351D01*
X140218946Y-97691228D01*
X140232031Y-97697417D01*
X140244447Y-97704858D01*
X140256073Y-97713481D01*
X140266798Y-97723202D01*
X140276519Y-97733927D01*
X140285142Y-97745553D01*
X140292583Y-97757969D01*
X140298772Y-97771054D01*
X140303649Y-97784683D01*
X140307166Y-97798724D01*
X140309290Y-97813042D01*
X140310000Y-97827500D01*
X140310000Y-98172500D01*
X140309290Y-98186958D01*
X140307166Y-98201276D01*
X140303649Y-98215317D01*
X140298772Y-98228946D01*
X140292583Y-98242031D01*
X140285142Y-98254447D01*
X140276519Y-98266073D01*
X140266798Y-98276798D01*
X140256073Y-98286519D01*
X140244447Y-98295142D01*
X140232031Y-98302583D01*
X140218946Y-98308772D01*
X140205317Y-98313649D01*
X140191276Y-98317166D01*
X140176958Y-98319290D01*
X140162500Y-98320000D01*
X139867500Y-98320000D01*
X139853042Y-98319290D01*
X139838724Y-98317166D01*
X139824683Y-98313649D01*
X139811054Y-98308772D01*
X139797969Y-98302583D01*
X139785553Y-98295142D01*
X139773927Y-98286519D01*
X139763202Y-98276798D01*
X139753481Y-98266073D01*
X139744858Y-98254447D01*
X139737417Y-98242031D01*
X139731228Y-98228946D01*
X139726351Y-98215317D01*
X139722834Y-98201276D01*
X139720710Y-98186958D01*
X139720000Y-98172500D01*
X139720000Y-97827500D01*
X139720710Y-97813042D01*
X139722834Y-97798724D01*
X139726351Y-97784683D01*
X139731228Y-97771054D01*
X139737417Y-97757969D01*
X139744858Y-97745553D01*
X139753481Y-97733927D01*
X139763202Y-97723202D01*
X139773927Y-97713481D01*
X139785553Y-97704858D01*
X139797969Y-97697417D01*
X139811054Y-97691228D01*
X139824683Y-97686351D01*
X139838724Y-97682834D01*
X139853042Y-97680710D01*
X139867500Y-97680000D01*
X140162500Y-97680000D01*
X140176958Y-97680710D01*
X140176958Y-97680710D01*
G37*
D11*
X140015000Y-98000000D03*
G04 #@! TD*
D10*
G04 #@! TO.C,C28*
G36*
X151676958Y-97680710D02*
X151691276Y-97682834D01*
X151705317Y-97686351D01*
X151718946Y-97691228D01*
X151732031Y-97697417D01*
X151744447Y-97704858D01*
X151756073Y-97713481D01*
X151766798Y-97723202D01*
X151776519Y-97733927D01*
X151785142Y-97745553D01*
X151792583Y-97757969D01*
X151798772Y-97771054D01*
X151803649Y-97784683D01*
X151807166Y-97798724D01*
X151809290Y-97813042D01*
X151810000Y-97827500D01*
X151810000Y-98172500D01*
X151809290Y-98186958D01*
X151807166Y-98201276D01*
X151803649Y-98215317D01*
X151798772Y-98228946D01*
X151792583Y-98242031D01*
X151785142Y-98254447D01*
X151776519Y-98266073D01*
X151766798Y-98276798D01*
X151756073Y-98286519D01*
X151744447Y-98295142D01*
X151732031Y-98302583D01*
X151718946Y-98308772D01*
X151705317Y-98313649D01*
X151691276Y-98317166D01*
X151676958Y-98319290D01*
X151662500Y-98320000D01*
X151367500Y-98320000D01*
X151353042Y-98319290D01*
X151338724Y-98317166D01*
X151324683Y-98313649D01*
X151311054Y-98308772D01*
X151297969Y-98302583D01*
X151285553Y-98295142D01*
X151273927Y-98286519D01*
X151263202Y-98276798D01*
X151253481Y-98266073D01*
X151244858Y-98254447D01*
X151237417Y-98242031D01*
X151231228Y-98228946D01*
X151226351Y-98215317D01*
X151222834Y-98201276D01*
X151220710Y-98186958D01*
X151220000Y-98172500D01*
X151220000Y-97827500D01*
X151220710Y-97813042D01*
X151222834Y-97798724D01*
X151226351Y-97784683D01*
X151231228Y-97771054D01*
X151237417Y-97757969D01*
X151244858Y-97745553D01*
X151253481Y-97733927D01*
X151263202Y-97723202D01*
X151273927Y-97713481D01*
X151285553Y-97704858D01*
X151297969Y-97697417D01*
X151311054Y-97691228D01*
X151324683Y-97686351D01*
X151338724Y-97682834D01*
X151353042Y-97680710D01*
X151367500Y-97680000D01*
X151662500Y-97680000D01*
X151676958Y-97680710D01*
X151676958Y-97680710D01*
G37*
D11*
X151515000Y-98000000D03*
D10*
G36*
X152646958Y-97680710D02*
X152661276Y-97682834D01*
X152675317Y-97686351D01*
X152688946Y-97691228D01*
X152702031Y-97697417D01*
X152714447Y-97704858D01*
X152726073Y-97713481D01*
X152736798Y-97723202D01*
X152746519Y-97733927D01*
X152755142Y-97745553D01*
X152762583Y-97757969D01*
X152768772Y-97771054D01*
X152773649Y-97784683D01*
X152777166Y-97798724D01*
X152779290Y-97813042D01*
X152780000Y-97827500D01*
X152780000Y-98172500D01*
X152779290Y-98186958D01*
X152777166Y-98201276D01*
X152773649Y-98215317D01*
X152768772Y-98228946D01*
X152762583Y-98242031D01*
X152755142Y-98254447D01*
X152746519Y-98266073D01*
X152736798Y-98276798D01*
X152726073Y-98286519D01*
X152714447Y-98295142D01*
X152702031Y-98302583D01*
X152688946Y-98308772D01*
X152675317Y-98313649D01*
X152661276Y-98317166D01*
X152646958Y-98319290D01*
X152632500Y-98320000D01*
X152337500Y-98320000D01*
X152323042Y-98319290D01*
X152308724Y-98317166D01*
X152294683Y-98313649D01*
X152281054Y-98308772D01*
X152267969Y-98302583D01*
X152255553Y-98295142D01*
X152243927Y-98286519D01*
X152233202Y-98276798D01*
X152223481Y-98266073D01*
X152214858Y-98254447D01*
X152207417Y-98242031D01*
X152201228Y-98228946D01*
X152196351Y-98215317D01*
X152192834Y-98201276D01*
X152190710Y-98186958D01*
X152190000Y-98172500D01*
X152190000Y-97827500D01*
X152190710Y-97813042D01*
X152192834Y-97798724D01*
X152196351Y-97784683D01*
X152201228Y-97771054D01*
X152207417Y-97757969D01*
X152214858Y-97745553D01*
X152223481Y-97733927D01*
X152233202Y-97723202D01*
X152243927Y-97713481D01*
X152255553Y-97704858D01*
X152267969Y-97697417D01*
X152281054Y-97691228D01*
X152294683Y-97686351D01*
X152308724Y-97682834D01*
X152323042Y-97680710D01*
X152337500Y-97680000D01*
X152632500Y-97680000D01*
X152646958Y-97680710D01*
X152646958Y-97680710D01*
G37*
D11*
X152485000Y-98000000D03*
G04 #@! TD*
D10*
G04 #@! TO.C,C29*
G36*
X147646958Y-93680710D02*
X147661276Y-93682834D01*
X147675317Y-93686351D01*
X147688946Y-93691228D01*
X147702031Y-93697417D01*
X147714447Y-93704858D01*
X147726073Y-93713481D01*
X147736798Y-93723202D01*
X147746519Y-93733927D01*
X147755142Y-93745553D01*
X147762583Y-93757969D01*
X147768772Y-93771054D01*
X147773649Y-93784683D01*
X147777166Y-93798724D01*
X147779290Y-93813042D01*
X147780000Y-93827500D01*
X147780000Y-94172500D01*
X147779290Y-94186958D01*
X147777166Y-94201276D01*
X147773649Y-94215317D01*
X147768772Y-94228946D01*
X147762583Y-94242031D01*
X147755142Y-94254447D01*
X147746519Y-94266073D01*
X147736798Y-94276798D01*
X147726073Y-94286519D01*
X147714447Y-94295142D01*
X147702031Y-94302583D01*
X147688946Y-94308772D01*
X147675317Y-94313649D01*
X147661276Y-94317166D01*
X147646958Y-94319290D01*
X147632500Y-94320000D01*
X147337500Y-94320000D01*
X147323042Y-94319290D01*
X147308724Y-94317166D01*
X147294683Y-94313649D01*
X147281054Y-94308772D01*
X147267969Y-94302583D01*
X147255553Y-94295142D01*
X147243927Y-94286519D01*
X147233202Y-94276798D01*
X147223481Y-94266073D01*
X147214858Y-94254447D01*
X147207417Y-94242031D01*
X147201228Y-94228946D01*
X147196351Y-94215317D01*
X147192834Y-94201276D01*
X147190710Y-94186958D01*
X147190000Y-94172500D01*
X147190000Y-93827500D01*
X147190710Y-93813042D01*
X147192834Y-93798724D01*
X147196351Y-93784683D01*
X147201228Y-93771054D01*
X147207417Y-93757969D01*
X147214858Y-93745553D01*
X147223481Y-93733927D01*
X147233202Y-93723202D01*
X147243927Y-93713481D01*
X147255553Y-93704858D01*
X147267969Y-93697417D01*
X147281054Y-93691228D01*
X147294683Y-93686351D01*
X147308724Y-93682834D01*
X147323042Y-93680710D01*
X147337500Y-93680000D01*
X147632500Y-93680000D01*
X147646958Y-93680710D01*
X147646958Y-93680710D01*
G37*
D11*
X147485000Y-94000000D03*
D10*
G36*
X146676958Y-93680710D02*
X146691276Y-93682834D01*
X146705317Y-93686351D01*
X146718946Y-93691228D01*
X146732031Y-93697417D01*
X146744447Y-93704858D01*
X146756073Y-93713481D01*
X146766798Y-93723202D01*
X146776519Y-93733927D01*
X146785142Y-93745553D01*
X146792583Y-93757969D01*
X146798772Y-93771054D01*
X146803649Y-93784683D01*
X146807166Y-93798724D01*
X146809290Y-93813042D01*
X146810000Y-93827500D01*
X146810000Y-94172500D01*
X146809290Y-94186958D01*
X146807166Y-94201276D01*
X146803649Y-94215317D01*
X146798772Y-94228946D01*
X146792583Y-94242031D01*
X146785142Y-94254447D01*
X146776519Y-94266073D01*
X146766798Y-94276798D01*
X146756073Y-94286519D01*
X146744447Y-94295142D01*
X146732031Y-94302583D01*
X146718946Y-94308772D01*
X146705317Y-94313649D01*
X146691276Y-94317166D01*
X146676958Y-94319290D01*
X146662500Y-94320000D01*
X146367500Y-94320000D01*
X146353042Y-94319290D01*
X146338724Y-94317166D01*
X146324683Y-94313649D01*
X146311054Y-94308772D01*
X146297969Y-94302583D01*
X146285553Y-94295142D01*
X146273927Y-94286519D01*
X146263202Y-94276798D01*
X146253481Y-94266073D01*
X146244858Y-94254447D01*
X146237417Y-94242031D01*
X146231228Y-94228946D01*
X146226351Y-94215317D01*
X146222834Y-94201276D01*
X146220710Y-94186958D01*
X146220000Y-94172500D01*
X146220000Y-93827500D01*
X146220710Y-93813042D01*
X146222834Y-93798724D01*
X146226351Y-93784683D01*
X146231228Y-93771054D01*
X146237417Y-93757969D01*
X146244858Y-93745553D01*
X146253481Y-93733927D01*
X146263202Y-93723202D01*
X146273927Y-93713481D01*
X146285553Y-93704858D01*
X146297969Y-93697417D01*
X146311054Y-93691228D01*
X146324683Y-93686351D01*
X146338724Y-93682834D01*
X146353042Y-93680710D01*
X146367500Y-93680000D01*
X146662500Y-93680000D01*
X146676958Y-93680710D01*
X146676958Y-93680710D01*
G37*
D11*
X146515000Y-94000000D03*
G04 #@! TD*
D10*
G04 #@! TO.C,C30*
G36*
X147686958Y-95220710D02*
X147701276Y-95222834D01*
X147715317Y-95226351D01*
X147728946Y-95231228D01*
X147742031Y-95237417D01*
X147754447Y-95244858D01*
X147766073Y-95253481D01*
X147776798Y-95263202D01*
X147786519Y-95273927D01*
X147795142Y-95285553D01*
X147802583Y-95297969D01*
X147808772Y-95311054D01*
X147813649Y-95324683D01*
X147817166Y-95338724D01*
X147819290Y-95353042D01*
X147820000Y-95367500D01*
X147820000Y-95662500D01*
X147819290Y-95676958D01*
X147817166Y-95691276D01*
X147813649Y-95705317D01*
X147808772Y-95718946D01*
X147802583Y-95732031D01*
X147795142Y-95744447D01*
X147786519Y-95756073D01*
X147776798Y-95766798D01*
X147766073Y-95776519D01*
X147754447Y-95785142D01*
X147742031Y-95792583D01*
X147728946Y-95798772D01*
X147715317Y-95803649D01*
X147701276Y-95807166D01*
X147686958Y-95809290D01*
X147672500Y-95810000D01*
X147327500Y-95810000D01*
X147313042Y-95809290D01*
X147298724Y-95807166D01*
X147284683Y-95803649D01*
X147271054Y-95798772D01*
X147257969Y-95792583D01*
X147245553Y-95785142D01*
X147233927Y-95776519D01*
X147223202Y-95766798D01*
X147213481Y-95756073D01*
X147204858Y-95744447D01*
X147197417Y-95732031D01*
X147191228Y-95718946D01*
X147186351Y-95705317D01*
X147182834Y-95691276D01*
X147180710Y-95676958D01*
X147180000Y-95662500D01*
X147180000Y-95367500D01*
X147180710Y-95353042D01*
X147182834Y-95338724D01*
X147186351Y-95324683D01*
X147191228Y-95311054D01*
X147197417Y-95297969D01*
X147204858Y-95285553D01*
X147213481Y-95273927D01*
X147223202Y-95263202D01*
X147233927Y-95253481D01*
X147245553Y-95244858D01*
X147257969Y-95237417D01*
X147271054Y-95231228D01*
X147284683Y-95226351D01*
X147298724Y-95222834D01*
X147313042Y-95220710D01*
X147327500Y-95220000D01*
X147672500Y-95220000D01*
X147686958Y-95220710D01*
X147686958Y-95220710D01*
G37*
D11*
X147500000Y-95515000D03*
D10*
G36*
X147686958Y-96190710D02*
X147701276Y-96192834D01*
X147715317Y-96196351D01*
X147728946Y-96201228D01*
X147742031Y-96207417D01*
X147754447Y-96214858D01*
X147766073Y-96223481D01*
X147776798Y-96233202D01*
X147786519Y-96243927D01*
X147795142Y-96255553D01*
X147802583Y-96267969D01*
X147808772Y-96281054D01*
X147813649Y-96294683D01*
X147817166Y-96308724D01*
X147819290Y-96323042D01*
X147820000Y-96337500D01*
X147820000Y-96632500D01*
X147819290Y-96646958D01*
X147817166Y-96661276D01*
X147813649Y-96675317D01*
X147808772Y-96688946D01*
X147802583Y-96702031D01*
X147795142Y-96714447D01*
X147786519Y-96726073D01*
X147776798Y-96736798D01*
X147766073Y-96746519D01*
X147754447Y-96755142D01*
X147742031Y-96762583D01*
X147728946Y-96768772D01*
X147715317Y-96773649D01*
X147701276Y-96777166D01*
X147686958Y-96779290D01*
X147672500Y-96780000D01*
X147327500Y-96780000D01*
X147313042Y-96779290D01*
X147298724Y-96777166D01*
X147284683Y-96773649D01*
X147271054Y-96768772D01*
X147257969Y-96762583D01*
X147245553Y-96755142D01*
X147233927Y-96746519D01*
X147223202Y-96736798D01*
X147213481Y-96726073D01*
X147204858Y-96714447D01*
X147197417Y-96702031D01*
X147191228Y-96688946D01*
X147186351Y-96675317D01*
X147182834Y-96661276D01*
X147180710Y-96646958D01*
X147180000Y-96632500D01*
X147180000Y-96337500D01*
X147180710Y-96323042D01*
X147182834Y-96308724D01*
X147186351Y-96294683D01*
X147191228Y-96281054D01*
X147197417Y-96267969D01*
X147204858Y-96255553D01*
X147213481Y-96243927D01*
X147223202Y-96233202D01*
X147233927Y-96223481D01*
X147245553Y-96214858D01*
X147257969Y-96207417D01*
X147271054Y-96201228D01*
X147284683Y-96196351D01*
X147298724Y-96192834D01*
X147313042Y-96190710D01*
X147327500Y-96190000D01*
X147672500Y-96190000D01*
X147686958Y-96190710D01*
X147686958Y-96190710D01*
G37*
D11*
X147500000Y-96485000D03*
G04 #@! TD*
D10*
G04 #@! TO.C,R1*
G36*
X137186958Y-113690710D02*
X137201276Y-113692834D01*
X137215317Y-113696351D01*
X137228946Y-113701228D01*
X137242031Y-113707417D01*
X137254447Y-113714858D01*
X137266073Y-113723481D01*
X137276798Y-113733202D01*
X137286519Y-113743927D01*
X137295142Y-113755553D01*
X137302583Y-113767969D01*
X137308772Y-113781054D01*
X137313649Y-113794683D01*
X137317166Y-113808724D01*
X137319290Y-113823042D01*
X137320000Y-113837500D01*
X137320000Y-114132500D01*
X137319290Y-114146958D01*
X137317166Y-114161276D01*
X137313649Y-114175317D01*
X137308772Y-114188946D01*
X137302583Y-114202031D01*
X137295142Y-114214447D01*
X137286519Y-114226073D01*
X137276798Y-114236798D01*
X137266073Y-114246519D01*
X137254447Y-114255142D01*
X137242031Y-114262583D01*
X137228946Y-114268772D01*
X137215317Y-114273649D01*
X137201276Y-114277166D01*
X137186958Y-114279290D01*
X137172500Y-114280000D01*
X136827500Y-114280000D01*
X136813042Y-114279290D01*
X136798724Y-114277166D01*
X136784683Y-114273649D01*
X136771054Y-114268772D01*
X136757969Y-114262583D01*
X136745553Y-114255142D01*
X136733927Y-114246519D01*
X136723202Y-114236798D01*
X136713481Y-114226073D01*
X136704858Y-114214447D01*
X136697417Y-114202031D01*
X136691228Y-114188946D01*
X136686351Y-114175317D01*
X136682834Y-114161276D01*
X136680710Y-114146958D01*
X136680000Y-114132500D01*
X136680000Y-113837500D01*
X136680710Y-113823042D01*
X136682834Y-113808724D01*
X136686351Y-113794683D01*
X136691228Y-113781054D01*
X136697417Y-113767969D01*
X136704858Y-113755553D01*
X136713481Y-113743927D01*
X136723202Y-113733202D01*
X136733927Y-113723481D01*
X136745553Y-113714858D01*
X136757969Y-113707417D01*
X136771054Y-113701228D01*
X136784683Y-113696351D01*
X136798724Y-113692834D01*
X136813042Y-113690710D01*
X136827500Y-113690000D01*
X137172500Y-113690000D01*
X137186958Y-113690710D01*
X137186958Y-113690710D01*
G37*
D11*
X137000000Y-113985000D03*
D10*
G36*
X137186958Y-112720710D02*
X137201276Y-112722834D01*
X137215317Y-112726351D01*
X137228946Y-112731228D01*
X137242031Y-112737417D01*
X137254447Y-112744858D01*
X137266073Y-112753481D01*
X137276798Y-112763202D01*
X137286519Y-112773927D01*
X137295142Y-112785553D01*
X137302583Y-112797969D01*
X137308772Y-112811054D01*
X137313649Y-112824683D01*
X137317166Y-112838724D01*
X137319290Y-112853042D01*
X137320000Y-112867500D01*
X137320000Y-113162500D01*
X137319290Y-113176958D01*
X137317166Y-113191276D01*
X137313649Y-113205317D01*
X137308772Y-113218946D01*
X137302583Y-113232031D01*
X137295142Y-113244447D01*
X137286519Y-113256073D01*
X137276798Y-113266798D01*
X137266073Y-113276519D01*
X137254447Y-113285142D01*
X137242031Y-113292583D01*
X137228946Y-113298772D01*
X137215317Y-113303649D01*
X137201276Y-113307166D01*
X137186958Y-113309290D01*
X137172500Y-113310000D01*
X136827500Y-113310000D01*
X136813042Y-113309290D01*
X136798724Y-113307166D01*
X136784683Y-113303649D01*
X136771054Y-113298772D01*
X136757969Y-113292583D01*
X136745553Y-113285142D01*
X136733927Y-113276519D01*
X136723202Y-113266798D01*
X136713481Y-113256073D01*
X136704858Y-113244447D01*
X136697417Y-113232031D01*
X136691228Y-113218946D01*
X136686351Y-113205317D01*
X136682834Y-113191276D01*
X136680710Y-113176958D01*
X136680000Y-113162500D01*
X136680000Y-112867500D01*
X136680710Y-112853042D01*
X136682834Y-112838724D01*
X136686351Y-112824683D01*
X136691228Y-112811054D01*
X136697417Y-112797969D01*
X136704858Y-112785553D01*
X136713481Y-112773927D01*
X136723202Y-112763202D01*
X136733927Y-112753481D01*
X136745553Y-112744858D01*
X136757969Y-112737417D01*
X136771054Y-112731228D01*
X136784683Y-112726351D01*
X136798724Y-112722834D01*
X136813042Y-112720710D01*
X136827500Y-112720000D01*
X137172500Y-112720000D01*
X137186958Y-112720710D01*
X137186958Y-112720710D01*
G37*
D11*
X137000000Y-113015000D03*
G04 #@! TD*
D10*
G04 #@! TO.C,R2*
G36*
X134186958Y-113690710D02*
X134201276Y-113692834D01*
X134215317Y-113696351D01*
X134228946Y-113701228D01*
X134242031Y-113707417D01*
X134254447Y-113714858D01*
X134266073Y-113723481D01*
X134276798Y-113733202D01*
X134286519Y-113743927D01*
X134295142Y-113755553D01*
X134302583Y-113767969D01*
X134308772Y-113781054D01*
X134313649Y-113794683D01*
X134317166Y-113808724D01*
X134319290Y-113823042D01*
X134320000Y-113837500D01*
X134320000Y-114132500D01*
X134319290Y-114146958D01*
X134317166Y-114161276D01*
X134313649Y-114175317D01*
X134308772Y-114188946D01*
X134302583Y-114202031D01*
X134295142Y-114214447D01*
X134286519Y-114226073D01*
X134276798Y-114236798D01*
X134266073Y-114246519D01*
X134254447Y-114255142D01*
X134242031Y-114262583D01*
X134228946Y-114268772D01*
X134215317Y-114273649D01*
X134201276Y-114277166D01*
X134186958Y-114279290D01*
X134172500Y-114280000D01*
X133827500Y-114280000D01*
X133813042Y-114279290D01*
X133798724Y-114277166D01*
X133784683Y-114273649D01*
X133771054Y-114268772D01*
X133757969Y-114262583D01*
X133745553Y-114255142D01*
X133733927Y-114246519D01*
X133723202Y-114236798D01*
X133713481Y-114226073D01*
X133704858Y-114214447D01*
X133697417Y-114202031D01*
X133691228Y-114188946D01*
X133686351Y-114175317D01*
X133682834Y-114161276D01*
X133680710Y-114146958D01*
X133680000Y-114132500D01*
X133680000Y-113837500D01*
X133680710Y-113823042D01*
X133682834Y-113808724D01*
X133686351Y-113794683D01*
X133691228Y-113781054D01*
X133697417Y-113767969D01*
X133704858Y-113755553D01*
X133713481Y-113743927D01*
X133723202Y-113733202D01*
X133733927Y-113723481D01*
X133745553Y-113714858D01*
X133757969Y-113707417D01*
X133771054Y-113701228D01*
X133784683Y-113696351D01*
X133798724Y-113692834D01*
X133813042Y-113690710D01*
X133827500Y-113690000D01*
X134172500Y-113690000D01*
X134186958Y-113690710D01*
X134186958Y-113690710D01*
G37*
D11*
X134000000Y-113985000D03*
D10*
G36*
X134186958Y-112720710D02*
X134201276Y-112722834D01*
X134215317Y-112726351D01*
X134228946Y-112731228D01*
X134242031Y-112737417D01*
X134254447Y-112744858D01*
X134266073Y-112753481D01*
X134276798Y-112763202D01*
X134286519Y-112773927D01*
X134295142Y-112785553D01*
X134302583Y-112797969D01*
X134308772Y-112811054D01*
X134313649Y-112824683D01*
X134317166Y-112838724D01*
X134319290Y-112853042D01*
X134320000Y-112867500D01*
X134320000Y-113162500D01*
X134319290Y-113176958D01*
X134317166Y-113191276D01*
X134313649Y-113205317D01*
X134308772Y-113218946D01*
X134302583Y-113232031D01*
X134295142Y-113244447D01*
X134286519Y-113256073D01*
X134276798Y-113266798D01*
X134266073Y-113276519D01*
X134254447Y-113285142D01*
X134242031Y-113292583D01*
X134228946Y-113298772D01*
X134215317Y-113303649D01*
X134201276Y-113307166D01*
X134186958Y-113309290D01*
X134172500Y-113310000D01*
X133827500Y-113310000D01*
X133813042Y-113309290D01*
X133798724Y-113307166D01*
X133784683Y-113303649D01*
X133771054Y-113298772D01*
X133757969Y-113292583D01*
X133745553Y-113285142D01*
X133733927Y-113276519D01*
X133723202Y-113266798D01*
X133713481Y-113256073D01*
X133704858Y-113244447D01*
X133697417Y-113232031D01*
X133691228Y-113218946D01*
X133686351Y-113205317D01*
X133682834Y-113191276D01*
X133680710Y-113176958D01*
X133680000Y-113162500D01*
X133680000Y-112867500D01*
X133680710Y-112853042D01*
X133682834Y-112838724D01*
X133686351Y-112824683D01*
X133691228Y-112811054D01*
X133697417Y-112797969D01*
X133704858Y-112785553D01*
X133713481Y-112773927D01*
X133723202Y-112763202D01*
X133733927Y-112753481D01*
X133745553Y-112744858D01*
X133757969Y-112737417D01*
X133771054Y-112731228D01*
X133784683Y-112726351D01*
X133798724Y-112722834D01*
X133813042Y-112720710D01*
X133827500Y-112720000D01*
X134172500Y-112720000D01*
X134186958Y-112720710D01*
X134186958Y-112720710D01*
G37*
D11*
X134000000Y-113015000D03*
G04 #@! TD*
D10*
G04 #@! TO.C,R3*
G36*
X140186958Y-113690710D02*
X140201276Y-113692834D01*
X140215317Y-113696351D01*
X140228946Y-113701228D01*
X140242031Y-113707417D01*
X140254447Y-113714858D01*
X140266073Y-113723481D01*
X140276798Y-113733202D01*
X140286519Y-113743927D01*
X140295142Y-113755553D01*
X140302583Y-113767969D01*
X140308772Y-113781054D01*
X140313649Y-113794683D01*
X140317166Y-113808724D01*
X140319290Y-113823042D01*
X140320000Y-113837500D01*
X140320000Y-114132500D01*
X140319290Y-114146958D01*
X140317166Y-114161276D01*
X140313649Y-114175317D01*
X140308772Y-114188946D01*
X140302583Y-114202031D01*
X140295142Y-114214447D01*
X140286519Y-114226073D01*
X140276798Y-114236798D01*
X140266073Y-114246519D01*
X140254447Y-114255142D01*
X140242031Y-114262583D01*
X140228946Y-114268772D01*
X140215317Y-114273649D01*
X140201276Y-114277166D01*
X140186958Y-114279290D01*
X140172500Y-114280000D01*
X139827500Y-114280000D01*
X139813042Y-114279290D01*
X139798724Y-114277166D01*
X139784683Y-114273649D01*
X139771054Y-114268772D01*
X139757969Y-114262583D01*
X139745553Y-114255142D01*
X139733927Y-114246519D01*
X139723202Y-114236798D01*
X139713481Y-114226073D01*
X139704858Y-114214447D01*
X139697417Y-114202031D01*
X139691228Y-114188946D01*
X139686351Y-114175317D01*
X139682834Y-114161276D01*
X139680710Y-114146958D01*
X139680000Y-114132500D01*
X139680000Y-113837500D01*
X139680710Y-113823042D01*
X139682834Y-113808724D01*
X139686351Y-113794683D01*
X139691228Y-113781054D01*
X139697417Y-113767969D01*
X139704858Y-113755553D01*
X139713481Y-113743927D01*
X139723202Y-113733202D01*
X139733927Y-113723481D01*
X139745553Y-113714858D01*
X139757969Y-113707417D01*
X139771054Y-113701228D01*
X139784683Y-113696351D01*
X139798724Y-113692834D01*
X139813042Y-113690710D01*
X139827500Y-113690000D01*
X140172500Y-113690000D01*
X140186958Y-113690710D01*
X140186958Y-113690710D01*
G37*
D11*
X140000000Y-113985000D03*
D10*
G36*
X140186958Y-112720710D02*
X140201276Y-112722834D01*
X140215317Y-112726351D01*
X140228946Y-112731228D01*
X140242031Y-112737417D01*
X140254447Y-112744858D01*
X140266073Y-112753481D01*
X140276798Y-112763202D01*
X140286519Y-112773927D01*
X140295142Y-112785553D01*
X140302583Y-112797969D01*
X140308772Y-112811054D01*
X140313649Y-112824683D01*
X140317166Y-112838724D01*
X140319290Y-112853042D01*
X140320000Y-112867500D01*
X140320000Y-113162500D01*
X140319290Y-113176958D01*
X140317166Y-113191276D01*
X140313649Y-113205317D01*
X140308772Y-113218946D01*
X140302583Y-113232031D01*
X140295142Y-113244447D01*
X140286519Y-113256073D01*
X140276798Y-113266798D01*
X140266073Y-113276519D01*
X140254447Y-113285142D01*
X140242031Y-113292583D01*
X140228946Y-113298772D01*
X140215317Y-113303649D01*
X140201276Y-113307166D01*
X140186958Y-113309290D01*
X140172500Y-113310000D01*
X139827500Y-113310000D01*
X139813042Y-113309290D01*
X139798724Y-113307166D01*
X139784683Y-113303649D01*
X139771054Y-113298772D01*
X139757969Y-113292583D01*
X139745553Y-113285142D01*
X139733927Y-113276519D01*
X139723202Y-113266798D01*
X139713481Y-113256073D01*
X139704858Y-113244447D01*
X139697417Y-113232031D01*
X139691228Y-113218946D01*
X139686351Y-113205317D01*
X139682834Y-113191276D01*
X139680710Y-113176958D01*
X139680000Y-113162500D01*
X139680000Y-112867500D01*
X139680710Y-112853042D01*
X139682834Y-112838724D01*
X139686351Y-112824683D01*
X139691228Y-112811054D01*
X139697417Y-112797969D01*
X139704858Y-112785553D01*
X139713481Y-112773927D01*
X139723202Y-112763202D01*
X139733927Y-112753481D01*
X139745553Y-112744858D01*
X139757969Y-112737417D01*
X139771054Y-112731228D01*
X139784683Y-112726351D01*
X139798724Y-112722834D01*
X139813042Y-112720710D01*
X139827500Y-112720000D01*
X140172500Y-112720000D01*
X140186958Y-112720710D01*
X140186958Y-112720710D01*
G37*
D11*
X140000000Y-113015000D03*
G04 #@! TD*
D10*
G04 #@! TO.C,R4*
G36*
X139186958Y-112720710D02*
X139201276Y-112722834D01*
X139215317Y-112726351D01*
X139228946Y-112731228D01*
X139242031Y-112737417D01*
X139254447Y-112744858D01*
X139266073Y-112753481D01*
X139276798Y-112763202D01*
X139286519Y-112773927D01*
X139295142Y-112785553D01*
X139302583Y-112797969D01*
X139308772Y-112811054D01*
X139313649Y-112824683D01*
X139317166Y-112838724D01*
X139319290Y-112853042D01*
X139320000Y-112867500D01*
X139320000Y-113162500D01*
X139319290Y-113176958D01*
X139317166Y-113191276D01*
X139313649Y-113205317D01*
X139308772Y-113218946D01*
X139302583Y-113232031D01*
X139295142Y-113244447D01*
X139286519Y-113256073D01*
X139276798Y-113266798D01*
X139266073Y-113276519D01*
X139254447Y-113285142D01*
X139242031Y-113292583D01*
X139228946Y-113298772D01*
X139215317Y-113303649D01*
X139201276Y-113307166D01*
X139186958Y-113309290D01*
X139172500Y-113310000D01*
X138827500Y-113310000D01*
X138813042Y-113309290D01*
X138798724Y-113307166D01*
X138784683Y-113303649D01*
X138771054Y-113298772D01*
X138757969Y-113292583D01*
X138745553Y-113285142D01*
X138733927Y-113276519D01*
X138723202Y-113266798D01*
X138713481Y-113256073D01*
X138704858Y-113244447D01*
X138697417Y-113232031D01*
X138691228Y-113218946D01*
X138686351Y-113205317D01*
X138682834Y-113191276D01*
X138680710Y-113176958D01*
X138680000Y-113162500D01*
X138680000Y-112867500D01*
X138680710Y-112853042D01*
X138682834Y-112838724D01*
X138686351Y-112824683D01*
X138691228Y-112811054D01*
X138697417Y-112797969D01*
X138704858Y-112785553D01*
X138713481Y-112773927D01*
X138723202Y-112763202D01*
X138733927Y-112753481D01*
X138745553Y-112744858D01*
X138757969Y-112737417D01*
X138771054Y-112731228D01*
X138784683Y-112726351D01*
X138798724Y-112722834D01*
X138813042Y-112720710D01*
X138827500Y-112720000D01*
X139172500Y-112720000D01*
X139186958Y-112720710D01*
X139186958Y-112720710D01*
G37*
D11*
X139000000Y-113015000D03*
D10*
G36*
X139186958Y-113690710D02*
X139201276Y-113692834D01*
X139215317Y-113696351D01*
X139228946Y-113701228D01*
X139242031Y-113707417D01*
X139254447Y-113714858D01*
X139266073Y-113723481D01*
X139276798Y-113733202D01*
X139286519Y-113743927D01*
X139295142Y-113755553D01*
X139302583Y-113767969D01*
X139308772Y-113781054D01*
X139313649Y-113794683D01*
X139317166Y-113808724D01*
X139319290Y-113823042D01*
X139320000Y-113837500D01*
X139320000Y-114132500D01*
X139319290Y-114146958D01*
X139317166Y-114161276D01*
X139313649Y-114175317D01*
X139308772Y-114188946D01*
X139302583Y-114202031D01*
X139295142Y-114214447D01*
X139286519Y-114226073D01*
X139276798Y-114236798D01*
X139266073Y-114246519D01*
X139254447Y-114255142D01*
X139242031Y-114262583D01*
X139228946Y-114268772D01*
X139215317Y-114273649D01*
X139201276Y-114277166D01*
X139186958Y-114279290D01*
X139172500Y-114280000D01*
X138827500Y-114280000D01*
X138813042Y-114279290D01*
X138798724Y-114277166D01*
X138784683Y-114273649D01*
X138771054Y-114268772D01*
X138757969Y-114262583D01*
X138745553Y-114255142D01*
X138733927Y-114246519D01*
X138723202Y-114236798D01*
X138713481Y-114226073D01*
X138704858Y-114214447D01*
X138697417Y-114202031D01*
X138691228Y-114188946D01*
X138686351Y-114175317D01*
X138682834Y-114161276D01*
X138680710Y-114146958D01*
X138680000Y-114132500D01*
X138680000Y-113837500D01*
X138680710Y-113823042D01*
X138682834Y-113808724D01*
X138686351Y-113794683D01*
X138691228Y-113781054D01*
X138697417Y-113767969D01*
X138704858Y-113755553D01*
X138713481Y-113743927D01*
X138723202Y-113733202D01*
X138733927Y-113723481D01*
X138745553Y-113714858D01*
X138757969Y-113707417D01*
X138771054Y-113701228D01*
X138784683Y-113696351D01*
X138798724Y-113692834D01*
X138813042Y-113690710D01*
X138827500Y-113690000D01*
X139172500Y-113690000D01*
X139186958Y-113690710D01*
X139186958Y-113690710D01*
G37*
D11*
X139000000Y-113985000D03*
G04 #@! TD*
D10*
G04 #@! TO.C,R5*
G36*
X148676958Y-112680710D02*
X148691276Y-112682834D01*
X148705317Y-112686351D01*
X148718946Y-112691228D01*
X148732031Y-112697417D01*
X148744447Y-112704858D01*
X148756073Y-112713481D01*
X148766798Y-112723202D01*
X148776519Y-112733927D01*
X148785142Y-112745553D01*
X148792583Y-112757969D01*
X148798772Y-112771054D01*
X148803649Y-112784683D01*
X148807166Y-112798724D01*
X148809290Y-112813042D01*
X148810000Y-112827500D01*
X148810000Y-113172500D01*
X148809290Y-113186958D01*
X148807166Y-113201276D01*
X148803649Y-113215317D01*
X148798772Y-113228946D01*
X148792583Y-113242031D01*
X148785142Y-113254447D01*
X148776519Y-113266073D01*
X148766798Y-113276798D01*
X148756073Y-113286519D01*
X148744447Y-113295142D01*
X148732031Y-113302583D01*
X148718946Y-113308772D01*
X148705317Y-113313649D01*
X148691276Y-113317166D01*
X148676958Y-113319290D01*
X148662500Y-113320000D01*
X148367500Y-113320000D01*
X148353042Y-113319290D01*
X148338724Y-113317166D01*
X148324683Y-113313649D01*
X148311054Y-113308772D01*
X148297969Y-113302583D01*
X148285553Y-113295142D01*
X148273927Y-113286519D01*
X148263202Y-113276798D01*
X148253481Y-113266073D01*
X148244858Y-113254447D01*
X148237417Y-113242031D01*
X148231228Y-113228946D01*
X148226351Y-113215317D01*
X148222834Y-113201276D01*
X148220710Y-113186958D01*
X148220000Y-113172500D01*
X148220000Y-112827500D01*
X148220710Y-112813042D01*
X148222834Y-112798724D01*
X148226351Y-112784683D01*
X148231228Y-112771054D01*
X148237417Y-112757969D01*
X148244858Y-112745553D01*
X148253481Y-112733927D01*
X148263202Y-112723202D01*
X148273927Y-112713481D01*
X148285553Y-112704858D01*
X148297969Y-112697417D01*
X148311054Y-112691228D01*
X148324683Y-112686351D01*
X148338724Y-112682834D01*
X148353042Y-112680710D01*
X148367500Y-112680000D01*
X148662500Y-112680000D01*
X148676958Y-112680710D01*
X148676958Y-112680710D01*
G37*
D11*
X148515000Y-113000000D03*
D10*
G36*
X149646958Y-112680710D02*
X149661276Y-112682834D01*
X149675317Y-112686351D01*
X149688946Y-112691228D01*
X149702031Y-112697417D01*
X149714447Y-112704858D01*
X149726073Y-112713481D01*
X149736798Y-112723202D01*
X149746519Y-112733927D01*
X149755142Y-112745553D01*
X149762583Y-112757969D01*
X149768772Y-112771054D01*
X149773649Y-112784683D01*
X149777166Y-112798724D01*
X149779290Y-112813042D01*
X149780000Y-112827500D01*
X149780000Y-113172500D01*
X149779290Y-113186958D01*
X149777166Y-113201276D01*
X149773649Y-113215317D01*
X149768772Y-113228946D01*
X149762583Y-113242031D01*
X149755142Y-113254447D01*
X149746519Y-113266073D01*
X149736798Y-113276798D01*
X149726073Y-113286519D01*
X149714447Y-113295142D01*
X149702031Y-113302583D01*
X149688946Y-113308772D01*
X149675317Y-113313649D01*
X149661276Y-113317166D01*
X149646958Y-113319290D01*
X149632500Y-113320000D01*
X149337500Y-113320000D01*
X149323042Y-113319290D01*
X149308724Y-113317166D01*
X149294683Y-113313649D01*
X149281054Y-113308772D01*
X149267969Y-113302583D01*
X149255553Y-113295142D01*
X149243927Y-113286519D01*
X149233202Y-113276798D01*
X149223481Y-113266073D01*
X149214858Y-113254447D01*
X149207417Y-113242031D01*
X149201228Y-113228946D01*
X149196351Y-113215317D01*
X149192834Y-113201276D01*
X149190710Y-113186958D01*
X149190000Y-113172500D01*
X149190000Y-112827500D01*
X149190710Y-112813042D01*
X149192834Y-112798724D01*
X149196351Y-112784683D01*
X149201228Y-112771054D01*
X149207417Y-112757969D01*
X149214858Y-112745553D01*
X149223481Y-112733927D01*
X149233202Y-112723202D01*
X149243927Y-112713481D01*
X149255553Y-112704858D01*
X149267969Y-112697417D01*
X149281054Y-112691228D01*
X149294683Y-112686351D01*
X149308724Y-112682834D01*
X149323042Y-112680710D01*
X149337500Y-112680000D01*
X149632500Y-112680000D01*
X149646958Y-112680710D01*
X149646958Y-112680710D01*
G37*
D11*
X149485000Y-113000000D03*
G04 #@! TD*
D10*
G04 #@! TO.C,R6*
G36*
X150676958Y-112680710D02*
X150691276Y-112682834D01*
X150705317Y-112686351D01*
X150718946Y-112691228D01*
X150732031Y-112697417D01*
X150744447Y-112704858D01*
X150756073Y-112713481D01*
X150766798Y-112723202D01*
X150776519Y-112733927D01*
X150785142Y-112745553D01*
X150792583Y-112757969D01*
X150798772Y-112771054D01*
X150803649Y-112784683D01*
X150807166Y-112798724D01*
X150809290Y-112813042D01*
X150810000Y-112827500D01*
X150810000Y-113172500D01*
X150809290Y-113186958D01*
X150807166Y-113201276D01*
X150803649Y-113215317D01*
X150798772Y-113228946D01*
X150792583Y-113242031D01*
X150785142Y-113254447D01*
X150776519Y-113266073D01*
X150766798Y-113276798D01*
X150756073Y-113286519D01*
X150744447Y-113295142D01*
X150732031Y-113302583D01*
X150718946Y-113308772D01*
X150705317Y-113313649D01*
X150691276Y-113317166D01*
X150676958Y-113319290D01*
X150662500Y-113320000D01*
X150367500Y-113320000D01*
X150353042Y-113319290D01*
X150338724Y-113317166D01*
X150324683Y-113313649D01*
X150311054Y-113308772D01*
X150297969Y-113302583D01*
X150285553Y-113295142D01*
X150273927Y-113286519D01*
X150263202Y-113276798D01*
X150253481Y-113266073D01*
X150244858Y-113254447D01*
X150237417Y-113242031D01*
X150231228Y-113228946D01*
X150226351Y-113215317D01*
X150222834Y-113201276D01*
X150220710Y-113186958D01*
X150220000Y-113172500D01*
X150220000Y-112827500D01*
X150220710Y-112813042D01*
X150222834Y-112798724D01*
X150226351Y-112784683D01*
X150231228Y-112771054D01*
X150237417Y-112757969D01*
X150244858Y-112745553D01*
X150253481Y-112733927D01*
X150263202Y-112723202D01*
X150273927Y-112713481D01*
X150285553Y-112704858D01*
X150297969Y-112697417D01*
X150311054Y-112691228D01*
X150324683Y-112686351D01*
X150338724Y-112682834D01*
X150353042Y-112680710D01*
X150367500Y-112680000D01*
X150662500Y-112680000D01*
X150676958Y-112680710D01*
X150676958Y-112680710D01*
G37*
D11*
X150515000Y-113000000D03*
D10*
G36*
X151646958Y-112680710D02*
X151661276Y-112682834D01*
X151675317Y-112686351D01*
X151688946Y-112691228D01*
X151702031Y-112697417D01*
X151714447Y-112704858D01*
X151726073Y-112713481D01*
X151736798Y-112723202D01*
X151746519Y-112733927D01*
X151755142Y-112745553D01*
X151762583Y-112757969D01*
X151768772Y-112771054D01*
X151773649Y-112784683D01*
X151777166Y-112798724D01*
X151779290Y-112813042D01*
X151780000Y-112827500D01*
X151780000Y-113172500D01*
X151779290Y-113186958D01*
X151777166Y-113201276D01*
X151773649Y-113215317D01*
X151768772Y-113228946D01*
X151762583Y-113242031D01*
X151755142Y-113254447D01*
X151746519Y-113266073D01*
X151736798Y-113276798D01*
X151726073Y-113286519D01*
X151714447Y-113295142D01*
X151702031Y-113302583D01*
X151688946Y-113308772D01*
X151675317Y-113313649D01*
X151661276Y-113317166D01*
X151646958Y-113319290D01*
X151632500Y-113320000D01*
X151337500Y-113320000D01*
X151323042Y-113319290D01*
X151308724Y-113317166D01*
X151294683Y-113313649D01*
X151281054Y-113308772D01*
X151267969Y-113302583D01*
X151255553Y-113295142D01*
X151243927Y-113286519D01*
X151233202Y-113276798D01*
X151223481Y-113266073D01*
X151214858Y-113254447D01*
X151207417Y-113242031D01*
X151201228Y-113228946D01*
X151196351Y-113215317D01*
X151192834Y-113201276D01*
X151190710Y-113186958D01*
X151190000Y-113172500D01*
X151190000Y-112827500D01*
X151190710Y-112813042D01*
X151192834Y-112798724D01*
X151196351Y-112784683D01*
X151201228Y-112771054D01*
X151207417Y-112757969D01*
X151214858Y-112745553D01*
X151223481Y-112733927D01*
X151233202Y-112723202D01*
X151243927Y-112713481D01*
X151255553Y-112704858D01*
X151267969Y-112697417D01*
X151281054Y-112691228D01*
X151294683Y-112686351D01*
X151308724Y-112682834D01*
X151323042Y-112680710D01*
X151337500Y-112680000D01*
X151632500Y-112680000D01*
X151646958Y-112680710D01*
X151646958Y-112680710D01*
G37*
D11*
X151485000Y-113000000D03*
G04 #@! TD*
D10*
G04 #@! TO.C,R7*
G36*
X148676958Y-113680710D02*
X148691276Y-113682834D01*
X148705317Y-113686351D01*
X148718946Y-113691228D01*
X148732031Y-113697417D01*
X148744447Y-113704858D01*
X148756073Y-113713481D01*
X148766798Y-113723202D01*
X148776519Y-113733927D01*
X148785142Y-113745553D01*
X148792583Y-113757969D01*
X148798772Y-113771054D01*
X148803649Y-113784683D01*
X148807166Y-113798724D01*
X148809290Y-113813042D01*
X148810000Y-113827500D01*
X148810000Y-114172500D01*
X148809290Y-114186958D01*
X148807166Y-114201276D01*
X148803649Y-114215317D01*
X148798772Y-114228946D01*
X148792583Y-114242031D01*
X148785142Y-114254447D01*
X148776519Y-114266073D01*
X148766798Y-114276798D01*
X148756073Y-114286519D01*
X148744447Y-114295142D01*
X148732031Y-114302583D01*
X148718946Y-114308772D01*
X148705317Y-114313649D01*
X148691276Y-114317166D01*
X148676958Y-114319290D01*
X148662500Y-114320000D01*
X148367500Y-114320000D01*
X148353042Y-114319290D01*
X148338724Y-114317166D01*
X148324683Y-114313649D01*
X148311054Y-114308772D01*
X148297969Y-114302583D01*
X148285553Y-114295142D01*
X148273927Y-114286519D01*
X148263202Y-114276798D01*
X148253481Y-114266073D01*
X148244858Y-114254447D01*
X148237417Y-114242031D01*
X148231228Y-114228946D01*
X148226351Y-114215317D01*
X148222834Y-114201276D01*
X148220710Y-114186958D01*
X148220000Y-114172500D01*
X148220000Y-113827500D01*
X148220710Y-113813042D01*
X148222834Y-113798724D01*
X148226351Y-113784683D01*
X148231228Y-113771054D01*
X148237417Y-113757969D01*
X148244858Y-113745553D01*
X148253481Y-113733927D01*
X148263202Y-113723202D01*
X148273927Y-113713481D01*
X148285553Y-113704858D01*
X148297969Y-113697417D01*
X148311054Y-113691228D01*
X148324683Y-113686351D01*
X148338724Y-113682834D01*
X148353042Y-113680710D01*
X148367500Y-113680000D01*
X148662500Y-113680000D01*
X148676958Y-113680710D01*
X148676958Y-113680710D01*
G37*
D11*
X148515000Y-114000000D03*
D10*
G36*
X149646958Y-113680710D02*
X149661276Y-113682834D01*
X149675317Y-113686351D01*
X149688946Y-113691228D01*
X149702031Y-113697417D01*
X149714447Y-113704858D01*
X149726073Y-113713481D01*
X149736798Y-113723202D01*
X149746519Y-113733927D01*
X149755142Y-113745553D01*
X149762583Y-113757969D01*
X149768772Y-113771054D01*
X149773649Y-113784683D01*
X149777166Y-113798724D01*
X149779290Y-113813042D01*
X149780000Y-113827500D01*
X149780000Y-114172500D01*
X149779290Y-114186958D01*
X149777166Y-114201276D01*
X149773649Y-114215317D01*
X149768772Y-114228946D01*
X149762583Y-114242031D01*
X149755142Y-114254447D01*
X149746519Y-114266073D01*
X149736798Y-114276798D01*
X149726073Y-114286519D01*
X149714447Y-114295142D01*
X149702031Y-114302583D01*
X149688946Y-114308772D01*
X149675317Y-114313649D01*
X149661276Y-114317166D01*
X149646958Y-114319290D01*
X149632500Y-114320000D01*
X149337500Y-114320000D01*
X149323042Y-114319290D01*
X149308724Y-114317166D01*
X149294683Y-114313649D01*
X149281054Y-114308772D01*
X149267969Y-114302583D01*
X149255553Y-114295142D01*
X149243927Y-114286519D01*
X149233202Y-114276798D01*
X149223481Y-114266073D01*
X149214858Y-114254447D01*
X149207417Y-114242031D01*
X149201228Y-114228946D01*
X149196351Y-114215317D01*
X149192834Y-114201276D01*
X149190710Y-114186958D01*
X149190000Y-114172500D01*
X149190000Y-113827500D01*
X149190710Y-113813042D01*
X149192834Y-113798724D01*
X149196351Y-113784683D01*
X149201228Y-113771054D01*
X149207417Y-113757969D01*
X149214858Y-113745553D01*
X149223481Y-113733927D01*
X149233202Y-113723202D01*
X149243927Y-113713481D01*
X149255553Y-113704858D01*
X149267969Y-113697417D01*
X149281054Y-113691228D01*
X149294683Y-113686351D01*
X149308724Y-113682834D01*
X149323042Y-113680710D01*
X149337500Y-113680000D01*
X149632500Y-113680000D01*
X149646958Y-113680710D01*
X149646958Y-113680710D01*
G37*
D11*
X149485000Y-114000000D03*
G04 #@! TD*
D10*
G04 #@! TO.C,R8*
G36*
X152686958Y-113690710D02*
X152701276Y-113692834D01*
X152715317Y-113696351D01*
X152728946Y-113701228D01*
X152742031Y-113707417D01*
X152754447Y-113714858D01*
X152766073Y-113723481D01*
X152776798Y-113733202D01*
X152786519Y-113743927D01*
X152795142Y-113755553D01*
X152802583Y-113767969D01*
X152808772Y-113781054D01*
X152813649Y-113794683D01*
X152817166Y-113808724D01*
X152819290Y-113823042D01*
X152820000Y-113837500D01*
X152820000Y-114132500D01*
X152819290Y-114146958D01*
X152817166Y-114161276D01*
X152813649Y-114175317D01*
X152808772Y-114188946D01*
X152802583Y-114202031D01*
X152795142Y-114214447D01*
X152786519Y-114226073D01*
X152776798Y-114236798D01*
X152766073Y-114246519D01*
X152754447Y-114255142D01*
X152742031Y-114262583D01*
X152728946Y-114268772D01*
X152715317Y-114273649D01*
X152701276Y-114277166D01*
X152686958Y-114279290D01*
X152672500Y-114280000D01*
X152327500Y-114280000D01*
X152313042Y-114279290D01*
X152298724Y-114277166D01*
X152284683Y-114273649D01*
X152271054Y-114268772D01*
X152257969Y-114262583D01*
X152245553Y-114255142D01*
X152233927Y-114246519D01*
X152223202Y-114236798D01*
X152213481Y-114226073D01*
X152204858Y-114214447D01*
X152197417Y-114202031D01*
X152191228Y-114188946D01*
X152186351Y-114175317D01*
X152182834Y-114161276D01*
X152180710Y-114146958D01*
X152180000Y-114132500D01*
X152180000Y-113837500D01*
X152180710Y-113823042D01*
X152182834Y-113808724D01*
X152186351Y-113794683D01*
X152191228Y-113781054D01*
X152197417Y-113767969D01*
X152204858Y-113755553D01*
X152213481Y-113743927D01*
X152223202Y-113733202D01*
X152233927Y-113723481D01*
X152245553Y-113714858D01*
X152257969Y-113707417D01*
X152271054Y-113701228D01*
X152284683Y-113696351D01*
X152298724Y-113692834D01*
X152313042Y-113690710D01*
X152327500Y-113690000D01*
X152672500Y-113690000D01*
X152686958Y-113690710D01*
X152686958Y-113690710D01*
G37*
D11*
X152500000Y-113985000D03*
D10*
G36*
X152686958Y-112720710D02*
X152701276Y-112722834D01*
X152715317Y-112726351D01*
X152728946Y-112731228D01*
X152742031Y-112737417D01*
X152754447Y-112744858D01*
X152766073Y-112753481D01*
X152776798Y-112763202D01*
X152786519Y-112773927D01*
X152795142Y-112785553D01*
X152802583Y-112797969D01*
X152808772Y-112811054D01*
X152813649Y-112824683D01*
X152817166Y-112838724D01*
X152819290Y-112853042D01*
X152820000Y-112867500D01*
X152820000Y-113162500D01*
X152819290Y-113176958D01*
X152817166Y-113191276D01*
X152813649Y-113205317D01*
X152808772Y-113218946D01*
X152802583Y-113232031D01*
X152795142Y-113244447D01*
X152786519Y-113256073D01*
X152776798Y-113266798D01*
X152766073Y-113276519D01*
X152754447Y-113285142D01*
X152742031Y-113292583D01*
X152728946Y-113298772D01*
X152715317Y-113303649D01*
X152701276Y-113307166D01*
X152686958Y-113309290D01*
X152672500Y-113310000D01*
X152327500Y-113310000D01*
X152313042Y-113309290D01*
X152298724Y-113307166D01*
X152284683Y-113303649D01*
X152271054Y-113298772D01*
X152257969Y-113292583D01*
X152245553Y-113285142D01*
X152233927Y-113276519D01*
X152223202Y-113266798D01*
X152213481Y-113256073D01*
X152204858Y-113244447D01*
X152197417Y-113232031D01*
X152191228Y-113218946D01*
X152186351Y-113205317D01*
X152182834Y-113191276D01*
X152180710Y-113176958D01*
X152180000Y-113162500D01*
X152180000Y-112867500D01*
X152180710Y-112853042D01*
X152182834Y-112838724D01*
X152186351Y-112824683D01*
X152191228Y-112811054D01*
X152197417Y-112797969D01*
X152204858Y-112785553D01*
X152213481Y-112773927D01*
X152223202Y-112763202D01*
X152233927Y-112753481D01*
X152245553Y-112744858D01*
X152257969Y-112737417D01*
X152271054Y-112731228D01*
X152284683Y-112726351D01*
X152298724Y-112722834D01*
X152313042Y-112720710D01*
X152327500Y-112720000D01*
X152672500Y-112720000D01*
X152686958Y-112720710D01*
X152686958Y-112720710D01*
G37*
D11*
X152500000Y-113015000D03*
G04 #@! TD*
D10*
G04 #@! TO.C,R9*
G36*
X159186958Y-113690710D02*
X159201276Y-113692834D01*
X159215317Y-113696351D01*
X159228946Y-113701228D01*
X159242031Y-113707417D01*
X159254447Y-113714858D01*
X159266073Y-113723481D01*
X159276798Y-113733202D01*
X159286519Y-113743927D01*
X159295142Y-113755553D01*
X159302583Y-113767969D01*
X159308772Y-113781054D01*
X159313649Y-113794683D01*
X159317166Y-113808724D01*
X159319290Y-113823042D01*
X159320000Y-113837500D01*
X159320000Y-114132500D01*
X159319290Y-114146958D01*
X159317166Y-114161276D01*
X159313649Y-114175317D01*
X159308772Y-114188946D01*
X159302583Y-114202031D01*
X159295142Y-114214447D01*
X159286519Y-114226073D01*
X159276798Y-114236798D01*
X159266073Y-114246519D01*
X159254447Y-114255142D01*
X159242031Y-114262583D01*
X159228946Y-114268772D01*
X159215317Y-114273649D01*
X159201276Y-114277166D01*
X159186958Y-114279290D01*
X159172500Y-114280000D01*
X158827500Y-114280000D01*
X158813042Y-114279290D01*
X158798724Y-114277166D01*
X158784683Y-114273649D01*
X158771054Y-114268772D01*
X158757969Y-114262583D01*
X158745553Y-114255142D01*
X158733927Y-114246519D01*
X158723202Y-114236798D01*
X158713481Y-114226073D01*
X158704858Y-114214447D01*
X158697417Y-114202031D01*
X158691228Y-114188946D01*
X158686351Y-114175317D01*
X158682834Y-114161276D01*
X158680710Y-114146958D01*
X158680000Y-114132500D01*
X158680000Y-113837500D01*
X158680710Y-113823042D01*
X158682834Y-113808724D01*
X158686351Y-113794683D01*
X158691228Y-113781054D01*
X158697417Y-113767969D01*
X158704858Y-113755553D01*
X158713481Y-113743927D01*
X158723202Y-113733202D01*
X158733927Y-113723481D01*
X158745553Y-113714858D01*
X158757969Y-113707417D01*
X158771054Y-113701228D01*
X158784683Y-113696351D01*
X158798724Y-113692834D01*
X158813042Y-113690710D01*
X158827500Y-113690000D01*
X159172500Y-113690000D01*
X159186958Y-113690710D01*
X159186958Y-113690710D01*
G37*
D11*
X159000000Y-113985000D03*
D10*
G36*
X159186958Y-112720710D02*
X159201276Y-112722834D01*
X159215317Y-112726351D01*
X159228946Y-112731228D01*
X159242031Y-112737417D01*
X159254447Y-112744858D01*
X159266073Y-112753481D01*
X159276798Y-112763202D01*
X159286519Y-112773927D01*
X159295142Y-112785553D01*
X159302583Y-112797969D01*
X159308772Y-112811054D01*
X159313649Y-112824683D01*
X159317166Y-112838724D01*
X159319290Y-112853042D01*
X159320000Y-112867500D01*
X159320000Y-113162500D01*
X159319290Y-113176958D01*
X159317166Y-113191276D01*
X159313649Y-113205317D01*
X159308772Y-113218946D01*
X159302583Y-113232031D01*
X159295142Y-113244447D01*
X159286519Y-113256073D01*
X159276798Y-113266798D01*
X159266073Y-113276519D01*
X159254447Y-113285142D01*
X159242031Y-113292583D01*
X159228946Y-113298772D01*
X159215317Y-113303649D01*
X159201276Y-113307166D01*
X159186958Y-113309290D01*
X159172500Y-113310000D01*
X158827500Y-113310000D01*
X158813042Y-113309290D01*
X158798724Y-113307166D01*
X158784683Y-113303649D01*
X158771054Y-113298772D01*
X158757969Y-113292583D01*
X158745553Y-113285142D01*
X158733927Y-113276519D01*
X158723202Y-113266798D01*
X158713481Y-113256073D01*
X158704858Y-113244447D01*
X158697417Y-113232031D01*
X158691228Y-113218946D01*
X158686351Y-113205317D01*
X158682834Y-113191276D01*
X158680710Y-113176958D01*
X158680000Y-113162500D01*
X158680000Y-112867500D01*
X158680710Y-112853042D01*
X158682834Y-112838724D01*
X158686351Y-112824683D01*
X158691228Y-112811054D01*
X158697417Y-112797969D01*
X158704858Y-112785553D01*
X158713481Y-112773927D01*
X158723202Y-112763202D01*
X158733927Y-112753481D01*
X158745553Y-112744858D01*
X158757969Y-112737417D01*
X158771054Y-112731228D01*
X158784683Y-112726351D01*
X158798724Y-112722834D01*
X158813042Y-112720710D01*
X158827500Y-112720000D01*
X159172500Y-112720000D01*
X159186958Y-112720710D01*
X159186958Y-112720710D01*
G37*
D11*
X159000000Y-113015000D03*
G04 #@! TD*
D10*
G04 #@! TO.C,R10*
G36*
X164146958Y-111680710D02*
X164161276Y-111682834D01*
X164175317Y-111686351D01*
X164188946Y-111691228D01*
X164202031Y-111697417D01*
X164214447Y-111704858D01*
X164226073Y-111713481D01*
X164236798Y-111723202D01*
X164246519Y-111733927D01*
X164255142Y-111745553D01*
X164262583Y-111757969D01*
X164268772Y-111771054D01*
X164273649Y-111784683D01*
X164277166Y-111798724D01*
X164279290Y-111813042D01*
X164280000Y-111827500D01*
X164280000Y-112172500D01*
X164279290Y-112186958D01*
X164277166Y-112201276D01*
X164273649Y-112215317D01*
X164268772Y-112228946D01*
X164262583Y-112242031D01*
X164255142Y-112254447D01*
X164246519Y-112266073D01*
X164236798Y-112276798D01*
X164226073Y-112286519D01*
X164214447Y-112295142D01*
X164202031Y-112302583D01*
X164188946Y-112308772D01*
X164175317Y-112313649D01*
X164161276Y-112317166D01*
X164146958Y-112319290D01*
X164132500Y-112320000D01*
X163837500Y-112320000D01*
X163823042Y-112319290D01*
X163808724Y-112317166D01*
X163794683Y-112313649D01*
X163781054Y-112308772D01*
X163767969Y-112302583D01*
X163755553Y-112295142D01*
X163743927Y-112286519D01*
X163733202Y-112276798D01*
X163723481Y-112266073D01*
X163714858Y-112254447D01*
X163707417Y-112242031D01*
X163701228Y-112228946D01*
X163696351Y-112215317D01*
X163692834Y-112201276D01*
X163690710Y-112186958D01*
X163690000Y-112172500D01*
X163690000Y-111827500D01*
X163690710Y-111813042D01*
X163692834Y-111798724D01*
X163696351Y-111784683D01*
X163701228Y-111771054D01*
X163707417Y-111757969D01*
X163714858Y-111745553D01*
X163723481Y-111733927D01*
X163733202Y-111723202D01*
X163743927Y-111713481D01*
X163755553Y-111704858D01*
X163767969Y-111697417D01*
X163781054Y-111691228D01*
X163794683Y-111686351D01*
X163808724Y-111682834D01*
X163823042Y-111680710D01*
X163837500Y-111680000D01*
X164132500Y-111680000D01*
X164146958Y-111680710D01*
X164146958Y-111680710D01*
G37*
D11*
X163985000Y-112000000D03*
D10*
G36*
X163176958Y-111680710D02*
X163191276Y-111682834D01*
X163205317Y-111686351D01*
X163218946Y-111691228D01*
X163232031Y-111697417D01*
X163244447Y-111704858D01*
X163256073Y-111713481D01*
X163266798Y-111723202D01*
X163276519Y-111733927D01*
X163285142Y-111745553D01*
X163292583Y-111757969D01*
X163298772Y-111771054D01*
X163303649Y-111784683D01*
X163307166Y-111798724D01*
X163309290Y-111813042D01*
X163310000Y-111827500D01*
X163310000Y-112172500D01*
X163309290Y-112186958D01*
X163307166Y-112201276D01*
X163303649Y-112215317D01*
X163298772Y-112228946D01*
X163292583Y-112242031D01*
X163285142Y-112254447D01*
X163276519Y-112266073D01*
X163266798Y-112276798D01*
X163256073Y-112286519D01*
X163244447Y-112295142D01*
X163232031Y-112302583D01*
X163218946Y-112308772D01*
X163205317Y-112313649D01*
X163191276Y-112317166D01*
X163176958Y-112319290D01*
X163162500Y-112320000D01*
X162867500Y-112320000D01*
X162853042Y-112319290D01*
X162838724Y-112317166D01*
X162824683Y-112313649D01*
X162811054Y-112308772D01*
X162797969Y-112302583D01*
X162785553Y-112295142D01*
X162773927Y-112286519D01*
X162763202Y-112276798D01*
X162753481Y-112266073D01*
X162744858Y-112254447D01*
X162737417Y-112242031D01*
X162731228Y-112228946D01*
X162726351Y-112215317D01*
X162722834Y-112201276D01*
X162720710Y-112186958D01*
X162720000Y-112172500D01*
X162720000Y-111827500D01*
X162720710Y-111813042D01*
X162722834Y-111798724D01*
X162726351Y-111784683D01*
X162731228Y-111771054D01*
X162737417Y-111757969D01*
X162744858Y-111745553D01*
X162753481Y-111733927D01*
X162763202Y-111723202D01*
X162773927Y-111713481D01*
X162785553Y-111704858D01*
X162797969Y-111697417D01*
X162811054Y-111691228D01*
X162824683Y-111686351D01*
X162838724Y-111682834D01*
X162853042Y-111680710D01*
X162867500Y-111680000D01*
X163162500Y-111680000D01*
X163176958Y-111680710D01*
X163176958Y-111680710D01*
G37*
D11*
X163015000Y-112000000D03*
G04 #@! TD*
D10*
G04 #@! TO.C,R11*
G36*
X163176958Y-112680710D02*
X163191276Y-112682834D01*
X163205317Y-112686351D01*
X163218946Y-112691228D01*
X163232031Y-112697417D01*
X163244447Y-112704858D01*
X163256073Y-112713481D01*
X163266798Y-112723202D01*
X163276519Y-112733927D01*
X163285142Y-112745553D01*
X163292583Y-112757969D01*
X163298772Y-112771054D01*
X163303649Y-112784683D01*
X163307166Y-112798724D01*
X163309290Y-112813042D01*
X163310000Y-112827500D01*
X163310000Y-113172500D01*
X163309290Y-113186958D01*
X163307166Y-113201276D01*
X163303649Y-113215317D01*
X163298772Y-113228946D01*
X163292583Y-113242031D01*
X163285142Y-113254447D01*
X163276519Y-113266073D01*
X163266798Y-113276798D01*
X163256073Y-113286519D01*
X163244447Y-113295142D01*
X163232031Y-113302583D01*
X163218946Y-113308772D01*
X163205317Y-113313649D01*
X163191276Y-113317166D01*
X163176958Y-113319290D01*
X163162500Y-113320000D01*
X162867500Y-113320000D01*
X162853042Y-113319290D01*
X162838724Y-113317166D01*
X162824683Y-113313649D01*
X162811054Y-113308772D01*
X162797969Y-113302583D01*
X162785553Y-113295142D01*
X162773927Y-113286519D01*
X162763202Y-113276798D01*
X162753481Y-113266073D01*
X162744858Y-113254447D01*
X162737417Y-113242031D01*
X162731228Y-113228946D01*
X162726351Y-113215317D01*
X162722834Y-113201276D01*
X162720710Y-113186958D01*
X162720000Y-113172500D01*
X162720000Y-112827500D01*
X162720710Y-112813042D01*
X162722834Y-112798724D01*
X162726351Y-112784683D01*
X162731228Y-112771054D01*
X162737417Y-112757969D01*
X162744858Y-112745553D01*
X162753481Y-112733927D01*
X162763202Y-112723202D01*
X162773927Y-112713481D01*
X162785553Y-112704858D01*
X162797969Y-112697417D01*
X162811054Y-112691228D01*
X162824683Y-112686351D01*
X162838724Y-112682834D01*
X162853042Y-112680710D01*
X162867500Y-112680000D01*
X163162500Y-112680000D01*
X163176958Y-112680710D01*
X163176958Y-112680710D01*
G37*
D11*
X163015000Y-113000000D03*
D10*
G36*
X164146958Y-112680710D02*
X164161276Y-112682834D01*
X164175317Y-112686351D01*
X164188946Y-112691228D01*
X164202031Y-112697417D01*
X164214447Y-112704858D01*
X164226073Y-112713481D01*
X164236798Y-112723202D01*
X164246519Y-112733927D01*
X164255142Y-112745553D01*
X164262583Y-112757969D01*
X164268772Y-112771054D01*
X164273649Y-112784683D01*
X164277166Y-112798724D01*
X164279290Y-112813042D01*
X164280000Y-112827500D01*
X164280000Y-113172500D01*
X164279290Y-113186958D01*
X164277166Y-113201276D01*
X164273649Y-113215317D01*
X164268772Y-113228946D01*
X164262583Y-113242031D01*
X164255142Y-113254447D01*
X164246519Y-113266073D01*
X164236798Y-113276798D01*
X164226073Y-113286519D01*
X164214447Y-113295142D01*
X164202031Y-113302583D01*
X164188946Y-113308772D01*
X164175317Y-113313649D01*
X164161276Y-113317166D01*
X164146958Y-113319290D01*
X164132500Y-113320000D01*
X163837500Y-113320000D01*
X163823042Y-113319290D01*
X163808724Y-113317166D01*
X163794683Y-113313649D01*
X163781054Y-113308772D01*
X163767969Y-113302583D01*
X163755553Y-113295142D01*
X163743927Y-113286519D01*
X163733202Y-113276798D01*
X163723481Y-113266073D01*
X163714858Y-113254447D01*
X163707417Y-113242031D01*
X163701228Y-113228946D01*
X163696351Y-113215317D01*
X163692834Y-113201276D01*
X163690710Y-113186958D01*
X163690000Y-113172500D01*
X163690000Y-112827500D01*
X163690710Y-112813042D01*
X163692834Y-112798724D01*
X163696351Y-112784683D01*
X163701228Y-112771054D01*
X163707417Y-112757969D01*
X163714858Y-112745553D01*
X163723481Y-112733927D01*
X163733202Y-112723202D01*
X163743927Y-112713481D01*
X163755553Y-112704858D01*
X163767969Y-112697417D01*
X163781054Y-112691228D01*
X163794683Y-112686351D01*
X163808724Y-112682834D01*
X163823042Y-112680710D01*
X163837500Y-112680000D01*
X164132500Y-112680000D01*
X164146958Y-112680710D01*
X164146958Y-112680710D01*
G37*
D11*
X163985000Y-113000000D03*
G04 #@! TD*
D10*
G04 #@! TO.C,R12*
G36*
X162186958Y-113690710D02*
X162201276Y-113692834D01*
X162215317Y-113696351D01*
X162228946Y-113701228D01*
X162242031Y-113707417D01*
X162254447Y-113714858D01*
X162266073Y-113723481D01*
X162276798Y-113733202D01*
X162286519Y-113743927D01*
X162295142Y-113755553D01*
X162302583Y-113767969D01*
X162308772Y-113781054D01*
X162313649Y-113794683D01*
X162317166Y-113808724D01*
X162319290Y-113823042D01*
X162320000Y-113837500D01*
X162320000Y-114132500D01*
X162319290Y-114146958D01*
X162317166Y-114161276D01*
X162313649Y-114175317D01*
X162308772Y-114188946D01*
X162302583Y-114202031D01*
X162295142Y-114214447D01*
X162286519Y-114226073D01*
X162276798Y-114236798D01*
X162266073Y-114246519D01*
X162254447Y-114255142D01*
X162242031Y-114262583D01*
X162228946Y-114268772D01*
X162215317Y-114273649D01*
X162201276Y-114277166D01*
X162186958Y-114279290D01*
X162172500Y-114280000D01*
X161827500Y-114280000D01*
X161813042Y-114279290D01*
X161798724Y-114277166D01*
X161784683Y-114273649D01*
X161771054Y-114268772D01*
X161757969Y-114262583D01*
X161745553Y-114255142D01*
X161733927Y-114246519D01*
X161723202Y-114236798D01*
X161713481Y-114226073D01*
X161704858Y-114214447D01*
X161697417Y-114202031D01*
X161691228Y-114188946D01*
X161686351Y-114175317D01*
X161682834Y-114161276D01*
X161680710Y-114146958D01*
X161680000Y-114132500D01*
X161680000Y-113837500D01*
X161680710Y-113823042D01*
X161682834Y-113808724D01*
X161686351Y-113794683D01*
X161691228Y-113781054D01*
X161697417Y-113767969D01*
X161704858Y-113755553D01*
X161713481Y-113743927D01*
X161723202Y-113733202D01*
X161733927Y-113723481D01*
X161745553Y-113714858D01*
X161757969Y-113707417D01*
X161771054Y-113701228D01*
X161784683Y-113696351D01*
X161798724Y-113692834D01*
X161813042Y-113690710D01*
X161827500Y-113690000D01*
X162172500Y-113690000D01*
X162186958Y-113690710D01*
X162186958Y-113690710D01*
G37*
D11*
X162000000Y-113985000D03*
D10*
G36*
X162186958Y-112720710D02*
X162201276Y-112722834D01*
X162215317Y-112726351D01*
X162228946Y-112731228D01*
X162242031Y-112737417D01*
X162254447Y-112744858D01*
X162266073Y-112753481D01*
X162276798Y-112763202D01*
X162286519Y-112773927D01*
X162295142Y-112785553D01*
X162302583Y-112797969D01*
X162308772Y-112811054D01*
X162313649Y-112824683D01*
X162317166Y-112838724D01*
X162319290Y-112853042D01*
X162320000Y-112867500D01*
X162320000Y-113162500D01*
X162319290Y-113176958D01*
X162317166Y-113191276D01*
X162313649Y-113205317D01*
X162308772Y-113218946D01*
X162302583Y-113232031D01*
X162295142Y-113244447D01*
X162286519Y-113256073D01*
X162276798Y-113266798D01*
X162266073Y-113276519D01*
X162254447Y-113285142D01*
X162242031Y-113292583D01*
X162228946Y-113298772D01*
X162215317Y-113303649D01*
X162201276Y-113307166D01*
X162186958Y-113309290D01*
X162172500Y-113310000D01*
X161827500Y-113310000D01*
X161813042Y-113309290D01*
X161798724Y-113307166D01*
X161784683Y-113303649D01*
X161771054Y-113298772D01*
X161757969Y-113292583D01*
X161745553Y-113285142D01*
X161733927Y-113276519D01*
X161723202Y-113266798D01*
X161713481Y-113256073D01*
X161704858Y-113244447D01*
X161697417Y-113232031D01*
X161691228Y-113218946D01*
X161686351Y-113205317D01*
X161682834Y-113191276D01*
X161680710Y-113176958D01*
X161680000Y-113162500D01*
X161680000Y-112867500D01*
X161680710Y-112853042D01*
X161682834Y-112838724D01*
X161686351Y-112824683D01*
X161691228Y-112811054D01*
X161697417Y-112797969D01*
X161704858Y-112785553D01*
X161713481Y-112773927D01*
X161723202Y-112763202D01*
X161733927Y-112753481D01*
X161745553Y-112744858D01*
X161757969Y-112737417D01*
X161771054Y-112731228D01*
X161784683Y-112726351D01*
X161798724Y-112722834D01*
X161813042Y-112720710D01*
X161827500Y-112720000D01*
X162172500Y-112720000D01*
X162186958Y-112720710D01*
X162186958Y-112720710D01*
G37*
D11*
X162000000Y-113015000D03*
G04 #@! TD*
D10*
G04 #@! TO.C,R13*
G36*
X161186958Y-112720710D02*
X161201276Y-112722834D01*
X161215317Y-112726351D01*
X161228946Y-112731228D01*
X161242031Y-112737417D01*
X161254447Y-112744858D01*
X161266073Y-112753481D01*
X161276798Y-112763202D01*
X161286519Y-112773927D01*
X161295142Y-112785553D01*
X161302583Y-112797969D01*
X161308772Y-112811054D01*
X161313649Y-112824683D01*
X161317166Y-112838724D01*
X161319290Y-112853042D01*
X161320000Y-112867500D01*
X161320000Y-113162500D01*
X161319290Y-113176958D01*
X161317166Y-113191276D01*
X161313649Y-113205317D01*
X161308772Y-113218946D01*
X161302583Y-113232031D01*
X161295142Y-113244447D01*
X161286519Y-113256073D01*
X161276798Y-113266798D01*
X161266073Y-113276519D01*
X161254447Y-113285142D01*
X161242031Y-113292583D01*
X161228946Y-113298772D01*
X161215317Y-113303649D01*
X161201276Y-113307166D01*
X161186958Y-113309290D01*
X161172500Y-113310000D01*
X160827500Y-113310000D01*
X160813042Y-113309290D01*
X160798724Y-113307166D01*
X160784683Y-113303649D01*
X160771054Y-113298772D01*
X160757969Y-113292583D01*
X160745553Y-113285142D01*
X160733927Y-113276519D01*
X160723202Y-113266798D01*
X160713481Y-113256073D01*
X160704858Y-113244447D01*
X160697417Y-113232031D01*
X160691228Y-113218946D01*
X160686351Y-113205317D01*
X160682834Y-113191276D01*
X160680710Y-113176958D01*
X160680000Y-113162500D01*
X160680000Y-112867500D01*
X160680710Y-112853042D01*
X160682834Y-112838724D01*
X160686351Y-112824683D01*
X160691228Y-112811054D01*
X160697417Y-112797969D01*
X160704858Y-112785553D01*
X160713481Y-112773927D01*
X160723202Y-112763202D01*
X160733927Y-112753481D01*
X160745553Y-112744858D01*
X160757969Y-112737417D01*
X160771054Y-112731228D01*
X160784683Y-112726351D01*
X160798724Y-112722834D01*
X160813042Y-112720710D01*
X160827500Y-112720000D01*
X161172500Y-112720000D01*
X161186958Y-112720710D01*
X161186958Y-112720710D01*
G37*
D11*
X161000000Y-113015000D03*
D10*
G36*
X161186958Y-113690710D02*
X161201276Y-113692834D01*
X161215317Y-113696351D01*
X161228946Y-113701228D01*
X161242031Y-113707417D01*
X161254447Y-113714858D01*
X161266073Y-113723481D01*
X161276798Y-113733202D01*
X161286519Y-113743927D01*
X161295142Y-113755553D01*
X161302583Y-113767969D01*
X161308772Y-113781054D01*
X161313649Y-113794683D01*
X161317166Y-113808724D01*
X161319290Y-113823042D01*
X161320000Y-113837500D01*
X161320000Y-114132500D01*
X161319290Y-114146958D01*
X161317166Y-114161276D01*
X161313649Y-114175317D01*
X161308772Y-114188946D01*
X161302583Y-114202031D01*
X161295142Y-114214447D01*
X161286519Y-114226073D01*
X161276798Y-114236798D01*
X161266073Y-114246519D01*
X161254447Y-114255142D01*
X161242031Y-114262583D01*
X161228946Y-114268772D01*
X161215317Y-114273649D01*
X161201276Y-114277166D01*
X161186958Y-114279290D01*
X161172500Y-114280000D01*
X160827500Y-114280000D01*
X160813042Y-114279290D01*
X160798724Y-114277166D01*
X160784683Y-114273649D01*
X160771054Y-114268772D01*
X160757969Y-114262583D01*
X160745553Y-114255142D01*
X160733927Y-114246519D01*
X160723202Y-114236798D01*
X160713481Y-114226073D01*
X160704858Y-114214447D01*
X160697417Y-114202031D01*
X160691228Y-114188946D01*
X160686351Y-114175317D01*
X160682834Y-114161276D01*
X160680710Y-114146958D01*
X160680000Y-114132500D01*
X160680000Y-113837500D01*
X160680710Y-113823042D01*
X160682834Y-113808724D01*
X160686351Y-113794683D01*
X160691228Y-113781054D01*
X160697417Y-113767969D01*
X160704858Y-113755553D01*
X160713481Y-113743927D01*
X160723202Y-113733202D01*
X160733927Y-113723481D01*
X160745553Y-113714858D01*
X160757969Y-113707417D01*
X160771054Y-113701228D01*
X160784683Y-113696351D01*
X160798724Y-113692834D01*
X160813042Y-113690710D01*
X160827500Y-113690000D01*
X161172500Y-113690000D01*
X161186958Y-113690710D01*
X161186958Y-113690710D01*
G37*
D11*
X161000000Y-113985000D03*
G04 #@! TD*
D10*
G04 #@! TO.C,R14*
G36*
X137186958Y-95220710D02*
X137201276Y-95222834D01*
X137215317Y-95226351D01*
X137228946Y-95231228D01*
X137242031Y-95237417D01*
X137254447Y-95244858D01*
X137266073Y-95253481D01*
X137276798Y-95263202D01*
X137286519Y-95273927D01*
X137295142Y-95285553D01*
X137302583Y-95297969D01*
X137308772Y-95311054D01*
X137313649Y-95324683D01*
X137317166Y-95338724D01*
X137319290Y-95353042D01*
X137320000Y-95367500D01*
X137320000Y-95662500D01*
X137319290Y-95676958D01*
X137317166Y-95691276D01*
X137313649Y-95705317D01*
X137308772Y-95718946D01*
X137302583Y-95732031D01*
X137295142Y-95744447D01*
X137286519Y-95756073D01*
X137276798Y-95766798D01*
X137266073Y-95776519D01*
X137254447Y-95785142D01*
X137242031Y-95792583D01*
X137228946Y-95798772D01*
X137215317Y-95803649D01*
X137201276Y-95807166D01*
X137186958Y-95809290D01*
X137172500Y-95810000D01*
X136827500Y-95810000D01*
X136813042Y-95809290D01*
X136798724Y-95807166D01*
X136784683Y-95803649D01*
X136771054Y-95798772D01*
X136757969Y-95792583D01*
X136745553Y-95785142D01*
X136733927Y-95776519D01*
X136723202Y-95766798D01*
X136713481Y-95756073D01*
X136704858Y-95744447D01*
X136697417Y-95732031D01*
X136691228Y-95718946D01*
X136686351Y-95705317D01*
X136682834Y-95691276D01*
X136680710Y-95676958D01*
X136680000Y-95662500D01*
X136680000Y-95367500D01*
X136680710Y-95353042D01*
X136682834Y-95338724D01*
X136686351Y-95324683D01*
X136691228Y-95311054D01*
X136697417Y-95297969D01*
X136704858Y-95285553D01*
X136713481Y-95273927D01*
X136723202Y-95263202D01*
X136733927Y-95253481D01*
X136745553Y-95244858D01*
X136757969Y-95237417D01*
X136771054Y-95231228D01*
X136784683Y-95226351D01*
X136798724Y-95222834D01*
X136813042Y-95220710D01*
X136827500Y-95220000D01*
X137172500Y-95220000D01*
X137186958Y-95220710D01*
X137186958Y-95220710D01*
G37*
D11*
X137000000Y-95515000D03*
D10*
G36*
X137186958Y-96190710D02*
X137201276Y-96192834D01*
X137215317Y-96196351D01*
X137228946Y-96201228D01*
X137242031Y-96207417D01*
X137254447Y-96214858D01*
X137266073Y-96223481D01*
X137276798Y-96233202D01*
X137286519Y-96243927D01*
X137295142Y-96255553D01*
X137302583Y-96267969D01*
X137308772Y-96281054D01*
X137313649Y-96294683D01*
X137317166Y-96308724D01*
X137319290Y-96323042D01*
X137320000Y-96337500D01*
X137320000Y-96632500D01*
X137319290Y-96646958D01*
X137317166Y-96661276D01*
X137313649Y-96675317D01*
X137308772Y-96688946D01*
X137302583Y-96702031D01*
X137295142Y-96714447D01*
X137286519Y-96726073D01*
X137276798Y-96736798D01*
X137266073Y-96746519D01*
X137254447Y-96755142D01*
X137242031Y-96762583D01*
X137228946Y-96768772D01*
X137215317Y-96773649D01*
X137201276Y-96777166D01*
X137186958Y-96779290D01*
X137172500Y-96780000D01*
X136827500Y-96780000D01*
X136813042Y-96779290D01*
X136798724Y-96777166D01*
X136784683Y-96773649D01*
X136771054Y-96768772D01*
X136757969Y-96762583D01*
X136745553Y-96755142D01*
X136733927Y-96746519D01*
X136723202Y-96736798D01*
X136713481Y-96726073D01*
X136704858Y-96714447D01*
X136697417Y-96702031D01*
X136691228Y-96688946D01*
X136686351Y-96675317D01*
X136682834Y-96661276D01*
X136680710Y-96646958D01*
X136680000Y-96632500D01*
X136680000Y-96337500D01*
X136680710Y-96323042D01*
X136682834Y-96308724D01*
X136686351Y-96294683D01*
X136691228Y-96281054D01*
X136697417Y-96267969D01*
X136704858Y-96255553D01*
X136713481Y-96243927D01*
X136723202Y-96233202D01*
X136733927Y-96223481D01*
X136745553Y-96214858D01*
X136757969Y-96207417D01*
X136771054Y-96201228D01*
X136784683Y-96196351D01*
X136798724Y-96192834D01*
X136813042Y-96190710D01*
X136827500Y-96190000D01*
X137172500Y-96190000D01*
X137186958Y-96190710D01*
X137186958Y-96190710D01*
G37*
D11*
X137000000Y-96485000D03*
G04 #@! TD*
D10*
G04 #@! TO.C,R15*
G36*
X134186958Y-95220710D02*
X134201276Y-95222834D01*
X134215317Y-95226351D01*
X134228946Y-95231228D01*
X134242031Y-95237417D01*
X134254447Y-95244858D01*
X134266073Y-95253481D01*
X134276798Y-95263202D01*
X134286519Y-95273927D01*
X134295142Y-95285553D01*
X134302583Y-95297969D01*
X134308772Y-95311054D01*
X134313649Y-95324683D01*
X134317166Y-95338724D01*
X134319290Y-95353042D01*
X134320000Y-95367500D01*
X134320000Y-95662500D01*
X134319290Y-95676958D01*
X134317166Y-95691276D01*
X134313649Y-95705317D01*
X134308772Y-95718946D01*
X134302583Y-95732031D01*
X134295142Y-95744447D01*
X134286519Y-95756073D01*
X134276798Y-95766798D01*
X134266073Y-95776519D01*
X134254447Y-95785142D01*
X134242031Y-95792583D01*
X134228946Y-95798772D01*
X134215317Y-95803649D01*
X134201276Y-95807166D01*
X134186958Y-95809290D01*
X134172500Y-95810000D01*
X133827500Y-95810000D01*
X133813042Y-95809290D01*
X133798724Y-95807166D01*
X133784683Y-95803649D01*
X133771054Y-95798772D01*
X133757969Y-95792583D01*
X133745553Y-95785142D01*
X133733927Y-95776519D01*
X133723202Y-95766798D01*
X133713481Y-95756073D01*
X133704858Y-95744447D01*
X133697417Y-95732031D01*
X133691228Y-95718946D01*
X133686351Y-95705317D01*
X133682834Y-95691276D01*
X133680710Y-95676958D01*
X133680000Y-95662500D01*
X133680000Y-95367500D01*
X133680710Y-95353042D01*
X133682834Y-95338724D01*
X133686351Y-95324683D01*
X133691228Y-95311054D01*
X133697417Y-95297969D01*
X133704858Y-95285553D01*
X133713481Y-95273927D01*
X133723202Y-95263202D01*
X133733927Y-95253481D01*
X133745553Y-95244858D01*
X133757969Y-95237417D01*
X133771054Y-95231228D01*
X133784683Y-95226351D01*
X133798724Y-95222834D01*
X133813042Y-95220710D01*
X133827500Y-95220000D01*
X134172500Y-95220000D01*
X134186958Y-95220710D01*
X134186958Y-95220710D01*
G37*
D11*
X134000000Y-95515000D03*
D10*
G36*
X134186958Y-96190710D02*
X134201276Y-96192834D01*
X134215317Y-96196351D01*
X134228946Y-96201228D01*
X134242031Y-96207417D01*
X134254447Y-96214858D01*
X134266073Y-96223481D01*
X134276798Y-96233202D01*
X134286519Y-96243927D01*
X134295142Y-96255553D01*
X134302583Y-96267969D01*
X134308772Y-96281054D01*
X134313649Y-96294683D01*
X134317166Y-96308724D01*
X134319290Y-96323042D01*
X134320000Y-96337500D01*
X134320000Y-96632500D01*
X134319290Y-96646958D01*
X134317166Y-96661276D01*
X134313649Y-96675317D01*
X134308772Y-96688946D01*
X134302583Y-96702031D01*
X134295142Y-96714447D01*
X134286519Y-96726073D01*
X134276798Y-96736798D01*
X134266073Y-96746519D01*
X134254447Y-96755142D01*
X134242031Y-96762583D01*
X134228946Y-96768772D01*
X134215317Y-96773649D01*
X134201276Y-96777166D01*
X134186958Y-96779290D01*
X134172500Y-96780000D01*
X133827500Y-96780000D01*
X133813042Y-96779290D01*
X133798724Y-96777166D01*
X133784683Y-96773649D01*
X133771054Y-96768772D01*
X133757969Y-96762583D01*
X133745553Y-96755142D01*
X133733927Y-96746519D01*
X133723202Y-96736798D01*
X133713481Y-96726073D01*
X133704858Y-96714447D01*
X133697417Y-96702031D01*
X133691228Y-96688946D01*
X133686351Y-96675317D01*
X133682834Y-96661276D01*
X133680710Y-96646958D01*
X133680000Y-96632500D01*
X133680000Y-96337500D01*
X133680710Y-96323042D01*
X133682834Y-96308724D01*
X133686351Y-96294683D01*
X133691228Y-96281054D01*
X133697417Y-96267969D01*
X133704858Y-96255553D01*
X133713481Y-96243927D01*
X133723202Y-96233202D01*
X133733927Y-96223481D01*
X133745553Y-96214858D01*
X133757969Y-96207417D01*
X133771054Y-96201228D01*
X133784683Y-96196351D01*
X133798724Y-96192834D01*
X133813042Y-96190710D01*
X133827500Y-96190000D01*
X134172500Y-96190000D01*
X134186958Y-96190710D01*
X134186958Y-96190710D01*
G37*
D11*
X134000000Y-96485000D03*
G04 #@! TD*
D10*
G04 #@! TO.C,R16*
G36*
X138186958Y-96190710D02*
X138201276Y-96192834D01*
X138215317Y-96196351D01*
X138228946Y-96201228D01*
X138242031Y-96207417D01*
X138254447Y-96214858D01*
X138266073Y-96223481D01*
X138276798Y-96233202D01*
X138286519Y-96243927D01*
X138295142Y-96255553D01*
X138302583Y-96267969D01*
X138308772Y-96281054D01*
X138313649Y-96294683D01*
X138317166Y-96308724D01*
X138319290Y-96323042D01*
X138320000Y-96337500D01*
X138320000Y-96632500D01*
X138319290Y-96646958D01*
X138317166Y-96661276D01*
X138313649Y-96675317D01*
X138308772Y-96688946D01*
X138302583Y-96702031D01*
X138295142Y-96714447D01*
X138286519Y-96726073D01*
X138276798Y-96736798D01*
X138266073Y-96746519D01*
X138254447Y-96755142D01*
X138242031Y-96762583D01*
X138228946Y-96768772D01*
X138215317Y-96773649D01*
X138201276Y-96777166D01*
X138186958Y-96779290D01*
X138172500Y-96780000D01*
X137827500Y-96780000D01*
X137813042Y-96779290D01*
X137798724Y-96777166D01*
X137784683Y-96773649D01*
X137771054Y-96768772D01*
X137757969Y-96762583D01*
X137745553Y-96755142D01*
X137733927Y-96746519D01*
X137723202Y-96736798D01*
X137713481Y-96726073D01*
X137704858Y-96714447D01*
X137697417Y-96702031D01*
X137691228Y-96688946D01*
X137686351Y-96675317D01*
X137682834Y-96661276D01*
X137680710Y-96646958D01*
X137680000Y-96632500D01*
X137680000Y-96337500D01*
X137680710Y-96323042D01*
X137682834Y-96308724D01*
X137686351Y-96294683D01*
X137691228Y-96281054D01*
X137697417Y-96267969D01*
X137704858Y-96255553D01*
X137713481Y-96243927D01*
X137723202Y-96233202D01*
X137733927Y-96223481D01*
X137745553Y-96214858D01*
X137757969Y-96207417D01*
X137771054Y-96201228D01*
X137784683Y-96196351D01*
X137798724Y-96192834D01*
X137813042Y-96190710D01*
X137827500Y-96190000D01*
X138172500Y-96190000D01*
X138186958Y-96190710D01*
X138186958Y-96190710D01*
G37*
D11*
X138000000Y-96485000D03*
D10*
G36*
X138186958Y-95220710D02*
X138201276Y-95222834D01*
X138215317Y-95226351D01*
X138228946Y-95231228D01*
X138242031Y-95237417D01*
X138254447Y-95244858D01*
X138266073Y-95253481D01*
X138276798Y-95263202D01*
X138286519Y-95273927D01*
X138295142Y-95285553D01*
X138302583Y-95297969D01*
X138308772Y-95311054D01*
X138313649Y-95324683D01*
X138317166Y-95338724D01*
X138319290Y-95353042D01*
X138320000Y-95367500D01*
X138320000Y-95662500D01*
X138319290Y-95676958D01*
X138317166Y-95691276D01*
X138313649Y-95705317D01*
X138308772Y-95718946D01*
X138302583Y-95732031D01*
X138295142Y-95744447D01*
X138286519Y-95756073D01*
X138276798Y-95766798D01*
X138266073Y-95776519D01*
X138254447Y-95785142D01*
X138242031Y-95792583D01*
X138228946Y-95798772D01*
X138215317Y-95803649D01*
X138201276Y-95807166D01*
X138186958Y-95809290D01*
X138172500Y-95810000D01*
X137827500Y-95810000D01*
X137813042Y-95809290D01*
X137798724Y-95807166D01*
X137784683Y-95803649D01*
X137771054Y-95798772D01*
X137757969Y-95792583D01*
X137745553Y-95785142D01*
X137733927Y-95776519D01*
X137723202Y-95766798D01*
X137713481Y-95756073D01*
X137704858Y-95744447D01*
X137697417Y-95732031D01*
X137691228Y-95718946D01*
X137686351Y-95705317D01*
X137682834Y-95691276D01*
X137680710Y-95676958D01*
X137680000Y-95662500D01*
X137680000Y-95367500D01*
X137680710Y-95353042D01*
X137682834Y-95338724D01*
X137686351Y-95324683D01*
X137691228Y-95311054D01*
X137697417Y-95297969D01*
X137704858Y-95285553D01*
X137713481Y-95273927D01*
X137723202Y-95263202D01*
X137733927Y-95253481D01*
X137745553Y-95244858D01*
X137757969Y-95237417D01*
X137771054Y-95231228D01*
X137784683Y-95226351D01*
X137798724Y-95222834D01*
X137813042Y-95220710D01*
X137827500Y-95220000D01*
X138172500Y-95220000D01*
X138186958Y-95220710D01*
X138186958Y-95220710D01*
G37*
D11*
X138000000Y-95515000D03*
G04 #@! TD*
D10*
G04 #@! TO.C,R17*
G36*
X139186958Y-96190710D02*
X139201276Y-96192834D01*
X139215317Y-96196351D01*
X139228946Y-96201228D01*
X139242031Y-96207417D01*
X139254447Y-96214858D01*
X139266073Y-96223481D01*
X139276798Y-96233202D01*
X139286519Y-96243927D01*
X139295142Y-96255553D01*
X139302583Y-96267969D01*
X139308772Y-96281054D01*
X139313649Y-96294683D01*
X139317166Y-96308724D01*
X139319290Y-96323042D01*
X139320000Y-96337500D01*
X139320000Y-96632500D01*
X139319290Y-96646958D01*
X139317166Y-96661276D01*
X139313649Y-96675317D01*
X139308772Y-96688946D01*
X139302583Y-96702031D01*
X139295142Y-96714447D01*
X139286519Y-96726073D01*
X139276798Y-96736798D01*
X139266073Y-96746519D01*
X139254447Y-96755142D01*
X139242031Y-96762583D01*
X139228946Y-96768772D01*
X139215317Y-96773649D01*
X139201276Y-96777166D01*
X139186958Y-96779290D01*
X139172500Y-96780000D01*
X138827500Y-96780000D01*
X138813042Y-96779290D01*
X138798724Y-96777166D01*
X138784683Y-96773649D01*
X138771054Y-96768772D01*
X138757969Y-96762583D01*
X138745553Y-96755142D01*
X138733927Y-96746519D01*
X138723202Y-96736798D01*
X138713481Y-96726073D01*
X138704858Y-96714447D01*
X138697417Y-96702031D01*
X138691228Y-96688946D01*
X138686351Y-96675317D01*
X138682834Y-96661276D01*
X138680710Y-96646958D01*
X138680000Y-96632500D01*
X138680000Y-96337500D01*
X138680710Y-96323042D01*
X138682834Y-96308724D01*
X138686351Y-96294683D01*
X138691228Y-96281054D01*
X138697417Y-96267969D01*
X138704858Y-96255553D01*
X138713481Y-96243927D01*
X138723202Y-96233202D01*
X138733927Y-96223481D01*
X138745553Y-96214858D01*
X138757969Y-96207417D01*
X138771054Y-96201228D01*
X138784683Y-96196351D01*
X138798724Y-96192834D01*
X138813042Y-96190710D01*
X138827500Y-96190000D01*
X139172500Y-96190000D01*
X139186958Y-96190710D01*
X139186958Y-96190710D01*
G37*
D11*
X139000000Y-96485000D03*
D10*
G36*
X139186958Y-95220710D02*
X139201276Y-95222834D01*
X139215317Y-95226351D01*
X139228946Y-95231228D01*
X139242031Y-95237417D01*
X139254447Y-95244858D01*
X139266073Y-95253481D01*
X139276798Y-95263202D01*
X139286519Y-95273927D01*
X139295142Y-95285553D01*
X139302583Y-95297969D01*
X139308772Y-95311054D01*
X139313649Y-95324683D01*
X139317166Y-95338724D01*
X139319290Y-95353042D01*
X139320000Y-95367500D01*
X139320000Y-95662500D01*
X139319290Y-95676958D01*
X139317166Y-95691276D01*
X139313649Y-95705317D01*
X139308772Y-95718946D01*
X139302583Y-95732031D01*
X139295142Y-95744447D01*
X139286519Y-95756073D01*
X139276798Y-95766798D01*
X139266073Y-95776519D01*
X139254447Y-95785142D01*
X139242031Y-95792583D01*
X139228946Y-95798772D01*
X139215317Y-95803649D01*
X139201276Y-95807166D01*
X139186958Y-95809290D01*
X139172500Y-95810000D01*
X138827500Y-95810000D01*
X138813042Y-95809290D01*
X138798724Y-95807166D01*
X138784683Y-95803649D01*
X138771054Y-95798772D01*
X138757969Y-95792583D01*
X138745553Y-95785142D01*
X138733927Y-95776519D01*
X138723202Y-95766798D01*
X138713481Y-95756073D01*
X138704858Y-95744447D01*
X138697417Y-95732031D01*
X138691228Y-95718946D01*
X138686351Y-95705317D01*
X138682834Y-95691276D01*
X138680710Y-95676958D01*
X138680000Y-95662500D01*
X138680000Y-95367500D01*
X138680710Y-95353042D01*
X138682834Y-95338724D01*
X138686351Y-95324683D01*
X138691228Y-95311054D01*
X138697417Y-95297969D01*
X138704858Y-95285553D01*
X138713481Y-95273927D01*
X138723202Y-95263202D01*
X138733927Y-95253481D01*
X138745553Y-95244858D01*
X138757969Y-95237417D01*
X138771054Y-95231228D01*
X138784683Y-95226351D01*
X138798724Y-95222834D01*
X138813042Y-95220710D01*
X138827500Y-95220000D01*
X139172500Y-95220000D01*
X139186958Y-95220710D01*
X139186958Y-95220710D01*
G37*
D11*
X139000000Y-95515000D03*
G04 #@! TD*
D10*
G04 #@! TO.C,R18*
G36*
X149646958Y-95180710D02*
X149661276Y-95182834D01*
X149675317Y-95186351D01*
X149688946Y-95191228D01*
X149702031Y-95197417D01*
X149714447Y-95204858D01*
X149726073Y-95213481D01*
X149736798Y-95223202D01*
X149746519Y-95233927D01*
X149755142Y-95245553D01*
X149762583Y-95257969D01*
X149768772Y-95271054D01*
X149773649Y-95284683D01*
X149777166Y-95298724D01*
X149779290Y-95313042D01*
X149780000Y-95327500D01*
X149780000Y-95672500D01*
X149779290Y-95686958D01*
X149777166Y-95701276D01*
X149773649Y-95715317D01*
X149768772Y-95728946D01*
X149762583Y-95742031D01*
X149755142Y-95754447D01*
X149746519Y-95766073D01*
X149736798Y-95776798D01*
X149726073Y-95786519D01*
X149714447Y-95795142D01*
X149702031Y-95802583D01*
X149688946Y-95808772D01*
X149675317Y-95813649D01*
X149661276Y-95817166D01*
X149646958Y-95819290D01*
X149632500Y-95820000D01*
X149337500Y-95820000D01*
X149323042Y-95819290D01*
X149308724Y-95817166D01*
X149294683Y-95813649D01*
X149281054Y-95808772D01*
X149267969Y-95802583D01*
X149255553Y-95795142D01*
X149243927Y-95786519D01*
X149233202Y-95776798D01*
X149223481Y-95766073D01*
X149214858Y-95754447D01*
X149207417Y-95742031D01*
X149201228Y-95728946D01*
X149196351Y-95715317D01*
X149192834Y-95701276D01*
X149190710Y-95686958D01*
X149190000Y-95672500D01*
X149190000Y-95327500D01*
X149190710Y-95313042D01*
X149192834Y-95298724D01*
X149196351Y-95284683D01*
X149201228Y-95271054D01*
X149207417Y-95257969D01*
X149214858Y-95245553D01*
X149223481Y-95233927D01*
X149233202Y-95223202D01*
X149243927Y-95213481D01*
X149255553Y-95204858D01*
X149267969Y-95197417D01*
X149281054Y-95191228D01*
X149294683Y-95186351D01*
X149308724Y-95182834D01*
X149323042Y-95180710D01*
X149337500Y-95180000D01*
X149632500Y-95180000D01*
X149646958Y-95180710D01*
X149646958Y-95180710D01*
G37*
D11*
X149485000Y-95500000D03*
D10*
G36*
X148676958Y-95180710D02*
X148691276Y-95182834D01*
X148705317Y-95186351D01*
X148718946Y-95191228D01*
X148732031Y-95197417D01*
X148744447Y-95204858D01*
X148756073Y-95213481D01*
X148766798Y-95223202D01*
X148776519Y-95233927D01*
X148785142Y-95245553D01*
X148792583Y-95257969D01*
X148798772Y-95271054D01*
X148803649Y-95284683D01*
X148807166Y-95298724D01*
X148809290Y-95313042D01*
X148810000Y-95327500D01*
X148810000Y-95672500D01*
X148809290Y-95686958D01*
X148807166Y-95701276D01*
X148803649Y-95715317D01*
X148798772Y-95728946D01*
X148792583Y-95742031D01*
X148785142Y-95754447D01*
X148776519Y-95766073D01*
X148766798Y-95776798D01*
X148756073Y-95786519D01*
X148744447Y-95795142D01*
X148732031Y-95802583D01*
X148718946Y-95808772D01*
X148705317Y-95813649D01*
X148691276Y-95817166D01*
X148676958Y-95819290D01*
X148662500Y-95820000D01*
X148367500Y-95820000D01*
X148353042Y-95819290D01*
X148338724Y-95817166D01*
X148324683Y-95813649D01*
X148311054Y-95808772D01*
X148297969Y-95802583D01*
X148285553Y-95795142D01*
X148273927Y-95786519D01*
X148263202Y-95776798D01*
X148253481Y-95766073D01*
X148244858Y-95754447D01*
X148237417Y-95742031D01*
X148231228Y-95728946D01*
X148226351Y-95715317D01*
X148222834Y-95701276D01*
X148220710Y-95686958D01*
X148220000Y-95672500D01*
X148220000Y-95327500D01*
X148220710Y-95313042D01*
X148222834Y-95298724D01*
X148226351Y-95284683D01*
X148231228Y-95271054D01*
X148237417Y-95257969D01*
X148244858Y-95245553D01*
X148253481Y-95233927D01*
X148263202Y-95223202D01*
X148273927Y-95213481D01*
X148285553Y-95204858D01*
X148297969Y-95197417D01*
X148311054Y-95191228D01*
X148324683Y-95186351D01*
X148338724Y-95182834D01*
X148353042Y-95180710D01*
X148367500Y-95180000D01*
X148662500Y-95180000D01*
X148676958Y-95180710D01*
X148676958Y-95180710D01*
G37*
D11*
X148515000Y-95500000D03*
G04 #@! TD*
D10*
G04 #@! TO.C,C4*
G36*
X141146958Y-115180710D02*
X141161276Y-115182834D01*
X141175317Y-115186351D01*
X141188946Y-115191228D01*
X141202031Y-115197417D01*
X141214447Y-115204858D01*
X141226073Y-115213481D01*
X141236798Y-115223202D01*
X141246519Y-115233927D01*
X141255142Y-115245553D01*
X141262583Y-115257969D01*
X141268772Y-115271054D01*
X141273649Y-115284683D01*
X141277166Y-115298724D01*
X141279290Y-115313042D01*
X141280000Y-115327500D01*
X141280000Y-115672500D01*
X141279290Y-115686958D01*
X141277166Y-115701276D01*
X141273649Y-115715317D01*
X141268772Y-115728946D01*
X141262583Y-115742031D01*
X141255142Y-115754447D01*
X141246519Y-115766073D01*
X141236798Y-115776798D01*
X141226073Y-115786519D01*
X141214447Y-115795142D01*
X141202031Y-115802583D01*
X141188946Y-115808772D01*
X141175317Y-115813649D01*
X141161276Y-115817166D01*
X141146958Y-115819290D01*
X141132500Y-115820000D01*
X140837500Y-115820000D01*
X140823042Y-115819290D01*
X140808724Y-115817166D01*
X140794683Y-115813649D01*
X140781054Y-115808772D01*
X140767969Y-115802583D01*
X140755553Y-115795142D01*
X140743927Y-115786519D01*
X140733202Y-115776798D01*
X140723481Y-115766073D01*
X140714858Y-115754447D01*
X140707417Y-115742031D01*
X140701228Y-115728946D01*
X140696351Y-115715317D01*
X140692834Y-115701276D01*
X140690710Y-115686958D01*
X140690000Y-115672500D01*
X140690000Y-115327500D01*
X140690710Y-115313042D01*
X140692834Y-115298724D01*
X140696351Y-115284683D01*
X140701228Y-115271054D01*
X140707417Y-115257969D01*
X140714858Y-115245553D01*
X140723481Y-115233927D01*
X140733202Y-115223202D01*
X140743927Y-115213481D01*
X140755553Y-115204858D01*
X140767969Y-115197417D01*
X140781054Y-115191228D01*
X140794683Y-115186351D01*
X140808724Y-115182834D01*
X140823042Y-115180710D01*
X140837500Y-115180000D01*
X141132500Y-115180000D01*
X141146958Y-115180710D01*
X141146958Y-115180710D01*
G37*
D11*
X140985000Y-115500000D03*
D10*
G36*
X140176958Y-115180710D02*
X140191276Y-115182834D01*
X140205317Y-115186351D01*
X140218946Y-115191228D01*
X140232031Y-115197417D01*
X140244447Y-115204858D01*
X140256073Y-115213481D01*
X140266798Y-115223202D01*
X140276519Y-115233927D01*
X140285142Y-115245553D01*
X140292583Y-115257969D01*
X140298772Y-115271054D01*
X140303649Y-115284683D01*
X140307166Y-115298724D01*
X140309290Y-115313042D01*
X140310000Y-115327500D01*
X140310000Y-115672500D01*
X140309290Y-115686958D01*
X140307166Y-115701276D01*
X140303649Y-115715317D01*
X140298772Y-115728946D01*
X140292583Y-115742031D01*
X140285142Y-115754447D01*
X140276519Y-115766073D01*
X140266798Y-115776798D01*
X140256073Y-115786519D01*
X140244447Y-115795142D01*
X140232031Y-115802583D01*
X140218946Y-115808772D01*
X140205317Y-115813649D01*
X140191276Y-115817166D01*
X140176958Y-115819290D01*
X140162500Y-115820000D01*
X139867500Y-115820000D01*
X139853042Y-115819290D01*
X139838724Y-115817166D01*
X139824683Y-115813649D01*
X139811054Y-115808772D01*
X139797969Y-115802583D01*
X139785553Y-115795142D01*
X139773927Y-115786519D01*
X139763202Y-115776798D01*
X139753481Y-115766073D01*
X139744858Y-115754447D01*
X139737417Y-115742031D01*
X139731228Y-115728946D01*
X139726351Y-115715317D01*
X139722834Y-115701276D01*
X139720710Y-115686958D01*
X139720000Y-115672500D01*
X139720000Y-115327500D01*
X139720710Y-115313042D01*
X139722834Y-115298724D01*
X139726351Y-115284683D01*
X139731228Y-115271054D01*
X139737417Y-115257969D01*
X139744858Y-115245553D01*
X139753481Y-115233927D01*
X139763202Y-115223202D01*
X139773927Y-115213481D01*
X139785553Y-115204858D01*
X139797969Y-115197417D01*
X139811054Y-115191228D01*
X139824683Y-115186351D01*
X139838724Y-115182834D01*
X139853042Y-115180710D01*
X139867500Y-115180000D01*
X140162500Y-115180000D01*
X140176958Y-115180710D01*
X140176958Y-115180710D01*
G37*
D11*
X140015000Y-115500000D03*
G04 #@! TD*
D10*
G04 #@! TO.C,C9*
G36*
X146686958Y-113690710D02*
X146701276Y-113692834D01*
X146715317Y-113696351D01*
X146728946Y-113701228D01*
X146742031Y-113707417D01*
X146754447Y-113714858D01*
X146766073Y-113723481D01*
X146776798Y-113733202D01*
X146786519Y-113743927D01*
X146795142Y-113755553D01*
X146802583Y-113767969D01*
X146808772Y-113781054D01*
X146813649Y-113794683D01*
X146817166Y-113808724D01*
X146819290Y-113823042D01*
X146820000Y-113837500D01*
X146820000Y-114132500D01*
X146819290Y-114146958D01*
X146817166Y-114161276D01*
X146813649Y-114175317D01*
X146808772Y-114188946D01*
X146802583Y-114202031D01*
X146795142Y-114214447D01*
X146786519Y-114226073D01*
X146776798Y-114236798D01*
X146766073Y-114246519D01*
X146754447Y-114255142D01*
X146742031Y-114262583D01*
X146728946Y-114268772D01*
X146715317Y-114273649D01*
X146701276Y-114277166D01*
X146686958Y-114279290D01*
X146672500Y-114280000D01*
X146327500Y-114280000D01*
X146313042Y-114279290D01*
X146298724Y-114277166D01*
X146284683Y-114273649D01*
X146271054Y-114268772D01*
X146257969Y-114262583D01*
X146245553Y-114255142D01*
X146233927Y-114246519D01*
X146223202Y-114236798D01*
X146213481Y-114226073D01*
X146204858Y-114214447D01*
X146197417Y-114202031D01*
X146191228Y-114188946D01*
X146186351Y-114175317D01*
X146182834Y-114161276D01*
X146180710Y-114146958D01*
X146180000Y-114132500D01*
X146180000Y-113837500D01*
X146180710Y-113823042D01*
X146182834Y-113808724D01*
X146186351Y-113794683D01*
X146191228Y-113781054D01*
X146197417Y-113767969D01*
X146204858Y-113755553D01*
X146213481Y-113743927D01*
X146223202Y-113733202D01*
X146233927Y-113723481D01*
X146245553Y-113714858D01*
X146257969Y-113707417D01*
X146271054Y-113701228D01*
X146284683Y-113696351D01*
X146298724Y-113692834D01*
X146313042Y-113690710D01*
X146327500Y-113690000D01*
X146672500Y-113690000D01*
X146686958Y-113690710D01*
X146686958Y-113690710D01*
G37*
D11*
X146500000Y-113985000D03*
D10*
G36*
X146686958Y-112720710D02*
X146701276Y-112722834D01*
X146715317Y-112726351D01*
X146728946Y-112731228D01*
X146742031Y-112737417D01*
X146754447Y-112744858D01*
X146766073Y-112753481D01*
X146776798Y-112763202D01*
X146786519Y-112773927D01*
X146795142Y-112785553D01*
X146802583Y-112797969D01*
X146808772Y-112811054D01*
X146813649Y-112824683D01*
X146817166Y-112838724D01*
X146819290Y-112853042D01*
X146820000Y-112867500D01*
X146820000Y-113162500D01*
X146819290Y-113176958D01*
X146817166Y-113191276D01*
X146813649Y-113205317D01*
X146808772Y-113218946D01*
X146802583Y-113232031D01*
X146795142Y-113244447D01*
X146786519Y-113256073D01*
X146776798Y-113266798D01*
X146766073Y-113276519D01*
X146754447Y-113285142D01*
X146742031Y-113292583D01*
X146728946Y-113298772D01*
X146715317Y-113303649D01*
X146701276Y-113307166D01*
X146686958Y-113309290D01*
X146672500Y-113310000D01*
X146327500Y-113310000D01*
X146313042Y-113309290D01*
X146298724Y-113307166D01*
X146284683Y-113303649D01*
X146271054Y-113298772D01*
X146257969Y-113292583D01*
X146245553Y-113285142D01*
X146233927Y-113276519D01*
X146223202Y-113266798D01*
X146213481Y-113256073D01*
X146204858Y-113244447D01*
X146197417Y-113232031D01*
X146191228Y-113218946D01*
X146186351Y-113205317D01*
X146182834Y-113191276D01*
X146180710Y-113176958D01*
X146180000Y-113162500D01*
X146180000Y-112867500D01*
X146180710Y-112853042D01*
X146182834Y-112838724D01*
X146186351Y-112824683D01*
X146191228Y-112811054D01*
X146197417Y-112797969D01*
X146204858Y-112785553D01*
X146213481Y-112773927D01*
X146223202Y-112763202D01*
X146233927Y-112753481D01*
X146245553Y-112744858D01*
X146257969Y-112737417D01*
X146271054Y-112731228D01*
X146284683Y-112726351D01*
X146298724Y-112722834D01*
X146313042Y-112720710D01*
X146327500Y-112720000D01*
X146672500Y-112720000D01*
X146686958Y-112720710D01*
X146686958Y-112720710D01*
G37*
D11*
X146500000Y-113015000D03*
G04 #@! TD*
D10*
G04 #@! TO.C,C10*
G36*
X151676958Y-115180710D02*
X151691276Y-115182834D01*
X151705317Y-115186351D01*
X151718946Y-115191228D01*
X151732031Y-115197417D01*
X151744447Y-115204858D01*
X151756073Y-115213481D01*
X151766798Y-115223202D01*
X151776519Y-115233927D01*
X151785142Y-115245553D01*
X151792583Y-115257969D01*
X151798772Y-115271054D01*
X151803649Y-115284683D01*
X151807166Y-115298724D01*
X151809290Y-115313042D01*
X151810000Y-115327500D01*
X151810000Y-115672500D01*
X151809290Y-115686958D01*
X151807166Y-115701276D01*
X151803649Y-115715317D01*
X151798772Y-115728946D01*
X151792583Y-115742031D01*
X151785142Y-115754447D01*
X151776519Y-115766073D01*
X151766798Y-115776798D01*
X151756073Y-115786519D01*
X151744447Y-115795142D01*
X151732031Y-115802583D01*
X151718946Y-115808772D01*
X151705317Y-115813649D01*
X151691276Y-115817166D01*
X151676958Y-115819290D01*
X151662500Y-115820000D01*
X151367500Y-115820000D01*
X151353042Y-115819290D01*
X151338724Y-115817166D01*
X151324683Y-115813649D01*
X151311054Y-115808772D01*
X151297969Y-115802583D01*
X151285553Y-115795142D01*
X151273927Y-115786519D01*
X151263202Y-115776798D01*
X151253481Y-115766073D01*
X151244858Y-115754447D01*
X151237417Y-115742031D01*
X151231228Y-115728946D01*
X151226351Y-115715317D01*
X151222834Y-115701276D01*
X151220710Y-115686958D01*
X151220000Y-115672500D01*
X151220000Y-115327500D01*
X151220710Y-115313042D01*
X151222834Y-115298724D01*
X151226351Y-115284683D01*
X151231228Y-115271054D01*
X151237417Y-115257969D01*
X151244858Y-115245553D01*
X151253481Y-115233927D01*
X151263202Y-115223202D01*
X151273927Y-115213481D01*
X151285553Y-115204858D01*
X151297969Y-115197417D01*
X151311054Y-115191228D01*
X151324683Y-115186351D01*
X151338724Y-115182834D01*
X151353042Y-115180710D01*
X151367500Y-115180000D01*
X151662500Y-115180000D01*
X151676958Y-115180710D01*
X151676958Y-115180710D01*
G37*
D11*
X151515000Y-115500000D03*
D10*
G36*
X152646958Y-115180710D02*
X152661276Y-115182834D01*
X152675317Y-115186351D01*
X152688946Y-115191228D01*
X152702031Y-115197417D01*
X152714447Y-115204858D01*
X152726073Y-115213481D01*
X152736798Y-115223202D01*
X152746519Y-115233927D01*
X152755142Y-115245553D01*
X152762583Y-115257969D01*
X152768772Y-115271054D01*
X152773649Y-115284683D01*
X152777166Y-115298724D01*
X152779290Y-115313042D01*
X152780000Y-115327500D01*
X152780000Y-115672500D01*
X152779290Y-115686958D01*
X152777166Y-115701276D01*
X152773649Y-115715317D01*
X152768772Y-115728946D01*
X152762583Y-115742031D01*
X152755142Y-115754447D01*
X152746519Y-115766073D01*
X152736798Y-115776798D01*
X152726073Y-115786519D01*
X152714447Y-115795142D01*
X152702031Y-115802583D01*
X152688946Y-115808772D01*
X152675317Y-115813649D01*
X152661276Y-115817166D01*
X152646958Y-115819290D01*
X152632500Y-115820000D01*
X152337500Y-115820000D01*
X152323042Y-115819290D01*
X152308724Y-115817166D01*
X152294683Y-115813649D01*
X152281054Y-115808772D01*
X152267969Y-115802583D01*
X152255553Y-115795142D01*
X152243927Y-115786519D01*
X152233202Y-115776798D01*
X152223481Y-115766073D01*
X152214858Y-115754447D01*
X152207417Y-115742031D01*
X152201228Y-115728946D01*
X152196351Y-115715317D01*
X152192834Y-115701276D01*
X152190710Y-115686958D01*
X152190000Y-115672500D01*
X152190000Y-115327500D01*
X152190710Y-115313042D01*
X152192834Y-115298724D01*
X152196351Y-115284683D01*
X152201228Y-115271054D01*
X152207417Y-115257969D01*
X152214858Y-115245553D01*
X152223481Y-115233927D01*
X152233202Y-115223202D01*
X152243927Y-115213481D01*
X152255553Y-115204858D01*
X152267969Y-115197417D01*
X152281054Y-115191228D01*
X152294683Y-115186351D01*
X152308724Y-115182834D01*
X152323042Y-115180710D01*
X152337500Y-115180000D01*
X152632500Y-115180000D01*
X152646958Y-115180710D01*
X152646958Y-115180710D01*
G37*
D11*
X152485000Y-115500000D03*
G04 #@! TD*
D10*
G04 #@! TO.C,C12*
G36*
X147686958Y-113690710D02*
X147701276Y-113692834D01*
X147715317Y-113696351D01*
X147728946Y-113701228D01*
X147742031Y-113707417D01*
X147754447Y-113714858D01*
X147766073Y-113723481D01*
X147776798Y-113733202D01*
X147786519Y-113743927D01*
X147795142Y-113755553D01*
X147802583Y-113767969D01*
X147808772Y-113781054D01*
X147813649Y-113794683D01*
X147817166Y-113808724D01*
X147819290Y-113823042D01*
X147820000Y-113837500D01*
X147820000Y-114132500D01*
X147819290Y-114146958D01*
X147817166Y-114161276D01*
X147813649Y-114175317D01*
X147808772Y-114188946D01*
X147802583Y-114202031D01*
X147795142Y-114214447D01*
X147786519Y-114226073D01*
X147776798Y-114236798D01*
X147766073Y-114246519D01*
X147754447Y-114255142D01*
X147742031Y-114262583D01*
X147728946Y-114268772D01*
X147715317Y-114273649D01*
X147701276Y-114277166D01*
X147686958Y-114279290D01*
X147672500Y-114280000D01*
X147327500Y-114280000D01*
X147313042Y-114279290D01*
X147298724Y-114277166D01*
X147284683Y-114273649D01*
X147271054Y-114268772D01*
X147257969Y-114262583D01*
X147245553Y-114255142D01*
X147233927Y-114246519D01*
X147223202Y-114236798D01*
X147213481Y-114226073D01*
X147204858Y-114214447D01*
X147197417Y-114202031D01*
X147191228Y-114188946D01*
X147186351Y-114175317D01*
X147182834Y-114161276D01*
X147180710Y-114146958D01*
X147180000Y-114132500D01*
X147180000Y-113837500D01*
X147180710Y-113823042D01*
X147182834Y-113808724D01*
X147186351Y-113794683D01*
X147191228Y-113781054D01*
X147197417Y-113767969D01*
X147204858Y-113755553D01*
X147213481Y-113743927D01*
X147223202Y-113733202D01*
X147233927Y-113723481D01*
X147245553Y-113714858D01*
X147257969Y-113707417D01*
X147271054Y-113701228D01*
X147284683Y-113696351D01*
X147298724Y-113692834D01*
X147313042Y-113690710D01*
X147327500Y-113690000D01*
X147672500Y-113690000D01*
X147686958Y-113690710D01*
X147686958Y-113690710D01*
G37*
D11*
X147500000Y-113985000D03*
D10*
G36*
X147686958Y-112720710D02*
X147701276Y-112722834D01*
X147715317Y-112726351D01*
X147728946Y-112731228D01*
X147742031Y-112737417D01*
X147754447Y-112744858D01*
X147766073Y-112753481D01*
X147776798Y-112763202D01*
X147786519Y-112773927D01*
X147795142Y-112785553D01*
X147802583Y-112797969D01*
X147808772Y-112811054D01*
X147813649Y-112824683D01*
X147817166Y-112838724D01*
X147819290Y-112853042D01*
X147820000Y-112867500D01*
X147820000Y-113162500D01*
X147819290Y-113176958D01*
X147817166Y-113191276D01*
X147813649Y-113205317D01*
X147808772Y-113218946D01*
X147802583Y-113232031D01*
X147795142Y-113244447D01*
X147786519Y-113256073D01*
X147776798Y-113266798D01*
X147766073Y-113276519D01*
X147754447Y-113285142D01*
X147742031Y-113292583D01*
X147728946Y-113298772D01*
X147715317Y-113303649D01*
X147701276Y-113307166D01*
X147686958Y-113309290D01*
X147672500Y-113310000D01*
X147327500Y-113310000D01*
X147313042Y-113309290D01*
X147298724Y-113307166D01*
X147284683Y-113303649D01*
X147271054Y-113298772D01*
X147257969Y-113292583D01*
X147245553Y-113285142D01*
X147233927Y-113276519D01*
X147223202Y-113266798D01*
X147213481Y-113256073D01*
X147204858Y-113244447D01*
X147197417Y-113232031D01*
X147191228Y-113218946D01*
X147186351Y-113205317D01*
X147182834Y-113191276D01*
X147180710Y-113176958D01*
X147180000Y-113162500D01*
X147180000Y-112867500D01*
X147180710Y-112853042D01*
X147182834Y-112838724D01*
X147186351Y-112824683D01*
X147191228Y-112811054D01*
X147197417Y-112797969D01*
X147204858Y-112785553D01*
X147213481Y-112773927D01*
X147223202Y-112763202D01*
X147233927Y-112753481D01*
X147245553Y-112744858D01*
X147257969Y-112737417D01*
X147271054Y-112731228D01*
X147284683Y-112726351D01*
X147298724Y-112722834D01*
X147313042Y-112720710D01*
X147327500Y-112720000D01*
X147672500Y-112720000D01*
X147686958Y-112720710D01*
X147686958Y-112720710D01*
G37*
D11*
X147500000Y-113015000D03*
G04 #@! TD*
D10*
G04 #@! TO.C,C17*
G36*
X160186958Y-113690710D02*
X160201276Y-113692834D01*
X160215317Y-113696351D01*
X160228946Y-113701228D01*
X160242031Y-113707417D01*
X160254447Y-113714858D01*
X160266073Y-113723481D01*
X160276798Y-113733202D01*
X160286519Y-113743927D01*
X160295142Y-113755553D01*
X160302583Y-113767969D01*
X160308772Y-113781054D01*
X160313649Y-113794683D01*
X160317166Y-113808724D01*
X160319290Y-113823042D01*
X160320000Y-113837500D01*
X160320000Y-114132500D01*
X160319290Y-114146958D01*
X160317166Y-114161276D01*
X160313649Y-114175317D01*
X160308772Y-114188946D01*
X160302583Y-114202031D01*
X160295142Y-114214447D01*
X160286519Y-114226073D01*
X160276798Y-114236798D01*
X160266073Y-114246519D01*
X160254447Y-114255142D01*
X160242031Y-114262583D01*
X160228946Y-114268772D01*
X160215317Y-114273649D01*
X160201276Y-114277166D01*
X160186958Y-114279290D01*
X160172500Y-114280000D01*
X159827500Y-114280000D01*
X159813042Y-114279290D01*
X159798724Y-114277166D01*
X159784683Y-114273649D01*
X159771054Y-114268772D01*
X159757969Y-114262583D01*
X159745553Y-114255142D01*
X159733927Y-114246519D01*
X159723202Y-114236798D01*
X159713481Y-114226073D01*
X159704858Y-114214447D01*
X159697417Y-114202031D01*
X159691228Y-114188946D01*
X159686351Y-114175317D01*
X159682834Y-114161276D01*
X159680710Y-114146958D01*
X159680000Y-114132500D01*
X159680000Y-113837500D01*
X159680710Y-113823042D01*
X159682834Y-113808724D01*
X159686351Y-113794683D01*
X159691228Y-113781054D01*
X159697417Y-113767969D01*
X159704858Y-113755553D01*
X159713481Y-113743927D01*
X159723202Y-113733202D01*
X159733927Y-113723481D01*
X159745553Y-113714858D01*
X159757969Y-113707417D01*
X159771054Y-113701228D01*
X159784683Y-113696351D01*
X159798724Y-113692834D01*
X159813042Y-113690710D01*
X159827500Y-113690000D01*
X160172500Y-113690000D01*
X160186958Y-113690710D01*
X160186958Y-113690710D01*
G37*
D11*
X160000000Y-113985000D03*
D10*
G36*
X160186958Y-112720710D02*
X160201276Y-112722834D01*
X160215317Y-112726351D01*
X160228946Y-112731228D01*
X160242031Y-112737417D01*
X160254447Y-112744858D01*
X160266073Y-112753481D01*
X160276798Y-112763202D01*
X160286519Y-112773927D01*
X160295142Y-112785553D01*
X160302583Y-112797969D01*
X160308772Y-112811054D01*
X160313649Y-112824683D01*
X160317166Y-112838724D01*
X160319290Y-112853042D01*
X160320000Y-112867500D01*
X160320000Y-113162500D01*
X160319290Y-113176958D01*
X160317166Y-113191276D01*
X160313649Y-113205317D01*
X160308772Y-113218946D01*
X160302583Y-113232031D01*
X160295142Y-113244447D01*
X160286519Y-113256073D01*
X160276798Y-113266798D01*
X160266073Y-113276519D01*
X160254447Y-113285142D01*
X160242031Y-113292583D01*
X160228946Y-113298772D01*
X160215317Y-113303649D01*
X160201276Y-113307166D01*
X160186958Y-113309290D01*
X160172500Y-113310000D01*
X159827500Y-113310000D01*
X159813042Y-113309290D01*
X159798724Y-113307166D01*
X159784683Y-113303649D01*
X159771054Y-113298772D01*
X159757969Y-113292583D01*
X159745553Y-113285142D01*
X159733927Y-113276519D01*
X159723202Y-113266798D01*
X159713481Y-113256073D01*
X159704858Y-113244447D01*
X159697417Y-113232031D01*
X159691228Y-113218946D01*
X159686351Y-113205317D01*
X159682834Y-113191276D01*
X159680710Y-113176958D01*
X159680000Y-113162500D01*
X159680000Y-112867500D01*
X159680710Y-112853042D01*
X159682834Y-112838724D01*
X159686351Y-112824683D01*
X159691228Y-112811054D01*
X159697417Y-112797969D01*
X159704858Y-112785553D01*
X159713481Y-112773927D01*
X159723202Y-112763202D01*
X159733927Y-112753481D01*
X159745553Y-112744858D01*
X159757969Y-112737417D01*
X159771054Y-112731228D01*
X159784683Y-112726351D01*
X159798724Y-112722834D01*
X159813042Y-112720710D01*
X159827500Y-112720000D01*
X160172500Y-112720000D01*
X160186958Y-112720710D01*
X160186958Y-112720710D01*
G37*
D11*
X160000000Y-113015000D03*
G04 #@! TD*
D10*
G04 #@! TO.C,C18*
G36*
X165186958Y-112720710D02*
X165201276Y-112722834D01*
X165215317Y-112726351D01*
X165228946Y-112731228D01*
X165242031Y-112737417D01*
X165254447Y-112744858D01*
X165266073Y-112753481D01*
X165276798Y-112763202D01*
X165286519Y-112773927D01*
X165295142Y-112785553D01*
X165302583Y-112797969D01*
X165308772Y-112811054D01*
X165313649Y-112824683D01*
X165317166Y-112838724D01*
X165319290Y-112853042D01*
X165320000Y-112867500D01*
X165320000Y-113162500D01*
X165319290Y-113176958D01*
X165317166Y-113191276D01*
X165313649Y-113205317D01*
X165308772Y-113218946D01*
X165302583Y-113232031D01*
X165295142Y-113244447D01*
X165286519Y-113256073D01*
X165276798Y-113266798D01*
X165266073Y-113276519D01*
X165254447Y-113285142D01*
X165242031Y-113292583D01*
X165228946Y-113298772D01*
X165215317Y-113303649D01*
X165201276Y-113307166D01*
X165186958Y-113309290D01*
X165172500Y-113310000D01*
X164827500Y-113310000D01*
X164813042Y-113309290D01*
X164798724Y-113307166D01*
X164784683Y-113303649D01*
X164771054Y-113298772D01*
X164757969Y-113292583D01*
X164745553Y-113285142D01*
X164733927Y-113276519D01*
X164723202Y-113266798D01*
X164713481Y-113256073D01*
X164704858Y-113244447D01*
X164697417Y-113232031D01*
X164691228Y-113218946D01*
X164686351Y-113205317D01*
X164682834Y-113191276D01*
X164680710Y-113176958D01*
X164680000Y-113162500D01*
X164680000Y-112867500D01*
X164680710Y-112853042D01*
X164682834Y-112838724D01*
X164686351Y-112824683D01*
X164691228Y-112811054D01*
X164697417Y-112797969D01*
X164704858Y-112785553D01*
X164713481Y-112773927D01*
X164723202Y-112763202D01*
X164733927Y-112753481D01*
X164745553Y-112744858D01*
X164757969Y-112737417D01*
X164771054Y-112731228D01*
X164784683Y-112726351D01*
X164798724Y-112722834D01*
X164813042Y-112720710D01*
X164827500Y-112720000D01*
X165172500Y-112720000D01*
X165186958Y-112720710D01*
X165186958Y-112720710D01*
G37*
D11*
X165000000Y-113015000D03*
D10*
G36*
X165186958Y-113690710D02*
X165201276Y-113692834D01*
X165215317Y-113696351D01*
X165228946Y-113701228D01*
X165242031Y-113707417D01*
X165254447Y-113714858D01*
X165266073Y-113723481D01*
X165276798Y-113733202D01*
X165286519Y-113743927D01*
X165295142Y-113755553D01*
X165302583Y-113767969D01*
X165308772Y-113781054D01*
X165313649Y-113794683D01*
X165317166Y-113808724D01*
X165319290Y-113823042D01*
X165320000Y-113837500D01*
X165320000Y-114132500D01*
X165319290Y-114146958D01*
X165317166Y-114161276D01*
X165313649Y-114175317D01*
X165308772Y-114188946D01*
X165302583Y-114202031D01*
X165295142Y-114214447D01*
X165286519Y-114226073D01*
X165276798Y-114236798D01*
X165266073Y-114246519D01*
X165254447Y-114255142D01*
X165242031Y-114262583D01*
X165228946Y-114268772D01*
X165215317Y-114273649D01*
X165201276Y-114277166D01*
X165186958Y-114279290D01*
X165172500Y-114280000D01*
X164827500Y-114280000D01*
X164813042Y-114279290D01*
X164798724Y-114277166D01*
X164784683Y-114273649D01*
X164771054Y-114268772D01*
X164757969Y-114262583D01*
X164745553Y-114255142D01*
X164733927Y-114246519D01*
X164723202Y-114236798D01*
X164713481Y-114226073D01*
X164704858Y-114214447D01*
X164697417Y-114202031D01*
X164691228Y-114188946D01*
X164686351Y-114175317D01*
X164682834Y-114161276D01*
X164680710Y-114146958D01*
X164680000Y-114132500D01*
X164680000Y-113837500D01*
X164680710Y-113823042D01*
X164682834Y-113808724D01*
X164686351Y-113794683D01*
X164691228Y-113781054D01*
X164697417Y-113767969D01*
X164704858Y-113755553D01*
X164713481Y-113743927D01*
X164723202Y-113733202D01*
X164733927Y-113723481D01*
X164745553Y-113714858D01*
X164757969Y-113707417D01*
X164771054Y-113701228D01*
X164784683Y-113696351D01*
X164798724Y-113692834D01*
X164813042Y-113690710D01*
X164827500Y-113690000D01*
X165172500Y-113690000D01*
X165186958Y-113690710D01*
X165186958Y-113690710D01*
G37*
D11*
X165000000Y-113985000D03*
G04 #@! TD*
D10*
G04 #@! TO.C,C19*
G36*
X133186958Y-96190710D02*
X133201276Y-96192834D01*
X133215317Y-96196351D01*
X133228946Y-96201228D01*
X133242031Y-96207417D01*
X133254447Y-96214858D01*
X133266073Y-96223481D01*
X133276798Y-96233202D01*
X133286519Y-96243927D01*
X133295142Y-96255553D01*
X133302583Y-96267969D01*
X133308772Y-96281054D01*
X133313649Y-96294683D01*
X133317166Y-96308724D01*
X133319290Y-96323042D01*
X133320000Y-96337500D01*
X133320000Y-96632500D01*
X133319290Y-96646958D01*
X133317166Y-96661276D01*
X133313649Y-96675317D01*
X133308772Y-96688946D01*
X133302583Y-96702031D01*
X133295142Y-96714447D01*
X133286519Y-96726073D01*
X133276798Y-96736798D01*
X133266073Y-96746519D01*
X133254447Y-96755142D01*
X133242031Y-96762583D01*
X133228946Y-96768772D01*
X133215317Y-96773649D01*
X133201276Y-96777166D01*
X133186958Y-96779290D01*
X133172500Y-96780000D01*
X132827500Y-96780000D01*
X132813042Y-96779290D01*
X132798724Y-96777166D01*
X132784683Y-96773649D01*
X132771054Y-96768772D01*
X132757969Y-96762583D01*
X132745553Y-96755142D01*
X132733927Y-96746519D01*
X132723202Y-96736798D01*
X132713481Y-96726073D01*
X132704858Y-96714447D01*
X132697417Y-96702031D01*
X132691228Y-96688946D01*
X132686351Y-96675317D01*
X132682834Y-96661276D01*
X132680710Y-96646958D01*
X132680000Y-96632500D01*
X132680000Y-96337500D01*
X132680710Y-96323042D01*
X132682834Y-96308724D01*
X132686351Y-96294683D01*
X132691228Y-96281054D01*
X132697417Y-96267969D01*
X132704858Y-96255553D01*
X132713481Y-96243927D01*
X132723202Y-96233202D01*
X132733927Y-96223481D01*
X132745553Y-96214858D01*
X132757969Y-96207417D01*
X132771054Y-96201228D01*
X132784683Y-96196351D01*
X132798724Y-96192834D01*
X132813042Y-96190710D01*
X132827500Y-96190000D01*
X133172500Y-96190000D01*
X133186958Y-96190710D01*
X133186958Y-96190710D01*
G37*
D11*
X133000000Y-96485000D03*
D10*
G36*
X133186958Y-95220710D02*
X133201276Y-95222834D01*
X133215317Y-95226351D01*
X133228946Y-95231228D01*
X133242031Y-95237417D01*
X133254447Y-95244858D01*
X133266073Y-95253481D01*
X133276798Y-95263202D01*
X133286519Y-95273927D01*
X133295142Y-95285553D01*
X133302583Y-95297969D01*
X133308772Y-95311054D01*
X133313649Y-95324683D01*
X133317166Y-95338724D01*
X133319290Y-95353042D01*
X133320000Y-95367500D01*
X133320000Y-95662500D01*
X133319290Y-95676958D01*
X133317166Y-95691276D01*
X133313649Y-95705317D01*
X133308772Y-95718946D01*
X133302583Y-95732031D01*
X133295142Y-95744447D01*
X133286519Y-95756073D01*
X133276798Y-95766798D01*
X133266073Y-95776519D01*
X133254447Y-95785142D01*
X133242031Y-95792583D01*
X133228946Y-95798772D01*
X133215317Y-95803649D01*
X133201276Y-95807166D01*
X133186958Y-95809290D01*
X133172500Y-95810000D01*
X132827500Y-95810000D01*
X132813042Y-95809290D01*
X132798724Y-95807166D01*
X132784683Y-95803649D01*
X132771054Y-95798772D01*
X132757969Y-95792583D01*
X132745553Y-95785142D01*
X132733927Y-95776519D01*
X132723202Y-95766798D01*
X132713481Y-95756073D01*
X132704858Y-95744447D01*
X132697417Y-95732031D01*
X132691228Y-95718946D01*
X132686351Y-95705317D01*
X132682834Y-95691276D01*
X132680710Y-95676958D01*
X132680000Y-95662500D01*
X132680000Y-95367500D01*
X132680710Y-95353042D01*
X132682834Y-95338724D01*
X132686351Y-95324683D01*
X132691228Y-95311054D01*
X132697417Y-95297969D01*
X132704858Y-95285553D01*
X132713481Y-95273927D01*
X132723202Y-95263202D01*
X132733927Y-95253481D01*
X132745553Y-95244858D01*
X132757969Y-95237417D01*
X132771054Y-95231228D01*
X132784683Y-95226351D01*
X132798724Y-95222834D01*
X132813042Y-95220710D01*
X132827500Y-95220000D01*
X133172500Y-95220000D01*
X133186958Y-95220710D01*
X133186958Y-95220710D01*
G37*
D11*
X133000000Y-95515000D03*
G04 #@! TD*
D10*
G04 #@! TO.C,C23*
G36*
X136146958Y-93680710D02*
X136161276Y-93682834D01*
X136175317Y-93686351D01*
X136188946Y-93691228D01*
X136202031Y-93697417D01*
X136214447Y-93704858D01*
X136226073Y-93713481D01*
X136236798Y-93723202D01*
X136246519Y-93733927D01*
X136255142Y-93745553D01*
X136262583Y-93757969D01*
X136268772Y-93771054D01*
X136273649Y-93784683D01*
X136277166Y-93798724D01*
X136279290Y-93813042D01*
X136280000Y-93827500D01*
X136280000Y-94172500D01*
X136279290Y-94186958D01*
X136277166Y-94201276D01*
X136273649Y-94215317D01*
X136268772Y-94228946D01*
X136262583Y-94242031D01*
X136255142Y-94254447D01*
X136246519Y-94266073D01*
X136236798Y-94276798D01*
X136226073Y-94286519D01*
X136214447Y-94295142D01*
X136202031Y-94302583D01*
X136188946Y-94308772D01*
X136175317Y-94313649D01*
X136161276Y-94317166D01*
X136146958Y-94319290D01*
X136132500Y-94320000D01*
X135837500Y-94320000D01*
X135823042Y-94319290D01*
X135808724Y-94317166D01*
X135794683Y-94313649D01*
X135781054Y-94308772D01*
X135767969Y-94302583D01*
X135755553Y-94295142D01*
X135743927Y-94286519D01*
X135733202Y-94276798D01*
X135723481Y-94266073D01*
X135714858Y-94254447D01*
X135707417Y-94242031D01*
X135701228Y-94228946D01*
X135696351Y-94215317D01*
X135692834Y-94201276D01*
X135690710Y-94186958D01*
X135690000Y-94172500D01*
X135690000Y-93827500D01*
X135690710Y-93813042D01*
X135692834Y-93798724D01*
X135696351Y-93784683D01*
X135701228Y-93771054D01*
X135707417Y-93757969D01*
X135714858Y-93745553D01*
X135723481Y-93733927D01*
X135733202Y-93723202D01*
X135743927Y-93713481D01*
X135755553Y-93704858D01*
X135767969Y-93697417D01*
X135781054Y-93691228D01*
X135794683Y-93686351D01*
X135808724Y-93682834D01*
X135823042Y-93680710D01*
X135837500Y-93680000D01*
X136132500Y-93680000D01*
X136146958Y-93680710D01*
X136146958Y-93680710D01*
G37*
D11*
X135985000Y-94000000D03*
D10*
G36*
X135176958Y-93680710D02*
X135191276Y-93682834D01*
X135205317Y-93686351D01*
X135218946Y-93691228D01*
X135232031Y-93697417D01*
X135244447Y-93704858D01*
X135256073Y-93713481D01*
X135266798Y-93723202D01*
X135276519Y-93733927D01*
X135285142Y-93745553D01*
X135292583Y-93757969D01*
X135298772Y-93771054D01*
X135303649Y-93784683D01*
X135307166Y-93798724D01*
X135309290Y-93813042D01*
X135310000Y-93827500D01*
X135310000Y-94172500D01*
X135309290Y-94186958D01*
X135307166Y-94201276D01*
X135303649Y-94215317D01*
X135298772Y-94228946D01*
X135292583Y-94242031D01*
X135285142Y-94254447D01*
X135276519Y-94266073D01*
X135266798Y-94276798D01*
X135256073Y-94286519D01*
X135244447Y-94295142D01*
X135232031Y-94302583D01*
X135218946Y-94308772D01*
X135205317Y-94313649D01*
X135191276Y-94317166D01*
X135176958Y-94319290D01*
X135162500Y-94320000D01*
X134867500Y-94320000D01*
X134853042Y-94319290D01*
X134838724Y-94317166D01*
X134824683Y-94313649D01*
X134811054Y-94308772D01*
X134797969Y-94302583D01*
X134785553Y-94295142D01*
X134773927Y-94286519D01*
X134763202Y-94276798D01*
X134753481Y-94266073D01*
X134744858Y-94254447D01*
X134737417Y-94242031D01*
X134731228Y-94228946D01*
X134726351Y-94215317D01*
X134722834Y-94201276D01*
X134720710Y-94186958D01*
X134720000Y-94172500D01*
X134720000Y-93827500D01*
X134720710Y-93813042D01*
X134722834Y-93798724D01*
X134726351Y-93784683D01*
X134731228Y-93771054D01*
X134737417Y-93757969D01*
X134744858Y-93745553D01*
X134753481Y-93733927D01*
X134763202Y-93723202D01*
X134773927Y-93713481D01*
X134785553Y-93704858D01*
X134797969Y-93697417D01*
X134811054Y-93691228D01*
X134824683Y-93686351D01*
X134838724Y-93682834D01*
X134853042Y-93680710D01*
X134867500Y-93680000D01*
X135162500Y-93680000D01*
X135176958Y-93680710D01*
X135176958Y-93680710D01*
G37*
D11*
X135015000Y-94000000D03*
G04 #@! TD*
D10*
G04 #@! TO.C,C24*
G36*
X140186958Y-95220710D02*
X140201276Y-95222834D01*
X140215317Y-95226351D01*
X140228946Y-95231228D01*
X140242031Y-95237417D01*
X140254447Y-95244858D01*
X140266073Y-95253481D01*
X140276798Y-95263202D01*
X140286519Y-95273927D01*
X140295142Y-95285553D01*
X140302583Y-95297969D01*
X140308772Y-95311054D01*
X140313649Y-95324683D01*
X140317166Y-95338724D01*
X140319290Y-95353042D01*
X140320000Y-95367500D01*
X140320000Y-95662500D01*
X140319290Y-95676958D01*
X140317166Y-95691276D01*
X140313649Y-95705317D01*
X140308772Y-95718946D01*
X140302583Y-95732031D01*
X140295142Y-95744447D01*
X140286519Y-95756073D01*
X140276798Y-95766798D01*
X140266073Y-95776519D01*
X140254447Y-95785142D01*
X140242031Y-95792583D01*
X140228946Y-95798772D01*
X140215317Y-95803649D01*
X140201276Y-95807166D01*
X140186958Y-95809290D01*
X140172500Y-95810000D01*
X139827500Y-95810000D01*
X139813042Y-95809290D01*
X139798724Y-95807166D01*
X139784683Y-95803649D01*
X139771054Y-95798772D01*
X139757969Y-95792583D01*
X139745553Y-95785142D01*
X139733927Y-95776519D01*
X139723202Y-95766798D01*
X139713481Y-95756073D01*
X139704858Y-95744447D01*
X139697417Y-95732031D01*
X139691228Y-95718946D01*
X139686351Y-95705317D01*
X139682834Y-95691276D01*
X139680710Y-95676958D01*
X139680000Y-95662500D01*
X139680000Y-95367500D01*
X139680710Y-95353042D01*
X139682834Y-95338724D01*
X139686351Y-95324683D01*
X139691228Y-95311054D01*
X139697417Y-95297969D01*
X139704858Y-95285553D01*
X139713481Y-95273927D01*
X139723202Y-95263202D01*
X139733927Y-95253481D01*
X139745553Y-95244858D01*
X139757969Y-95237417D01*
X139771054Y-95231228D01*
X139784683Y-95226351D01*
X139798724Y-95222834D01*
X139813042Y-95220710D01*
X139827500Y-95220000D01*
X140172500Y-95220000D01*
X140186958Y-95220710D01*
X140186958Y-95220710D01*
G37*
D11*
X140000000Y-95515000D03*
D10*
G36*
X140186958Y-96190710D02*
X140201276Y-96192834D01*
X140215317Y-96196351D01*
X140228946Y-96201228D01*
X140242031Y-96207417D01*
X140254447Y-96214858D01*
X140266073Y-96223481D01*
X140276798Y-96233202D01*
X140286519Y-96243927D01*
X140295142Y-96255553D01*
X140302583Y-96267969D01*
X140308772Y-96281054D01*
X140313649Y-96294683D01*
X140317166Y-96308724D01*
X140319290Y-96323042D01*
X140320000Y-96337500D01*
X140320000Y-96632500D01*
X140319290Y-96646958D01*
X140317166Y-96661276D01*
X140313649Y-96675317D01*
X140308772Y-96688946D01*
X140302583Y-96702031D01*
X140295142Y-96714447D01*
X140286519Y-96726073D01*
X140276798Y-96736798D01*
X140266073Y-96746519D01*
X140254447Y-96755142D01*
X140242031Y-96762583D01*
X140228946Y-96768772D01*
X140215317Y-96773649D01*
X140201276Y-96777166D01*
X140186958Y-96779290D01*
X140172500Y-96780000D01*
X139827500Y-96780000D01*
X139813042Y-96779290D01*
X139798724Y-96777166D01*
X139784683Y-96773649D01*
X139771054Y-96768772D01*
X139757969Y-96762583D01*
X139745553Y-96755142D01*
X139733927Y-96746519D01*
X139723202Y-96736798D01*
X139713481Y-96726073D01*
X139704858Y-96714447D01*
X139697417Y-96702031D01*
X139691228Y-96688946D01*
X139686351Y-96675317D01*
X139682834Y-96661276D01*
X139680710Y-96646958D01*
X139680000Y-96632500D01*
X139680000Y-96337500D01*
X139680710Y-96323042D01*
X139682834Y-96308724D01*
X139686351Y-96294683D01*
X139691228Y-96281054D01*
X139697417Y-96267969D01*
X139704858Y-96255553D01*
X139713481Y-96243927D01*
X139723202Y-96233202D01*
X139733927Y-96223481D01*
X139745553Y-96214858D01*
X139757969Y-96207417D01*
X139771054Y-96201228D01*
X139784683Y-96196351D01*
X139798724Y-96192834D01*
X139813042Y-96190710D01*
X139827500Y-96190000D01*
X140172500Y-96190000D01*
X140186958Y-96190710D01*
X140186958Y-96190710D01*
G37*
D11*
X140000000Y-96485000D03*
G04 #@! TD*
D10*
G04 #@! TO.C,C27*
G36*
X146686958Y-95220710D02*
X146701276Y-95222834D01*
X146715317Y-95226351D01*
X146728946Y-95231228D01*
X146742031Y-95237417D01*
X146754447Y-95244858D01*
X146766073Y-95253481D01*
X146776798Y-95263202D01*
X146786519Y-95273927D01*
X146795142Y-95285553D01*
X146802583Y-95297969D01*
X146808772Y-95311054D01*
X146813649Y-95324683D01*
X146817166Y-95338724D01*
X146819290Y-95353042D01*
X146820000Y-95367500D01*
X146820000Y-95662500D01*
X146819290Y-95676958D01*
X146817166Y-95691276D01*
X146813649Y-95705317D01*
X146808772Y-95718946D01*
X146802583Y-95732031D01*
X146795142Y-95744447D01*
X146786519Y-95756073D01*
X146776798Y-95766798D01*
X146766073Y-95776519D01*
X146754447Y-95785142D01*
X146742031Y-95792583D01*
X146728946Y-95798772D01*
X146715317Y-95803649D01*
X146701276Y-95807166D01*
X146686958Y-95809290D01*
X146672500Y-95810000D01*
X146327500Y-95810000D01*
X146313042Y-95809290D01*
X146298724Y-95807166D01*
X146284683Y-95803649D01*
X146271054Y-95798772D01*
X146257969Y-95792583D01*
X146245553Y-95785142D01*
X146233927Y-95776519D01*
X146223202Y-95766798D01*
X146213481Y-95756073D01*
X146204858Y-95744447D01*
X146197417Y-95732031D01*
X146191228Y-95718946D01*
X146186351Y-95705317D01*
X146182834Y-95691276D01*
X146180710Y-95676958D01*
X146180000Y-95662500D01*
X146180000Y-95367500D01*
X146180710Y-95353042D01*
X146182834Y-95338724D01*
X146186351Y-95324683D01*
X146191228Y-95311054D01*
X146197417Y-95297969D01*
X146204858Y-95285553D01*
X146213481Y-95273927D01*
X146223202Y-95263202D01*
X146233927Y-95253481D01*
X146245553Y-95244858D01*
X146257969Y-95237417D01*
X146271054Y-95231228D01*
X146284683Y-95226351D01*
X146298724Y-95222834D01*
X146313042Y-95220710D01*
X146327500Y-95220000D01*
X146672500Y-95220000D01*
X146686958Y-95220710D01*
X146686958Y-95220710D01*
G37*
D11*
X146500000Y-95515000D03*
D10*
G36*
X146686958Y-96190710D02*
X146701276Y-96192834D01*
X146715317Y-96196351D01*
X146728946Y-96201228D01*
X146742031Y-96207417D01*
X146754447Y-96214858D01*
X146766073Y-96223481D01*
X146776798Y-96233202D01*
X146786519Y-96243927D01*
X146795142Y-96255553D01*
X146802583Y-96267969D01*
X146808772Y-96281054D01*
X146813649Y-96294683D01*
X146817166Y-96308724D01*
X146819290Y-96323042D01*
X146820000Y-96337500D01*
X146820000Y-96632500D01*
X146819290Y-96646958D01*
X146817166Y-96661276D01*
X146813649Y-96675317D01*
X146808772Y-96688946D01*
X146802583Y-96702031D01*
X146795142Y-96714447D01*
X146786519Y-96726073D01*
X146776798Y-96736798D01*
X146766073Y-96746519D01*
X146754447Y-96755142D01*
X146742031Y-96762583D01*
X146728946Y-96768772D01*
X146715317Y-96773649D01*
X146701276Y-96777166D01*
X146686958Y-96779290D01*
X146672500Y-96780000D01*
X146327500Y-96780000D01*
X146313042Y-96779290D01*
X146298724Y-96777166D01*
X146284683Y-96773649D01*
X146271054Y-96768772D01*
X146257969Y-96762583D01*
X146245553Y-96755142D01*
X146233927Y-96746519D01*
X146223202Y-96736798D01*
X146213481Y-96726073D01*
X146204858Y-96714447D01*
X146197417Y-96702031D01*
X146191228Y-96688946D01*
X146186351Y-96675317D01*
X146182834Y-96661276D01*
X146180710Y-96646958D01*
X146180000Y-96632500D01*
X146180000Y-96337500D01*
X146180710Y-96323042D01*
X146182834Y-96308724D01*
X146186351Y-96294683D01*
X146191228Y-96281054D01*
X146197417Y-96267969D01*
X146204858Y-96255553D01*
X146213481Y-96243927D01*
X146223202Y-96233202D01*
X146233927Y-96223481D01*
X146245553Y-96214858D01*
X146257969Y-96207417D01*
X146271054Y-96201228D01*
X146284683Y-96196351D01*
X146298724Y-96192834D01*
X146313042Y-96190710D01*
X146327500Y-96190000D01*
X146672500Y-96190000D01*
X146686958Y-96190710D01*
X146686958Y-96190710D01*
G37*
D11*
X146500000Y-96485000D03*
G04 #@! TD*
D10*
G04 #@! TO.C,C33*
G36*
X164146958Y-97680710D02*
X164161276Y-97682834D01*
X164175317Y-97686351D01*
X164188946Y-97691228D01*
X164202031Y-97697417D01*
X164214447Y-97704858D01*
X164226073Y-97713481D01*
X164236798Y-97723202D01*
X164246519Y-97733927D01*
X164255142Y-97745553D01*
X164262583Y-97757969D01*
X164268772Y-97771054D01*
X164273649Y-97784683D01*
X164277166Y-97798724D01*
X164279290Y-97813042D01*
X164280000Y-97827500D01*
X164280000Y-98172500D01*
X164279290Y-98186958D01*
X164277166Y-98201276D01*
X164273649Y-98215317D01*
X164268772Y-98228946D01*
X164262583Y-98242031D01*
X164255142Y-98254447D01*
X164246519Y-98266073D01*
X164236798Y-98276798D01*
X164226073Y-98286519D01*
X164214447Y-98295142D01*
X164202031Y-98302583D01*
X164188946Y-98308772D01*
X164175317Y-98313649D01*
X164161276Y-98317166D01*
X164146958Y-98319290D01*
X164132500Y-98320000D01*
X163837500Y-98320000D01*
X163823042Y-98319290D01*
X163808724Y-98317166D01*
X163794683Y-98313649D01*
X163781054Y-98308772D01*
X163767969Y-98302583D01*
X163755553Y-98295142D01*
X163743927Y-98286519D01*
X163733202Y-98276798D01*
X163723481Y-98266073D01*
X163714858Y-98254447D01*
X163707417Y-98242031D01*
X163701228Y-98228946D01*
X163696351Y-98215317D01*
X163692834Y-98201276D01*
X163690710Y-98186958D01*
X163690000Y-98172500D01*
X163690000Y-97827500D01*
X163690710Y-97813042D01*
X163692834Y-97798724D01*
X163696351Y-97784683D01*
X163701228Y-97771054D01*
X163707417Y-97757969D01*
X163714858Y-97745553D01*
X163723481Y-97733927D01*
X163733202Y-97723202D01*
X163743927Y-97713481D01*
X163755553Y-97704858D01*
X163767969Y-97697417D01*
X163781054Y-97691228D01*
X163794683Y-97686351D01*
X163808724Y-97682834D01*
X163823042Y-97680710D01*
X163837500Y-97680000D01*
X164132500Y-97680000D01*
X164146958Y-97680710D01*
X164146958Y-97680710D01*
G37*
D11*
X163985000Y-98000000D03*
D10*
G36*
X163176958Y-97680710D02*
X163191276Y-97682834D01*
X163205317Y-97686351D01*
X163218946Y-97691228D01*
X163232031Y-97697417D01*
X163244447Y-97704858D01*
X163256073Y-97713481D01*
X163266798Y-97723202D01*
X163276519Y-97733927D01*
X163285142Y-97745553D01*
X163292583Y-97757969D01*
X163298772Y-97771054D01*
X163303649Y-97784683D01*
X163307166Y-97798724D01*
X163309290Y-97813042D01*
X163310000Y-97827500D01*
X163310000Y-98172500D01*
X163309290Y-98186958D01*
X163307166Y-98201276D01*
X163303649Y-98215317D01*
X163298772Y-98228946D01*
X163292583Y-98242031D01*
X163285142Y-98254447D01*
X163276519Y-98266073D01*
X163266798Y-98276798D01*
X163256073Y-98286519D01*
X163244447Y-98295142D01*
X163232031Y-98302583D01*
X163218946Y-98308772D01*
X163205317Y-98313649D01*
X163191276Y-98317166D01*
X163176958Y-98319290D01*
X163162500Y-98320000D01*
X162867500Y-98320000D01*
X162853042Y-98319290D01*
X162838724Y-98317166D01*
X162824683Y-98313649D01*
X162811054Y-98308772D01*
X162797969Y-98302583D01*
X162785553Y-98295142D01*
X162773927Y-98286519D01*
X162763202Y-98276798D01*
X162753481Y-98266073D01*
X162744858Y-98254447D01*
X162737417Y-98242031D01*
X162731228Y-98228946D01*
X162726351Y-98215317D01*
X162722834Y-98201276D01*
X162720710Y-98186958D01*
X162720000Y-98172500D01*
X162720000Y-97827500D01*
X162720710Y-97813042D01*
X162722834Y-97798724D01*
X162726351Y-97784683D01*
X162731228Y-97771054D01*
X162737417Y-97757969D01*
X162744858Y-97745553D01*
X162753481Y-97733927D01*
X162763202Y-97723202D01*
X162773927Y-97713481D01*
X162785553Y-97704858D01*
X162797969Y-97697417D01*
X162811054Y-97691228D01*
X162824683Y-97686351D01*
X162838724Y-97682834D01*
X162853042Y-97680710D01*
X162867500Y-97680000D01*
X163162500Y-97680000D01*
X163176958Y-97680710D01*
X163176958Y-97680710D01*
G37*
D11*
X163015000Y-98000000D03*
G04 #@! TD*
D10*
G04 #@! TO.C,C34*
G36*
X158176958Y-93680710D02*
X158191276Y-93682834D01*
X158205317Y-93686351D01*
X158218946Y-93691228D01*
X158232031Y-93697417D01*
X158244447Y-93704858D01*
X158256073Y-93713481D01*
X158266798Y-93723202D01*
X158276519Y-93733927D01*
X158285142Y-93745553D01*
X158292583Y-93757969D01*
X158298772Y-93771054D01*
X158303649Y-93784683D01*
X158307166Y-93798724D01*
X158309290Y-93813042D01*
X158310000Y-93827500D01*
X158310000Y-94172500D01*
X158309290Y-94186958D01*
X158307166Y-94201276D01*
X158303649Y-94215317D01*
X158298772Y-94228946D01*
X158292583Y-94242031D01*
X158285142Y-94254447D01*
X158276519Y-94266073D01*
X158266798Y-94276798D01*
X158256073Y-94286519D01*
X158244447Y-94295142D01*
X158232031Y-94302583D01*
X158218946Y-94308772D01*
X158205317Y-94313649D01*
X158191276Y-94317166D01*
X158176958Y-94319290D01*
X158162500Y-94320000D01*
X157867500Y-94320000D01*
X157853042Y-94319290D01*
X157838724Y-94317166D01*
X157824683Y-94313649D01*
X157811054Y-94308772D01*
X157797969Y-94302583D01*
X157785553Y-94295142D01*
X157773927Y-94286519D01*
X157763202Y-94276798D01*
X157753481Y-94266073D01*
X157744858Y-94254447D01*
X157737417Y-94242031D01*
X157731228Y-94228946D01*
X157726351Y-94215317D01*
X157722834Y-94201276D01*
X157720710Y-94186958D01*
X157720000Y-94172500D01*
X157720000Y-93827500D01*
X157720710Y-93813042D01*
X157722834Y-93798724D01*
X157726351Y-93784683D01*
X157731228Y-93771054D01*
X157737417Y-93757969D01*
X157744858Y-93745553D01*
X157753481Y-93733927D01*
X157763202Y-93723202D01*
X157773927Y-93713481D01*
X157785553Y-93704858D01*
X157797969Y-93697417D01*
X157811054Y-93691228D01*
X157824683Y-93686351D01*
X157838724Y-93682834D01*
X157853042Y-93680710D01*
X157867500Y-93680000D01*
X158162500Y-93680000D01*
X158176958Y-93680710D01*
X158176958Y-93680710D01*
G37*
D11*
X158015000Y-94000000D03*
D10*
G36*
X159146958Y-93680710D02*
X159161276Y-93682834D01*
X159175317Y-93686351D01*
X159188946Y-93691228D01*
X159202031Y-93697417D01*
X159214447Y-93704858D01*
X159226073Y-93713481D01*
X159236798Y-93723202D01*
X159246519Y-93733927D01*
X159255142Y-93745553D01*
X159262583Y-93757969D01*
X159268772Y-93771054D01*
X159273649Y-93784683D01*
X159277166Y-93798724D01*
X159279290Y-93813042D01*
X159280000Y-93827500D01*
X159280000Y-94172500D01*
X159279290Y-94186958D01*
X159277166Y-94201276D01*
X159273649Y-94215317D01*
X159268772Y-94228946D01*
X159262583Y-94242031D01*
X159255142Y-94254447D01*
X159246519Y-94266073D01*
X159236798Y-94276798D01*
X159226073Y-94286519D01*
X159214447Y-94295142D01*
X159202031Y-94302583D01*
X159188946Y-94308772D01*
X159175317Y-94313649D01*
X159161276Y-94317166D01*
X159146958Y-94319290D01*
X159132500Y-94320000D01*
X158837500Y-94320000D01*
X158823042Y-94319290D01*
X158808724Y-94317166D01*
X158794683Y-94313649D01*
X158781054Y-94308772D01*
X158767969Y-94302583D01*
X158755553Y-94295142D01*
X158743927Y-94286519D01*
X158733202Y-94276798D01*
X158723481Y-94266073D01*
X158714858Y-94254447D01*
X158707417Y-94242031D01*
X158701228Y-94228946D01*
X158696351Y-94215317D01*
X158692834Y-94201276D01*
X158690710Y-94186958D01*
X158690000Y-94172500D01*
X158690000Y-93827500D01*
X158690710Y-93813042D01*
X158692834Y-93798724D01*
X158696351Y-93784683D01*
X158701228Y-93771054D01*
X158707417Y-93757969D01*
X158714858Y-93745553D01*
X158723481Y-93733927D01*
X158733202Y-93723202D01*
X158743927Y-93713481D01*
X158755553Y-93704858D01*
X158767969Y-93697417D01*
X158781054Y-93691228D01*
X158794683Y-93686351D01*
X158808724Y-93682834D01*
X158823042Y-93680710D01*
X158837500Y-93680000D01*
X159132500Y-93680000D01*
X159146958Y-93680710D01*
X159146958Y-93680710D01*
G37*
D11*
X158985000Y-94000000D03*
G04 #@! TD*
D10*
G04 #@! TO.C,C35*
G36*
X160186958Y-95205710D02*
X160201276Y-95207834D01*
X160215317Y-95211351D01*
X160228946Y-95216228D01*
X160242031Y-95222417D01*
X160254447Y-95229858D01*
X160266073Y-95238481D01*
X160276798Y-95248202D01*
X160286519Y-95258927D01*
X160295142Y-95270553D01*
X160302583Y-95282969D01*
X160308772Y-95296054D01*
X160313649Y-95309683D01*
X160317166Y-95323724D01*
X160319290Y-95338042D01*
X160320000Y-95352500D01*
X160320000Y-95647500D01*
X160319290Y-95661958D01*
X160317166Y-95676276D01*
X160313649Y-95690317D01*
X160308772Y-95703946D01*
X160302583Y-95717031D01*
X160295142Y-95729447D01*
X160286519Y-95741073D01*
X160276798Y-95751798D01*
X160266073Y-95761519D01*
X160254447Y-95770142D01*
X160242031Y-95777583D01*
X160228946Y-95783772D01*
X160215317Y-95788649D01*
X160201276Y-95792166D01*
X160186958Y-95794290D01*
X160172500Y-95795000D01*
X159827500Y-95795000D01*
X159813042Y-95794290D01*
X159798724Y-95792166D01*
X159784683Y-95788649D01*
X159771054Y-95783772D01*
X159757969Y-95777583D01*
X159745553Y-95770142D01*
X159733927Y-95761519D01*
X159723202Y-95751798D01*
X159713481Y-95741073D01*
X159704858Y-95729447D01*
X159697417Y-95717031D01*
X159691228Y-95703946D01*
X159686351Y-95690317D01*
X159682834Y-95676276D01*
X159680710Y-95661958D01*
X159680000Y-95647500D01*
X159680000Y-95352500D01*
X159680710Y-95338042D01*
X159682834Y-95323724D01*
X159686351Y-95309683D01*
X159691228Y-95296054D01*
X159697417Y-95282969D01*
X159704858Y-95270553D01*
X159713481Y-95258927D01*
X159723202Y-95248202D01*
X159733927Y-95238481D01*
X159745553Y-95229858D01*
X159757969Y-95222417D01*
X159771054Y-95216228D01*
X159784683Y-95211351D01*
X159798724Y-95207834D01*
X159813042Y-95205710D01*
X159827500Y-95205000D01*
X160172500Y-95205000D01*
X160186958Y-95205710D01*
X160186958Y-95205710D01*
G37*
D11*
X160000000Y-95500000D03*
D10*
G36*
X160186958Y-96175710D02*
X160201276Y-96177834D01*
X160215317Y-96181351D01*
X160228946Y-96186228D01*
X160242031Y-96192417D01*
X160254447Y-96199858D01*
X160266073Y-96208481D01*
X160276798Y-96218202D01*
X160286519Y-96228927D01*
X160295142Y-96240553D01*
X160302583Y-96252969D01*
X160308772Y-96266054D01*
X160313649Y-96279683D01*
X160317166Y-96293724D01*
X160319290Y-96308042D01*
X160320000Y-96322500D01*
X160320000Y-96617500D01*
X160319290Y-96631958D01*
X160317166Y-96646276D01*
X160313649Y-96660317D01*
X160308772Y-96673946D01*
X160302583Y-96687031D01*
X160295142Y-96699447D01*
X160286519Y-96711073D01*
X160276798Y-96721798D01*
X160266073Y-96731519D01*
X160254447Y-96740142D01*
X160242031Y-96747583D01*
X160228946Y-96753772D01*
X160215317Y-96758649D01*
X160201276Y-96762166D01*
X160186958Y-96764290D01*
X160172500Y-96765000D01*
X159827500Y-96765000D01*
X159813042Y-96764290D01*
X159798724Y-96762166D01*
X159784683Y-96758649D01*
X159771054Y-96753772D01*
X159757969Y-96747583D01*
X159745553Y-96740142D01*
X159733927Y-96731519D01*
X159723202Y-96721798D01*
X159713481Y-96711073D01*
X159704858Y-96699447D01*
X159697417Y-96687031D01*
X159691228Y-96673946D01*
X159686351Y-96660317D01*
X159682834Y-96646276D01*
X159680710Y-96631958D01*
X159680000Y-96617500D01*
X159680000Y-96322500D01*
X159680710Y-96308042D01*
X159682834Y-96293724D01*
X159686351Y-96279683D01*
X159691228Y-96266054D01*
X159697417Y-96252969D01*
X159704858Y-96240553D01*
X159713481Y-96228927D01*
X159723202Y-96218202D01*
X159733927Y-96208481D01*
X159745553Y-96199858D01*
X159757969Y-96192417D01*
X159771054Y-96186228D01*
X159784683Y-96181351D01*
X159798724Y-96177834D01*
X159813042Y-96175710D01*
X159827500Y-96175000D01*
X160172500Y-96175000D01*
X160186958Y-96175710D01*
X160186958Y-96175710D01*
G37*
D11*
X160000000Y-96470000D03*
G04 #@! TD*
D10*
G04 #@! TO.C,C36*
G36*
X165186958Y-96190710D02*
X165201276Y-96192834D01*
X165215317Y-96196351D01*
X165228946Y-96201228D01*
X165242031Y-96207417D01*
X165254447Y-96214858D01*
X165266073Y-96223481D01*
X165276798Y-96233202D01*
X165286519Y-96243927D01*
X165295142Y-96255553D01*
X165302583Y-96267969D01*
X165308772Y-96281054D01*
X165313649Y-96294683D01*
X165317166Y-96308724D01*
X165319290Y-96323042D01*
X165320000Y-96337500D01*
X165320000Y-96632500D01*
X165319290Y-96646958D01*
X165317166Y-96661276D01*
X165313649Y-96675317D01*
X165308772Y-96688946D01*
X165302583Y-96702031D01*
X165295142Y-96714447D01*
X165286519Y-96726073D01*
X165276798Y-96736798D01*
X165266073Y-96746519D01*
X165254447Y-96755142D01*
X165242031Y-96762583D01*
X165228946Y-96768772D01*
X165215317Y-96773649D01*
X165201276Y-96777166D01*
X165186958Y-96779290D01*
X165172500Y-96780000D01*
X164827500Y-96780000D01*
X164813042Y-96779290D01*
X164798724Y-96777166D01*
X164784683Y-96773649D01*
X164771054Y-96768772D01*
X164757969Y-96762583D01*
X164745553Y-96755142D01*
X164733927Y-96746519D01*
X164723202Y-96736798D01*
X164713481Y-96726073D01*
X164704858Y-96714447D01*
X164697417Y-96702031D01*
X164691228Y-96688946D01*
X164686351Y-96675317D01*
X164682834Y-96661276D01*
X164680710Y-96646958D01*
X164680000Y-96632500D01*
X164680000Y-96337500D01*
X164680710Y-96323042D01*
X164682834Y-96308724D01*
X164686351Y-96294683D01*
X164691228Y-96281054D01*
X164697417Y-96267969D01*
X164704858Y-96255553D01*
X164713481Y-96243927D01*
X164723202Y-96233202D01*
X164733927Y-96223481D01*
X164745553Y-96214858D01*
X164757969Y-96207417D01*
X164771054Y-96201228D01*
X164784683Y-96196351D01*
X164798724Y-96192834D01*
X164813042Y-96190710D01*
X164827500Y-96190000D01*
X165172500Y-96190000D01*
X165186958Y-96190710D01*
X165186958Y-96190710D01*
G37*
D11*
X165000000Y-96485000D03*
D10*
G36*
X165186958Y-95220710D02*
X165201276Y-95222834D01*
X165215317Y-95226351D01*
X165228946Y-95231228D01*
X165242031Y-95237417D01*
X165254447Y-95244858D01*
X165266073Y-95253481D01*
X165276798Y-95263202D01*
X165286519Y-95273927D01*
X165295142Y-95285553D01*
X165302583Y-95297969D01*
X165308772Y-95311054D01*
X165313649Y-95324683D01*
X165317166Y-95338724D01*
X165319290Y-95353042D01*
X165320000Y-95367500D01*
X165320000Y-95662500D01*
X165319290Y-95676958D01*
X165317166Y-95691276D01*
X165313649Y-95705317D01*
X165308772Y-95718946D01*
X165302583Y-95732031D01*
X165295142Y-95744447D01*
X165286519Y-95756073D01*
X165276798Y-95766798D01*
X165266073Y-95776519D01*
X165254447Y-95785142D01*
X165242031Y-95792583D01*
X165228946Y-95798772D01*
X165215317Y-95803649D01*
X165201276Y-95807166D01*
X165186958Y-95809290D01*
X165172500Y-95810000D01*
X164827500Y-95810000D01*
X164813042Y-95809290D01*
X164798724Y-95807166D01*
X164784683Y-95803649D01*
X164771054Y-95798772D01*
X164757969Y-95792583D01*
X164745553Y-95785142D01*
X164733927Y-95776519D01*
X164723202Y-95766798D01*
X164713481Y-95756073D01*
X164704858Y-95744447D01*
X164697417Y-95732031D01*
X164691228Y-95718946D01*
X164686351Y-95705317D01*
X164682834Y-95691276D01*
X164680710Y-95676958D01*
X164680000Y-95662500D01*
X164680000Y-95367500D01*
X164680710Y-95353042D01*
X164682834Y-95338724D01*
X164686351Y-95324683D01*
X164691228Y-95311054D01*
X164697417Y-95297969D01*
X164704858Y-95285553D01*
X164713481Y-95273927D01*
X164723202Y-95263202D01*
X164733927Y-95253481D01*
X164745553Y-95244858D01*
X164757969Y-95237417D01*
X164771054Y-95231228D01*
X164784683Y-95226351D01*
X164798724Y-95222834D01*
X164813042Y-95220710D01*
X164827500Y-95220000D01*
X165172500Y-95220000D01*
X165186958Y-95220710D01*
X165186958Y-95220710D01*
G37*
D11*
X165000000Y-95515000D03*
G04 #@! TD*
D10*
G04 #@! TO.C,R19*
G36*
X151646958Y-95180710D02*
X151661276Y-95182834D01*
X151675317Y-95186351D01*
X151688946Y-95191228D01*
X151702031Y-95197417D01*
X151714447Y-95204858D01*
X151726073Y-95213481D01*
X151736798Y-95223202D01*
X151746519Y-95233927D01*
X151755142Y-95245553D01*
X151762583Y-95257969D01*
X151768772Y-95271054D01*
X151773649Y-95284683D01*
X151777166Y-95298724D01*
X151779290Y-95313042D01*
X151780000Y-95327500D01*
X151780000Y-95672500D01*
X151779290Y-95686958D01*
X151777166Y-95701276D01*
X151773649Y-95715317D01*
X151768772Y-95728946D01*
X151762583Y-95742031D01*
X151755142Y-95754447D01*
X151746519Y-95766073D01*
X151736798Y-95776798D01*
X151726073Y-95786519D01*
X151714447Y-95795142D01*
X151702031Y-95802583D01*
X151688946Y-95808772D01*
X151675317Y-95813649D01*
X151661276Y-95817166D01*
X151646958Y-95819290D01*
X151632500Y-95820000D01*
X151337500Y-95820000D01*
X151323042Y-95819290D01*
X151308724Y-95817166D01*
X151294683Y-95813649D01*
X151281054Y-95808772D01*
X151267969Y-95802583D01*
X151255553Y-95795142D01*
X151243927Y-95786519D01*
X151233202Y-95776798D01*
X151223481Y-95766073D01*
X151214858Y-95754447D01*
X151207417Y-95742031D01*
X151201228Y-95728946D01*
X151196351Y-95715317D01*
X151192834Y-95701276D01*
X151190710Y-95686958D01*
X151190000Y-95672500D01*
X151190000Y-95327500D01*
X151190710Y-95313042D01*
X151192834Y-95298724D01*
X151196351Y-95284683D01*
X151201228Y-95271054D01*
X151207417Y-95257969D01*
X151214858Y-95245553D01*
X151223481Y-95233927D01*
X151233202Y-95223202D01*
X151243927Y-95213481D01*
X151255553Y-95204858D01*
X151267969Y-95197417D01*
X151281054Y-95191228D01*
X151294683Y-95186351D01*
X151308724Y-95182834D01*
X151323042Y-95180710D01*
X151337500Y-95180000D01*
X151632500Y-95180000D01*
X151646958Y-95180710D01*
X151646958Y-95180710D01*
G37*
D11*
X151485000Y-95500000D03*
D10*
G36*
X150676958Y-95180710D02*
X150691276Y-95182834D01*
X150705317Y-95186351D01*
X150718946Y-95191228D01*
X150732031Y-95197417D01*
X150744447Y-95204858D01*
X150756073Y-95213481D01*
X150766798Y-95223202D01*
X150776519Y-95233927D01*
X150785142Y-95245553D01*
X150792583Y-95257969D01*
X150798772Y-95271054D01*
X150803649Y-95284683D01*
X150807166Y-95298724D01*
X150809290Y-95313042D01*
X150810000Y-95327500D01*
X150810000Y-95672500D01*
X150809290Y-95686958D01*
X150807166Y-95701276D01*
X150803649Y-95715317D01*
X150798772Y-95728946D01*
X150792583Y-95742031D01*
X150785142Y-95754447D01*
X150776519Y-95766073D01*
X150766798Y-95776798D01*
X150756073Y-95786519D01*
X150744447Y-95795142D01*
X150732031Y-95802583D01*
X150718946Y-95808772D01*
X150705317Y-95813649D01*
X150691276Y-95817166D01*
X150676958Y-95819290D01*
X150662500Y-95820000D01*
X150367500Y-95820000D01*
X150353042Y-95819290D01*
X150338724Y-95817166D01*
X150324683Y-95813649D01*
X150311054Y-95808772D01*
X150297969Y-95802583D01*
X150285553Y-95795142D01*
X150273927Y-95786519D01*
X150263202Y-95776798D01*
X150253481Y-95766073D01*
X150244858Y-95754447D01*
X150237417Y-95742031D01*
X150231228Y-95728946D01*
X150226351Y-95715317D01*
X150222834Y-95701276D01*
X150220710Y-95686958D01*
X150220000Y-95672500D01*
X150220000Y-95327500D01*
X150220710Y-95313042D01*
X150222834Y-95298724D01*
X150226351Y-95284683D01*
X150231228Y-95271054D01*
X150237417Y-95257969D01*
X150244858Y-95245553D01*
X150253481Y-95233927D01*
X150263202Y-95223202D01*
X150273927Y-95213481D01*
X150285553Y-95204858D01*
X150297969Y-95197417D01*
X150311054Y-95191228D01*
X150324683Y-95186351D01*
X150338724Y-95182834D01*
X150353042Y-95180710D01*
X150367500Y-95180000D01*
X150662500Y-95180000D01*
X150676958Y-95180710D01*
X150676958Y-95180710D01*
G37*
D11*
X150515000Y-95500000D03*
G04 #@! TD*
D10*
G04 #@! TO.C,R20*
G36*
X148676958Y-96180710D02*
X148691276Y-96182834D01*
X148705317Y-96186351D01*
X148718946Y-96191228D01*
X148732031Y-96197417D01*
X148744447Y-96204858D01*
X148756073Y-96213481D01*
X148766798Y-96223202D01*
X148776519Y-96233927D01*
X148785142Y-96245553D01*
X148792583Y-96257969D01*
X148798772Y-96271054D01*
X148803649Y-96284683D01*
X148807166Y-96298724D01*
X148809290Y-96313042D01*
X148810000Y-96327500D01*
X148810000Y-96672500D01*
X148809290Y-96686958D01*
X148807166Y-96701276D01*
X148803649Y-96715317D01*
X148798772Y-96728946D01*
X148792583Y-96742031D01*
X148785142Y-96754447D01*
X148776519Y-96766073D01*
X148766798Y-96776798D01*
X148756073Y-96786519D01*
X148744447Y-96795142D01*
X148732031Y-96802583D01*
X148718946Y-96808772D01*
X148705317Y-96813649D01*
X148691276Y-96817166D01*
X148676958Y-96819290D01*
X148662500Y-96820000D01*
X148367500Y-96820000D01*
X148353042Y-96819290D01*
X148338724Y-96817166D01*
X148324683Y-96813649D01*
X148311054Y-96808772D01*
X148297969Y-96802583D01*
X148285553Y-96795142D01*
X148273927Y-96786519D01*
X148263202Y-96776798D01*
X148253481Y-96766073D01*
X148244858Y-96754447D01*
X148237417Y-96742031D01*
X148231228Y-96728946D01*
X148226351Y-96715317D01*
X148222834Y-96701276D01*
X148220710Y-96686958D01*
X148220000Y-96672500D01*
X148220000Y-96327500D01*
X148220710Y-96313042D01*
X148222834Y-96298724D01*
X148226351Y-96284683D01*
X148231228Y-96271054D01*
X148237417Y-96257969D01*
X148244858Y-96245553D01*
X148253481Y-96233927D01*
X148263202Y-96223202D01*
X148273927Y-96213481D01*
X148285553Y-96204858D01*
X148297969Y-96197417D01*
X148311054Y-96191228D01*
X148324683Y-96186351D01*
X148338724Y-96182834D01*
X148353042Y-96180710D01*
X148367500Y-96180000D01*
X148662500Y-96180000D01*
X148676958Y-96180710D01*
X148676958Y-96180710D01*
G37*
D11*
X148515000Y-96500000D03*
D10*
G36*
X149646958Y-96180710D02*
X149661276Y-96182834D01*
X149675317Y-96186351D01*
X149688946Y-96191228D01*
X149702031Y-96197417D01*
X149714447Y-96204858D01*
X149726073Y-96213481D01*
X149736798Y-96223202D01*
X149746519Y-96233927D01*
X149755142Y-96245553D01*
X149762583Y-96257969D01*
X149768772Y-96271054D01*
X149773649Y-96284683D01*
X149777166Y-96298724D01*
X149779290Y-96313042D01*
X149780000Y-96327500D01*
X149780000Y-96672500D01*
X149779290Y-96686958D01*
X149777166Y-96701276D01*
X149773649Y-96715317D01*
X149768772Y-96728946D01*
X149762583Y-96742031D01*
X149755142Y-96754447D01*
X149746519Y-96766073D01*
X149736798Y-96776798D01*
X149726073Y-96786519D01*
X149714447Y-96795142D01*
X149702031Y-96802583D01*
X149688946Y-96808772D01*
X149675317Y-96813649D01*
X149661276Y-96817166D01*
X149646958Y-96819290D01*
X149632500Y-96820000D01*
X149337500Y-96820000D01*
X149323042Y-96819290D01*
X149308724Y-96817166D01*
X149294683Y-96813649D01*
X149281054Y-96808772D01*
X149267969Y-96802583D01*
X149255553Y-96795142D01*
X149243927Y-96786519D01*
X149233202Y-96776798D01*
X149223481Y-96766073D01*
X149214858Y-96754447D01*
X149207417Y-96742031D01*
X149201228Y-96728946D01*
X149196351Y-96715317D01*
X149192834Y-96701276D01*
X149190710Y-96686958D01*
X149190000Y-96672500D01*
X149190000Y-96327500D01*
X149190710Y-96313042D01*
X149192834Y-96298724D01*
X149196351Y-96284683D01*
X149201228Y-96271054D01*
X149207417Y-96257969D01*
X149214858Y-96245553D01*
X149223481Y-96233927D01*
X149233202Y-96223202D01*
X149243927Y-96213481D01*
X149255553Y-96204858D01*
X149267969Y-96197417D01*
X149281054Y-96191228D01*
X149294683Y-96186351D01*
X149308724Y-96182834D01*
X149323042Y-96180710D01*
X149337500Y-96180000D01*
X149632500Y-96180000D01*
X149646958Y-96180710D01*
X149646958Y-96180710D01*
G37*
D11*
X149485000Y-96500000D03*
G04 #@! TD*
D10*
G04 #@! TO.C,R21*
G36*
X152686958Y-95220710D02*
X152701276Y-95222834D01*
X152715317Y-95226351D01*
X152728946Y-95231228D01*
X152742031Y-95237417D01*
X152754447Y-95244858D01*
X152766073Y-95253481D01*
X152776798Y-95263202D01*
X152786519Y-95273927D01*
X152795142Y-95285553D01*
X152802583Y-95297969D01*
X152808772Y-95311054D01*
X152813649Y-95324683D01*
X152817166Y-95338724D01*
X152819290Y-95353042D01*
X152820000Y-95367500D01*
X152820000Y-95662500D01*
X152819290Y-95676958D01*
X152817166Y-95691276D01*
X152813649Y-95705317D01*
X152808772Y-95718946D01*
X152802583Y-95732031D01*
X152795142Y-95744447D01*
X152786519Y-95756073D01*
X152776798Y-95766798D01*
X152766073Y-95776519D01*
X152754447Y-95785142D01*
X152742031Y-95792583D01*
X152728946Y-95798772D01*
X152715317Y-95803649D01*
X152701276Y-95807166D01*
X152686958Y-95809290D01*
X152672500Y-95810000D01*
X152327500Y-95810000D01*
X152313042Y-95809290D01*
X152298724Y-95807166D01*
X152284683Y-95803649D01*
X152271054Y-95798772D01*
X152257969Y-95792583D01*
X152245553Y-95785142D01*
X152233927Y-95776519D01*
X152223202Y-95766798D01*
X152213481Y-95756073D01*
X152204858Y-95744447D01*
X152197417Y-95732031D01*
X152191228Y-95718946D01*
X152186351Y-95705317D01*
X152182834Y-95691276D01*
X152180710Y-95676958D01*
X152180000Y-95662500D01*
X152180000Y-95367500D01*
X152180710Y-95353042D01*
X152182834Y-95338724D01*
X152186351Y-95324683D01*
X152191228Y-95311054D01*
X152197417Y-95297969D01*
X152204858Y-95285553D01*
X152213481Y-95273927D01*
X152223202Y-95263202D01*
X152233927Y-95253481D01*
X152245553Y-95244858D01*
X152257969Y-95237417D01*
X152271054Y-95231228D01*
X152284683Y-95226351D01*
X152298724Y-95222834D01*
X152313042Y-95220710D01*
X152327500Y-95220000D01*
X152672500Y-95220000D01*
X152686958Y-95220710D01*
X152686958Y-95220710D01*
G37*
D11*
X152500000Y-95515000D03*
D10*
G36*
X152686958Y-96190710D02*
X152701276Y-96192834D01*
X152715317Y-96196351D01*
X152728946Y-96201228D01*
X152742031Y-96207417D01*
X152754447Y-96214858D01*
X152766073Y-96223481D01*
X152776798Y-96233202D01*
X152786519Y-96243927D01*
X152795142Y-96255553D01*
X152802583Y-96267969D01*
X152808772Y-96281054D01*
X152813649Y-96294683D01*
X152817166Y-96308724D01*
X152819290Y-96323042D01*
X152820000Y-96337500D01*
X152820000Y-96632500D01*
X152819290Y-96646958D01*
X152817166Y-96661276D01*
X152813649Y-96675317D01*
X152808772Y-96688946D01*
X152802583Y-96702031D01*
X152795142Y-96714447D01*
X152786519Y-96726073D01*
X152776798Y-96736798D01*
X152766073Y-96746519D01*
X152754447Y-96755142D01*
X152742031Y-96762583D01*
X152728946Y-96768772D01*
X152715317Y-96773649D01*
X152701276Y-96777166D01*
X152686958Y-96779290D01*
X152672500Y-96780000D01*
X152327500Y-96780000D01*
X152313042Y-96779290D01*
X152298724Y-96777166D01*
X152284683Y-96773649D01*
X152271054Y-96768772D01*
X152257969Y-96762583D01*
X152245553Y-96755142D01*
X152233927Y-96746519D01*
X152223202Y-96736798D01*
X152213481Y-96726073D01*
X152204858Y-96714447D01*
X152197417Y-96702031D01*
X152191228Y-96688946D01*
X152186351Y-96675317D01*
X152182834Y-96661276D01*
X152180710Y-96646958D01*
X152180000Y-96632500D01*
X152180000Y-96337500D01*
X152180710Y-96323042D01*
X152182834Y-96308724D01*
X152186351Y-96294683D01*
X152191228Y-96281054D01*
X152197417Y-96267969D01*
X152204858Y-96255553D01*
X152213481Y-96243927D01*
X152223202Y-96233202D01*
X152233927Y-96223481D01*
X152245553Y-96214858D01*
X152257969Y-96207417D01*
X152271054Y-96201228D01*
X152284683Y-96196351D01*
X152298724Y-96192834D01*
X152313042Y-96190710D01*
X152327500Y-96190000D01*
X152672500Y-96190000D01*
X152686958Y-96190710D01*
X152686958Y-96190710D01*
G37*
D11*
X152500000Y-96485000D03*
G04 #@! TD*
D10*
G04 #@! TO.C,R22*
G36*
X159186958Y-96190710D02*
X159201276Y-96192834D01*
X159215317Y-96196351D01*
X159228946Y-96201228D01*
X159242031Y-96207417D01*
X159254447Y-96214858D01*
X159266073Y-96223481D01*
X159276798Y-96233202D01*
X159286519Y-96243927D01*
X159295142Y-96255553D01*
X159302583Y-96267969D01*
X159308772Y-96281054D01*
X159313649Y-96294683D01*
X159317166Y-96308724D01*
X159319290Y-96323042D01*
X159320000Y-96337500D01*
X159320000Y-96632500D01*
X159319290Y-96646958D01*
X159317166Y-96661276D01*
X159313649Y-96675317D01*
X159308772Y-96688946D01*
X159302583Y-96702031D01*
X159295142Y-96714447D01*
X159286519Y-96726073D01*
X159276798Y-96736798D01*
X159266073Y-96746519D01*
X159254447Y-96755142D01*
X159242031Y-96762583D01*
X159228946Y-96768772D01*
X159215317Y-96773649D01*
X159201276Y-96777166D01*
X159186958Y-96779290D01*
X159172500Y-96780000D01*
X158827500Y-96780000D01*
X158813042Y-96779290D01*
X158798724Y-96777166D01*
X158784683Y-96773649D01*
X158771054Y-96768772D01*
X158757969Y-96762583D01*
X158745553Y-96755142D01*
X158733927Y-96746519D01*
X158723202Y-96736798D01*
X158713481Y-96726073D01*
X158704858Y-96714447D01*
X158697417Y-96702031D01*
X158691228Y-96688946D01*
X158686351Y-96675317D01*
X158682834Y-96661276D01*
X158680710Y-96646958D01*
X158680000Y-96632500D01*
X158680000Y-96337500D01*
X158680710Y-96323042D01*
X158682834Y-96308724D01*
X158686351Y-96294683D01*
X158691228Y-96281054D01*
X158697417Y-96267969D01*
X158704858Y-96255553D01*
X158713481Y-96243927D01*
X158723202Y-96233202D01*
X158733927Y-96223481D01*
X158745553Y-96214858D01*
X158757969Y-96207417D01*
X158771054Y-96201228D01*
X158784683Y-96196351D01*
X158798724Y-96192834D01*
X158813042Y-96190710D01*
X158827500Y-96190000D01*
X159172500Y-96190000D01*
X159186958Y-96190710D01*
X159186958Y-96190710D01*
G37*
D11*
X159000000Y-96485000D03*
D10*
G36*
X159186958Y-95220710D02*
X159201276Y-95222834D01*
X159215317Y-95226351D01*
X159228946Y-95231228D01*
X159242031Y-95237417D01*
X159254447Y-95244858D01*
X159266073Y-95253481D01*
X159276798Y-95263202D01*
X159286519Y-95273927D01*
X159295142Y-95285553D01*
X159302583Y-95297969D01*
X159308772Y-95311054D01*
X159313649Y-95324683D01*
X159317166Y-95338724D01*
X159319290Y-95353042D01*
X159320000Y-95367500D01*
X159320000Y-95662500D01*
X159319290Y-95676958D01*
X159317166Y-95691276D01*
X159313649Y-95705317D01*
X159308772Y-95718946D01*
X159302583Y-95732031D01*
X159295142Y-95744447D01*
X159286519Y-95756073D01*
X159276798Y-95766798D01*
X159266073Y-95776519D01*
X159254447Y-95785142D01*
X159242031Y-95792583D01*
X159228946Y-95798772D01*
X159215317Y-95803649D01*
X159201276Y-95807166D01*
X159186958Y-95809290D01*
X159172500Y-95810000D01*
X158827500Y-95810000D01*
X158813042Y-95809290D01*
X158798724Y-95807166D01*
X158784683Y-95803649D01*
X158771054Y-95798772D01*
X158757969Y-95792583D01*
X158745553Y-95785142D01*
X158733927Y-95776519D01*
X158723202Y-95766798D01*
X158713481Y-95756073D01*
X158704858Y-95744447D01*
X158697417Y-95732031D01*
X158691228Y-95718946D01*
X158686351Y-95705317D01*
X158682834Y-95691276D01*
X158680710Y-95676958D01*
X158680000Y-95662500D01*
X158680000Y-95367500D01*
X158680710Y-95353042D01*
X158682834Y-95338724D01*
X158686351Y-95324683D01*
X158691228Y-95311054D01*
X158697417Y-95297969D01*
X158704858Y-95285553D01*
X158713481Y-95273927D01*
X158723202Y-95263202D01*
X158733927Y-95253481D01*
X158745553Y-95244858D01*
X158757969Y-95237417D01*
X158771054Y-95231228D01*
X158784683Y-95226351D01*
X158798724Y-95222834D01*
X158813042Y-95220710D01*
X158827500Y-95220000D01*
X159172500Y-95220000D01*
X159186958Y-95220710D01*
X159186958Y-95220710D01*
G37*
D11*
X159000000Y-95515000D03*
G04 #@! TD*
D10*
G04 #@! TO.C,R23*
G36*
X163176958Y-94180710D02*
X163191276Y-94182834D01*
X163205317Y-94186351D01*
X163218946Y-94191228D01*
X163232031Y-94197417D01*
X163244447Y-94204858D01*
X163256073Y-94213481D01*
X163266798Y-94223202D01*
X163276519Y-94233927D01*
X163285142Y-94245553D01*
X163292583Y-94257969D01*
X163298772Y-94271054D01*
X163303649Y-94284683D01*
X163307166Y-94298724D01*
X163309290Y-94313042D01*
X163310000Y-94327500D01*
X163310000Y-94672500D01*
X163309290Y-94686958D01*
X163307166Y-94701276D01*
X163303649Y-94715317D01*
X163298772Y-94728946D01*
X163292583Y-94742031D01*
X163285142Y-94754447D01*
X163276519Y-94766073D01*
X163266798Y-94776798D01*
X163256073Y-94786519D01*
X163244447Y-94795142D01*
X163232031Y-94802583D01*
X163218946Y-94808772D01*
X163205317Y-94813649D01*
X163191276Y-94817166D01*
X163176958Y-94819290D01*
X163162500Y-94820000D01*
X162867500Y-94820000D01*
X162853042Y-94819290D01*
X162838724Y-94817166D01*
X162824683Y-94813649D01*
X162811054Y-94808772D01*
X162797969Y-94802583D01*
X162785553Y-94795142D01*
X162773927Y-94786519D01*
X162763202Y-94776798D01*
X162753481Y-94766073D01*
X162744858Y-94754447D01*
X162737417Y-94742031D01*
X162731228Y-94728946D01*
X162726351Y-94715317D01*
X162722834Y-94701276D01*
X162720710Y-94686958D01*
X162720000Y-94672500D01*
X162720000Y-94327500D01*
X162720710Y-94313042D01*
X162722834Y-94298724D01*
X162726351Y-94284683D01*
X162731228Y-94271054D01*
X162737417Y-94257969D01*
X162744858Y-94245553D01*
X162753481Y-94233927D01*
X162763202Y-94223202D01*
X162773927Y-94213481D01*
X162785553Y-94204858D01*
X162797969Y-94197417D01*
X162811054Y-94191228D01*
X162824683Y-94186351D01*
X162838724Y-94182834D01*
X162853042Y-94180710D01*
X162867500Y-94180000D01*
X163162500Y-94180000D01*
X163176958Y-94180710D01*
X163176958Y-94180710D01*
G37*
D11*
X163015000Y-94500000D03*
D10*
G36*
X164146958Y-94180710D02*
X164161276Y-94182834D01*
X164175317Y-94186351D01*
X164188946Y-94191228D01*
X164202031Y-94197417D01*
X164214447Y-94204858D01*
X164226073Y-94213481D01*
X164236798Y-94223202D01*
X164246519Y-94233927D01*
X164255142Y-94245553D01*
X164262583Y-94257969D01*
X164268772Y-94271054D01*
X164273649Y-94284683D01*
X164277166Y-94298724D01*
X164279290Y-94313042D01*
X164280000Y-94327500D01*
X164280000Y-94672500D01*
X164279290Y-94686958D01*
X164277166Y-94701276D01*
X164273649Y-94715317D01*
X164268772Y-94728946D01*
X164262583Y-94742031D01*
X164255142Y-94754447D01*
X164246519Y-94766073D01*
X164236798Y-94776798D01*
X164226073Y-94786519D01*
X164214447Y-94795142D01*
X164202031Y-94802583D01*
X164188946Y-94808772D01*
X164175317Y-94813649D01*
X164161276Y-94817166D01*
X164146958Y-94819290D01*
X164132500Y-94820000D01*
X163837500Y-94820000D01*
X163823042Y-94819290D01*
X163808724Y-94817166D01*
X163794683Y-94813649D01*
X163781054Y-94808772D01*
X163767969Y-94802583D01*
X163755553Y-94795142D01*
X163743927Y-94786519D01*
X163733202Y-94776798D01*
X163723481Y-94766073D01*
X163714858Y-94754447D01*
X163707417Y-94742031D01*
X163701228Y-94728946D01*
X163696351Y-94715317D01*
X163692834Y-94701276D01*
X163690710Y-94686958D01*
X163690000Y-94672500D01*
X163690000Y-94327500D01*
X163690710Y-94313042D01*
X163692834Y-94298724D01*
X163696351Y-94284683D01*
X163701228Y-94271054D01*
X163707417Y-94257969D01*
X163714858Y-94245553D01*
X163723481Y-94233927D01*
X163733202Y-94223202D01*
X163743927Y-94213481D01*
X163755553Y-94204858D01*
X163767969Y-94197417D01*
X163781054Y-94191228D01*
X163794683Y-94186351D01*
X163808724Y-94182834D01*
X163823042Y-94180710D01*
X163837500Y-94180000D01*
X164132500Y-94180000D01*
X164146958Y-94180710D01*
X164146958Y-94180710D01*
G37*
D11*
X163985000Y-94500000D03*
G04 #@! TD*
D10*
G04 #@! TO.C,R24*
G36*
X164146958Y-95180710D02*
X164161276Y-95182834D01*
X164175317Y-95186351D01*
X164188946Y-95191228D01*
X164202031Y-95197417D01*
X164214447Y-95204858D01*
X164226073Y-95213481D01*
X164236798Y-95223202D01*
X164246519Y-95233927D01*
X164255142Y-95245553D01*
X164262583Y-95257969D01*
X164268772Y-95271054D01*
X164273649Y-95284683D01*
X164277166Y-95298724D01*
X164279290Y-95313042D01*
X164280000Y-95327500D01*
X164280000Y-95672500D01*
X164279290Y-95686958D01*
X164277166Y-95701276D01*
X164273649Y-95715317D01*
X164268772Y-95728946D01*
X164262583Y-95742031D01*
X164255142Y-95754447D01*
X164246519Y-95766073D01*
X164236798Y-95776798D01*
X164226073Y-95786519D01*
X164214447Y-95795142D01*
X164202031Y-95802583D01*
X164188946Y-95808772D01*
X164175317Y-95813649D01*
X164161276Y-95817166D01*
X164146958Y-95819290D01*
X164132500Y-95820000D01*
X163837500Y-95820000D01*
X163823042Y-95819290D01*
X163808724Y-95817166D01*
X163794683Y-95813649D01*
X163781054Y-95808772D01*
X163767969Y-95802583D01*
X163755553Y-95795142D01*
X163743927Y-95786519D01*
X163733202Y-95776798D01*
X163723481Y-95766073D01*
X163714858Y-95754447D01*
X163707417Y-95742031D01*
X163701228Y-95728946D01*
X163696351Y-95715317D01*
X163692834Y-95701276D01*
X163690710Y-95686958D01*
X163690000Y-95672500D01*
X163690000Y-95327500D01*
X163690710Y-95313042D01*
X163692834Y-95298724D01*
X163696351Y-95284683D01*
X163701228Y-95271054D01*
X163707417Y-95257969D01*
X163714858Y-95245553D01*
X163723481Y-95233927D01*
X163733202Y-95223202D01*
X163743927Y-95213481D01*
X163755553Y-95204858D01*
X163767969Y-95197417D01*
X163781054Y-95191228D01*
X163794683Y-95186351D01*
X163808724Y-95182834D01*
X163823042Y-95180710D01*
X163837500Y-95180000D01*
X164132500Y-95180000D01*
X164146958Y-95180710D01*
X164146958Y-95180710D01*
G37*
D11*
X163985000Y-95500000D03*
D10*
G36*
X163176958Y-95180710D02*
X163191276Y-95182834D01*
X163205317Y-95186351D01*
X163218946Y-95191228D01*
X163232031Y-95197417D01*
X163244447Y-95204858D01*
X163256073Y-95213481D01*
X163266798Y-95223202D01*
X163276519Y-95233927D01*
X163285142Y-95245553D01*
X163292583Y-95257969D01*
X163298772Y-95271054D01*
X163303649Y-95284683D01*
X163307166Y-95298724D01*
X163309290Y-95313042D01*
X163310000Y-95327500D01*
X163310000Y-95672500D01*
X163309290Y-95686958D01*
X163307166Y-95701276D01*
X163303649Y-95715317D01*
X163298772Y-95728946D01*
X163292583Y-95742031D01*
X163285142Y-95754447D01*
X163276519Y-95766073D01*
X163266798Y-95776798D01*
X163256073Y-95786519D01*
X163244447Y-95795142D01*
X163232031Y-95802583D01*
X163218946Y-95808772D01*
X163205317Y-95813649D01*
X163191276Y-95817166D01*
X163176958Y-95819290D01*
X163162500Y-95820000D01*
X162867500Y-95820000D01*
X162853042Y-95819290D01*
X162838724Y-95817166D01*
X162824683Y-95813649D01*
X162811054Y-95808772D01*
X162797969Y-95802583D01*
X162785553Y-95795142D01*
X162773927Y-95786519D01*
X162763202Y-95776798D01*
X162753481Y-95766073D01*
X162744858Y-95754447D01*
X162737417Y-95742031D01*
X162731228Y-95728946D01*
X162726351Y-95715317D01*
X162722834Y-95701276D01*
X162720710Y-95686958D01*
X162720000Y-95672500D01*
X162720000Y-95327500D01*
X162720710Y-95313042D01*
X162722834Y-95298724D01*
X162726351Y-95284683D01*
X162731228Y-95271054D01*
X162737417Y-95257969D01*
X162744858Y-95245553D01*
X162753481Y-95233927D01*
X162763202Y-95223202D01*
X162773927Y-95213481D01*
X162785553Y-95204858D01*
X162797969Y-95197417D01*
X162811054Y-95191228D01*
X162824683Y-95186351D01*
X162838724Y-95182834D01*
X162853042Y-95180710D01*
X162867500Y-95180000D01*
X163162500Y-95180000D01*
X163176958Y-95180710D01*
X163176958Y-95180710D01*
G37*
D11*
X163015000Y-95500000D03*
G04 #@! TD*
D10*
G04 #@! TO.C,R25*
G36*
X162186958Y-96190710D02*
X162201276Y-96192834D01*
X162215317Y-96196351D01*
X162228946Y-96201228D01*
X162242031Y-96207417D01*
X162254447Y-96214858D01*
X162266073Y-96223481D01*
X162276798Y-96233202D01*
X162286519Y-96243927D01*
X162295142Y-96255553D01*
X162302583Y-96267969D01*
X162308772Y-96281054D01*
X162313649Y-96294683D01*
X162317166Y-96308724D01*
X162319290Y-96323042D01*
X162320000Y-96337500D01*
X162320000Y-96632500D01*
X162319290Y-96646958D01*
X162317166Y-96661276D01*
X162313649Y-96675317D01*
X162308772Y-96688946D01*
X162302583Y-96702031D01*
X162295142Y-96714447D01*
X162286519Y-96726073D01*
X162276798Y-96736798D01*
X162266073Y-96746519D01*
X162254447Y-96755142D01*
X162242031Y-96762583D01*
X162228946Y-96768772D01*
X162215317Y-96773649D01*
X162201276Y-96777166D01*
X162186958Y-96779290D01*
X162172500Y-96780000D01*
X161827500Y-96780000D01*
X161813042Y-96779290D01*
X161798724Y-96777166D01*
X161784683Y-96773649D01*
X161771054Y-96768772D01*
X161757969Y-96762583D01*
X161745553Y-96755142D01*
X161733927Y-96746519D01*
X161723202Y-96736798D01*
X161713481Y-96726073D01*
X161704858Y-96714447D01*
X161697417Y-96702031D01*
X161691228Y-96688946D01*
X161686351Y-96675317D01*
X161682834Y-96661276D01*
X161680710Y-96646958D01*
X161680000Y-96632500D01*
X161680000Y-96337500D01*
X161680710Y-96323042D01*
X161682834Y-96308724D01*
X161686351Y-96294683D01*
X161691228Y-96281054D01*
X161697417Y-96267969D01*
X161704858Y-96255553D01*
X161713481Y-96243927D01*
X161723202Y-96233202D01*
X161733927Y-96223481D01*
X161745553Y-96214858D01*
X161757969Y-96207417D01*
X161771054Y-96201228D01*
X161784683Y-96196351D01*
X161798724Y-96192834D01*
X161813042Y-96190710D01*
X161827500Y-96190000D01*
X162172500Y-96190000D01*
X162186958Y-96190710D01*
X162186958Y-96190710D01*
G37*
D11*
X162000000Y-96485000D03*
D10*
G36*
X162186958Y-95220710D02*
X162201276Y-95222834D01*
X162215317Y-95226351D01*
X162228946Y-95231228D01*
X162242031Y-95237417D01*
X162254447Y-95244858D01*
X162266073Y-95253481D01*
X162276798Y-95263202D01*
X162286519Y-95273927D01*
X162295142Y-95285553D01*
X162302583Y-95297969D01*
X162308772Y-95311054D01*
X162313649Y-95324683D01*
X162317166Y-95338724D01*
X162319290Y-95353042D01*
X162320000Y-95367500D01*
X162320000Y-95662500D01*
X162319290Y-95676958D01*
X162317166Y-95691276D01*
X162313649Y-95705317D01*
X162308772Y-95718946D01*
X162302583Y-95732031D01*
X162295142Y-95744447D01*
X162286519Y-95756073D01*
X162276798Y-95766798D01*
X162266073Y-95776519D01*
X162254447Y-95785142D01*
X162242031Y-95792583D01*
X162228946Y-95798772D01*
X162215317Y-95803649D01*
X162201276Y-95807166D01*
X162186958Y-95809290D01*
X162172500Y-95810000D01*
X161827500Y-95810000D01*
X161813042Y-95809290D01*
X161798724Y-95807166D01*
X161784683Y-95803649D01*
X161771054Y-95798772D01*
X161757969Y-95792583D01*
X161745553Y-95785142D01*
X161733927Y-95776519D01*
X161723202Y-95766798D01*
X161713481Y-95756073D01*
X161704858Y-95744447D01*
X161697417Y-95732031D01*
X161691228Y-95718946D01*
X161686351Y-95705317D01*
X161682834Y-95691276D01*
X161680710Y-95676958D01*
X161680000Y-95662500D01*
X161680000Y-95367500D01*
X161680710Y-95353042D01*
X161682834Y-95338724D01*
X161686351Y-95324683D01*
X161691228Y-95311054D01*
X161697417Y-95297969D01*
X161704858Y-95285553D01*
X161713481Y-95273927D01*
X161723202Y-95263202D01*
X161733927Y-95253481D01*
X161745553Y-95244858D01*
X161757969Y-95237417D01*
X161771054Y-95231228D01*
X161784683Y-95226351D01*
X161798724Y-95222834D01*
X161813042Y-95220710D01*
X161827500Y-95220000D01*
X162172500Y-95220000D01*
X162186958Y-95220710D01*
X162186958Y-95220710D01*
G37*
D11*
X162000000Y-95515000D03*
G04 #@! TD*
D10*
G04 #@! TO.C,R26*
G36*
X161186958Y-96190710D02*
X161201276Y-96192834D01*
X161215317Y-96196351D01*
X161228946Y-96201228D01*
X161242031Y-96207417D01*
X161254447Y-96214858D01*
X161266073Y-96223481D01*
X161276798Y-96233202D01*
X161286519Y-96243927D01*
X161295142Y-96255553D01*
X161302583Y-96267969D01*
X161308772Y-96281054D01*
X161313649Y-96294683D01*
X161317166Y-96308724D01*
X161319290Y-96323042D01*
X161320000Y-96337500D01*
X161320000Y-96632500D01*
X161319290Y-96646958D01*
X161317166Y-96661276D01*
X161313649Y-96675317D01*
X161308772Y-96688946D01*
X161302583Y-96702031D01*
X161295142Y-96714447D01*
X161286519Y-96726073D01*
X161276798Y-96736798D01*
X161266073Y-96746519D01*
X161254447Y-96755142D01*
X161242031Y-96762583D01*
X161228946Y-96768772D01*
X161215317Y-96773649D01*
X161201276Y-96777166D01*
X161186958Y-96779290D01*
X161172500Y-96780000D01*
X160827500Y-96780000D01*
X160813042Y-96779290D01*
X160798724Y-96777166D01*
X160784683Y-96773649D01*
X160771054Y-96768772D01*
X160757969Y-96762583D01*
X160745553Y-96755142D01*
X160733927Y-96746519D01*
X160723202Y-96736798D01*
X160713481Y-96726073D01*
X160704858Y-96714447D01*
X160697417Y-96702031D01*
X160691228Y-96688946D01*
X160686351Y-96675317D01*
X160682834Y-96661276D01*
X160680710Y-96646958D01*
X160680000Y-96632500D01*
X160680000Y-96337500D01*
X160680710Y-96323042D01*
X160682834Y-96308724D01*
X160686351Y-96294683D01*
X160691228Y-96281054D01*
X160697417Y-96267969D01*
X160704858Y-96255553D01*
X160713481Y-96243927D01*
X160723202Y-96233202D01*
X160733927Y-96223481D01*
X160745553Y-96214858D01*
X160757969Y-96207417D01*
X160771054Y-96201228D01*
X160784683Y-96196351D01*
X160798724Y-96192834D01*
X160813042Y-96190710D01*
X160827500Y-96190000D01*
X161172500Y-96190000D01*
X161186958Y-96190710D01*
X161186958Y-96190710D01*
G37*
D11*
X161000000Y-96485000D03*
D10*
G36*
X161186958Y-95220710D02*
X161201276Y-95222834D01*
X161215317Y-95226351D01*
X161228946Y-95231228D01*
X161242031Y-95237417D01*
X161254447Y-95244858D01*
X161266073Y-95253481D01*
X161276798Y-95263202D01*
X161286519Y-95273927D01*
X161295142Y-95285553D01*
X161302583Y-95297969D01*
X161308772Y-95311054D01*
X161313649Y-95324683D01*
X161317166Y-95338724D01*
X161319290Y-95353042D01*
X161320000Y-95367500D01*
X161320000Y-95662500D01*
X161319290Y-95676958D01*
X161317166Y-95691276D01*
X161313649Y-95705317D01*
X161308772Y-95718946D01*
X161302583Y-95732031D01*
X161295142Y-95744447D01*
X161286519Y-95756073D01*
X161276798Y-95766798D01*
X161266073Y-95776519D01*
X161254447Y-95785142D01*
X161242031Y-95792583D01*
X161228946Y-95798772D01*
X161215317Y-95803649D01*
X161201276Y-95807166D01*
X161186958Y-95809290D01*
X161172500Y-95810000D01*
X160827500Y-95810000D01*
X160813042Y-95809290D01*
X160798724Y-95807166D01*
X160784683Y-95803649D01*
X160771054Y-95798772D01*
X160757969Y-95792583D01*
X160745553Y-95785142D01*
X160733927Y-95776519D01*
X160723202Y-95766798D01*
X160713481Y-95756073D01*
X160704858Y-95744447D01*
X160697417Y-95732031D01*
X160691228Y-95718946D01*
X160686351Y-95705317D01*
X160682834Y-95691276D01*
X160680710Y-95676958D01*
X160680000Y-95662500D01*
X160680000Y-95367500D01*
X160680710Y-95353042D01*
X160682834Y-95338724D01*
X160686351Y-95324683D01*
X160691228Y-95311054D01*
X160697417Y-95297969D01*
X160704858Y-95285553D01*
X160713481Y-95273927D01*
X160723202Y-95263202D01*
X160733927Y-95253481D01*
X160745553Y-95244858D01*
X160757969Y-95237417D01*
X160771054Y-95231228D01*
X160784683Y-95226351D01*
X160798724Y-95222834D01*
X160813042Y-95220710D01*
X160827500Y-95220000D01*
X161172500Y-95220000D01*
X161186958Y-95220710D01*
X161186958Y-95220710D01*
G37*
D11*
X161000000Y-95515000D03*
G04 #@! TD*
D10*
G04 #@! TO.C,R27*
G36*
X145686958Y-113690710D02*
X145701276Y-113692834D01*
X145715317Y-113696351D01*
X145728946Y-113701228D01*
X145742031Y-113707417D01*
X145754447Y-113714858D01*
X145766073Y-113723481D01*
X145776798Y-113733202D01*
X145786519Y-113743927D01*
X145795142Y-113755553D01*
X145802583Y-113767969D01*
X145808772Y-113781054D01*
X145813649Y-113794683D01*
X145817166Y-113808724D01*
X145819290Y-113823042D01*
X145820000Y-113837500D01*
X145820000Y-114132500D01*
X145819290Y-114146958D01*
X145817166Y-114161276D01*
X145813649Y-114175317D01*
X145808772Y-114188946D01*
X145802583Y-114202031D01*
X145795142Y-114214447D01*
X145786519Y-114226073D01*
X145776798Y-114236798D01*
X145766073Y-114246519D01*
X145754447Y-114255142D01*
X145742031Y-114262583D01*
X145728946Y-114268772D01*
X145715317Y-114273649D01*
X145701276Y-114277166D01*
X145686958Y-114279290D01*
X145672500Y-114280000D01*
X145327500Y-114280000D01*
X145313042Y-114279290D01*
X145298724Y-114277166D01*
X145284683Y-114273649D01*
X145271054Y-114268772D01*
X145257969Y-114262583D01*
X145245553Y-114255142D01*
X145233927Y-114246519D01*
X145223202Y-114236798D01*
X145213481Y-114226073D01*
X145204858Y-114214447D01*
X145197417Y-114202031D01*
X145191228Y-114188946D01*
X145186351Y-114175317D01*
X145182834Y-114161276D01*
X145180710Y-114146958D01*
X145180000Y-114132500D01*
X145180000Y-113837500D01*
X145180710Y-113823042D01*
X145182834Y-113808724D01*
X145186351Y-113794683D01*
X145191228Y-113781054D01*
X145197417Y-113767969D01*
X145204858Y-113755553D01*
X145213481Y-113743927D01*
X145223202Y-113733202D01*
X145233927Y-113723481D01*
X145245553Y-113714858D01*
X145257969Y-113707417D01*
X145271054Y-113701228D01*
X145284683Y-113696351D01*
X145298724Y-113692834D01*
X145313042Y-113690710D01*
X145327500Y-113690000D01*
X145672500Y-113690000D01*
X145686958Y-113690710D01*
X145686958Y-113690710D01*
G37*
D11*
X145500000Y-113985000D03*
D10*
G36*
X145686958Y-112720710D02*
X145701276Y-112722834D01*
X145715317Y-112726351D01*
X145728946Y-112731228D01*
X145742031Y-112737417D01*
X145754447Y-112744858D01*
X145766073Y-112753481D01*
X145776798Y-112763202D01*
X145786519Y-112773927D01*
X145795142Y-112785553D01*
X145802583Y-112797969D01*
X145808772Y-112811054D01*
X145813649Y-112824683D01*
X145817166Y-112838724D01*
X145819290Y-112853042D01*
X145820000Y-112867500D01*
X145820000Y-113162500D01*
X145819290Y-113176958D01*
X145817166Y-113191276D01*
X145813649Y-113205317D01*
X145808772Y-113218946D01*
X145802583Y-113232031D01*
X145795142Y-113244447D01*
X145786519Y-113256073D01*
X145776798Y-113266798D01*
X145766073Y-113276519D01*
X145754447Y-113285142D01*
X145742031Y-113292583D01*
X145728946Y-113298772D01*
X145715317Y-113303649D01*
X145701276Y-113307166D01*
X145686958Y-113309290D01*
X145672500Y-113310000D01*
X145327500Y-113310000D01*
X145313042Y-113309290D01*
X145298724Y-113307166D01*
X145284683Y-113303649D01*
X145271054Y-113298772D01*
X145257969Y-113292583D01*
X145245553Y-113285142D01*
X145233927Y-113276519D01*
X145223202Y-113266798D01*
X145213481Y-113256073D01*
X145204858Y-113244447D01*
X145197417Y-113232031D01*
X145191228Y-113218946D01*
X145186351Y-113205317D01*
X145182834Y-113191276D01*
X145180710Y-113176958D01*
X145180000Y-113162500D01*
X145180000Y-112867500D01*
X145180710Y-112853042D01*
X145182834Y-112838724D01*
X145186351Y-112824683D01*
X145191228Y-112811054D01*
X145197417Y-112797969D01*
X145204858Y-112785553D01*
X145213481Y-112773927D01*
X145223202Y-112763202D01*
X145233927Y-112753481D01*
X145245553Y-112744858D01*
X145257969Y-112737417D01*
X145271054Y-112731228D01*
X145284683Y-112726351D01*
X145298724Y-112722834D01*
X145313042Y-112720710D01*
X145327500Y-112720000D01*
X145672500Y-112720000D01*
X145686958Y-112720710D01*
X145686958Y-112720710D01*
G37*
D11*
X145500000Y-113015000D03*
G04 #@! TD*
D10*
G04 #@! TO.C,R28*
G36*
X145686958Y-95220710D02*
X145701276Y-95222834D01*
X145715317Y-95226351D01*
X145728946Y-95231228D01*
X145742031Y-95237417D01*
X145754447Y-95244858D01*
X145766073Y-95253481D01*
X145776798Y-95263202D01*
X145786519Y-95273927D01*
X145795142Y-95285553D01*
X145802583Y-95297969D01*
X145808772Y-95311054D01*
X145813649Y-95324683D01*
X145817166Y-95338724D01*
X145819290Y-95353042D01*
X145820000Y-95367500D01*
X145820000Y-95662500D01*
X145819290Y-95676958D01*
X145817166Y-95691276D01*
X145813649Y-95705317D01*
X145808772Y-95718946D01*
X145802583Y-95732031D01*
X145795142Y-95744447D01*
X145786519Y-95756073D01*
X145776798Y-95766798D01*
X145766073Y-95776519D01*
X145754447Y-95785142D01*
X145742031Y-95792583D01*
X145728946Y-95798772D01*
X145715317Y-95803649D01*
X145701276Y-95807166D01*
X145686958Y-95809290D01*
X145672500Y-95810000D01*
X145327500Y-95810000D01*
X145313042Y-95809290D01*
X145298724Y-95807166D01*
X145284683Y-95803649D01*
X145271054Y-95798772D01*
X145257969Y-95792583D01*
X145245553Y-95785142D01*
X145233927Y-95776519D01*
X145223202Y-95766798D01*
X145213481Y-95756073D01*
X145204858Y-95744447D01*
X145197417Y-95732031D01*
X145191228Y-95718946D01*
X145186351Y-95705317D01*
X145182834Y-95691276D01*
X145180710Y-95676958D01*
X145180000Y-95662500D01*
X145180000Y-95367500D01*
X145180710Y-95353042D01*
X145182834Y-95338724D01*
X145186351Y-95324683D01*
X145191228Y-95311054D01*
X145197417Y-95297969D01*
X145204858Y-95285553D01*
X145213481Y-95273927D01*
X145223202Y-95263202D01*
X145233927Y-95253481D01*
X145245553Y-95244858D01*
X145257969Y-95237417D01*
X145271054Y-95231228D01*
X145284683Y-95226351D01*
X145298724Y-95222834D01*
X145313042Y-95220710D01*
X145327500Y-95220000D01*
X145672500Y-95220000D01*
X145686958Y-95220710D01*
X145686958Y-95220710D01*
G37*
D11*
X145500000Y-95515000D03*
D10*
G36*
X145686958Y-96190710D02*
X145701276Y-96192834D01*
X145715317Y-96196351D01*
X145728946Y-96201228D01*
X145742031Y-96207417D01*
X145754447Y-96214858D01*
X145766073Y-96223481D01*
X145776798Y-96233202D01*
X145786519Y-96243927D01*
X145795142Y-96255553D01*
X145802583Y-96267969D01*
X145808772Y-96281054D01*
X145813649Y-96294683D01*
X145817166Y-96308724D01*
X145819290Y-96323042D01*
X145820000Y-96337500D01*
X145820000Y-96632500D01*
X145819290Y-96646958D01*
X145817166Y-96661276D01*
X145813649Y-96675317D01*
X145808772Y-96688946D01*
X145802583Y-96702031D01*
X145795142Y-96714447D01*
X145786519Y-96726073D01*
X145776798Y-96736798D01*
X145766073Y-96746519D01*
X145754447Y-96755142D01*
X145742031Y-96762583D01*
X145728946Y-96768772D01*
X145715317Y-96773649D01*
X145701276Y-96777166D01*
X145686958Y-96779290D01*
X145672500Y-96780000D01*
X145327500Y-96780000D01*
X145313042Y-96779290D01*
X145298724Y-96777166D01*
X145284683Y-96773649D01*
X145271054Y-96768772D01*
X145257969Y-96762583D01*
X145245553Y-96755142D01*
X145233927Y-96746519D01*
X145223202Y-96736798D01*
X145213481Y-96726073D01*
X145204858Y-96714447D01*
X145197417Y-96702031D01*
X145191228Y-96688946D01*
X145186351Y-96675317D01*
X145182834Y-96661276D01*
X145180710Y-96646958D01*
X145180000Y-96632500D01*
X145180000Y-96337500D01*
X145180710Y-96323042D01*
X145182834Y-96308724D01*
X145186351Y-96294683D01*
X145191228Y-96281054D01*
X145197417Y-96267969D01*
X145204858Y-96255553D01*
X145213481Y-96243927D01*
X145223202Y-96233202D01*
X145233927Y-96223481D01*
X145245553Y-96214858D01*
X145257969Y-96207417D01*
X145271054Y-96201228D01*
X145284683Y-96196351D01*
X145298724Y-96192834D01*
X145313042Y-96190710D01*
X145327500Y-96190000D01*
X145672500Y-96190000D01*
X145686958Y-96190710D01*
X145686958Y-96190710D01*
G37*
D11*
X145500000Y-96485000D03*
G04 #@! TD*
D10*
G04 #@! TO.C,C7*
G36*
X157176958Y-113680710D02*
X157191276Y-113682834D01*
X157205317Y-113686351D01*
X157218946Y-113691228D01*
X157232031Y-113697417D01*
X157244447Y-113704858D01*
X157256073Y-113713481D01*
X157266798Y-113723202D01*
X157276519Y-113733927D01*
X157285142Y-113745553D01*
X157292583Y-113757969D01*
X157298772Y-113771054D01*
X157303649Y-113784683D01*
X157307166Y-113798724D01*
X157309290Y-113813042D01*
X157310000Y-113827500D01*
X157310000Y-114172500D01*
X157309290Y-114186958D01*
X157307166Y-114201276D01*
X157303649Y-114215317D01*
X157298772Y-114228946D01*
X157292583Y-114242031D01*
X157285142Y-114254447D01*
X157276519Y-114266073D01*
X157266798Y-114276798D01*
X157256073Y-114286519D01*
X157244447Y-114295142D01*
X157232031Y-114302583D01*
X157218946Y-114308772D01*
X157205317Y-114313649D01*
X157191276Y-114317166D01*
X157176958Y-114319290D01*
X157162500Y-114320000D01*
X156867500Y-114320000D01*
X156853042Y-114319290D01*
X156838724Y-114317166D01*
X156824683Y-114313649D01*
X156811054Y-114308772D01*
X156797969Y-114302583D01*
X156785553Y-114295142D01*
X156773927Y-114286519D01*
X156763202Y-114276798D01*
X156753481Y-114266073D01*
X156744858Y-114254447D01*
X156737417Y-114242031D01*
X156731228Y-114228946D01*
X156726351Y-114215317D01*
X156722834Y-114201276D01*
X156720710Y-114186958D01*
X156720000Y-114172500D01*
X156720000Y-113827500D01*
X156720710Y-113813042D01*
X156722834Y-113798724D01*
X156726351Y-113784683D01*
X156731228Y-113771054D01*
X156737417Y-113757969D01*
X156744858Y-113745553D01*
X156753481Y-113733927D01*
X156763202Y-113723202D01*
X156773927Y-113713481D01*
X156785553Y-113704858D01*
X156797969Y-113697417D01*
X156811054Y-113691228D01*
X156824683Y-113686351D01*
X156838724Y-113682834D01*
X156853042Y-113680710D01*
X156867500Y-113680000D01*
X157162500Y-113680000D01*
X157176958Y-113680710D01*
X157176958Y-113680710D01*
G37*
D11*
X157015000Y-114000000D03*
D10*
G36*
X158146958Y-113680710D02*
X158161276Y-113682834D01*
X158175317Y-113686351D01*
X158188946Y-113691228D01*
X158202031Y-113697417D01*
X158214447Y-113704858D01*
X158226073Y-113713481D01*
X158236798Y-113723202D01*
X158246519Y-113733927D01*
X158255142Y-113745553D01*
X158262583Y-113757969D01*
X158268772Y-113771054D01*
X158273649Y-113784683D01*
X158277166Y-113798724D01*
X158279290Y-113813042D01*
X158280000Y-113827500D01*
X158280000Y-114172500D01*
X158279290Y-114186958D01*
X158277166Y-114201276D01*
X158273649Y-114215317D01*
X158268772Y-114228946D01*
X158262583Y-114242031D01*
X158255142Y-114254447D01*
X158246519Y-114266073D01*
X158236798Y-114276798D01*
X158226073Y-114286519D01*
X158214447Y-114295142D01*
X158202031Y-114302583D01*
X158188946Y-114308772D01*
X158175317Y-114313649D01*
X158161276Y-114317166D01*
X158146958Y-114319290D01*
X158132500Y-114320000D01*
X157837500Y-114320000D01*
X157823042Y-114319290D01*
X157808724Y-114317166D01*
X157794683Y-114313649D01*
X157781054Y-114308772D01*
X157767969Y-114302583D01*
X157755553Y-114295142D01*
X157743927Y-114286519D01*
X157733202Y-114276798D01*
X157723481Y-114266073D01*
X157714858Y-114254447D01*
X157707417Y-114242031D01*
X157701228Y-114228946D01*
X157696351Y-114215317D01*
X157692834Y-114201276D01*
X157690710Y-114186958D01*
X157690000Y-114172500D01*
X157690000Y-113827500D01*
X157690710Y-113813042D01*
X157692834Y-113798724D01*
X157696351Y-113784683D01*
X157701228Y-113771054D01*
X157707417Y-113757969D01*
X157714858Y-113745553D01*
X157723481Y-113733927D01*
X157733202Y-113723202D01*
X157743927Y-113713481D01*
X157755553Y-113704858D01*
X157767969Y-113697417D01*
X157781054Y-113691228D01*
X157794683Y-113686351D01*
X157808724Y-113682834D01*
X157823042Y-113680710D01*
X157837500Y-113680000D01*
X158132500Y-113680000D01*
X158146958Y-113680710D01*
X158146958Y-113680710D01*
G37*
D11*
X157985000Y-114000000D03*
G04 #@! TD*
D10*
G04 #@! TO.C,C8*
G36*
X158146958Y-96180710D02*
X158161276Y-96182834D01*
X158175317Y-96186351D01*
X158188946Y-96191228D01*
X158202031Y-96197417D01*
X158214447Y-96204858D01*
X158226073Y-96213481D01*
X158236798Y-96223202D01*
X158246519Y-96233927D01*
X158255142Y-96245553D01*
X158262583Y-96257969D01*
X158268772Y-96271054D01*
X158273649Y-96284683D01*
X158277166Y-96298724D01*
X158279290Y-96313042D01*
X158280000Y-96327500D01*
X158280000Y-96672500D01*
X158279290Y-96686958D01*
X158277166Y-96701276D01*
X158273649Y-96715317D01*
X158268772Y-96728946D01*
X158262583Y-96742031D01*
X158255142Y-96754447D01*
X158246519Y-96766073D01*
X158236798Y-96776798D01*
X158226073Y-96786519D01*
X158214447Y-96795142D01*
X158202031Y-96802583D01*
X158188946Y-96808772D01*
X158175317Y-96813649D01*
X158161276Y-96817166D01*
X158146958Y-96819290D01*
X158132500Y-96820000D01*
X157837500Y-96820000D01*
X157823042Y-96819290D01*
X157808724Y-96817166D01*
X157794683Y-96813649D01*
X157781054Y-96808772D01*
X157767969Y-96802583D01*
X157755553Y-96795142D01*
X157743927Y-96786519D01*
X157733202Y-96776798D01*
X157723481Y-96766073D01*
X157714858Y-96754447D01*
X157707417Y-96742031D01*
X157701228Y-96728946D01*
X157696351Y-96715317D01*
X157692834Y-96701276D01*
X157690710Y-96686958D01*
X157690000Y-96672500D01*
X157690000Y-96327500D01*
X157690710Y-96313042D01*
X157692834Y-96298724D01*
X157696351Y-96284683D01*
X157701228Y-96271054D01*
X157707417Y-96257969D01*
X157714858Y-96245553D01*
X157723481Y-96233927D01*
X157733202Y-96223202D01*
X157743927Y-96213481D01*
X157755553Y-96204858D01*
X157767969Y-96197417D01*
X157781054Y-96191228D01*
X157794683Y-96186351D01*
X157808724Y-96182834D01*
X157823042Y-96180710D01*
X157837500Y-96180000D01*
X158132500Y-96180000D01*
X158146958Y-96180710D01*
X158146958Y-96180710D01*
G37*
D11*
X157985000Y-96500000D03*
D10*
G36*
X157176958Y-96180710D02*
X157191276Y-96182834D01*
X157205317Y-96186351D01*
X157218946Y-96191228D01*
X157232031Y-96197417D01*
X157244447Y-96204858D01*
X157256073Y-96213481D01*
X157266798Y-96223202D01*
X157276519Y-96233927D01*
X157285142Y-96245553D01*
X157292583Y-96257969D01*
X157298772Y-96271054D01*
X157303649Y-96284683D01*
X157307166Y-96298724D01*
X157309290Y-96313042D01*
X157310000Y-96327500D01*
X157310000Y-96672500D01*
X157309290Y-96686958D01*
X157307166Y-96701276D01*
X157303649Y-96715317D01*
X157298772Y-96728946D01*
X157292583Y-96742031D01*
X157285142Y-96754447D01*
X157276519Y-96766073D01*
X157266798Y-96776798D01*
X157256073Y-96786519D01*
X157244447Y-96795142D01*
X157232031Y-96802583D01*
X157218946Y-96808772D01*
X157205317Y-96813649D01*
X157191276Y-96817166D01*
X157176958Y-96819290D01*
X157162500Y-96820000D01*
X156867500Y-96820000D01*
X156853042Y-96819290D01*
X156838724Y-96817166D01*
X156824683Y-96813649D01*
X156811054Y-96808772D01*
X156797969Y-96802583D01*
X156785553Y-96795142D01*
X156773927Y-96786519D01*
X156763202Y-96776798D01*
X156753481Y-96766073D01*
X156744858Y-96754447D01*
X156737417Y-96742031D01*
X156731228Y-96728946D01*
X156726351Y-96715317D01*
X156722834Y-96701276D01*
X156720710Y-96686958D01*
X156720000Y-96672500D01*
X156720000Y-96327500D01*
X156720710Y-96313042D01*
X156722834Y-96298724D01*
X156726351Y-96284683D01*
X156731228Y-96271054D01*
X156737417Y-96257969D01*
X156744858Y-96245553D01*
X156753481Y-96233927D01*
X156763202Y-96223202D01*
X156773927Y-96213481D01*
X156785553Y-96204858D01*
X156797969Y-96197417D01*
X156811054Y-96191228D01*
X156824683Y-96186351D01*
X156838724Y-96182834D01*
X156853042Y-96180710D01*
X156867500Y-96180000D01*
X157162500Y-96180000D01*
X157176958Y-96180710D01*
X157176958Y-96180710D01*
G37*
D11*
X157015000Y-96500000D03*
G04 #@! TD*
M02*
