G04 #@! TF.GenerationSoftware,KiCad,Pcbnew,(5.0.1)-rc2*
G04 #@! TF.CreationDate,2019-04-28T00:00:37+02:00*
G04 #@! TF.ProjectId,RIAA,524941412E6B696361645F7063620000,rev?*
G04 #@! TF.SameCoordinates,Original*
G04 #@! TF.FileFunction,Soldermask,Top*
G04 #@! TF.FilePolarity,Negative*
%FSLAX46Y46*%
G04 Gerber Fmt 4.6, Leading zero omitted, Abs format (unit mm)*
G04 Created by KiCad (PCBNEW (5.0.1)-rc2) date 28-04-2019 00:00:37*
%MOMM*%
%LPD*%
G01*
G04 APERTURE LIST*
%ADD10C,0.100000*%
G04 APERTURE END LIST*
D10*
G36*
X179878210Y-114908489D02*
X179964949Y-114934802D01*
X180044891Y-114977532D01*
X180114963Y-115035037D01*
X180172468Y-115105109D01*
X180215198Y-115185051D01*
X180241511Y-115271790D01*
X180251000Y-115368140D01*
X180251000Y-115604000D01*
X180253402Y-115628386D01*
X180260515Y-115651835D01*
X180272066Y-115673446D01*
X180287612Y-115692388D01*
X180306554Y-115707934D01*
X180328165Y-115719485D01*
X180351614Y-115726598D01*
X180376000Y-115729000D01*
X180822167Y-115729000D01*
X181454113Y-115854702D01*
X181454115Y-115854703D01*
X181454116Y-115854703D01*
X182049400Y-116101277D01*
X182582724Y-116457633D01*
X182585144Y-116459250D01*
X183040750Y-116914856D01*
X183040752Y-116914859D01*
X183398723Y-117450600D01*
X183609179Y-117958687D01*
X183645298Y-118045887D01*
X183771000Y-118677833D01*
X183771000Y-119322167D01*
X183646458Y-119948282D01*
X183645297Y-119954116D01*
X183398723Y-120549400D01*
X183049271Y-121072392D01*
X183040750Y-121085144D01*
X182585144Y-121540750D01*
X182585141Y-121540752D01*
X182049400Y-121898723D01*
X181454116Y-122145297D01*
X181454115Y-122145297D01*
X181454113Y-122145298D01*
X180822167Y-122271000D01*
X180177833Y-122271000D01*
X179545887Y-122145298D01*
X179545885Y-122145297D01*
X179545884Y-122145297D01*
X178950600Y-121898723D01*
X178414859Y-121540752D01*
X178414856Y-121540750D01*
X177959250Y-121085144D01*
X177950729Y-121072392D01*
X177601277Y-120549400D01*
X177354703Y-119954116D01*
X177353543Y-119948282D01*
X177229000Y-119322167D01*
X177229000Y-118677833D01*
X177354702Y-118045887D01*
X177390821Y-117958687D01*
X177601277Y-117450600D01*
X177771768Y-117195443D01*
X177783317Y-117173835D01*
X177790430Y-117150386D01*
X177792832Y-117126000D01*
X177790430Y-117101614D01*
X177783317Y-117078164D01*
X177771766Y-117056554D01*
X177756220Y-117037612D01*
X177737278Y-117022066D01*
X177715667Y-117010515D01*
X177692218Y-117003402D01*
X177667832Y-117001000D01*
X177218140Y-117001000D01*
X177121790Y-116991511D01*
X177035051Y-116965198D01*
X176955109Y-116922468D01*
X176885037Y-116864963D01*
X176827532Y-116794891D01*
X176784802Y-116714949D01*
X176758489Y-116628210D01*
X176749000Y-116531860D01*
X176749000Y-115368140D01*
X176758489Y-115271790D01*
X176784802Y-115185051D01*
X176827532Y-115105109D01*
X176885037Y-115035037D01*
X176955109Y-114977532D01*
X177035051Y-114934802D01*
X177121790Y-114908489D01*
X177218140Y-114899000D01*
X179781860Y-114899000D01*
X179878210Y-114908489D01*
X179878210Y-114908489D01*
G37*
G36*
X131878210Y-114908489D02*
X131964949Y-114934802D01*
X132044891Y-114977532D01*
X132114963Y-115035037D01*
X132172468Y-115105109D01*
X132215198Y-115185051D01*
X132241511Y-115271790D01*
X132251000Y-115368140D01*
X132251000Y-116531860D01*
X132241511Y-116628210D01*
X132215198Y-116714949D01*
X132172468Y-116794891D01*
X132114963Y-116864963D01*
X132044891Y-116922468D01*
X131964949Y-116965198D01*
X131878210Y-116991511D01*
X131781860Y-117001000D01*
X131308114Y-117001000D01*
X131283728Y-117003402D01*
X131260279Y-117010515D01*
X131238668Y-117022066D01*
X131219726Y-117037612D01*
X131204180Y-117056554D01*
X131192629Y-117078165D01*
X131185516Y-117101614D01*
X131183114Y-117126000D01*
X131185516Y-117150386D01*
X131192629Y-117173835D01*
X131204180Y-117195446D01*
X131380999Y-117460074D01*
X131626066Y-118051718D01*
X131626066Y-118051719D01*
X131751000Y-118679803D01*
X131751000Y-119320197D01*
X131750608Y-119322167D01*
X131626066Y-119948282D01*
X131380999Y-120539926D01*
X131027615Y-121068802D01*
X131025214Y-121072395D01*
X130572395Y-121525214D01*
X130572392Y-121525216D01*
X130039926Y-121880999D01*
X129448282Y-122126066D01*
X129134239Y-122188533D01*
X128820197Y-122251000D01*
X128179803Y-122251000D01*
X127865761Y-122188533D01*
X127551718Y-122126066D01*
X126960074Y-121880999D01*
X126427608Y-121525216D01*
X126427605Y-121525214D01*
X125974786Y-121072395D01*
X125972385Y-121068802D01*
X125619001Y-120539926D01*
X125373934Y-119948282D01*
X125249392Y-119322167D01*
X125249000Y-119320197D01*
X125249000Y-118679803D01*
X125373934Y-118051719D01*
X125373934Y-118051718D01*
X125619001Y-117460074D01*
X125974784Y-116927608D01*
X125974786Y-116927605D01*
X126427605Y-116474786D01*
X126661807Y-116318297D01*
X126960074Y-116119001D01*
X127551718Y-115873934D01*
X127865761Y-115811467D01*
X128179803Y-115749000D01*
X128624000Y-115749000D01*
X128648386Y-115746598D01*
X128671835Y-115739485D01*
X128693446Y-115727934D01*
X128712388Y-115712388D01*
X128727934Y-115693446D01*
X128739485Y-115671835D01*
X128746598Y-115648386D01*
X128749000Y-115624000D01*
X128749000Y-115368140D01*
X128758489Y-115271790D01*
X128784802Y-115185051D01*
X128827532Y-115105109D01*
X128885037Y-115035037D01*
X128955109Y-114977532D01*
X129035051Y-114934802D01*
X129121790Y-114908489D01*
X129218140Y-114899000D01*
X131781860Y-114899000D01*
X131878210Y-114908489D01*
X131878210Y-114908489D01*
G37*
G36*
X171351000Y-118351000D02*
X169649000Y-118351000D01*
X169649000Y-116649000D01*
X171351000Y-116649000D01*
X171351000Y-118351000D01*
X171351000Y-118351000D01*
G37*
G36*
X160586821Y-116281313D02*
X160586824Y-116281314D01*
X160586825Y-116281314D01*
X160747239Y-116329975D01*
X160747241Y-116329976D01*
X160747244Y-116329977D01*
X160895078Y-116408995D01*
X161024659Y-116515341D01*
X161131005Y-116644922D01*
X161210023Y-116792756D01*
X161258687Y-116953179D01*
X161275117Y-117120000D01*
X161258687Y-117286821D01*
X161210023Y-117447244D01*
X161131005Y-117595078D01*
X161024659Y-117724659D01*
X160895078Y-117831005D01*
X160747244Y-117910023D01*
X160747241Y-117910024D01*
X160747239Y-117910025D01*
X160586825Y-117958686D01*
X160586824Y-117958686D01*
X160586821Y-117958687D01*
X160461804Y-117971000D01*
X160378196Y-117971000D01*
X160253179Y-117958687D01*
X160253176Y-117958686D01*
X160253175Y-117958686D01*
X160092761Y-117910025D01*
X160092759Y-117910024D01*
X160092756Y-117910023D01*
X159944922Y-117831005D01*
X159815341Y-117724659D01*
X159708995Y-117595078D01*
X159629977Y-117447244D01*
X159581313Y-117286821D01*
X159564883Y-117120000D01*
X159581313Y-116953179D01*
X159629977Y-116792756D01*
X159708995Y-116644922D01*
X159815341Y-116515341D01*
X159944922Y-116408995D01*
X160092756Y-116329977D01*
X160092759Y-116329976D01*
X160092761Y-116329975D01*
X160253175Y-116281314D01*
X160253176Y-116281314D01*
X160253179Y-116281313D01*
X160378196Y-116269000D01*
X160461804Y-116269000D01*
X160586821Y-116281313D01*
X160586821Y-116281313D01*
G37*
G36*
X137586821Y-116281313D02*
X137586824Y-116281314D01*
X137586825Y-116281314D01*
X137747239Y-116329975D01*
X137747241Y-116329976D01*
X137747244Y-116329977D01*
X137895078Y-116408995D01*
X138024659Y-116515341D01*
X138131005Y-116644922D01*
X138210023Y-116792756D01*
X138258687Y-116953179D01*
X138275117Y-117120000D01*
X138258687Y-117286821D01*
X138210023Y-117447244D01*
X138131005Y-117595078D01*
X138024659Y-117724659D01*
X137895078Y-117831005D01*
X137747244Y-117910023D01*
X137747241Y-117910024D01*
X137747239Y-117910025D01*
X137586825Y-117958686D01*
X137586824Y-117958686D01*
X137586821Y-117958687D01*
X137461804Y-117971000D01*
X137378196Y-117971000D01*
X137253179Y-117958687D01*
X137253176Y-117958686D01*
X137253175Y-117958686D01*
X137092761Y-117910025D01*
X137092759Y-117910024D01*
X137092756Y-117910023D01*
X136944922Y-117831005D01*
X136815341Y-117724659D01*
X136708995Y-117595078D01*
X136629977Y-117447244D01*
X136581313Y-117286821D01*
X136564883Y-117120000D01*
X136581313Y-116953179D01*
X136629977Y-116792756D01*
X136708995Y-116644922D01*
X136815341Y-116515341D01*
X136944922Y-116408995D01*
X137092756Y-116329977D01*
X137092759Y-116329976D01*
X137092761Y-116329975D01*
X137253175Y-116281314D01*
X137253176Y-116281314D01*
X137253179Y-116281313D01*
X137378196Y-116269000D01*
X137461804Y-116269000D01*
X137586821Y-116281313D01*
X137586821Y-116281313D01*
G37*
G36*
X165666821Y-116281313D02*
X165666824Y-116281314D01*
X165666825Y-116281314D01*
X165827239Y-116329975D01*
X165827241Y-116329976D01*
X165827244Y-116329977D01*
X165975078Y-116408995D01*
X166104659Y-116515341D01*
X166211005Y-116644922D01*
X166290023Y-116792756D01*
X166338687Y-116953179D01*
X166355117Y-117120000D01*
X166338687Y-117286821D01*
X166290023Y-117447244D01*
X166211005Y-117595078D01*
X166104659Y-117724659D01*
X165975078Y-117831005D01*
X165827244Y-117910023D01*
X165827241Y-117910024D01*
X165827239Y-117910025D01*
X165666825Y-117958686D01*
X165666824Y-117958686D01*
X165666821Y-117958687D01*
X165541804Y-117971000D01*
X165458196Y-117971000D01*
X165333179Y-117958687D01*
X165333176Y-117958686D01*
X165333175Y-117958686D01*
X165172761Y-117910025D01*
X165172759Y-117910024D01*
X165172756Y-117910023D01*
X165024922Y-117831005D01*
X164895341Y-117724659D01*
X164788995Y-117595078D01*
X164709977Y-117447244D01*
X164661313Y-117286821D01*
X164644883Y-117120000D01*
X164661313Y-116953179D01*
X164709977Y-116792756D01*
X164788995Y-116644922D01*
X164895341Y-116515341D01*
X165024922Y-116408995D01*
X165172756Y-116329977D01*
X165172759Y-116329976D01*
X165172761Y-116329975D01*
X165333175Y-116281314D01*
X165333176Y-116281314D01*
X165333179Y-116281313D01*
X165458196Y-116269000D01*
X165541804Y-116269000D01*
X165666821Y-116281313D01*
X165666821Y-116281313D01*
G37*
G36*
X163126821Y-116281313D02*
X163126824Y-116281314D01*
X163126825Y-116281314D01*
X163287239Y-116329975D01*
X163287241Y-116329976D01*
X163287244Y-116329977D01*
X163435078Y-116408995D01*
X163564659Y-116515341D01*
X163671005Y-116644922D01*
X163750023Y-116792756D01*
X163798687Y-116953179D01*
X163815117Y-117120000D01*
X163798687Y-117286821D01*
X163750023Y-117447244D01*
X163671005Y-117595078D01*
X163564659Y-117724659D01*
X163435078Y-117831005D01*
X163287244Y-117910023D01*
X163287241Y-117910024D01*
X163287239Y-117910025D01*
X163126825Y-117958686D01*
X163126824Y-117958686D01*
X163126821Y-117958687D01*
X163001804Y-117971000D01*
X162918196Y-117971000D01*
X162793179Y-117958687D01*
X162793176Y-117958686D01*
X162793175Y-117958686D01*
X162632761Y-117910025D01*
X162632759Y-117910024D01*
X162632756Y-117910023D01*
X162484922Y-117831005D01*
X162355341Y-117724659D01*
X162248995Y-117595078D01*
X162169977Y-117447244D01*
X162121313Y-117286821D01*
X162104883Y-117120000D01*
X162121313Y-116953179D01*
X162169977Y-116792756D01*
X162248995Y-116644922D01*
X162355341Y-116515341D01*
X162484922Y-116408995D01*
X162632756Y-116329977D01*
X162632759Y-116329976D01*
X162632761Y-116329975D01*
X162793175Y-116281314D01*
X162793176Y-116281314D01*
X162793179Y-116281313D01*
X162918196Y-116269000D01*
X163001804Y-116269000D01*
X163126821Y-116281313D01*
X163126821Y-116281313D01*
G37*
G36*
X158046821Y-116281313D02*
X158046824Y-116281314D01*
X158046825Y-116281314D01*
X158207239Y-116329975D01*
X158207241Y-116329976D01*
X158207244Y-116329977D01*
X158355078Y-116408995D01*
X158484659Y-116515341D01*
X158591005Y-116644922D01*
X158670023Y-116792756D01*
X158718687Y-116953179D01*
X158735117Y-117120000D01*
X158718687Y-117286821D01*
X158670023Y-117447244D01*
X158591005Y-117595078D01*
X158484659Y-117724659D01*
X158355078Y-117831005D01*
X158207244Y-117910023D01*
X158207241Y-117910024D01*
X158207239Y-117910025D01*
X158046825Y-117958686D01*
X158046824Y-117958686D01*
X158046821Y-117958687D01*
X157921804Y-117971000D01*
X157838196Y-117971000D01*
X157713179Y-117958687D01*
X157713176Y-117958686D01*
X157713175Y-117958686D01*
X157552761Y-117910025D01*
X157552759Y-117910024D01*
X157552756Y-117910023D01*
X157404922Y-117831005D01*
X157275341Y-117724659D01*
X157168995Y-117595078D01*
X157089977Y-117447244D01*
X157041313Y-117286821D01*
X157024883Y-117120000D01*
X157041313Y-116953179D01*
X157089977Y-116792756D01*
X157168995Y-116644922D01*
X157275341Y-116515341D01*
X157404922Y-116408995D01*
X157552756Y-116329977D01*
X157552759Y-116329976D01*
X157552761Y-116329975D01*
X157713175Y-116281314D01*
X157713176Y-116281314D01*
X157713179Y-116281313D01*
X157838196Y-116269000D01*
X157921804Y-116269000D01*
X158046821Y-116281313D01*
X158046821Y-116281313D01*
G37*
G36*
X146546821Y-116281313D02*
X146546824Y-116281314D01*
X146546825Y-116281314D01*
X146707239Y-116329975D01*
X146707241Y-116329976D01*
X146707244Y-116329977D01*
X146855078Y-116408995D01*
X146984659Y-116515341D01*
X147091005Y-116644922D01*
X147170023Y-116792756D01*
X147218687Y-116953179D01*
X147235117Y-117120000D01*
X147218687Y-117286821D01*
X147170023Y-117447244D01*
X147091005Y-117595078D01*
X146984659Y-117724659D01*
X146855078Y-117831005D01*
X146707244Y-117910023D01*
X146707241Y-117910024D01*
X146707239Y-117910025D01*
X146546825Y-117958686D01*
X146546824Y-117958686D01*
X146546821Y-117958687D01*
X146421804Y-117971000D01*
X146338196Y-117971000D01*
X146213179Y-117958687D01*
X146213176Y-117958686D01*
X146213175Y-117958686D01*
X146052761Y-117910025D01*
X146052759Y-117910024D01*
X146052756Y-117910023D01*
X145904922Y-117831005D01*
X145775341Y-117724659D01*
X145668995Y-117595078D01*
X145589977Y-117447244D01*
X145541313Y-117286821D01*
X145524883Y-117120000D01*
X145541313Y-116953179D01*
X145589977Y-116792756D01*
X145668995Y-116644922D01*
X145775341Y-116515341D01*
X145904922Y-116408995D01*
X146052756Y-116329977D01*
X146052759Y-116329976D01*
X146052761Y-116329975D01*
X146213175Y-116281314D01*
X146213176Y-116281314D01*
X146213179Y-116281313D01*
X146338196Y-116269000D01*
X146421804Y-116269000D01*
X146546821Y-116281313D01*
X146546821Y-116281313D01*
G37*
G36*
X149086821Y-116281313D02*
X149086824Y-116281314D01*
X149086825Y-116281314D01*
X149247239Y-116329975D01*
X149247241Y-116329976D01*
X149247244Y-116329977D01*
X149395078Y-116408995D01*
X149524659Y-116515341D01*
X149631005Y-116644922D01*
X149710023Y-116792756D01*
X149758687Y-116953179D01*
X149775117Y-117120000D01*
X149758687Y-117286821D01*
X149710023Y-117447244D01*
X149631005Y-117595078D01*
X149524659Y-117724659D01*
X149395078Y-117831005D01*
X149247244Y-117910023D01*
X149247241Y-117910024D01*
X149247239Y-117910025D01*
X149086825Y-117958686D01*
X149086824Y-117958686D01*
X149086821Y-117958687D01*
X148961804Y-117971000D01*
X148878196Y-117971000D01*
X148753179Y-117958687D01*
X148753176Y-117958686D01*
X148753175Y-117958686D01*
X148592761Y-117910025D01*
X148592759Y-117910024D01*
X148592756Y-117910023D01*
X148444922Y-117831005D01*
X148315341Y-117724659D01*
X148208995Y-117595078D01*
X148129977Y-117447244D01*
X148081313Y-117286821D01*
X148064883Y-117120000D01*
X148081313Y-116953179D01*
X148129977Y-116792756D01*
X148208995Y-116644922D01*
X148315341Y-116515341D01*
X148444922Y-116408995D01*
X148592756Y-116329977D01*
X148592759Y-116329976D01*
X148592761Y-116329975D01*
X148753175Y-116281314D01*
X148753176Y-116281314D01*
X148753179Y-116281313D01*
X148878196Y-116269000D01*
X148961804Y-116269000D01*
X149086821Y-116281313D01*
X149086821Y-116281313D01*
G37*
G36*
X151626821Y-116281313D02*
X151626824Y-116281314D01*
X151626825Y-116281314D01*
X151787239Y-116329975D01*
X151787241Y-116329976D01*
X151787244Y-116329977D01*
X151935078Y-116408995D01*
X152064659Y-116515341D01*
X152171005Y-116644922D01*
X152250023Y-116792756D01*
X152298687Y-116953179D01*
X152315117Y-117120000D01*
X152298687Y-117286821D01*
X152250023Y-117447244D01*
X152171005Y-117595078D01*
X152064659Y-117724659D01*
X151935078Y-117831005D01*
X151787244Y-117910023D01*
X151787241Y-117910024D01*
X151787239Y-117910025D01*
X151626825Y-117958686D01*
X151626824Y-117958686D01*
X151626821Y-117958687D01*
X151501804Y-117971000D01*
X151418196Y-117971000D01*
X151293179Y-117958687D01*
X151293176Y-117958686D01*
X151293175Y-117958686D01*
X151132761Y-117910025D01*
X151132759Y-117910024D01*
X151132756Y-117910023D01*
X150984922Y-117831005D01*
X150855341Y-117724659D01*
X150748995Y-117595078D01*
X150669977Y-117447244D01*
X150621313Y-117286821D01*
X150604883Y-117120000D01*
X150621313Y-116953179D01*
X150669977Y-116792756D01*
X150748995Y-116644922D01*
X150855341Y-116515341D01*
X150984922Y-116408995D01*
X151132756Y-116329977D01*
X151132759Y-116329976D01*
X151132761Y-116329975D01*
X151293175Y-116281314D01*
X151293176Y-116281314D01*
X151293179Y-116281313D01*
X151418196Y-116269000D01*
X151501804Y-116269000D01*
X151626821Y-116281313D01*
X151626821Y-116281313D01*
G37*
G36*
X154166821Y-116281313D02*
X154166824Y-116281314D01*
X154166825Y-116281314D01*
X154327239Y-116329975D01*
X154327241Y-116329976D01*
X154327244Y-116329977D01*
X154475078Y-116408995D01*
X154604659Y-116515341D01*
X154711005Y-116644922D01*
X154790023Y-116792756D01*
X154838687Y-116953179D01*
X154855117Y-117120000D01*
X154838687Y-117286821D01*
X154790023Y-117447244D01*
X154711005Y-117595078D01*
X154604659Y-117724659D01*
X154475078Y-117831005D01*
X154327244Y-117910023D01*
X154327241Y-117910024D01*
X154327239Y-117910025D01*
X154166825Y-117958686D01*
X154166824Y-117958686D01*
X154166821Y-117958687D01*
X154041804Y-117971000D01*
X153958196Y-117971000D01*
X153833179Y-117958687D01*
X153833176Y-117958686D01*
X153833175Y-117958686D01*
X153672761Y-117910025D01*
X153672759Y-117910024D01*
X153672756Y-117910023D01*
X153524922Y-117831005D01*
X153395341Y-117724659D01*
X153288995Y-117595078D01*
X153209977Y-117447244D01*
X153161313Y-117286821D01*
X153144883Y-117120000D01*
X153161313Y-116953179D01*
X153209977Y-116792756D01*
X153288995Y-116644922D01*
X153395341Y-116515341D01*
X153524922Y-116408995D01*
X153672756Y-116329977D01*
X153672759Y-116329976D01*
X153672761Y-116329975D01*
X153833175Y-116281314D01*
X153833176Y-116281314D01*
X153833179Y-116281313D01*
X153958196Y-116269000D01*
X154041804Y-116269000D01*
X154166821Y-116281313D01*
X154166821Y-116281313D01*
G37*
G36*
X135046821Y-116281313D02*
X135046824Y-116281314D01*
X135046825Y-116281314D01*
X135207239Y-116329975D01*
X135207241Y-116329976D01*
X135207244Y-116329977D01*
X135355078Y-116408995D01*
X135484659Y-116515341D01*
X135591005Y-116644922D01*
X135670023Y-116792756D01*
X135718687Y-116953179D01*
X135735117Y-117120000D01*
X135718687Y-117286821D01*
X135670023Y-117447244D01*
X135591005Y-117595078D01*
X135484659Y-117724659D01*
X135355078Y-117831005D01*
X135207244Y-117910023D01*
X135207241Y-117910024D01*
X135207239Y-117910025D01*
X135046825Y-117958686D01*
X135046824Y-117958686D01*
X135046821Y-117958687D01*
X134921804Y-117971000D01*
X134838196Y-117971000D01*
X134713179Y-117958687D01*
X134713176Y-117958686D01*
X134713175Y-117958686D01*
X134552761Y-117910025D01*
X134552759Y-117910024D01*
X134552756Y-117910023D01*
X134404922Y-117831005D01*
X134275341Y-117724659D01*
X134168995Y-117595078D01*
X134089977Y-117447244D01*
X134041313Y-117286821D01*
X134024883Y-117120000D01*
X134041313Y-116953179D01*
X134089977Y-116792756D01*
X134168995Y-116644922D01*
X134275341Y-116515341D01*
X134404922Y-116408995D01*
X134552756Y-116329977D01*
X134552759Y-116329976D01*
X134552761Y-116329975D01*
X134713175Y-116281314D01*
X134713176Y-116281314D01*
X134713179Y-116281313D01*
X134838196Y-116269000D01*
X134921804Y-116269000D01*
X135046821Y-116281313D01*
X135046821Y-116281313D01*
G37*
G36*
X140126821Y-116281313D02*
X140126824Y-116281314D01*
X140126825Y-116281314D01*
X140287239Y-116329975D01*
X140287241Y-116329976D01*
X140287244Y-116329977D01*
X140435078Y-116408995D01*
X140564659Y-116515341D01*
X140671005Y-116644922D01*
X140750023Y-116792756D01*
X140798687Y-116953179D01*
X140815117Y-117120000D01*
X140798687Y-117286821D01*
X140750023Y-117447244D01*
X140671005Y-117595078D01*
X140564659Y-117724659D01*
X140435078Y-117831005D01*
X140287244Y-117910023D01*
X140287241Y-117910024D01*
X140287239Y-117910025D01*
X140126825Y-117958686D01*
X140126824Y-117958686D01*
X140126821Y-117958687D01*
X140001804Y-117971000D01*
X139918196Y-117971000D01*
X139793179Y-117958687D01*
X139793176Y-117958686D01*
X139793175Y-117958686D01*
X139632761Y-117910025D01*
X139632759Y-117910024D01*
X139632756Y-117910023D01*
X139484922Y-117831005D01*
X139355341Y-117724659D01*
X139248995Y-117595078D01*
X139169977Y-117447244D01*
X139121313Y-117286821D01*
X139104883Y-117120000D01*
X139121313Y-116953179D01*
X139169977Y-116792756D01*
X139248995Y-116644922D01*
X139355341Y-116515341D01*
X139484922Y-116408995D01*
X139632756Y-116329977D01*
X139632759Y-116329976D01*
X139632761Y-116329975D01*
X139793175Y-116281314D01*
X139793176Y-116281314D01*
X139793179Y-116281313D01*
X139918196Y-116269000D01*
X140001804Y-116269000D01*
X140126821Y-116281313D01*
X140126821Y-116281313D01*
G37*
G36*
X142666821Y-116281313D02*
X142666824Y-116281314D01*
X142666825Y-116281314D01*
X142827239Y-116329975D01*
X142827241Y-116329976D01*
X142827244Y-116329977D01*
X142975078Y-116408995D01*
X143104659Y-116515341D01*
X143211005Y-116644922D01*
X143290023Y-116792756D01*
X143338687Y-116953179D01*
X143355117Y-117120000D01*
X143338687Y-117286821D01*
X143290023Y-117447244D01*
X143211005Y-117595078D01*
X143104659Y-117724659D01*
X142975078Y-117831005D01*
X142827244Y-117910023D01*
X142827241Y-117910024D01*
X142827239Y-117910025D01*
X142666825Y-117958686D01*
X142666824Y-117958686D01*
X142666821Y-117958687D01*
X142541804Y-117971000D01*
X142458196Y-117971000D01*
X142333179Y-117958687D01*
X142333176Y-117958686D01*
X142333175Y-117958686D01*
X142172761Y-117910025D01*
X142172759Y-117910024D01*
X142172756Y-117910023D01*
X142024922Y-117831005D01*
X141895341Y-117724659D01*
X141788995Y-117595078D01*
X141709977Y-117447244D01*
X141661313Y-117286821D01*
X141644883Y-117120000D01*
X141661313Y-116953179D01*
X141709977Y-116792756D01*
X141788995Y-116644922D01*
X141895341Y-116515341D01*
X142024922Y-116408995D01*
X142172756Y-116329977D01*
X142172759Y-116329976D01*
X142172761Y-116329975D01*
X142333175Y-116281314D01*
X142333176Y-116281314D01*
X142333179Y-116281313D01*
X142458196Y-116269000D01*
X142541804Y-116269000D01*
X142666821Y-116281313D01*
X142666821Y-116281313D01*
G37*
G36*
X170748228Y-114681703D02*
X170903100Y-114745853D01*
X171042481Y-114838985D01*
X171161015Y-114957519D01*
X171254147Y-115096900D01*
X171318297Y-115251772D01*
X171351000Y-115416184D01*
X171351000Y-115583816D01*
X171318297Y-115748228D01*
X171254147Y-115903100D01*
X171161015Y-116042481D01*
X171042481Y-116161015D01*
X170903100Y-116254147D01*
X170748228Y-116318297D01*
X170583816Y-116351000D01*
X170416184Y-116351000D01*
X170251772Y-116318297D01*
X170096900Y-116254147D01*
X169957519Y-116161015D01*
X169838985Y-116042481D01*
X169745853Y-115903100D01*
X169681703Y-115748228D01*
X169649000Y-115583816D01*
X169649000Y-115416184D01*
X169681703Y-115251772D01*
X169745853Y-115096900D01*
X169838985Y-114957519D01*
X169957519Y-114838985D01*
X170096900Y-114745853D01*
X170251772Y-114681703D01*
X170416184Y-114649000D01*
X170583816Y-114649000D01*
X170748228Y-114681703D01*
X170748228Y-114681703D01*
G37*
G36*
X184551000Y-112751000D02*
X182449000Y-112751000D01*
X182449000Y-109249000D01*
X184551000Y-109249000D01*
X184551000Y-112751000D01*
X184551000Y-112751000D01*
G37*
G36*
X126551000Y-112751000D02*
X124449000Y-112751000D01*
X124449000Y-109249000D01*
X126551000Y-109249000D01*
X126551000Y-112751000D01*
X126551000Y-112751000D01*
G37*
G36*
X178714794Y-109920155D02*
X178821150Y-109941311D01*
X178891990Y-109970654D01*
X179021516Y-110024305D01*
X179201850Y-110144801D01*
X179355199Y-110298150D01*
X179355201Y-110298153D01*
X179355202Y-110298154D01*
X179475693Y-110478481D01*
X179475695Y-110478484D01*
X179558689Y-110678851D01*
X179601000Y-110891560D01*
X179601000Y-111108440D01*
X179558689Y-111321149D01*
X179475695Y-111521516D01*
X179355199Y-111701850D01*
X179201850Y-111855199D01*
X179021516Y-111975695D01*
X178891990Y-112029346D01*
X178821150Y-112058689D01*
X178714795Y-112079844D01*
X178608440Y-112101000D01*
X178391560Y-112101000D01*
X178285205Y-112079844D01*
X178178850Y-112058689D01*
X178108010Y-112029346D01*
X177978484Y-111975695D01*
X177798150Y-111855199D01*
X177644801Y-111701850D01*
X177524305Y-111521516D01*
X177441311Y-111321149D01*
X177399000Y-111108440D01*
X177399000Y-110891560D01*
X177441311Y-110678851D01*
X177524305Y-110478484D01*
X177524307Y-110478481D01*
X177644798Y-110298154D01*
X177644799Y-110298153D01*
X177644801Y-110298150D01*
X177798150Y-110144801D01*
X177978484Y-110024305D01*
X178108010Y-109970654D01*
X178178850Y-109941311D01*
X178285206Y-109920155D01*
X178391560Y-109899000D01*
X178608440Y-109899000D01*
X178714794Y-109920155D01*
X178714794Y-109920155D01*
G37*
G36*
X130714794Y-109920155D02*
X130821150Y-109941311D01*
X130891990Y-109970654D01*
X131021516Y-110024305D01*
X131201850Y-110144801D01*
X131355199Y-110298150D01*
X131355201Y-110298153D01*
X131355202Y-110298154D01*
X131475693Y-110478481D01*
X131475695Y-110478484D01*
X131558689Y-110678851D01*
X131601000Y-110891560D01*
X131601000Y-111108440D01*
X131558689Y-111321149D01*
X131475695Y-111521516D01*
X131355199Y-111701850D01*
X131201850Y-111855199D01*
X131021516Y-111975695D01*
X130891990Y-112029346D01*
X130821150Y-112058689D01*
X130714795Y-112079844D01*
X130608440Y-112101000D01*
X130391560Y-112101000D01*
X130285205Y-112079844D01*
X130178850Y-112058689D01*
X130108010Y-112029346D01*
X129978484Y-111975695D01*
X129798150Y-111855199D01*
X129644801Y-111701850D01*
X129524305Y-111521516D01*
X129441311Y-111321149D01*
X129399000Y-111108440D01*
X129399000Y-110891560D01*
X129441311Y-110678851D01*
X129524305Y-110478484D01*
X129524307Y-110478481D01*
X129644798Y-110298154D01*
X129644799Y-110298153D01*
X129644801Y-110298150D01*
X129798150Y-110144801D01*
X129978484Y-110024305D01*
X130108010Y-109970654D01*
X130178850Y-109941311D01*
X130285206Y-109920155D01*
X130391560Y-109899000D01*
X130608440Y-109899000D01*
X130714794Y-109920155D01*
X130714794Y-109920155D01*
G37*
G36*
X171351000Y-111851000D02*
X169649000Y-111851000D01*
X169649000Y-110149000D01*
X171351000Y-110149000D01*
X171351000Y-111851000D01*
X171351000Y-111851000D01*
G37*
G36*
X163126821Y-108661313D02*
X163126824Y-108661314D01*
X163126825Y-108661314D01*
X163287239Y-108709975D01*
X163287241Y-108709976D01*
X163287244Y-108709977D01*
X163435078Y-108788995D01*
X163564659Y-108895341D01*
X163671005Y-109024922D01*
X163750023Y-109172756D01*
X163750024Y-109172759D01*
X163750025Y-109172761D01*
X163798686Y-109333175D01*
X163798687Y-109333179D01*
X163815117Y-109500000D01*
X163798687Y-109666821D01*
X163798686Y-109666824D01*
X163798686Y-109666825D01*
X163752738Y-109818297D01*
X163750023Y-109827244D01*
X163671005Y-109975078D01*
X163564659Y-110104659D01*
X163435078Y-110211005D01*
X163287244Y-110290023D01*
X163287241Y-110290024D01*
X163287239Y-110290025D01*
X163126825Y-110338686D01*
X163126824Y-110338686D01*
X163126821Y-110338687D01*
X163001804Y-110351000D01*
X162918196Y-110351000D01*
X162793179Y-110338687D01*
X162793176Y-110338686D01*
X162793175Y-110338686D01*
X162632761Y-110290025D01*
X162632759Y-110290024D01*
X162632756Y-110290023D01*
X162484922Y-110211005D01*
X162355341Y-110104659D01*
X162248995Y-109975078D01*
X162169977Y-109827244D01*
X162167263Y-109818297D01*
X162121314Y-109666825D01*
X162121314Y-109666824D01*
X162121313Y-109666821D01*
X162104883Y-109500000D01*
X162121313Y-109333179D01*
X162121314Y-109333175D01*
X162169975Y-109172761D01*
X162169976Y-109172759D01*
X162169977Y-109172756D01*
X162248995Y-109024922D01*
X162355341Y-108895341D01*
X162484922Y-108788995D01*
X162632756Y-108709977D01*
X162632759Y-108709976D01*
X162632761Y-108709975D01*
X162793175Y-108661314D01*
X162793176Y-108661314D01*
X162793179Y-108661313D01*
X162918196Y-108649000D01*
X163001804Y-108649000D01*
X163126821Y-108661313D01*
X163126821Y-108661313D01*
G37*
G36*
X135046821Y-108661313D02*
X135046824Y-108661314D01*
X135046825Y-108661314D01*
X135207239Y-108709975D01*
X135207241Y-108709976D01*
X135207244Y-108709977D01*
X135355078Y-108788995D01*
X135484659Y-108895341D01*
X135591005Y-109024922D01*
X135670023Y-109172756D01*
X135670024Y-109172759D01*
X135670025Y-109172761D01*
X135718686Y-109333175D01*
X135718687Y-109333179D01*
X135735117Y-109500000D01*
X135718687Y-109666821D01*
X135718686Y-109666824D01*
X135718686Y-109666825D01*
X135672738Y-109818297D01*
X135670023Y-109827244D01*
X135591005Y-109975078D01*
X135484659Y-110104659D01*
X135355078Y-110211005D01*
X135207244Y-110290023D01*
X135207241Y-110290024D01*
X135207239Y-110290025D01*
X135046825Y-110338686D01*
X135046824Y-110338686D01*
X135046821Y-110338687D01*
X134921804Y-110351000D01*
X134838196Y-110351000D01*
X134713179Y-110338687D01*
X134713176Y-110338686D01*
X134713175Y-110338686D01*
X134552761Y-110290025D01*
X134552759Y-110290024D01*
X134552756Y-110290023D01*
X134404922Y-110211005D01*
X134275341Y-110104659D01*
X134168995Y-109975078D01*
X134089977Y-109827244D01*
X134087263Y-109818297D01*
X134041314Y-109666825D01*
X134041314Y-109666824D01*
X134041313Y-109666821D01*
X134024883Y-109500000D01*
X134041313Y-109333179D01*
X134041314Y-109333175D01*
X134089975Y-109172761D01*
X134089976Y-109172759D01*
X134089977Y-109172756D01*
X134168995Y-109024922D01*
X134275341Y-108895341D01*
X134404922Y-108788995D01*
X134552756Y-108709977D01*
X134552759Y-108709976D01*
X134552761Y-108709975D01*
X134713175Y-108661314D01*
X134713176Y-108661314D01*
X134713179Y-108661313D01*
X134838196Y-108649000D01*
X134921804Y-108649000D01*
X135046821Y-108661313D01*
X135046821Y-108661313D01*
G37*
G36*
X137586821Y-108661313D02*
X137586824Y-108661314D01*
X137586825Y-108661314D01*
X137747239Y-108709975D01*
X137747241Y-108709976D01*
X137747244Y-108709977D01*
X137895078Y-108788995D01*
X138024659Y-108895341D01*
X138131005Y-109024922D01*
X138210023Y-109172756D01*
X138210024Y-109172759D01*
X138210025Y-109172761D01*
X138258686Y-109333175D01*
X138258687Y-109333179D01*
X138275117Y-109500000D01*
X138258687Y-109666821D01*
X138258686Y-109666824D01*
X138258686Y-109666825D01*
X138212738Y-109818297D01*
X138210023Y-109827244D01*
X138131005Y-109975078D01*
X138024659Y-110104659D01*
X137895078Y-110211005D01*
X137747244Y-110290023D01*
X137747241Y-110290024D01*
X137747239Y-110290025D01*
X137586825Y-110338686D01*
X137586824Y-110338686D01*
X137586821Y-110338687D01*
X137461804Y-110351000D01*
X137378196Y-110351000D01*
X137253179Y-110338687D01*
X137253176Y-110338686D01*
X137253175Y-110338686D01*
X137092761Y-110290025D01*
X137092759Y-110290024D01*
X137092756Y-110290023D01*
X136944922Y-110211005D01*
X136815341Y-110104659D01*
X136708995Y-109975078D01*
X136629977Y-109827244D01*
X136627263Y-109818297D01*
X136581314Y-109666825D01*
X136581314Y-109666824D01*
X136581313Y-109666821D01*
X136564883Y-109500000D01*
X136581313Y-109333179D01*
X136581314Y-109333175D01*
X136629975Y-109172761D01*
X136629976Y-109172759D01*
X136629977Y-109172756D01*
X136708995Y-109024922D01*
X136815341Y-108895341D01*
X136944922Y-108788995D01*
X137092756Y-108709977D01*
X137092759Y-108709976D01*
X137092761Y-108709975D01*
X137253175Y-108661314D01*
X137253176Y-108661314D01*
X137253179Y-108661313D01*
X137378196Y-108649000D01*
X137461804Y-108649000D01*
X137586821Y-108661313D01*
X137586821Y-108661313D01*
G37*
G36*
X140126821Y-108661313D02*
X140126824Y-108661314D01*
X140126825Y-108661314D01*
X140287239Y-108709975D01*
X140287241Y-108709976D01*
X140287244Y-108709977D01*
X140435078Y-108788995D01*
X140564659Y-108895341D01*
X140671005Y-109024922D01*
X140750023Y-109172756D01*
X140750024Y-109172759D01*
X140750025Y-109172761D01*
X140798686Y-109333175D01*
X140798687Y-109333179D01*
X140815117Y-109500000D01*
X140798687Y-109666821D01*
X140798686Y-109666824D01*
X140798686Y-109666825D01*
X140752738Y-109818297D01*
X140750023Y-109827244D01*
X140671005Y-109975078D01*
X140564659Y-110104659D01*
X140435078Y-110211005D01*
X140287244Y-110290023D01*
X140287241Y-110290024D01*
X140287239Y-110290025D01*
X140126825Y-110338686D01*
X140126824Y-110338686D01*
X140126821Y-110338687D01*
X140001804Y-110351000D01*
X139918196Y-110351000D01*
X139793179Y-110338687D01*
X139793176Y-110338686D01*
X139793175Y-110338686D01*
X139632761Y-110290025D01*
X139632759Y-110290024D01*
X139632756Y-110290023D01*
X139484922Y-110211005D01*
X139355341Y-110104659D01*
X139248995Y-109975078D01*
X139169977Y-109827244D01*
X139167263Y-109818297D01*
X139121314Y-109666825D01*
X139121314Y-109666824D01*
X139121313Y-109666821D01*
X139104883Y-109500000D01*
X139121313Y-109333179D01*
X139121314Y-109333175D01*
X139169975Y-109172761D01*
X139169976Y-109172759D01*
X139169977Y-109172756D01*
X139248995Y-109024922D01*
X139355341Y-108895341D01*
X139484922Y-108788995D01*
X139632756Y-108709977D01*
X139632759Y-108709976D01*
X139632761Y-108709975D01*
X139793175Y-108661314D01*
X139793176Y-108661314D01*
X139793179Y-108661313D01*
X139918196Y-108649000D01*
X140001804Y-108649000D01*
X140126821Y-108661313D01*
X140126821Y-108661313D01*
G37*
G36*
X146546821Y-108661313D02*
X146546824Y-108661314D01*
X146546825Y-108661314D01*
X146707239Y-108709975D01*
X146707241Y-108709976D01*
X146707244Y-108709977D01*
X146855078Y-108788995D01*
X146984659Y-108895341D01*
X147091005Y-109024922D01*
X147170023Y-109172756D01*
X147170024Y-109172759D01*
X147170025Y-109172761D01*
X147218686Y-109333175D01*
X147218687Y-109333179D01*
X147235117Y-109500000D01*
X147218687Y-109666821D01*
X147218686Y-109666824D01*
X147218686Y-109666825D01*
X147172738Y-109818297D01*
X147170023Y-109827244D01*
X147091005Y-109975078D01*
X146984659Y-110104659D01*
X146855078Y-110211005D01*
X146707244Y-110290023D01*
X146707241Y-110290024D01*
X146707239Y-110290025D01*
X146546825Y-110338686D01*
X146546824Y-110338686D01*
X146546821Y-110338687D01*
X146421804Y-110351000D01*
X146338196Y-110351000D01*
X146213179Y-110338687D01*
X146213176Y-110338686D01*
X146213175Y-110338686D01*
X146052761Y-110290025D01*
X146052759Y-110290024D01*
X146052756Y-110290023D01*
X145904922Y-110211005D01*
X145775341Y-110104659D01*
X145668995Y-109975078D01*
X145589977Y-109827244D01*
X145587263Y-109818297D01*
X145541314Y-109666825D01*
X145541314Y-109666824D01*
X145541313Y-109666821D01*
X145524883Y-109500000D01*
X145541313Y-109333179D01*
X145541314Y-109333175D01*
X145589975Y-109172761D01*
X145589976Y-109172759D01*
X145589977Y-109172756D01*
X145668995Y-109024922D01*
X145775341Y-108895341D01*
X145904922Y-108788995D01*
X146052756Y-108709977D01*
X146052759Y-108709976D01*
X146052761Y-108709975D01*
X146213175Y-108661314D01*
X146213176Y-108661314D01*
X146213179Y-108661313D01*
X146338196Y-108649000D01*
X146421804Y-108649000D01*
X146546821Y-108661313D01*
X146546821Y-108661313D01*
G37*
G36*
X143351000Y-110351000D02*
X141649000Y-110351000D01*
X141649000Y-108649000D01*
X143351000Y-108649000D01*
X143351000Y-110351000D01*
X143351000Y-110351000D01*
G37*
G36*
X151626821Y-108661313D02*
X151626824Y-108661314D01*
X151626825Y-108661314D01*
X151787239Y-108709975D01*
X151787241Y-108709976D01*
X151787244Y-108709977D01*
X151935078Y-108788995D01*
X152064659Y-108895341D01*
X152171005Y-109024922D01*
X152250023Y-109172756D01*
X152250024Y-109172759D01*
X152250025Y-109172761D01*
X152298686Y-109333175D01*
X152298687Y-109333179D01*
X152315117Y-109500000D01*
X152298687Y-109666821D01*
X152298686Y-109666824D01*
X152298686Y-109666825D01*
X152252738Y-109818297D01*
X152250023Y-109827244D01*
X152171005Y-109975078D01*
X152064659Y-110104659D01*
X151935078Y-110211005D01*
X151787244Y-110290023D01*
X151787241Y-110290024D01*
X151787239Y-110290025D01*
X151626825Y-110338686D01*
X151626824Y-110338686D01*
X151626821Y-110338687D01*
X151501804Y-110351000D01*
X151418196Y-110351000D01*
X151293179Y-110338687D01*
X151293176Y-110338686D01*
X151293175Y-110338686D01*
X151132761Y-110290025D01*
X151132759Y-110290024D01*
X151132756Y-110290023D01*
X150984922Y-110211005D01*
X150855341Y-110104659D01*
X150748995Y-109975078D01*
X150669977Y-109827244D01*
X150667263Y-109818297D01*
X150621314Y-109666825D01*
X150621314Y-109666824D01*
X150621313Y-109666821D01*
X150604883Y-109500000D01*
X150621313Y-109333179D01*
X150621314Y-109333175D01*
X150669975Y-109172761D01*
X150669976Y-109172759D01*
X150669977Y-109172756D01*
X150748995Y-109024922D01*
X150855341Y-108895341D01*
X150984922Y-108788995D01*
X151132756Y-108709977D01*
X151132759Y-108709976D01*
X151132761Y-108709975D01*
X151293175Y-108661314D01*
X151293176Y-108661314D01*
X151293179Y-108661313D01*
X151418196Y-108649000D01*
X151501804Y-108649000D01*
X151626821Y-108661313D01*
X151626821Y-108661313D01*
G37*
G36*
X154851000Y-110351000D02*
X153149000Y-110351000D01*
X153149000Y-108649000D01*
X154851000Y-108649000D01*
X154851000Y-110351000D01*
X154851000Y-110351000D01*
G37*
G36*
X166351000Y-110351000D02*
X164649000Y-110351000D01*
X164649000Y-108649000D01*
X166351000Y-108649000D01*
X166351000Y-110351000D01*
X166351000Y-110351000D01*
G37*
G36*
X158046821Y-108661313D02*
X158046824Y-108661314D01*
X158046825Y-108661314D01*
X158207239Y-108709975D01*
X158207241Y-108709976D01*
X158207244Y-108709977D01*
X158355078Y-108788995D01*
X158484659Y-108895341D01*
X158591005Y-109024922D01*
X158670023Y-109172756D01*
X158670024Y-109172759D01*
X158670025Y-109172761D01*
X158718686Y-109333175D01*
X158718687Y-109333179D01*
X158735117Y-109500000D01*
X158718687Y-109666821D01*
X158718686Y-109666824D01*
X158718686Y-109666825D01*
X158672738Y-109818297D01*
X158670023Y-109827244D01*
X158591005Y-109975078D01*
X158484659Y-110104659D01*
X158355078Y-110211005D01*
X158207244Y-110290023D01*
X158207241Y-110290024D01*
X158207239Y-110290025D01*
X158046825Y-110338686D01*
X158046824Y-110338686D01*
X158046821Y-110338687D01*
X157921804Y-110351000D01*
X157838196Y-110351000D01*
X157713179Y-110338687D01*
X157713176Y-110338686D01*
X157713175Y-110338686D01*
X157552761Y-110290025D01*
X157552759Y-110290024D01*
X157552756Y-110290023D01*
X157404922Y-110211005D01*
X157275341Y-110104659D01*
X157168995Y-109975078D01*
X157089977Y-109827244D01*
X157087263Y-109818297D01*
X157041314Y-109666825D01*
X157041314Y-109666824D01*
X157041313Y-109666821D01*
X157024883Y-109500000D01*
X157041313Y-109333179D01*
X157041314Y-109333175D01*
X157089975Y-109172761D01*
X157089976Y-109172759D01*
X157089977Y-109172756D01*
X157168995Y-109024922D01*
X157275341Y-108895341D01*
X157404922Y-108788995D01*
X157552756Y-108709977D01*
X157552759Y-108709976D01*
X157552761Y-108709975D01*
X157713175Y-108661314D01*
X157713176Y-108661314D01*
X157713179Y-108661313D01*
X157838196Y-108649000D01*
X157921804Y-108649000D01*
X158046821Y-108661313D01*
X158046821Y-108661313D01*
G37*
G36*
X160586821Y-108661313D02*
X160586824Y-108661314D01*
X160586825Y-108661314D01*
X160747239Y-108709975D01*
X160747241Y-108709976D01*
X160747244Y-108709977D01*
X160895078Y-108788995D01*
X161024659Y-108895341D01*
X161131005Y-109024922D01*
X161210023Y-109172756D01*
X161210024Y-109172759D01*
X161210025Y-109172761D01*
X161258686Y-109333175D01*
X161258687Y-109333179D01*
X161275117Y-109500000D01*
X161258687Y-109666821D01*
X161258686Y-109666824D01*
X161258686Y-109666825D01*
X161212738Y-109818297D01*
X161210023Y-109827244D01*
X161131005Y-109975078D01*
X161024659Y-110104659D01*
X160895078Y-110211005D01*
X160747244Y-110290023D01*
X160747241Y-110290024D01*
X160747239Y-110290025D01*
X160586825Y-110338686D01*
X160586824Y-110338686D01*
X160586821Y-110338687D01*
X160461804Y-110351000D01*
X160378196Y-110351000D01*
X160253179Y-110338687D01*
X160253176Y-110338686D01*
X160253175Y-110338686D01*
X160092761Y-110290025D01*
X160092759Y-110290024D01*
X160092756Y-110290023D01*
X159944922Y-110211005D01*
X159815341Y-110104659D01*
X159708995Y-109975078D01*
X159629977Y-109827244D01*
X159627263Y-109818297D01*
X159581314Y-109666825D01*
X159581314Y-109666824D01*
X159581313Y-109666821D01*
X159564883Y-109500000D01*
X159581313Y-109333179D01*
X159581314Y-109333175D01*
X159629975Y-109172761D01*
X159629976Y-109172759D01*
X159629977Y-109172756D01*
X159708995Y-109024922D01*
X159815341Y-108895341D01*
X159944922Y-108788995D01*
X160092756Y-108709977D01*
X160092759Y-108709976D01*
X160092761Y-108709975D01*
X160253175Y-108661314D01*
X160253176Y-108661314D01*
X160253179Y-108661313D01*
X160378196Y-108649000D01*
X160461804Y-108649000D01*
X160586821Y-108661313D01*
X160586821Y-108661313D01*
G37*
G36*
X149086821Y-108661313D02*
X149086824Y-108661314D01*
X149086825Y-108661314D01*
X149247239Y-108709975D01*
X149247241Y-108709976D01*
X149247244Y-108709977D01*
X149395078Y-108788995D01*
X149524659Y-108895341D01*
X149631005Y-109024922D01*
X149710023Y-109172756D01*
X149710024Y-109172759D01*
X149710025Y-109172761D01*
X149758686Y-109333175D01*
X149758687Y-109333179D01*
X149775117Y-109500000D01*
X149758687Y-109666821D01*
X149758686Y-109666824D01*
X149758686Y-109666825D01*
X149712738Y-109818297D01*
X149710023Y-109827244D01*
X149631005Y-109975078D01*
X149524659Y-110104659D01*
X149395078Y-110211005D01*
X149247244Y-110290023D01*
X149247241Y-110290024D01*
X149247239Y-110290025D01*
X149086825Y-110338686D01*
X149086824Y-110338686D01*
X149086821Y-110338687D01*
X148961804Y-110351000D01*
X148878196Y-110351000D01*
X148753179Y-110338687D01*
X148753176Y-110338686D01*
X148753175Y-110338686D01*
X148592761Y-110290025D01*
X148592759Y-110290024D01*
X148592756Y-110290023D01*
X148444922Y-110211005D01*
X148315341Y-110104659D01*
X148208995Y-109975078D01*
X148129977Y-109827244D01*
X148127263Y-109818297D01*
X148081314Y-109666825D01*
X148081314Y-109666824D01*
X148081313Y-109666821D01*
X148064883Y-109500000D01*
X148081313Y-109333179D01*
X148081314Y-109333175D01*
X148129975Y-109172761D01*
X148129976Y-109172759D01*
X148129977Y-109172756D01*
X148208995Y-109024922D01*
X148315341Y-108895341D01*
X148444922Y-108788995D01*
X148592756Y-108709977D01*
X148592759Y-108709976D01*
X148592761Y-108709975D01*
X148753175Y-108661314D01*
X148753176Y-108661314D01*
X148753179Y-108661313D01*
X148878196Y-108649000D01*
X148961804Y-108649000D01*
X149086821Y-108661313D01*
X149086821Y-108661313D01*
G37*
G36*
X170748228Y-108181703D02*
X170903100Y-108245853D01*
X171042481Y-108338985D01*
X171161015Y-108457519D01*
X171254147Y-108596900D01*
X171318297Y-108751772D01*
X171351000Y-108916184D01*
X171351000Y-109083816D01*
X171318297Y-109248228D01*
X171254147Y-109403100D01*
X171161015Y-109542481D01*
X171042481Y-109661015D01*
X170903100Y-109754147D01*
X170748228Y-109818297D01*
X170583816Y-109851000D01*
X170416184Y-109851000D01*
X170251772Y-109818297D01*
X170096900Y-109754147D01*
X169957519Y-109661015D01*
X169838985Y-109542481D01*
X169745853Y-109403100D01*
X169681703Y-109248228D01*
X169649000Y-109083816D01*
X169649000Y-108916184D01*
X169681703Y-108751772D01*
X169745853Y-108596900D01*
X169838985Y-108457519D01*
X169957519Y-108338985D01*
X170096900Y-108245853D01*
X170251772Y-108181703D01*
X170416184Y-108149000D01*
X170583816Y-108149000D01*
X170748228Y-108181703D01*
X170748228Y-108181703D01*
G37*
G36*
X175766242Y-105853404D02*
X175803339Y-105864657D01*
X175837520Y-105882927D01*
X175867482Y-105907518D01*
X175892073Y-105937480D01*
X175910343Y-105971661D01*
X175921596Y-106008758D01*
X175926000Y-106053473D01*
X175926000Y-106946527D01*
X175921596Y-106991242D01*
X175910343Y-107028339D01*
X175892073Y-107062520D01*
X175867482Y-107092482D01*
X175837520Y-107117073D01*
X175803339Y-107135343D01*
X175766242Y-107146596D01*
X175721527Y-107151000D01*
X174278473Y-107151000D01*
X174233758Y-107146596D01*
X174196661Y-107135343D01*
X174162480Y-107117073D01*
X174132518Y-107092482D01*
X174107927Y-107062520D01*
X174089657Y-107028339D01*
X174078404Y-106991242D01*
X174074000Y-106946527D01*
X174074000Y-106053473D01*
X174078404Y-106008758D01*
X174089657Y-105971661D01*
X174107927Y-105937480D01*
X174132518Y-105907518D01*
X174162480Y-105882927D01*
X174196661Y-105864657D01*
X174233758Y-105853404D01*
X174278473Y-105849000D01*
X175721527Y-105849000D01*
X175766242Y-105853404D01*
X175766242Y-105853404D01*
G37*
G36*
X131878210Y-105008489D02*
X131964949Y-105034802D01*
X132044891Y-105077532D01*
X132114963Y-105135037D01*
X132172468Y-105205109D01*
X132215198Y-105285051D01*
X132241511Y-105371790D01*
X132251000Y-105468140D01*
X132251000Y-106631860D01*
X132241511Y-106728210D01*
X132215198Y-106814949D01*
X132172468Y-106894891D01*
X132114963Y-106964963D01*
X132044891Y-107022468D01*
X131964949Y-107065198D01*
X131878210Y-107091511D01*
X131781860Y-107101000D01*
X129218140Y-107101000D01*
X129121790Y-107091511D01*
X129035051Y-107065198D01*
X128955109Y-107022468D01*
X128885037Y-106964963D01*
X128827532Y-106894891D01*
X128784802Y-106814949D01*
X128758489Y-106728210D01*
X128749000Y-106631860D01*
X128749000Y-105468140D01*
X128758489Y-105371790D01*
X128784802Y-105285051D01*
X128827532Y-105205109D01*
X128885037Y-105135037D01*
X128955109Y-105077532D01*
X129035051Y-105034802D01*
X129121790Y-105008489D01*
X129218140Y-104999000D01*
X131781860Y-104999000D01*
X131878210Y-105008489D01*
X131878210Y-105008489D01*
G37*
G36*
X179878210Y-105008489D02*
X179964949Y-105034802D01*
X180044891Y-105077532D01*
X180114963Y-105135037D01*
X180172468Y-105205109D01*
X180215198Y-105285051D01*
X180241511Y-105371790D01*
X180251000Y-105468140D01*
X180251000Y-106631860D01*
X180241511Y-106728210D01*
X180215198Y-106814949D01*
X180172468Y-106894891D01*
X180114963Y-106964963D01*
X180044891Y-107022468D01*
X179964949Y-107065198D01*
X179878210Y-107091511D01*
X179781860Y-107101000D01*
X177218140Y-107101000D01*
X177121790Y-107091511D01*
X177035051Y-107065198D01*
X176955109Y-107022468D01*
X176885037Y-106964963D01*
X176827532Y-106894891D01*
X176784802Y-106814949D01*
X176758489Y-106728210D01*
X176749000Y-106631860D01*
X176749000Y-105468140D01*
X176758489Y-105371790D01*
X176784802Y-105285051D01*
X176827532Y-105205109D01*
X176885037Y-105135037D01*
X176955109Y-105077532D01*
X177035051Y-105034802D01*
X177121790Y-105008489D01*
X177218140Y-104999000D01*
X179781860Y-104999000D01*
X179878210Y-105008489D01*
X179878210Y-105008489D01*
G37*
G36*
X175338855Y-103852140D02*
X175402618Y-103858420D01*
X175484427Y-103883237D01*
X175525333Y-103895645D01*
X175625491Y-103949181D01*
X175638426Y-103956095D01*
X175737553Y-104037447D01*
X175818905Y-104136574D01*
X175818906Y-104136576D01*
X175879355Y-104249667D01*
X175879355Y-104249668D01*
X175916580Y-104372382D01*
X175929149Y-104500000D01*
X175916580Y-104627618D01*
X175913301Y-104638426D01*
X175879355Y-104750333D01*
X175832752Y-104837520D01*
X175818905Y-104863426D01*
X175737553Y-104962553D01*
X175638426Y-105043905D01*
X175638424Y-105043906D01*
X175525333Y-105104355D01*
X175484427Y-105116763D01*
X175402618Y-105141580D01*
X175338855Y-105147860D01*
X175306974Y-105151000D01*
X174693026Y-105151000D01*
X174661145Y-105147860D01*
X174597382Y-105141580D01*
X174515573Y-105116763D01*
X174474667Y-105104355D01*
X174361576Y-105043906D01*
X174361574Y-105043905D01*
X174262447Y-104962553D01*
X174181095Y-104863426D01*
X174167248Y-104837520D01*
X174120645Y-104750333D01*
X174086699Y-104638426D01*
X174083420Y-104627618D01*
X174070851Y-104500000D01*
X174083420Y-104372382D01*
X174120645Y-104249668D01*
X174120645Y-104249667D01*
X174181094Y-104136576D01*
X174181095Y-104136574D01*
X174262447Y-104037447D01*
X174361574Y-103956095D01*
X174374509Y-103949181D01*
X174474667Y-103895645D01*
X174515573Y-103883237D01*
X174597382Y-103858420D01*
X174661145Y-103852140D01*
X174693026Y-103849000D01*
X175306974Y-103849000D01*
X175338855Y-103852140D01*
X175338855Y-103852140D01*
G37*
G36*
X170627617Y-103083420D02*
X170709426Y-103108237D01*
X170750332Y-103120645D01*
X170772544Y-103132518D01*
X170863425Y-103181095D01*
X170863427Y-103181096D01*
X170863426Y-103181096D01*
X170936965Y-103241447D01*
X170962553Y-103262447D01*
X171043905Y-103361574D01*
X171043906Y-103361576D01*
X171104355Y-103474667D01*
X171116763Y-103515573D01*
X171141580Y-103597382D01*
X171151000Y-103693027D01*
X171151000Y-104306973D01*
X171141580Y-104402618D01*
X171116763Y-104484427D01*
X171104355Y-104525333D01*
X171050819Y-104625491D01*
X171043905Y-104638426D01*
X170962553Y-104737553D01*
X170863426Y-104818905D01*
X170863424Y-104818906D01*
X170750333Y-104879355D01*
X170709427Y-104891763D01*
X170627618Y-104916580D01*
X170500000Y-104929149D01*
X170372383Y-104916580D01*
X170290574Y-104891763D01*
X170249668Y-104879355D01*
X170136577Y-104818906D01*
X170136575Y-104818905D01*
X170037448Y-104737553D01*
X169956095Y-104638426D01*
X169915795Y-104563030D01*
X169895645Y-104525333D01*
X169883237Y-104484427D01*
X169858420Y-104402618D01*
X169849000Y-104306973D01*
X169849000Y-103693028D01*
X169858420Y-103597383D01*
X169895645Y-103474669D01*
X169895645Y-103474668D01*
X169927957Y-103414218D01*
X169956095Y-103361575D01*
X170037447Y-103262447D01*
X170136574Y-103181095D01*
X170171400Y-103162480D01*
X170249667Y-103120645D01*
X170290573Y-103108237D01*
X170372382Y-103083420D01*
X170500000Y-103070851D01*
X170627617Y-103083420D01*
X170627617Y-103083420D01*
G37*
G36*
X168627617Y-103083420D02*
X168709426Y-103108237D01*
X168750332Y-103120645D01*
X168772544Y-103132518D01*
X168863425Y-103181095D01*
X168863427Y-103181096D01*
X168863426Y-103181096D01*
X168936965Y-103241447D01*
X168962553Y-103262447D01*
X169043905Y-103361574D01*
X169043906Y-103361576D01*
X169104355Y-103474667D01*
X169116763Y-103515573D01*
X169141580Y-103597382D01*
X169151000Y-103693027D01*
X169151000Y-104306973D01*
X169141580Y-104402618D01*
X169116763Y-104484427D01*
X169104355Y-104525333D01*
X169050819Y-104625491D01*
X169043905Y-104638426D01*
X168962553Y-104737553D01*
X168863426Y-104818905D01*
X168863424Y-104818906D01*
X168750333Y-104879355D01*
X168709427Y-104891763D01*
X168627618Y-104916580D01*
X168500000Y-104929149D01*
X168372383Y-104916580D01*
X168290574Y-104891763D01*
X168249668Y-104879355D01*
X168136577Y-104818906D01*
X168136575Y-104818905D01*
X168037448Y-104737553D01*
X167956095Y-104638426D01*
X167915795Y-104563030D01*
X167895645Y-104525333D01*
X167883237Y-104484427D01*
X167858420Y-104402618D01*
X167849000Y-104306973D01*
X167849000Y-103693028D01*
X167858420Y-103597383D01*
X167895645Y-103474669D01*
X167895645Y-103474668D01*
X167927957Y-103414218D01*
X167956095Y-103361575D01*
X168037447Y-103262447D01*
X168136574Y-103181095D01*
X168171400Y-103162480D01*
X168249667Y-103120645D01*
X168290573Y-103108237D01*
X168372382Y-103083420D01*
X168500000Y-103070851D01*
X168627617Y-103083420D01*
X168627617Y-103083420D01*
G37*
G36*
X166991242Y-103078404D02*
X167028339Y-103089657D01*
X167062520Y-103107927D01*
X167092482Y-103132518D01*
X167117073Y-103162480D01*
X167135343Y-103196661D01*
X167146596Y-103233758D01*
X167151000Y-103278473D01*
X167151000Y-104721527D01*
X167146596Y-104766242D01*
X167135343Y-104803339D01*
X167117073Y-104837520D01*
X167092482Y-104867482D01*
X167062520Y-104892073D01*
X167028339Y-104910343D01*
X166991242Y-104921596D01*
X166946527Y-104926000D01*
X166053473Y-104926000D01*
X166008758Y-104921596D01*
X165971661Y-104910343D01*
X165937480Y-104892073D01*
X165907518Y-104867482D01*
X165882927Y-104837520D01*
X165864657Y-104803339D01*
X165853404Y-104766242D01*
X165849000Y-104721527D01*
X165849000Y-103278473D01*
X165853404Y-103233758D01*
X165864657Y-103196661D01*
X165882927Y-103162480D01*
X165907518Y-103132518D01*
X165937480Y-103107927D01*
X165971661Y-103089657D01*
X166008758Y-103078404D01*
X166053473Y-103074000D01*
X166946527Y-103074000D01*
X166991242Y-103078404D01*
X166991242Y-103078404D01*
G37*
G36*
X131878210Y-101908489D02*
X131964949Y-101934802D01*
X132044891Y-101977532D01*
X132114963Y-102035037D01*
X132172468Y-102105109D01*
X132215198Y-102185051D01*
X132241511Y-102271790D01*
X132251000Y-102368140D01*
X132251000Y-103531860D01*
X132241511Y-103628210D01*
X132215198Y-103714949D01*
X132172468Y-103794891D01*
X132114963Y-103864963D01*
X132044891Y-103922468D01*
X131964949Y-103965198D01*
X131878210Y-103991511D01*
X131781860Y-104001000D01*
X129218140Y-104001000D01*
X129121790Y-103991511D01*
X129035051Y-103965198D01*
X128955109Y-103922468D01*
X128885037Y-103864963D01*
X128827532Y-103794891D01*
X128784802Y-103714949D01*
X128758489Y-103628210D01*
X128749000Y-103531860D01*
X128749000Y-102368140D01*
X128758489Y-102271790D01*
X128784802Y-102185051D01*
X128827532Y-102105109D01*
X128885037Y-102035037D01*
X128955109Y-101977532D01*
X129035051Y-101934802D01*
X129121790Y-101908489D01*
X129218140Y-101899000D01*
X131781860Y-101899000D01*
X131878210Y-101908489D01*
X131878210Y-101908489D01*
G37*
G36*
X179878210Y-101908489D02*
X179964949Y-101934802D01*
X180044891Y-101977532D01*
X180114963Y-102035037D01*
X180172468Y-102105109D01*
X180215198Y-102185051D01*
X180241511Y-102271790D01*
X180251000Y-102368140D01*
X180251000Y-103531860D01*
X180241511Y-103628210D01*
X180215198Y-103714949D01*
X180172468Y-103794891D01*
X180114963Y-103864963D01*
X180044891Y-103922468D01*
X179964949Y-103965198D01*
X179878210Y-103991511D01*
X179781860Y-104001000D01*
X177218140Y-104001000D01*
X177121790Y-103991511D01*
X177035051Y-103965198D01*
X176955109Y-103922468D01*
X176885037Y-103864963D01*
X176827532Y-103794891D01*
X176784802Y-103714949D01*
X176758489Y-103628210D01*
X176749000Y-103531860D01*
X176749000Y-102368140D01*
X176758489Y-102271790D01*
X176784802Y-102185051D01*
X176827532Y-102105109D01*
X176885037Y-102035037D01*
X176955109Y-101977532D01*
X177035051Y-101934802D01*
X177121790Y-101908489D01*
X177218140Y-101899000D01*
X179781860Y-101899000D01*
X179878210Y-101908489D01*
X179878210Y-101908489D01*
G37*
G36*
X175338855Y-101852140D02*
X175402618Y-101858420D01*
X175484427Y-101883237D01*
X175525333Y-101895645D01*
X175625491Y-101949181D01*
X175638426Y-101956095D01*
X175737553Y-102037447D01*
X175818905Y-102136574D01*
X175818906Y-102136576D01*
X175879355Y-102249667D01*
X175879355Y-102249668D01*
X175916580Y-102372382D01*
X175929149Y-102500000D01*
X175916580Y-102627618D01*
X175891763Y-102709427D01*
X175879355Y-102750333D01*
X175825819Y-102850491D01*
X175818905Y-102863426D01*
X175737553Y-102962553D01*
X175638426Y-103043905D01*
X175638424Y-103043906D01*
X175525333Y-103104355D01*
X175513557Y-103107927D01*
X175402618Y-103141580D01*
X175338855Y-103147860D01*
X175306974Y-103151000D01*
X174693026Y-103151000D01*
X174661145Y-103147860D01*
X174597382Y-103141580D01*
X174486443Y-103107927D01*
X174474667Y-103104355D01*
X174361576Y-103043906D01*
X174361574Y-103043905D01*
X174262447Y-102962553D01*
X174181095Y-102863426D01*
X174174181Y-102850491D01*
X174120645Y-102750333D01*
X174108237Y-102709427D01*
X174083420Y-102627618D01*
X174070851Y-102500000D01*
X174083420Y-102372382D01*
X174120645Y-102249668D01*
X174120645Y-102249667D01*
X174181094Y-102136576D01*
X174181095Y-102136574D01*
X174262447Y-102037447D01*
X174361574Y-101956095D01*
X174374509Y-101949181D01*
X174474667Y-101895645D01*
X174515573Y-101883237D01*
X174597382Y-101858420D01*
X174661145Y-101852140D01*
X174693026Y-101849000D01*
X175306974Y-101849000D01*
X175338855Y-101852140D01*
X175338855Y-101852140D01*
G37*
G36*
X171351000Y-100851000D02*
X169649000Y-100851000D01*
X169649000Y-99149000D01*
X171351000Y-99149000D01*
X171351000Y-100851000D01*
X171351000Y-100851000D01*
G37*
G36*
X137586821Y-98781313D02*
X137586824Y-98781314D01*
X137586825Y-98781314D01*
X137747239Y-98829975D01*
X137747241Y-98829976D01*
X137747244Y-98829977D01*
X137895078Y-98908995D01*
X138024659Y-99015341D01*
X138131005Y-99144922D01*
X138210023Y-99292756D01*
X138258687Y-99453179D01*
X138275117Y-99620000D01*
X138258687Y-99786821D01*
X138210023Y-99947244D01*
X138131005Y-100095078D01*
X138024659Y-100224659D01*
X137895078Y-100331005D01*
X137747244Y-100410023D01*
X137747241Y-100410024D01*
X137747239Y-100410025D01*
X137586825Y-100458686D01*
X137586824Y-100458686D01*
X137586821Y-100458687D01*
X137461804Y-100471000D01*
X137378196Y-100471000D01*
X137253179Y-100458687D01*
X137253176Y-100458686D01*
X137253175Y-100458686D01*
X137092761Y-100410025D01*
X137092759Y-100410024D01*
X137092756Y-100410023D01*
X136944922Y-100331005D01*
X136815341Y-100224659D01*
X136708995Y-100095078D01*
X136629977Y-99947244D01*
X136581313Y-99786821D01*
X136564883Y-99620000D01*
X136581313Y-99453179D01*
X136629977Y-99292756D01*
X136708995Y-99144922D01*
X136815341Y-99015341D01*
X136944922Y-98908995D01*
X137092756Y-98829977D01*
X137092759Y-98829976D01*
X137092761Y-98829975D01*
X137253175Y-98781314D01*
X137253176Y-98781314D01*
X137253179Y-98781313D01*
X137378196Y-98769000D01*
X137461804Y-98769000D01*
X137586821Y-98781313D01*
X137586821Y-98781313D01*
G37*
G36*
X158046821Y-98781313D02*
X158046824Y-98781314D01*
X158046825Y-98781314D01*
X158207239Y-98829975D01*
X158207241Y-98829976D01*
X158207244Y-98829977D01*
X158355078Y-98908995D01*
X158484659Y-99015341D01*
X158591005Y-99144922D01*
X158670023Y-99292756D01*
X158718687Y-99453179D01*
X158735117Y-99620000D01*
X158718687Y-99786821D01*
X158670023Y-99947244D01*
X158591005Y-100095078D01*
X158484659Y-100224659D01*
X158355078Y-100331005D01*
X158207244Y-100410023D01*
X158207241Y-100410024D01*
X158207239Y-100410025D01*
X158046825Y-100458686D01*
X158046824Y-100458686D01*
X158046821Y-100458687D01*
X157921804Y-100471000D01*
X157838196Y-100471000D01*
X157713179Y-100458687D01*
X157713176Y-100458686D01*
X157713175Y-100458686D01*
X157552761Y-100410025D01*
X157552759Y-100410024D01*
X157552756Y-100410023D01*
X157404922Y-100331005D01*
X157275341Y-100224659D01*
X157168995Y-100095078D01*
X157089977Y-99947244D01*
X157041313Y-99786821D01*
X157024883Y-99620000D01*
X157041313Y-99453179D01*
X157089977Y-99292756D01*
X157168995Y-99144922D01*
X157275341Y-99015341D01*
X157404922Y-98908995D01*
X157552756Y-98829977D01*
X157552759Y-98829976D01*
X157552761Y-98829975D01*
X157713175Y-98781314D01*
X157713176Y-98781314D01*
X157713179Y-98781313D01*
X157838196Y-98769000D01*
X157921804Y-98769000D01*
X158046821Y-98781313D01*
X158046821Y-98781313D01*
G37*
G36*
X160586821Y-98781313D02*
X160586824Y-98781314D01*
X160586825Y-98781314D01*
X160747239Y-98829975D01*
X160747241Y-98829976D01*
X160747244Y-98829977D01*
X160895078Y-98908995D01*
X161024659Y-99015341D01*
X161131005Y-99144922D01*
X161210023Y-99292756D01*
X161258687Y-99453179D01*
X161275117Y-99620000D01*
X161258687Y-99786821D01*
X161210023Y-99947244D01*
X161131005Y-100095078D01*
X161024659Y-100224659D01*
X160895078Y-100331005D01*
X160747244Y-100410023D01*
X160747241Y-100410024D01*
X160747239Y-100410025D01*
X160586825Y-100458686D01*
X160586824Y-100458686D01*
X160586821Y-100458687D01*
X160461804Y-100471000D01*
X160378196Y-100471000D01*
X160253179Y-100458687D01*
X160253176Y-100458686D01*
X160253175Y-100458686D01*
X160092761Y-100410025D01*
X160092759Y-100410024D01*
X160092756Y-100410023D01*
X159944922Y-100331005D01*
X159815341Y-100224659D01*
X159708995Y-100095078D01*
X159629977Y-99947244D01*
X159581313Y-99786821D01*
X159564883Y-99620000D01*
X159581313Y-99453179D01*
X159629977Y-99292756D01*
X159708995Y-99144922D01*
X159815341Y-99015341D01*
X159944922Y-98908995D01*
X160092756Y-98829977D01*
X160092759Y-98829976D01*
X160092761Y-98829975D01*
X160253175Y-98781314D01*
X160253176Y-98781314D01*
X160253179Y-98781313D01*
X160378196Y-98769000D01*
X160461804Y-98769000D01*
X160586821Y-98781313D01*
X160586821Y-98781313D01*
G37*
G36*
X163126821Y-98781313D02*
X163126824Y-98781314D01*
X163126825Y-98781314D01*
X163287239Y-98829975D01*
X163287241Y-98829976D01*
X163287244Y-98829977D01*
X163435078Y-98908995D01*
X163564659Y-99015341D01*
X163671005Y-99144922D01*
X163750023Y-99292756D01*
X163798687Y-99453179D01*
X163815117Y-99620000D01*
X163798687Y-99786821D01*
X163750023Y-99947244D01*
X163671005Y-100095078D01*
X163564659Y-100224659D01*
X163435078Y-100331005D01*
X163287244Y-100410023D01*
X163287241Y-100410024D01*
X163287239Y-100410025D01*
X163126825Y-100458686D01*
X163126824Y-100458686D01*
X163126821Y-100458687D01*
X163001804Y-100471000D01*
X162918196Y-100471000D01*
X162793179Y-100458687D01*
X162793176Y-100458686D01*
X162793175Y-100458686D01*
X162632761Y-100410025D01*
X162632759Y-100410024D01*
X162632756Y-100410023D01*
X162484922Y-100331005D01*
X162355341Y-100224659D01*
X162248995Y-100095078D01*
X162169977Y-99947244D01*
X162121313Y-99786821D01*
X162104883Y-99620000D01*
X162121313Y-99453179D01*
X162169977Y-99292756D01*
X162248995Y-99144922D01*
X162355341Y-99015341D01*
X162484922Y-98908995D01*
X162632756Y-98829977D01*
X162632759Y-98829976D01*
X162632761Y-98829975D01*
X162793175Y-98781314D01*
X162793176Y-98781314D01*
X162793179Y-98781313D01*
X162918196Y-98769000D01*
X163001804Y-98769000D01*
X163126821Y-98781313D01*
X163126821Y-98781313D01*
G37*
G36*
X165666821Y-98781313D02*
X165666824Y-98781314D01*
X165666825Y-98781314D01*
X165827239Y-98829975D01*
X165827241Y-98829976D01*
X165827244Y-98829977D01*
X165975078Y-98908995D01*
X166104659Y-99015341D01*
X166211005Y-99144922D01*
X166290023Y-99292756D01*
X166338687Y-99453179D01*
X166355117Y-99620000D01*
X166338687Y-99786821D01*
X166290023Y-99947244D01*
X166211005Y-100095078D01*
X166104659Y-100224659D01*
X165975078Y-100331005D01*
X165827244Y-100410023D01*
X165827241Y-100410024D01*
X165827239Y-100410025D01*
X165666825Y-100458686D01*
X165666824Y-100458686D01*
X165666821Y-100458687D01*
X165541804Y-100471000D01*
X165458196Y-100471000D01*
X165333179Y-100458687D01*
X165333176Y-100458686D01*
X165333175Y-100458686D01*
X165172761Y-100410025D01*
X165172759Y-100410024D01*
X165172756Y-100410023D01*
X165024922Y-100331005D01*
X164895341Y-100224659D01*
X164788995Y-100095078D01*
X164709977Y-99947244D01*
X164661313Y-99786821D01*
X164644883Y-99620000D01*
X164661313Y-99453179D01*
X164709977Y-99292756D01*
X164788995Y-99144922D01*
X164895341Y-99015341D01*
X165024922Y-98908995D01*
X165172756Y-98829977D01*
X165172759Y-98829976D01*
X165172761Y-98829975D01*
X165333175Y-98781314D01*
X165333176Y-98781314D01*
X165333179Y-98781313D01*
X165458196Y-98769000D01*
X165541804Y-98769000D01*
X165666821Y-98781313D01*
X165666821Y-98781313D01*
G37*
G36*
X154166821Y-98781313D02*
X154166824Y-98781314D01*
X154166825Y-98781314D01*
X154327239Y-98829975D01*
X154327241Y-98829976D01*
X154327244Y-98829977D01*
X154475078Y-98908995D01*
X154604659Y-99015341D01*
X154711005Y-99144922D01*
X154790023Y-99292756D01*
X154838687Y-99453179D01*
X154855117Y-99620000D01*
X154838687Y-99786821D01*
X154790023Y-99947244D01*
X154711005Y-100095078D01*
X154604659Y-100224659D01*
X154475078Y-100331005D01*
X154327244Y-100410023D01*
X154327241Y-100410024D01*
X154327239Y-100410025D01*
X154166825Y-100458686D01*
X154166824Y-100458686D01*
X154166821Y-100458687D01*
X154041804Y-100471000D01*
X153958196Y-100471000D01*
X153833179Y-100458687D01*
X153833176Y-100458686D01*
X153833175Y-100458686D01*
X153672761Y-100410025D01*
X153672759Y-100410024D01*
X153672756Y-100410023D01*
X153524922Y-100331005D01*
X153395341Y-100224659D01*
X153288995Y-100095078D01*
X153209977Y-99947244D01*
X153161313Y-99786821D01*
X153144883Y-99620000D01*
X153161313Y-99453179D01*
X153209977Y-99292756D01*
X153288995Y-99144922D01*
X153395341Y-99015341D01*
X153524922Y-98908995D01*
X153672756Y-98829977D01*
X153672759Y-98829976D01*
X153672761Y-98829975D01*
X153833175Y-98781314D01*
X153833176Y-98781314D01*
X153833179Y-98781313D01*
X153958196Y-98769000D01*
X154041804Y-98769000D01*
X154166821Y-98781313D01*
X154166821Y-98781313D01*
G37*
G36*
X151626821Y-98781313D02*
X151626824Y-98781314D01*
X151626825Y-98781314D01*
X151787239Y-98829975D01*
X151787241Y-98829976D01*
X151787244Y-98829977D01*
X151935078Y-98908995D01*
X152064659Y-99015341D01*
X152171005Y-99144922D01*
X152250023Y-99292756D01*
X152298687Y-99453179D01*
X152315117Y-99620000D01*
X152298687Y-99786821D01*
X152250023Y-99947244D01*
X152171005Y-100095078D01*
X152064659Y-100224659D01*
X151935078Y-100331005D01*
X151787244Y-100410023D01*
X151787241Y-100410024D01*
X151787239Y-100410025D01*
X151626825Y-100458686D01*
X151626824Y-100458686D01*
X151626821Y-100458687D01*
X151501804Y-100471000D01*
X151418196Y-100471000D01*
X151293179Y-100458687D01*
X151293176Y-100458686D01*
X151293175Y-100458686D01*
X151132761Y-100410025D01*
X151132759Y-100410024D01*
X151132756Y-100410023D01*
X150984922Y-100331005D01*
X150855341Y-100224659D01*
X150748995Y-100095078D01*
X150669977Y-99947244D01*
X150621313Y-99786821D01*
X150604883Y-99620000D01*
X150621313Y-99453179D01*
X150669977Y-99292756D01*
X150748995Y-99144922D01*
X150855341Y-99015341D01*
X150984922Y-98908995D01*
X151132756Y-98829977D01*
X151132759Y-98829976D01*
X151132761Y-98829975D01*
X151293175Y-98781314D01*
X151293176Y-98781314D01*
X151293179Y-98781313D01*
X151418196Y-98769000D01*
X151501804Y-98769000D01*
X151626821Y-98781313D01*
X151626821Y-98781313D01*
G37*
G36*
X146546821Y-98781313D02*
X146546824Y-98781314D01*
X146546825Y-98781314D01*
X146707239Y-98829975D01*
X146707241Y-98829976D01*
X146707244Y-98829977D01*
X146855078Y-98908995D01*
X146984659Y-99015341D01*
X147091005Y-99144922D01*
X147170023Y-99292756D01*
X147218687Y-99453179D01*
X147235117Y-99620000D01*
X147218687Y-99786821D01*
X147170023Y-99947244D01*
X147091005Y-100095078D01*
X146984659Y-100224659D01*
X146855078Y-100331005D01*
X146707244Y-100410023D01*
X146707241Y-100410024D01*
X146707239Y-100410025D01*
X146546825Y-100458686D01*
X146546824Y-100458686D01*
X146546821Y-100458687D01*
X146421804Y-100471000D01*
X146338196Y-100471000D01*
X146213179Y-100458687D01*
X146213176Y-100458686D01*
X146213175Y-100458686D01*
X146052761Y-100410025D01*
X146052759Y-100410024D01*
X146052756Y-100410023D01*
X145904922Y-100331005D01*
X145775341Y-100224659D01*
X145668995Y-100095078D01*
X145589977Y-99947244D01*
X145541313Y-99786821D01*
X145524883Y-99620000D01*
X145541313Y-99453179D01*
X145589977Y-99292756D01*
X145668995Y-99144922D01*
X145775341Y-99015341D01*
X145904922Y-98908995D01*
X146052756Y-98829977D01*
X146052759Y-98829976D01*
X146052761Y-98829975D01*
X146213175Y-98781314D01*
X146213176Y-98781314D01*
X146213179Y-98781313D01*
X146338196Y-98769000D01*
X146421804Y-98769000D01*
X146546821Y-98781313D01*
X146546821Y-98781313D01*
G37*
G36*
X140126821Y-98781313D02*
X140126824Y-98781314D01*
X140126825Y-98781314D01*
X140287239Y-98829975D01*
X140287241Y-98829976D01*
X140287244Y-98829977D01*
X140435078Y-98908995D01*
X140564659Y-99015341D01*
X140671005Y-99144922D01*
X140750023Y-99292756D01*
X140798687Y-99453179D01*
X140815117Y-99620000D01*
X140798687Y-99786821D01*
X140750023Y-99947244D01*
X140671005Y-100095078D01*
X140564659Y-100224659D01*
X140435078Y-100331005D01*
X140287244Y-100410023D01*
X140287241Y-100410024D01*
X140287239Y-100410025D01*
X140126825Y-100458686D01*
X140126824Y-100458686D01*
X140126821Y-100458687D01*
X140001804Y-100471000D01*
X139918196Y-100471000D01*
X139793179Y-100458687D01*
X139793176Y-100458686D01*
X139793175Y-100458686D01*
X139632761Y-100410025D01*
X139632759Y-100410024D01*
X139632756Y-100410023D01*
X139484922Y-100331005D01*
X139355341Y-100224659D01*
X139248995Y-100095078D01*
X139169977Y-99947244D01*
X139121313Y-99786821D01*
X139104883Y-99620000D01*
X139121313Y-99453179D01*
X139169977Y-99292756D01*
X139248995Y-99144922D01*
X139355341Y-99015341D01*
X139484922Y-98908995D01*
X139632756Y-98829977D01*
X139632759Y-98829976D01*
X139632761Y-98829975D01*
X139793175Y-98781314D01*
X139793176Y-98781314D01*
X139793179Y-98781313D01*
X139918196Y-98769000D01*
X140001804Y-98769000D01*
X140126821Y-98781313D01*
X140126821Y-98781313D01*
G37*
G36*
X135046821Y-98781313D02*
X135046824Y-98781314D01*
X135046825Y-98781314D01*
X135207239Y-98829975D01*
X135207241Y-98829976D01*
X135207244Y-98829977D01*
X135355078Y-98908995D01*
X135484659Y-99015341D01*
X135591005Y-99144922D01*
X135670023Y-99292756D01*
X135718687Y-99453179D01*
X135735117Y-99620000D01*
X135718687Y-99786821D01*
X135670023Y-99947244D01*
X135591005Y-100095078D01*
X135484659Y-100224659D01*
X135355078Y-100331005D01*
X135207244Y-100410023D01*
X135207241Y-100410024D01*
X135207239Y-100410025D01*
X135046825Y-100458686D01*
X135046824Y-100458686D01*
X135046821Y-100458687D01*
X134921804Y-100471000D01*
X134838196Y-100471000D01*
X134713179Y-100458687D01*
X134713176Y-100458686D01*
X134713175Y-100458686D01*
X134552761Y-100410025D01*
X134552759Y-100410024D01*
X134552756Y-100410023D01*
X134404922Y-100331005D01*
X134275341Y-100224659D01*
X134168995Y-100095078D01*
X134089977Y-99947244D01*
X134041313Y-99786821D01*
X134024883Y-99620000D01*
X134041313Y-99453179D01*
X134089977Y-99292756D01*
X134168995Y-99144922D01*
X134275341Y-99015341D01*
X134404922Y-98908995D01*
X134552756Y-98829977D01*
X134552759Y-98829976D01*
X134552761Y-98829975D01*
X134713175Y-98781314D01*
X134713176Y-98781314D01*
X134713179Y-98781313D01*
X134838196Y-98769000D01*
X134921804Y-98769000D01*
X135046821Y-98781313D01*
X135046821Y-98781313D01*
G37*
G36*
X142666821Y-98781313D02*
X142666824Y-98781314D01*
X142666825Y-98781314D01*
X142827239Y-98829975D01*
X142827241Y-98829976D01*
X142827244Y-98829977D01*
X142975078Y-98908995D01*
X143104659Y-99015341D01*
X143211005Y-99144922D01*
X143290023Y-99292756D01*
X143338687Y-99453179D01*
X143355117Y-99620000D01*
X143338687Y-99786821D01*
X143290023Y-99947244D01*
X143211005Y-100095078D01*
X143104659Y-100224659D01*
X142975078Y-100331005D01*
X142827244Y-100410023D01*
X142827241Y-100410024D01*
X142827239Y-100410025D01*
X142666825Y-100458686D01*
X142666824Y-100458686D01*
X142666821Y-100458687D01*
X142541804Y-100471000D01*
X142458196Y-100471000D01*
X142333179Y-100458687D01*
X142333176Y-100458686D01*
X142333175Y-100458686D01*
X142172761Y-100410025D01*
X142172759Y-100410024D01*
X142172756Y-100410023D01*
X142024922Y-100331005D01*
X141895341Y-100224659D01*
X141788995Y-100095078D01*
X141709977Y-99947244D01*
X141661313Y-99786821D01*
X141644883Y-99620000D01*
X141661313Y-99453179D01*
X141709977Y-99292756D01*
X141788995Y-99144922D01*
X141895341Y-99015341D01*
X142024922Y-98908995D01*
X142172756Y-98829977D01*
X142172759Y-98829976D01*
X142172761Y-98829975D01*
X142333175Y-98781314D01*
X142333176Y-98781314D01*
X142333179Y-98781313D01*
X142458196Y-98769000D01*
X142541804Y-98769000D01*
X142666821Y-98781313D01*
X142666821Y-98781313D01*
G37*
G36*
X149086821Y-98781313D02*
X149086824Y-98781314D01*
X149086825Y-98781314D01*
X149247239Y-98829975D01*
X149247241Y-98829976D01*
X149247244Y-98829977D01*
X149395078Y-98908995D01*
X149524659Y-99015341D01*
X149631005Y-99144922D01*
X149710023Y-99292756D01*
X149758687Y-99453179D01*
X149775117Y-99620000D01*
X149758687Y-99786821D01*
X149710023Y-99947244D01*
X149631005Y-100095078D01*
X149524659Y-100224659D01*
X149395078Y-100331005D01*
X149247244Y-100410023D01*
X149247241Y-100410024D01*
X149247239Y-100410025D01*
X149086825Y-100458686D01*
X149086824Y-100458686D01*
X149086821Y-100458687D01*
X148961804Y-100471000D01*
X148878196Y-100471000D01*
X148753179Y-100458687D01*
X148753176Y-100458686D01*
X148753175Y-100458686D01*
X148592761Y-100410025D01*
X148592759Y-100410024D01*
X148592756Y-100410023D01*
X148444922Y-100331005D01*
X148315341Y-100224659D01*
X148208995Y-100095078D01*
X148129977Y-99947244D01*
X148081313Y-99786821D01*
X148064883Y-99620000D01*
X148081313Y-99453179D01*
X148129977Y-99292756D01*
X148208995Y-99144922D01*
X148315341Y-99015341D01*
X148444922Y-98908995D01*
X148592756Y-98829977D01*
X148592759Y-98829976D01*
X148592761Y-98829975D01*
X148753175Y-98781314D01*
X148753176Y-98781314D01*
X148753179Y-98781313D01*
X148878196Y-98769000D01*
X148961804Y-98769000D01*
X149086821Y-98781313D01*
X149086821Y-98781313D01*
G37*
G36*
X126551000Y-99751000D02*
X124449000Y-99751000D01*
X124449000Y-96249000D01*
X126551000Y-96249000D01*
X126551000Y-99751000D01*
X126551000Y-99751000D01*
G37*
G36*
X184551000Y-99751000D02*
X182449000Y-99751000D01*
X182449000Y-96249000D01*
X184551000Y-96249000D01*
X184551000Y-99751000D01*
X184551000Y-99751000D01*
G37*
G36*
X178714795Y-96920156D02*
X178821150Y-96941311D01*
X178891990Y-96970654D01*
X179021516Y-97024305D01*
X179201850Y-97144801D01*
X179355199Y-97298150D01*
X179475695Y-97478484D01*
X179558689Y-97678851D01*
X179601000Y-97891560D01*
X179601000Y-98108440D01*
X179558689Y-98321149D01*
X179475695Y-98521516D01*
X179355199Y-98701850D01*
X179201850Y-98855199D01*
X179021516Y-98975695D01*
X178925801Y-99015341D01*
X178821150Y-99058689D01*
X178714794Y-99079845D01*
X178608440Y-99101000D01*
X178391560Y-99101000D01*
X178285206Y-99079845D01*
X178178850Y-99058689D01*
X178074199Y-99015341D01*
X177978484Y-98975695D01*
X177798150Y-98855199D01*
X177644801Y-98701850D01*
X177524305Y-98521516D01*
X177441311Y-98321149D01*
X177399000Y-98108440D01*
X177399000Y-97891560D01*
X177441311Y-97678851D01*
X177524305Y-97478484D01*
X177644801Y-97298150D01*
X177798150Y-97144801D01*
X177978484Y-97024305D01*
X178108010Y-96970654D01*
X178178850Y-96941311D01*
X178285205Y-96920156D01*
X178391560Y-96899000D01*
X178608440Y-96899000D01*
X178714795Y-96920156D01*
X178714795Y-96920156D01*
G37*
G36*
X130714795Y-96920156D02*
X130821150Y-96941311D01*
X130891990Y-96970654D01*
X131021516Y-97024305D01*
X131201850Y-97144801D01*
X131355199Y-97298150D01*
X131475695Y-97478484D01*
X131558689Y-97678851D01*
X131601000Y-97891560D01*
X131601000Y-98108440D01*
X131558689Y-98321149D01*
X131475695Y-98521516D01*
X131355199Y-98701850D01*
X131201850Y-98855199D01*
X131021516Y-98975695D01*
X130925801Y-99015341D01*
X130821150Y-99058689D01*
X130714794Y-99079845D01*
X130608440Y-99101000D01*
X130391560Y-99101000D01*
X130285206Y-99079845D01*
X130178850Y-99058689D01*
X130074199Y-99015341D01*
X129978484Y-98975695D01*
X129798150Y-98855199D01*
X129644801Y-98701850D01*
X129524305Y-98521516D01*
X129441311Y-98321149D01*
X129399000Y-98108440D01*
X129399000Y-97891560D01*
X129441311Y-97678851D01*
X129524305Y-97478484D01*
X129644801Y-97298150D01*
X129798150Y-97144801D01*
X129978484Y-97024305D01*
X130108010Y-96970654D01*
X130178850Y-96941311D01*
X130285205Y-96920156D01*
X130391560Y-96899000D01*
X130608440Y-96899000D01*
X130714795Y-96920156D01*
X130714795Y-96920156D01*
G37*
G36*
X170748228Y-97181703D02*
X170903100Y-97245853D01*
X171042481Y-97338985D01*
X171161015Y-97457519D01*
X171254147Y-97596900D01*
X171318297Y-97751772D01*
X171351000Y-97916184D01*
X171351000Y-98083816D01*
X171318297Y-98248228D01*
X171254147Y-98403100D01*
X171161015Y-98542481D01*
X171042481Y-98661015D01*
X170903100Y-98754147D01*
X170748228Y-98818297D01*
X170583816Y-98851000D01*
X170416184Y-98851000D01*
X170251772Y-98818297D01*
X170096900Y-98754147D01*
X169957519Y-98661015D01*
X169838985Y-98542481D01*
X169745853Y-98403100D01*
X169681703Y-98248228D01*
X169649000Y-98083816D01*
X169649000Y-97916184D01*
X169681703Y-97751772D01*
X169745853Y-97596900D01*
X169838985Y-97457519D01*
X169957519Y-97338985D01*
X170096900Y-97245853D01*
X170251772Y-97181703D01*
X170416184Y-97149000D01*
X170583816Y-97149000D01*
X170748228Y-97181703D01*
X170748228Y-97181703D01*
G37*
G36*
X171351000Y-94351000D02*
X169649000Y-94351000D01*
X169649000Y-92649000D01*
X171351000Y-92649000D01*
X171351000Y-94351000D01*
X171351000Y-94351000D01*
G37*
G36*
X181134239Y-86811467D02*
X181448282Y-86873934D01*
X182039926Y-87119001D01*
X182568802Y-87472385D01*
X182572395Y-87474786D01*
X183025214Y-87927605D01*
X183025216Y-87927608D01*
X183380999Y-88460074D01*
X183626066Y-89051718D01*
X183751000Y-89679804D01*
X183751000Y-90320196D01*
X183626066Y-90948282D01*
X183380999Y-91539926D01*
X183141483Y-91898386D01*
X183025214Y-92072395D01*
X182572395Y-92525214D01*
X182572392Y-92525216D01*
X182039926Y-92880999D01*
X181448282Y-93126066D01*
X181134239Y-93188533D01*
X180820197Y-93251000D01*
X180376000Y-93251000D01*
X180351614Y-93253402D01*
X180328165Y-93260515D01*
X180306554Y-93272066D01*
X180287612Y-93287612D01*
X180272066Y-93306554D01*
X180260515Y-93328165D01*
X180253402Y-93351614D01*
X180251000Y-93376000D01*
X180251000Y-93631860D01*
X180241511Y-93728210D01*
X180215198Y-93814949D01*
X180172468Y-93894891D01*
X180114963Y-93964963D01*
X180044891Y-94022468D01*
X179964949Y-94065198D01*
X179878210Y-94091511D01*
X179781860Y-94101000D01*
X177218140Y-94101000D01*
X177121790Y-94091511D01*
X177035051Y-94065198D01*
X176955109Y-94022468D01*
X176885037Y-93964963D01*
X176827532Y-93894891D01*
X176784802Y-93814949D01*
X176758489Y-93728210D01*
X176749000Y-93631860D01*
X176749000Y-92468140D01*
X176758489Y-92371790D01*
X176784802Y-92285051D01*
X176827532Y-92205109D01*
X176885037Y-92135037D01*
X176955109Y-92077532D01*
X177035051Y-92034802D01*
X177121790Y-92008489D01*
X177218140Y-91999000D01*
X177691886Y-91999000D01*
X177716272Y-91996598D01*
X177739721Y-91989485D01*
X177761332Y-91977934D01*
X177780274Y-91962388D01*
X177795820Y-91943446D01*
X177807371Y-91921835D01*
X177814484Y-91898386D01*
X177816886Y-91874000D01*
X177814484Y-91849614D01*
X177807371Y-91826165D01*
X177795820Y-91804554D01*
X177707759Y-91672761D01*
X177619001Y-91539926D01*
X177373934Y-90948282D01*
X177249000Y-90320196D01*
X177249000Y-89679804D01*
X177373934Y-89051718D01*
X177619001Y-88460074D01*
X177974784Y-87927608D01*
X177974786Y-87927605D01*
X178427605Y-87474786D01*
X178431198Y-87472385D01*
X178960074Y-87119001D01*
X179551718Y-86873934D01*
X179865761Y-86811467D01*
X180179803Y-86749000D01*
X180820197Y-86749000D01*
X181134239Y-86811467D01*
X181134239Y-86811467D01*
G37*
G36*
X129134239Y-86811467D02*
X129448282Y-86873934D01*
X130039926Y-87119001D01*
X130568802Y-87472385D01*
X130572395Y-87474786D01*
X131025214Y-87927605D01*
X131025216Y-87927608D01*
X131380999Y-88460074D01*
X131626066Y-89051718D01*
X131751000Y-89679804D01*
X131751000Y-90320196D01*
X131626066Y-90948282D01*
X131380999Y-91539926D01*
X131292241Y-91672761D01*
X131204180Y-91804554D01*
X131192629Y-91826165D01*
X131185516Y-91849614D01*
X131183114Y-91874000D01*
X131185516Y-91898386D01*
X131192629Y-91921836D01*
X131204180Y-91943446D01*
X131219726Y-91962388D01*
X131238668Y-91977934D01*
X131260279Y-91989485D01*
X131283728Y-91996598D01*
X131308114Y-91999000D01*
X131781860Y-91999000D01*
X131878210Y-92008489D01*
X131964949Y-92034802D01*
X132044891Y-92077532D01*
X132114963Y-92135037D01*
X132172468Y-92205109D01*
X132215198Y-92285051D01*
X132241511Y-92371790D01*
X132251000Y-92468140D01*
X132251000Y-93631860D01*
X132241511Y-93728210D01*
X132215198Y-93814949D01*
X132172468Y-93894891D01*
X132114963Y-93964963D01*
X132044891Y-94022468D01*
X131964949Y-94065198D01*
X131878210Y-94091511D01*
X131781860Y-94101000D01*
X129218140Y-94101000D01*
X129121790Y-94091511D01*
X129035051Y-94065198D01*
X128955109Y-94022468D01*
X128885037Y-93964963D01*
X128827532Y-93894891D01*
X128784802Y-93814949D01*
X128758489Y-93728210D01*
X128749000Y-93631860D01*
X128749000Y-93376000D01*
X128746598Y-93351614D01*
X128739485Y-93328165D01*
X128727934Y-93306554D01*
X128712388Y-93287612D01*
X128693446Y-93272066D01*
X128671835Y-93260515D01*
X128648386Y-93253402D01*
X128624000Y-93251000D01*
X128179803Y-93251000D01*
X127865761Y-93188533D01*
X127551718Y-93126066D01*
X126960074Y-92880999D01*
X126427608Y-92525216D01*
X126427605Y-92525214D01*
X125974786Y-92072395D01*
X125858517Y-91898386D01*
X125619001Y-91539926D01*
X125373934Y-90948282D01*
X125249000Y-90320196D01*
X125249000Y-89679804D01*
X125373934Y-89051718D01*
X125619001Y-88460074D01*
X125974784Y-87927608D01*
X125974786Y-87927605D01*
X126427605Y-87474786D01*
X126431198Y-87472385D01*
X126960074Y-87119001D01*
X127551718Y-86873934D01*
X127865761Y-86811467D01*
X128179803Y-86749000D01*
X128820197Y-86749000D01*
X129134239Y-86811467D01*
X129134239Y-86811467D01*
G37*
G36*
X166351000Y-92851000D02*
X164649000Y-92851000D01*
X164649000Y-91149000D01*
X166351000Y-91149000D01*
X166351000Y-92851000D01*
X166351000Y-92851000D01*
G37*
G36*
X154851000Y-92851000D02*
X153149000Y-92851000D01*
X153149000Y-91149000D01*
X154851000Y-91149000D01*
X154851000Y-92851000D01*
X154851000Y-92851000D01*
G37*
G36*
X151626821Y-91161313D02*
X151626824Y-91161314D01*
X151626825Y-91161314D01*
X151787239Y-91209975D01*
X151787241Y-91209976D01*
X151787244Y-91209977D01*
X151935078Y-91288995D01*
X152064659Y-91395341D01*
X152171005Y-91524922D01*
X152250023Y-91672756D01*
X152250024Y-91672759D01*
X152250025Y-91672761D01*
X152298686Y-91833175D01*
X152298687Y-91833179D01*
X152315117Y-92000000D01*
X152298687Y-92166821D01*
X152298686Y-92166824D01*
X152298686Y-92166825D01*
X152251190Y-92323400D01*
X152250023Y-92327244D01*
X152171005Y-92475078D01*
X152064659Y-92604659D01*
X151935078Y-92711005D01*
X151787244Y-92790023D01*
X151787241Y-92790024D01*
X151787239Y-92790025D01*
X151626825Y-92838686D01*
X151626824Y-92838686D01*
X151626821Y-92838687D01*
X151501804Y-92851000D01*
X151418196Y-92851000D01*
X151293179Y-92838687D01*
X151293176Y-92838686D01*
X151293175Y-92838686D01*
X151132761Y-92790025D01*
X151132759Y-92790024D01*
X151132756Y-92790023D01*
X150984922Y-92711005D01*
X150855341Y-92604659D01*
X150748995Y-92475078D01*
X150669977Y-92327244D01*
X150668811Y-92323400D01*
X150621314Y-92166825D01*
X150621314Y-92166824D01*
X150621313Y-92166821D01*
X150604883Y-92000000D01*
X150621313Y-91833179D01*
X150621314Y-91833175D01*
X150669975Y-91672761D01*
X150669976Y-91672759D01*
X150669977Y-91672756D01*
X150748995Y-91524922D01*
X150855341Y-91395341D01*
X150984922Y-91288995D01*
X151132756Y-91209977D01*
X151132759Y-91209976D01*
X151132761Y-91209975D01*
X151293175Y-91161314D01*
X151293176Y-91161314D01*
X151293179Y-91161313D01*
X151418196Y-91149000D01*
X151501804Y-91149000D01*
X151626821Y-91161313D01*
X151626821Y-91161313D01*
G37*
G36*
X149086821Y-91161313D02*
X149086824Y-91161314D01*
X149086825Y-91161314D01*
X149247239Y-91209975D01*
X149247241Y-91209976D01*
X149247244Y-91209977D01*
X149395078Y-91288995D01*
X149524659Y-91395341D01*
X149631005Y-91524922D01*
X149710023Y-91672756D01*
X149710024Y-91672759D01*
X149710025Y-91672761D01*
X149758686Y-91833175D01*
X149758687Y-91833179D01*
X149775117Y-92000000D01*
X149758687Y-92166821D01*
X149758686Y-92166824D01*
X149758686Y-92166825D01*
X149711190Y-92323400D01*
X149710023Y-92327244D01*
X149631005Y-92475078D01*
X149524659Y-92604659D01*
X149395078Y-92711005D01*
X149247244Y-92790023D01*
X149247241Y-92790024D01*
X149247239Y-92790025D01*
X149086825Y-92838686D01*
X149086824Y-92838686D01*
X149086821Y-92838687D01*
X148961804Y-92851000D01*
X148878196Y-92851000D01*
X148753179Y-92838687D01*
X148753176Y-92838686D01*
X148753175Y-92838686D01*
X148592761Y-92790025D01*
X148592759Y-92790024D01*
X148592756Y-92790023D01*
X148444922Y-92711005D01*
X148315341Y-92604659D01*
X148208995Y-92475078D01*
X148129977Y-92327244D01*
X148128811Y-92323400D01*
X148081314Y-92166825D01*
X148081314Y-92166824D01*
X148081313Y-92166821D01*
X148064883Y-92000000D01*
X148081313Y-91833179D01*
X148081314Y-91833175D01*
X148129975Y-91672761D01*
X148129976Y-91672759D01*
X148129977Y-91672756D01*
X148208995Y-91524922D01*
X148315341Y-91395341D01*
X148444922Y-91288995D01*
X148592756Y-91209977D01*
X148592759Y-91209976D01*
X148592761Y-91209975D01*
X148753175Y-91161314D01*
X148753176Y-91161314D01*
X148753179Y-91161313D01*
X148878196Y-91149000D01*
X148961804Y-91149000D01*
X149086821Y-91161313D01*
X149086821Y-91161313D01*
G37*
G36*
X146546821Y-91161313D02*
X146546824Y-91161314D01*
X146546825Y-91161314D01*
X146707239Y-91209975D01*
X146707241Y-91209976D01*
X146707244Y-91209977D01*
X146855078Y-91288995D01*
X146984659Y-91395341D01*
X147091005Y-91524922D01*
X147170023Y-91672756D01*
X147170024Y-91672759D01*
X147170025Y-91672761D01*
X147218686Y-91833175D01*
X147218687Y-91833179D01*
X147235117Y-92000000D01*
X147218687Y-92166821D01*
X147218686Y-92166824D01*
X147218686Y-92166825D01*
X147171190Y-92323400D01*
X147170023Y-92327244D01*
X147091005Y-92475078D01*
X146984659Y-92604659D01*
X146855078Y-92711005D01*
X146707244Y-92790023D01*
X146707241Y-92790024D01*
X146707239Y-92790025D01*
X146546825Y-92838686D01*
X146546824Y-92838686D01*
X146546821Y-92838687D01*
X146421804Y-92851000D01*
X146338196Y-92851000D01*
X146213179Y-92838687D01*
X146213176Y-92838686D01*
X146213175Y-92838686D01*
X146052761Y-92790025D01*
X146052759Y-92790024D01*
X146052756Y-92790023D01*
X145904922Y-92711005D01*
X145775341Y-92604659D01*
X145668995Y-92475078D01*
X145589977Y-92327244D01*
X145588811Y-92323400D01*
X145541314Y-92166825D01*
X145541314Y-92166824D01*
X145541313Y-92166821D01*
X145524883Y-92000000D01*
X145541313Y-91833179D01*
X145541314Y-91833175D01*
X145589975Y-91672761D01*
X145589976Y-91672759D01*
X145589977Y-91672756D01*
X145668995Y-91524922D01*
X145775341Y-91395341D01*
X145904922Y-91288995D01*
X146052756Y-91209977D01*
X146052759Y-91209976D01*
X146052761Y-91209975D01*
X146213175Y-91161314D01*
X146213176Y-91161314D01*
X146213179Y-91161313D01*
X146338196Y-91149000D01*
X146421804Y-91149000D01*
X146546821Y-91161313D01*
X146546821Y-91161313D01*
G37*
G36*
X160586821Y-91161313D02*
X160586824Y-91161314D01*
X160586825Y-91161314D01*
X160747239Y-91209975D01*
X160747241Y-91209976D01*
X160747244Y-91209977D01*
X160895078Y-91288995D01*
X161024659Y-91395341D01*
X161131005Y-91524922D01*
X161210023Y-91672756D01*
X161210024Y-91672759D01*
X161210025Y-91672761D01*
X161258686Y-91833175D01*
X161258687Y-91833179D01*
X161275117Y-92000000D01*
X161258687Y-92166821D01*
X161258686Y-92166824D01*
X161258686Y-92166825D01*
X161211190Y-92323400D01*
X161210023Y-92327244D01*
X161131005Y-92475078D01*
X161024659Y-92604659D01*
X160895078Y-92711005D01*
X160747244Y-92790023D01*
X160747241Y-92790024D01*
X160747239Y-92790025D01*
X160586825Y-92838686D01*
X160586824Y-92838686D01*
X160586821Y-92838687D01*
X160461804Y-92851000D01*
X160378196Y-92851000D01*
X160253179Y-92838687D01*
X160253176Y-92838686D01*
X160253175Y-92838686D01*
X160092761Y-92790025D01*
X160092759Y-92790024D01*
X160092756Y-92790023D01*
X159944922Y-92711005D01*
X159815341Y-92604659D01*
X159708995Y-92475078D01*
X159629977Y-92327244D01*
X159628811Y-92323400D01*
X159581314Y-92166825D01*
X159581314Y-92166824D01*
X159581313Y-92166821D01*
X159564883Y-92000000D01*
X159581313Y-91833179D01*
X159581314Y-91833175D01*
X159629975Y-91672761D01*
X159629976Y-91672759D01*
X159629977Y-91672756D01*
X159708995Y-91524922D01*
X159815341Y-91395341D01*
X159944922Y-91288995D01*
X160092756Y-91209977D01*
X160092759Y-91209976D01*
X160092761Y-91209975D01*
X160253175Y-91161314D01*
X160253176Y-91161314D01*
X160253179Y-91161313D01*
X160378196Y-91149000D01*
X160461804Y-91149000D01*
X160586821Y-91161313D01*
X160586821Y-91161313D01*
G37*
G36*
X143351000Y-92851000D02*
X141649000Y-92851000D01*
X141649000Y-91149000D01*
X143351000Y-91149000D01*
X143351000Y-92851000D01*
X143351000Y-92851000D01*
G37*
G36*
X163126821Y-91161313D02*
X163126824Y-91161314D01*
X163126825Y-91161314D01*
X163287239Y-91209975D01*
X163287241Y-91209976D01*
X163287244Y-91209977D01*
X163435078Y-91288995D01*
X163564659Y-91395341D01*
X163671005Y-91524922D01*
X163750023Y-91672756D01*
X163750024Y-91672759D01*
X163750025Y-91672761D01*
X163798686Y-91833175D01*
X163798687Y-91833179D01*
X163815117Y-92000000D01*
X163798687Y-92166821D01*
X163798686Y-92166824D01*
X163798686Y-92166825D01*
X163751190Y-92323400D01*
X163750023Y-92327244D01*
X163671005Y-92475078D01*
X163564659Y-92604659D01*
X163435078Y-92711005D01*
X163287244Y-92790023D01*
X163287241Y-92790024D01*
X163287239Y-92790025D01*
X163126825Y-92838686D01*
X163126824Y-92838686D01*
X163126821Y-92838687D01*
X163001804Y-92851000D01*
X162918196Y-92851000D01*
X162793179Y-92838687D01*
X162793176Y-92838686D01*
X162793175Y-92838686D01*
X162632761Y-92790025D01*
X162632759Y-92790024D01*
X162632756Y-92790023D01*
X162484922Y-92711005D01*
X162355341Y-92604659D01*
X162248995Y-92475078D01*
X162169977Y-92327244D01*
X162168811Y-92323400D01*
X162121314Y-92166825D01*
X162121314Y-92166824D01*
X162121313Y-92166821D01*
X162104883Y-92000000D01*
X162121313Y-91833179D01*
X162121314Y-91833175D01*
X162169975Y-91672761D01*
X162169976Y-91672759D01*
X162169977Y-91672756D01*
X162248995Y-91524922D01*
X162355341Y-91395341D01*
X162484922Y-91288995D01*
X162632756Y-91209977D01*
X162632759Y-91209976D01*
X162632761Y-91209975D01*
X162793175Y-91161314D01*
X162793176Y-91161314D01*
X162793179Y-91161313D01*
X162918196Y-91149000D01*
X163001804Y-91149000D01*
X163126821Y-91161313D01*
X163126821Y-91161313D01*
G37*
G36*
X140126821Y-91161313D02*
X140126824Y-91161314D01*
X140126825Y-91161314D01*
X140287239Y-91209975D01*
X140287241Y-91209976D01*
X140287244Y-91209977D01*
X140435078Y-91288995D01*
X140564659Y-91395341D01*
X140671005Y-91524922D01*
X140750023Y-91672756D01*
X140750024Y-91672759D01*
X140750025Y-91672761D01*
X140798686Y-91833175D01*
X140798687Y-91833179D01*
X140815117Y-92000000D01*
X140798687Y-92166821D01*
X140798686Y-92166824D01*
X140798686Y-92166825D01*
X140751190Y-92323400D01*
X140750023Y-92327244D01*
X140671005Y-92475078D01*
X140564659Y-92604659D01*
X140435078Y-92711005D01*
X140287244Y-92790023D01*
X140287241Y-92790024D01*
X140287239Y-92790025D01*
X140126825Y-92838686D01*
X140126824Y-92838686D01*
X140126821Y-92838687D01*
X140001804Y-92851000D01*
X139918196Y-92851000D01*
X139793179Y-92838687D01*
X139793176Y-92838686D01*
X139793175Y-92838686D01*
X139632761Y-92790025D01*
X139632759Y-92790024D01*
X139632756Y-92790023D01*
X139484922Y-92711005D01*
X139355341Y-92604659D01*
X139248995Y-92475078D01*
X139169977Y-92327244D01*
X139168811Y-92323400D01*
X139121314Y-92166825D01*
X139121314Y-92166824D01*
X139121313Y-92166821D01*
X139104883Y-92000000D01*
X139121313Y-91833179D01*
X139121314Y-91833175D01*
X139169975Y-91672761D01*
X139169976Y-91672759D01*
X139169977Y-91672756D01*
X139248995Y-91524922D01*
X139355341Y-91395341D01*
X139484922Y-91288995D01*
X139632756Y-91209977D01*
X139632759Y-91209976D01*
X139632761Y-91209975D01*
X139793175Y-91161314D01*
X139793176Y-91161314D01*
X139793179Y-91161313D01*
X139918196Y-91149000D01*
X140001804Y-91149000D01*
X140126821Y-91161313D01*
X140126821Y-91161313D01*
G37*
G36*
X137586821Y-91161313D02*
X137586824Y-91161314D01*
X137586825Y-91161314D01*
X137747239Y-91209975D01*
X137747241Y-91209976D01*
X137747244Y-91209977D01*
X137895078Y-91288995D01*
X138024659Y-91395341D01*
X138131005Y-91524922D01*
X138210023Y-91672756D01*
X138210024Y-91672759D01*
X138210025Y-91672761D01*
X138258686Y-91833175D01*
X138258687Y-91833179D01*
X138275117Y-92000000D01*
X138258687Y-92166821D01*
X138258686Y-92166824D01*
X138258686Y-92166825D01*
X138211190Y-92323400D01*
X138210023Y-92327244D01*
X138131005Y-92475078D01*
X138024659Y-92604659D01*
X137895078Y-92711005D01*
X137747244Y-92790023D01*
X137747241Y-92790024D01*
X137747239Y-92790025D01*
X137586825Y-92838686D01*
X137586824Y-92838686D01*
X137586821Y-92838687D01*
X137461804Y-92851000D01*
X137378196Y-92851000D01*
X137253179Y-92838687D01*
X137253176Y-92838686D01*
X137253175Y-92838686D01*
X137092761Y-92790025D01*
X137092759Y-92790024D01*
X137092756Y-92790023D01*
X136944922Y-92711005D01*
X136815341Y-92604659D01*
X136708995Y-92475078D01*
X136629977Y-92327244D01*
X136628811Y-92323400D01*
X136581314Y-92166825D01*
X136581314Y-92166824D01*
X136581313Y-92166821D01*
X136564883Y-92000000D01*
X136581313Y-91833179D01*
X136581314Y-91833175D01*
X136629975Y-91672761D01*
X136629976Y-91672759D01*
X136629977Y-91672756D01*
X136708995Y-91524922D01*
X136815341Y-91395341D01*
X136944922Y-91288995D01*
X137092756Y-91209977D01*
X137092759Y-91209976D01*
X137092761Y-91209975D01*
X137253175Y-91161314D01*
X137253176Y-91161314D01*
X137253179Y-91161313D01*
X137378196Y-91149000D01*
X137461804Y-91149000D01*
X137586821Y-91161313D01*
X137586821Y-91161313D01*
G37*
G36*
X135046821Y-91161313D02*
X135046824Y-91161314D01*
X135046825Y-91161314D01*
X135207239Y-91209975D01*
X135207241Y-91209976D01*
X135207244Y-91209977D01*
X135355078Y-91288995D01*
X135484659Y-91395341D01*
X135591005Y-91524922D01*
X135670023Y-91672756D01*
X135670024Y-91672759D01*
X135670025Y-91672761D01*
X135718686Y-91833175D01*
X135718687Y-91833179D01*
X135735117Y-92000000D01*
X135718687Y-92166821D01*
X135718686Y-92166824D01*
X135718686Y-92166825D01*
X135671190Y-92323400D01*
X135670023Y-92327244D01*
X135591005Y-92475078D01*
X135484659Y-92604659D01*
X135355078Y-92711005D01*
X135207244Y-92790023D01*
X135207241Y-92790024D01*
X135207239Y-92790025D01*
X135046825Y-92838686D01*
X135046824Y-92838686D01*
X135046821Y-92838687D01*
X134921804Y-92851000D01*
X134838196Y-92851000D01*
X134713179Y-92838687D01*
X134713176Y-92838686D01*
X134713175Y-92838686D01*
X134552761Y-92790025D01*
X134552759Y-92790024D01*
X134552756Y-92790023D01*
X134404922Y-92711005D01*
X134275341Y-92604659D01*
X134168995Y-92475078D01*
X134089977Y-92327244D01*
X134088811Y-92323400D01*
X134041314Y-92166825D01*
X134041314Y-92166824D01*
X134041313Y-92166821D01*
X134024883Y-92000000D01*
X134041313Y-91833179D01*
X134041314Y-91833175D01*
X134089975Y-91672761D01*
X134089976Y-91672759D01*
X134089977Y-91672756D01*
X134168995Y-91524922D01*
X134275341Y-91395341D01*
X134404922Y-91288995D01*
X134552756Y-91209977D01*
X134552759Y-91209976D01*
X134552761Y-91209975D01*
X134713175Y-91161314D01*
X134713176Y-91161314D01*
X134713179Y-91161313D01*
X134838196Y-91149000D01*
X134921804Y-91149000D01*
X135046821Y-91161313D01*
X135046821Y-91161313D01*
G37*
G36*
X158046821Y-91161313D02*
X158046824Y-91161314D01*
X158046825Y-91161314D01*
X158207239Y-91209975D01*
X158207241Y-91209976D01*
X158207244Y-91209977D01*
X158355078Y-91288995D01*
X158484659Y-91395341D01*
X158591005Y-91524922D01*
X158670023Y-91672756D01*
X158670024Y-91672759D01*
X158670025Y-91672761D01*
X158718686Y-91833175D01*
X158718687Y-91833179D01*
X158735117Y-92000000D01*
X158718687Y-92166821D01*
X158718686Y-92166824D01*
X158718686Y-92166825D01*
X158671190Y-92323400D01*
X158670023Y-92327244D01*
X158591005Y-92475078D01*
X158484659Y-92604659D01*
X158355078Y-92711005D01*
X158207244Y-92790023D01*
X158207241Y-92790024D01*
X158207239Y-92790025D01*
X158046825Y-92838686D01*
X158046824Y-92838686D01*
X158046821Y-92838687D01*
X157921804Y-92851000D01*
X157838196Y-92851000D01*
X157713179Y-92838687D01*
X157713176Y-92838686D01*
X157713175Y-92838686D01*
X157552761Y-92790025D01*
X157552759Y-92790024D01*
X157552756Y-92790023D01*
X157404922Y-92711005D01*
X157275341Y-92604659D01*
X157168995Y-92475078D01*
X157089977Y-92327244D01*
X157088811Y-92323400D01*
X157041314Y-92166825D01*
X157041314Y-92166824D01*
X157041313Y-92166821D01*
X157024883Y-92000000D01*
X157041313Y-91833179D01*
X157041314Y-91833175D01*
X157089975Y-91672761D01*
X157089976Y-91672759D01*
X157089977Y-91672756D01*
X157168995Y-91524922D01*
X157275341Y-91395341D01*
X157404922Y-91288995D01*
X157552756Y-91209977D01*
X157552759Y-91209976D01*
X157552761Y-91209975D01*
X157713175Y-91161314D01*
X157713176Y-91161314D01*
X157713179Y-91161313D01*
X157838196Y-91149000D01*
X157921804Y-91149000D01*
X158046821Y-91161313D01*
X158046821Y-91161313D01*
G37*
G36*
X170748228Y-90681703D02*
X170903100Y-90745853D01*
X171042481Y-90838985D01*
X171161015Y-90957519D01*
X171254147Y-91096900D01*
X171318297Y-91251772D01*
X171351000Y-91416184D01*
X171351000Y-91583816D01*
X171318297Y-91748228D01*
X171254147Y-91903100D01*
X171161015Y-92042481D01*
X171042481Y-92161015D01*
X170903100Y-92254147D01*
X170748228Y-92318297D01*
X170583816Y-92351000D01*
X170416184Y-92351000D01*
X170251772Y-92318297D01*
X170096900Y-92254147D01*
X169957519Y-92161015D01*
X169838985Y-92042481D01*
X169745853Y-91903100D01*
X169681703Y-91748228D01*
X169649000Y-91583816D01*
X169649000Y-91416184D01*
X169681703Y-91251772D01*
X169745853Y-91096900D01*
X169838985Y-90957519D01*
X169957519Y-90838985D01*
X170096900Y-90745853D01*
X170251772Y-90681703D01*
X170416184Y-90649000D01*
X170583816Y-90649000D01*
X170748228Y-90681703D01*
X170748228Y-90681703D01*
G37*
M02*
