G04 #@! TF.GenerationSoftware,KiCad,Pcbnew,(5.0.1)-rc2*
G04 #@! TF.CreationDate,2019-04-28T00:00:37+02:00*
G04 #@! TF.ProjectId,RIAA,524941412E6B696361645F7063620000,rev?*
G04 #@! TF.SameCoordinates,Original*
G04 #@! TF.FileFunction,Legend,Bot*
G04 #@! TF.FilePolarity,Positive*
%FSLAX46Y46*%
G04 Gerber Fmt 4.6, Leading zero omitted, Abs format (unit mm)*
G04 Created by KiCad (PCBNEW (5.0.1)-rc2) date 28-04-2019 00:00:37*
%MOMM*%
%LPD*%
G01*
G04 APERTURE LIST*
%ADD10C,0.150000*%
G04 APERTURE END LIST*
G04 #@! TO.C,C1*
D10*
X133357142Y-105833333D02*
X133404761Y-105785714D01*
X133452380Y-105642857D01*
X133452380Y-105547619D01*
X133404761Y-105404761D01*
X133309523Y-105309523D01*
X133214285Y-105261904D01*
X133023809Y-105214285D01*
X132880952Y-105214285D01*
X132690476Y-105261904D01*
X132595238Y-105309523D01*
X132500000Y-105404761D01*
X132452380Y-105547619D01*
X132452380Y-105642857D01*
X132500000Y-105785714D01*
X132547619Y-105833333D01*
X133452380Y-106785714D02*
X133452380Y-106214285D01*
X133452380Y-106500000D02*
X132452380Y-106500000D01*
X132595238Y-106404761D01*
X132690476Y-106309523D01*
X132738095Y-106214285D01*
G04 #@! TO.C,C5*
X138666666Y-111857142D02*
X138714285Y-111904761D01*
X138857142Y-111952380D01*
X138952380Y-111952380D01*
X139095238Y-111904761D01*
X139190476Y-111809523D01*
X139238095Y-111714285D01*
X139285714Y-111523809D01*
X139285714Y-111380952D01*
X139238095Y-111190476D01*
X139190476Y-111095238D01*
X139095238Y-111000000D01*
X138952380Y-110952380D01*
X138857142Y-110952380D01*
X138714285Y-111000000D01*
X138666666Y-111047619D01*
X137761904Y-110952380D02*
X138238095Y-110952380D01*
X138285714Y-111428571D01*
X138238095Y-111380952D01*
X138142857Y-111333333D01*
X137904761Y-111333333D01*
X137809523Y-111380952D01*
X137761904Y-111428571D01*
X137714285Y-111523809D01*
X137714285Y-111761904D01*
X137761904Y-111857142D01*
X137809523Y-111904761D01*
X137904761Y-111952380D01*
X138142857Y-111952380D01*
X138238095Y-111904761D01*
X138285714Y-111857142D01*
G04 #@! TO.C,C6*
X138357142Y-105833333D02*
X138404761Y-105785714D01*
X138452380Y-105642857D01*
X138452380Y-105547619D01*
X138404761Y-105404761D01*
X138309523Y-105309523D01*
X138214285Y-105261904D01*
X138023809Y-105214285D01*
X137880952Y-105214285D01*
X137690476Y-105261904D01*
X137595238Y-105309523D01*
X137500000Y-105404761D01*
X137452380Y-105547619D01*
X137452380Y-105642857D01*
X137500000Y-105785714D01*
X137547619Y-105833333D01*
X137452380Y-106690476D02*
X137452380Y-106500000D01*
X137500000Y-106404761D01*
X137547619Y-106357142D01*
X137690476Y-106261904D01*
X137880952Y-106214285D01*
X138261904Y-106214285D01*
X138357142Y-106261904D01*
X138404761Y-106309523D01*
X138452380Y-106404761D01*
X138452380Y-106595238D01*
X138404761Y-106690476D01*
X138357142Y-106738095D01*
X138261904Y-106785714D01*
X138023809Y-106785714D01*
X137928571Y-106738095D01*
X137880952Y-106690476D01*
X137833333Y-106595238D01*
X137833333Y-106404761D01*
X137880952Y-106309523D01*
X137928571Y-106261904D01*
X138023809Y-106214285D01*
G04 #@! TO.C,C11*
X150142857Y-111857142D02*
X150190476Y-111904761D01*
X150333333Y-111952380D01*
X150428571Y-111952380D01*
X150571428Y-111904761D01*
X150666666Y-111809523D01*
X150714285Y-111714285D01*
X150761904Y-111523809D01*
X150761904Y-111380952D01*
X150714285Y-111190476D01*
X150666666Y-111095238D01*
X150571428Y-111000000D01*
X150428571Y-110952380D01*
X150333333Y-110952380D01*
X150190476Y-111000000D01*
X150142857Y-111047619D01*
X149190476Y-111952380D02*
X149761904Y-111952380D01*
X149476190Y-111952380D02*
X149476190Y-110952380D01*
X149571428Y-111095238D01*
X149666666Y-111190476D01*
X149761904Y-111238095D01*
X148238095Y-111952380D02*
X148809523Y-111952380D01*
X148523809Y-111952380D02*
X148523809Y-110952380D01*
X148619047Y-111095238D01*
X148714285Y-111190476D01*
X148809523Y-111238095D01*
G04 #@! TO.C,C15*
X161642857Y-115857142D02*
X161690476Y-115904761D01*
X161833333Y-115952380D01*
X161928571Y-115952380D01*
X162071428Y-115904761D01*
X162166666Y-115809523D01*
X162214285Y-115714285D01*
X162261904Y-115523809D01*
X162261904Y-115380952D01*
X162214285Y-115190476D01*
X162166666Y-115095238D01*
X162071428Y-115000000D01*
X161928571Y-114952380D01*
X161833333Y-114952380D01*
X161690476Y-115000000D01*
X161642857Y-115047619D01*
X160690476Y-115952380D02*
X161261904Y-115952380D01*
X160976190Y-115952380D02*
X160976190Y-114952380D01*
X161071428Y-115095238D01*
X161166666Y-115190476D01*
X161261904Y-115238095D01*
X159785714Y-114952380D02*
X160261904Y-114952380D01*
X160309523Y-115428571D01*
X160261904Y-115380952D01*
X160166666Y-115333333D01*
X159928571Y-115333333D01*
X159833333Y-115380952D01*
X159785714Y-115428571D01*
X159738095Y-115523809D01*
X159738095Y-115761904D01*
X159785714Y-115857142D01*
X159833333Y-115904761D01*
X159928571Y-115952380D01*
X160166666Y-115952380D01*
X160261904Y-115904761D01*
X160309523Y-115857142D01*
G04 #@! TO.C,C16*
X161642857Y-111857142D02*
X161690476Y-111904761D01*
X161833333Y-111952380D01*
X161928571Y-111952380D01*
X162071428Y-111904761D01*
X162166666Y-111809523D01*
X162214285Y-111714285D01*
X162261904Y-111523809D01*
X162261904Y-111380952D01*
X162214285Y-111190476D01*
X162166666Y-111095238D01*
X162071428Y-111000000D01*
X161928571Y-110952380D01*
X161833333Y-110952380D01*
X161690476Y-111000000D01*
X161642857Y-111047619D01*
X160690476Y-111952380D02*
X161261904Y-111952380D01*
X160976190Y-111952380D02*
X160976190Y-110952380D01*
X161071428Y-111095238D01*
X161166666Y-111190476D01*
X161261904Y-111238095D01*
X159833333Y-110952380D02*
X160023809Y-110952380D01*
X160119047Y-111000000D01*
X160166666Y-111047619D01*
X160261904Y-111190476D01*
X160309523Y-111380952D01*
X160309523Y-111761904D01*
X160261904Y-111857142D01*
X160214285Y-111904761D01*
X160119047Y-111952380D01*
X159928571Y-111952380D01*
X159833333Y-111904761D01*
X159785714Y-111857142D01*
X159738095Y-111761904D01*
X159738095Y-111523809D01*
X159785714Y-111428571D01*
X159833333Y-111380952D01*
X159928571Y-111333333D01*
X160119047Y-111333333D01*
X160214285Y-111380952D01*
X160261904Y-111428571D01*
X160309523Y-111523809D01*
G04 #@! TO.C,C22*
X138642857Y-98357142D02*
X138690476Y-98404761D01*
X138833333Y-98452380D01*
X138928571Y-98452380D01*
X139071428Y-98404761D01*
X139166666Y-98309523D01*
X139214285Y-98214285D01*
X139261904Y-98023809D01*
X139261904Y-97880952D01*
X139214285Y-97690476D01*
X139166666Y-97595238D01*
X139071428Y-97500000D01*
X138928571Y-97452380D01*
X138833333Y-97452380D01*
X138690476Y-97500000D01*
X138642857Y-97547619D01*
X138261904Y-97547619D02*
X138214285Y-97500000D01*
X138119047Y-97452380D01*
X137880952Y-97452380D01*
X137785714Y-97500000D01*
X137738095Y-97547619D01*
X137690476Y-97642857D01*
X137690476Y-97738095D01*
X137738095Y-97880952D01*
X138309523Y-98452380D01*
X137690476Y-98452380D01*
X137309523Y-97547619D02*
X137261904Y-97500000D01*
X137166666Y-97452380D01*
X136928571Y-97452380D01*
X136833333Y-97500000D01*
X136785714Y-97547619D01*
X136738095Y-97642857D01*
X136738095Y-97738095D01*
X136785714Y-97880952D01*
X137357142Y-98452380D01*
X136738095Y-98452380D01*
G04 #@! TO.C,C28*
X150142857Y-98357142D02*
X150190476Y-98404761D01*
X150333333Y-98452380D01*
X150428571Y-98452380D01*
X150571428Y-98404761D01*
X150666666Y-98309523D01*
X150714285Y-98214285D01*
X150761904Y-98023809D01*
X150761904Y-97880952D01*
X150714285Y-97690476D01*
X150666666Y-97595238D01*
X150571428Y-97500000D01*
X150428571Y-97452380D01*
X150333333Y-97452380D01*
X150190476Y-97500000D01*
X150142857Y-97547619D01*
X149761904Y-97547619D02*
X149714285Y-97500000D01*
X149619047Y-97452380D01*
X149380952Y-97452380D01*
X149285714Y-97500000D01*
X149238095Y-97547619D01*
X149190476Y-97642857D01*
X149190476Y-97738095D01*
X149238095Y-97880952D01*
X149809523Y-98452380D01*
X149190476Y-98452380D01*
X148619047Y-97880952D02*
X148714285Y-97833333D01*
X148761904Y-97785714D01*
X148809523Y-97690476D01*
X148809523Y-97642857D01*
X148761904Y-97547619D01*
X148714285Y-97500000D01*
X148619047Y-97452380D01*
X148428571Y-97452380D01*
X148333333Y-97500000D01*
X148285714Y-97547619D01*
X148238095Y-97642857D01*
X148238095Y-97690476D01*
X148285714Y-97785714D01*
X148333333Y-97833333D01*
X148428571Y-97880952D01*
X148619047Y-97880952D01*
X148714285Y-97928571D01*
X148761904Y-97976190D01*
X148809523Y-98071428D01*
X148809523Y-98261904D01*
X148761904Y-98357142D01*
X148714285Y-98404761D01*
X148619047Y-98452380D01*
X148428571Y-98452380D01*
X148333333Y-98404761D01*
X148285714Y-98357142D01*
X148238095Y-98261904D01*
X148238095Y-98071428D01*
X148285714Y-97976190D01*
X148333333Y-97928571D01*
X148428571Y-97880952D01*
G04 #@! TO.C,C29*
X150142857Y-94357142D02*
X150190476Y-94404761D01*
X150333333Y-94452380D01*
X150428571Y-94452380D01*
X150571428Y-94404761D01*
X150666666Y-94309523D01*
X150714285Y-94214285D01*
X150761904Y-94023809D01*
X150761904Y-93880952D01*
X150714285Y-93690476D01*
X150666666Y-93595238D01*
X150571428Y-93500000D01*
X150428571Y-93452380D01*
X150333333Y-93452380D01*
X150190476Y-93500000D01*
X150142857Y-93547619D01*
X149761904Y-93547619D02*
X149714285Y-93500000D01*
X149619047Y-93452380D01*
X149380952Y-93452380D01*
X149285714Y-93500000D01*
X149238095Y-93547619D01*
X149190476Y-93642857D01*
X149190476Y-93738095D01*
X149238095Y-93880952D01*
X149809523Y-94452380D01*
X149190476Y-94452380D01*
X148714285Y-94452380D02*
X148523809Y-94452380D01*
X148428571Y-94404761D01*
X148380952Y-94357142D01*
X148285714Y-94214285D01*
X148238095Y-94023809D01*
X148238095Y-93642857D01*
X148285714Y-93547619D01*
X148333333Y-93500000D01*
X148428571Y-93452380D01*
X148619047Y-93452380D01*
X148714285Y-93500000D01*
X148761904Y-93547619D01*
X148809523Y-93642857D01*
X148809523Y-93880952D01*
X148761904Y-93976190D01*
X148714285Y-94023809D01*
X148619047Y-94071428D01*
X148428571Y-94071428D01*
X148333333Y-94023809D01*
X148285714Y-93976190D01*
X148238095Y-93880952D01*
G04 #@! TO.C,C30*
X147857142Y-101857142D02*
X147904761Y-101809523D01*
X147952380Y-101666666D01*
X147952380Y-101571428D01*
X147904761Y-101428571D01*
X147809523Y-101333333D01*
X147714285Y-101285714D01*
X147523809Y-101238095D01*
X147380952Y-101238095D01*
X147190476Y-101285714D01*
X147095238Y-101333333D01*
X147000000Y-101428571D01*
X146952380Y-101571428D01*
X146952380Y-101666666D01*
X147000000Y-101809523D01*
X147047619Y-101857142D01*
X146952380Y-102190476D02*
X146952380Y-102809523D01*
X147333333Y-102476190D01*
X147333333Y-102619047D01*
X147380952Y-102714285D01*
X147428571Y-102761904D01*
X147523809Y-102809523D01*
X147761904Y-102809523D01*
X147857142Y-102761904D01*
X147904761Y-102714285D01*
X147952380Y-102619047D01*
X147952380Y-102333333D01*
X147904761Y-102238095D01*
X147857142Y-102190476D01*
X146952380Y-103428571D02*
X146952380Y-103523809D01*
X147000000Y-103619047D01*
X147047619Y-103666666D01*
X147142857Y-103714285D01*
X147333333Y-103761904D01*
X147571428Y-103761904D01*
X147761904Y-103714285D01*
X147857142Y-103666666D01*
X147904761Y-103619047D01*
X147952380Y-103523809D01*
X147952380Y-103428571D01*
X147904761Y-103333333D01*
X147857142Y-103285714D01*
X147761904Y-103238095D01*
X147571428Y-103190476D01*
X147333333Y-103190476D01*
X147142857Y-103238095D01*
X147047619Y-103285714D01*
X147000000Y-103333333D01*
X146952380Y-103428571D01*
G04 #@! TO.C,R1*
X136952380Y-105833333D02*
X136476190Y-105500000D01*
X136952380Y-105261904D02*
X135952380Y-105261904D01*
X135952380Y-105642857D01*
X136000000Y-105738095D01*
X136047619Y-105785714D01*
X136142857Y-105833333D01*
X136285714Y-105833333D01*
X136380952Y-105785714D01*
X136428571Y-105738095D01*
X136476190Y-105642857D01*
X136476190Y-105261904D01*
X136952380Y-106785714D02*
X136952380Y-106214285D01*
X136952380Y-106500000D02*
X135952380Y-106500000D01*
X136095238Y-106404761D01*
X136190476Y-106309523D01*
X136238095Y-106214285D01*
G04 #@! TO.C,R2*
X134952380Y-105833333D02*
X134476190Y-105500000D01*
X134952380Y-105261904D02*
X133952380Y-105261904D01*
X133952380Y-105642857D01*
X134000000Y-105738095D01*
X134047619Y-105785714D01*
X134142857Y-105833333D01*
X134285714Y-105833333D01*
X134380952Y-105785714D01*
X134428571Y-105738095D01*
X134476190Y-105642857D01*
X134476190Y-105261904D01*
X134047619Y-106214285D02*
X134000000Y-106261904D01*
X133952380Y-106357142D01*
X133952380Y-106595238D01*
X134000000Y-106690476D01*
X134047619Y-106738095D01*
X134142857Y-106785714D01*
X134238095Y-106785714D01*
X134380952Y-106738095D01*
X134952380Y-106166666D01*
X134952380Y-106785714D01*
G04 #@! TO.C,R3*
X141452380Y-105833333D02*
X140976190Y-105500000D01*
X141452380Y-105261904D02*
X140452380Y-105261904D01*
X140452380Y-105642857D01*
X140500000Y-105738095D01*
X140547619Y-105785714D01*
X140642857Y-105833333D01*
X140785714Y-105833333D01*
X140880952Y-105785714D01*
X140928571Y-105738095D01*
X140976190Y-105642857D01*
X140976190Y-105261904D01*
X140452380Y-106166666D02*
X140452380Y-106785714D01*
X140833333Y-106452380D01*
X140833333Y-106595238D01*
X140880952Y-106690476D01*
X140928571Y-106738095D01*
X141023809Y-106785714D01*
X141261904Y-106785714D01*
X141357142Y-106738095D01*
X141404761Y-106690476D01*
X141452380Y-106595238D01*
X141452380Y-106309523D01*
X141404761Y-106214285D01*
X141357142Y-106166666D01*
G04 #@! TO.C,R4*
X139952380Y-105833333D02*
X139476190Y-105500000D01*
X139952380Y-105261904D02*
X138952380Y-105261904D01*
X138952380Y-105642857D01*
X139000000Y-105738095D01*
X139047619Y-105785714D01*
X139142857Y-105833333D01*
X139285714Y-105833333D01*
X139380952Y-105785714D01*
X139428571Y-105738095D01*
X139476190Y-105642857D01*
X139476190Y-105261904D01*
X139285714Y-106690476D02*
X139952380Y-106690476D01*
X138904761Y-106452380D02*
X139619047Y-106214285D01*
X139619047Y-106833333D01*
G04 #@! TO.C,R5*
X150166666Y-105952380D02*
X150500000Y-105476190D01*
X150738095Y-105952380D02*
X150738095Y-104952380D01*
X150357142Y-104952380D01*
X150261904Y-105000000D01*
X150214285Y-105047619D01*
X150166666Y-105142857D01*
X150166666Y-105285714D01*
X150214285Y-105380952D01*
X150261904Y-105428571D01*
X150357142Y-105476190D01*
X150738095Y-105476190D01*
X149261904Y-104952380D02*
X149738095Y-104952380D01*
X149785714Y-105428571D01*
X149738095Y-105380952D01*
X149642857Y-105333333D01*
X149404761Y-105333333D01*
X149309523Y-105380952D01*
X149261904Y-105428571D01*
X149214285Y-105523809D01*
X149214285Y-105761904D01*
X149261904Y-105857142D01*
X149309523Y-105904761D01*
X149404761Y-105952380D01*
X149642857Y-105952380D01*
X149738095Y-105904761D01*
X149785714Y-105857142D01*
G04 #@! TO.C,R6*
X153166666Y-105952380D02*
X153500000Y-105476190D01*
X153738095Y-105952380D02*
X153738095Y-104952380D01*
X153357142Y-104952380D01*
X153261904Y-105000000D01*
X153214285Y-105047619D01*
X153166666Y-105142857D01*
X153166666Y-105285714D01*
X153214285Y-105380952D01*
X153261904Y-105428571D01*
X153357142Y-105476190D01*
X153738095Y-105476190D01*
X152309523Y-104952380D02*
X152500000Y-104952380D01*
X152595238Y-105000000D01*
X152642857Y-105047619D01*
X152738095Y-105190476D01*
X152785714Y-105380952D01*
X152785714Y-105761904D01*
X152738095Y-105857142D01*
X152690476Y-105904761D01*
X152595238Y-105952380D01*
X152404761Y-105952380D01*
X152309523Y-105904761D01*
X152261904Y-105857142D01*
X152214285Y-105761904D01*
X152214285Y-105523809D01*
X152261904Y-105428571D01*
X152309523Y-105380952D01*
X152404761Y-105333333D01*
X152595238Y-105333333D01*
X152690476Y-105380952D01*
X152738095Y-105428571D01*
X152785714Y-105523809D01*
G04 #@! TO.C,R7*
X150166666Y-107452380D02*
X150500000Y-106976190D01*
X150738095Y-107452380D02*
X150738095Y-106452380D01*
X150357142Y-106452380D01*
X150261904Y-106500000D01*
X150214285Y-106547619D01*
X150166666Y-106642857D01*
X150166666Y-106785714D01*
X150214285Y-106880952D01*
X150261904Y-106928571D01*
X150357142Y-106976190D01*
X150738095Y-106976190D01*
X149833333Y-106452380D02*
X149166666Y-106452380D01*
X149595238Y-107452380D01*
G04 #@! TO.C,R8*
X154122380Y-113333333D02*
X153646190Y-113000000D01*
X154122380Y-112761904D02*
X153122380Y-112761904D01*
X153122380Y-113142857D01*
X153170000Y-113238095D01*
X153217619Y-113285714D01*
X153312857Y-113333333D01*
X153455714Y-113333333D01*
X153550952Y-113285714D01*
X153598571Y-113238095D01*
X153646190Y-113142857D01*
X153646190Y-112761904D01*
X153550952Y-113904761D02*
X153503333Y-113809523D01*
X153455714Y-113761904D01*
X153360476Y-113714285D01*
X153312857Y-113714285D01*
X153217619Y-113761904D01*
X153170000Y-113809523D01*
X153122380Y-113904761D01*
X153122380Y-114095238D01*
X153170000Y-114190476D01*
X153217619Y-114238095D01*
X153312857Y-114285714D01*
X153360476Y-114285714D01*
X153455714Y-114238095D01*
X153503333Y-114190476D01*
X153550952Y-114095238D01*
X153550952Y-113904761D01*
X153598571Y-113809523D01*
X153646190Y-113761904D01*
X153741428Y-113714285D01*
X153931904Y-113714285D01*
X154027142Y-113761904D01*
X154074761Y-113809523D01*
X154122380Y-113904761D01*
X154122380Y-114095238D01*
X154074761Y-114190476D01*
X154027142Y-114238095D01*
X153931904Y-114285714D01*
X153741428Y-114285714D01*
X153646190Y-114238095D01*
X153598571Y-114190476D01*
X153550952Y-114095238D01*
G04 #@! TO.C,R9*
X158452380Y-105833333D02*
X157976190Y-105500000D01*
X158452380Y-105261904D02*
X157452380Y-105261904D01*
X157452380Y-105642857D01*
X157500000Y-105738095D01*
X157547619Y-105785714D01*
X157642857Y-105833333D01*
X157785714Y-105833333D01*
X157880952Y-105785714D01*
X157928571Y-105738095D01*
X157976190Y-105642857D01*
X157976190Y-105261904D01*
X158452380Y-106309523D02*
X158452380Y-106500000D01*
X158404761Y-106595238D01*
X158357142Y-106642857D01*
X158214285Y-106738095D01*
X158023809Y-106785714D01*
X157642857Y-106785714D01*
X157547619Y-106738095D01*
X157500000Y-106690476D01*
X157452380Y-106595238D01*
X157452380Y-106404761D01*
X157500000Y-106309523D01*
X157547619Y-106261904D01*
X157642857Y-106214285D01*
X157880952Y-106214285D01*
X157976190Y-106261904D01*
X158023809Y-106309523D01*
X158071428Y-106404761D01*
X158071428Y-106595238D01*
X158023809Y-106690476D01*
X157976190Y-106738095D01*
X157880952Y-106785714D01*
G04 #@! TO.C,R10*
X165142857Y-105952380D02*
X165476190Y-105476190D01*
X165714285Y-105952380D02*
X165714285Y-104952380D01*
X165333333Y-104952380D01*
X165238095Y-105000000D01*
X165190476Y-105047619D01*
X165142857Y-105142857D01*
X165142857Y-105285714D01*
X165190476Y-105380952D01*
X165238095Y-105428571D01*
X165333333Y-105476190D01*
X165714285Y-105476190D01*
X164190476Y-105952380D02*
X164761904Y-105952380D01*
X164476190Y-105952380D02*
X164476190Y-104952380D01*
X164571428Y-105095238D01*
X164666666Y-105190476D01*
X164761904Y-105238095D01*
X163571428Y-104952380D02*
X163476190Y-104952380D01*
X163380952Y-105000000D01*
X163333333Y-105047619D01*
X163285714Y-105142857D01*
X163238095Y-105333333D01*
X163238095Y-105571428D01*
X163285714Y-105761904D01*
X163333333Y-105857142D01*
X163380952Y-105904761D01*
X163476190Y-105952380D01*
X163571428Y-105952380D01*
X163666666Y-105904761D01*
X163714285Y-105857142D01*
X163761904Y-105761904D01*
X163809523Y-105571428D01*
X163809523Y-105333333D01*
X163761904Y-105142857D01*
X163714285Y-105047619D01*
X163666666Y-105000000D01*
X163571428Y-104952380D01*
G04 #@! TO.C,R11*
X165142857Y-107452380D02*
X165476190Y-106976190D01*
X165714285Y-107452380D02*
X165714285Y-106452380D01*
X165333333Y-106452380D01*
X165238095Y-106500000D01*
X165190476Y-106547619D01*
X165142857Y-106642857D01*
X165142857Y-106785714D01*
X165190476Y-106880952D01*
X165238095Y-106928571D01*
X165333333Y-106976190D01*
X165714285Y-106976190D01*
X164190476Y-107452380D02*
X164761904Y-107452380D01*
X164476190Y-107452380D02*
X164476190Y-106452380D01*
X164571428Y-106595238D01*
X164666666Y-106690476D01*
X164761904Y-106738095D01*
X163238095Y-107452380D02*
X163809523Y-107452380D01*
X163523809Y-107452380D02*
X163523809Y-106452380D01*
X163619047Y-106595238D01*
X163714285Y-106690476D01*
X163809523Y-106738095D01*
G04 #@! TO.C,R12*
X162952380Y-105857142D02*
X162476190Y-105523809D01*
X162952380Y-105285714D02*
X161952380Y-105285714D01*
X161952380Y-105666666D01*
X162000000Y-105761904D01*
X162047619Y-105809523D01*
X162142857Y-105857142D01*
X162285714Y-105857142D01*
X162380952Y-105809523D01*
X162428571Y-105761904D01*
X162476190Y-105666666D01*
X162476190Y-105285714D01*
X162952380Y-106809523D02*
X162952380Y-106238095D01*
X162952380Y-106523809D02*
X161952380Y-106523809D01*
X162095238Y-106428571D01*
X162190476Y-106333333D01*
X162238095Y-106238095D01*
X162047619Y-107190476D02*
X162000000Y-107238095D01*
X161952380Y-107333333D01*
X161952380Y-107571428D01*
X162000000Y-107666666D01*
X162047619Y-107714285D01*
X162142857Y-107761904D01*
X162238095Y-107761904D01*
X162380952Y-107714285D01*
X162952380Y-107142857D01*
X162952380Y-107761904D01*
G04 #@! TO.C,R13*
X161452380Y-105857142D02*
X160976190Y-105523809D01*
X161452380Y-105285714D02*
X160452380Y-105285714D01*
X160452380Y-105666666D01*
X160500000Y-105761904D01*
X160547619Y-105809523D01*
X160642857Y-105857142D01*
X160785714Y-105857142D01*
X160880952Y-105809523D01*
X160928571Y-105761904D01*
X160976190Y-105666666D01*
X160976190Y-105285714D01*
X161452380Y-106809523D02*
X161452380Y-106238095D01*
X161452380Y-106523809D02*
X160452380Y-106523809D01*
X160595238Y-106428571D01*
X160690476Y-106333333D01*
X160738095Y-106238095D01*
X160452380Y-107142857D02*
X160452380Y-107761904D01*
X160833333Y-107428571D01*
X160833333Y-107571428D01*
X160880952Y-107666666D01*
X160928571Y-107714285D01*
X161023809Y-107761904D01*
X161261904Y-107761904D01*
X161357142Y-107714285D01*
X161404761Y-107666666D01*
X161452380Y-107571428D01*
X161452380Y-107285714D01*
X161404761Y-107190476D01*
X161357142Y-107142857D01*
G04 #@! TO.C,R14*
X136952380Y-101857142D02*
X136476190Y-101523809D01*
X136952380Y-101285714D02*
X135952380Y-101285714D01*
X135952380Y-101666666D01*
X136000000Y-101761904D01*
X136047619Y-101809523D01*
X136142857Y-101857142D01*
X136285714Y-101857142D01*
X136380952Y-101809523D01*
X136428571Y-101761904D01*
X136476190Y-101666666D01*
X136476190Y-101285714D01*
X136952380Y-102809523D02*
X136952380Y-102238095D01*
X136952380Y-102523809D02*
X135952380Y-102523809D01*
X136095238Y-102428571D01*
X136190476Y-102333333D01*
X136238095Y-102238095D01*
X136285714Y-103666666D02*
X136952380Y-103666666D01*
X135904761Y-103428571D02*
X136619047Y-103190476D01*
X136619047Y-103809523D01*
G04 #@! TO.C,R15*
X134952380Y-101857142D02*
X134476190Y-101523809D01*
X134952380Y-101285714D02*
X133952380Y-101285714D01*
X133952380Y-101666666D01*
X134000000Y-101761904D01*
X134047619Y-101809523D01*
X134142857Y-101857142D01*
X134285714Y-101857142D01*
X134380952Y-101809523D01*
X134428571Y-101761904D01*
X134476190Y-101666666D01*
X134476190Y-101285714D01*
X134952380Y-102809523D02*
X134952380Y-102238095D01*
X134952380Y-102523809D02*
X133952380Y-102523809D01*
X134095238Y-102428571D01*
X134190476Y-102333333D01*
X134238095Y-102238095D01*
X133952380Y-103714285D02*
X133952380Y-103238095D01*
X134428571Y-103190476D01*
X134380952Y-103238095D01*
X134333333Y-103333333D01*
X134333333Y-103571428D01*
X134380952Y-103666666D01*
X134428571Y-103714285D01*
X134523809Y-103761904D01*
X134761904Y-103761904D01*
X134857142Y-103714285D01*
X134904761Y-103666666D01*
X134952380Y-103571428D01*
X134952380Y-103333333D01*
X134904761Y-103238095D01*
X134857142Y-103190476D01*
G04 #@! TO.C,R16*
X138452380Y-101857142D02*
X137976190Y-101523809D01*
X138452380Y-101285714D02*
X137452380Y-101285714D01*
X137452380Y-101666666D01*
X137500000Y-101761904D01*
X137547619Y-101809523D01*
X137642857Y-101857142D01*
X137785714Y-101857142D01*
X137880952Y-101809523D01*
X137928571Y-101761904D01*
X137976190Y-101666666D01*
X137976190Y-101285714D01*
X138452380Y-102809523D02*
X138452380Y-102238095D01*
X138452380Y-102523809D02*
X137452380Y-102523809D01*
X137595238Y-102428571D01*
X137690476Y-102333333D01*
X137738095Y-102238095D01*
X137452380Y-103666666D02*
X137452380Y-103476190D01*
X137500000Y-103380952D01*
X137547619Y-103333333D01*
X137690476Y-103238095D01*
X137880952Y-103190476D01*
X138261904Y-103190476D01*
X138357142Y-103238095D01*
X138404761Y-103285714D01*
X138452380Y-103380952D01*
X138452380Y-103571428D01*
X138404761Y-103666666D01*
X138357142Y-103714285D01*
X138261904Y-103761904D01*
X138023809Y-103761904D01*
X137928571Y-103714285D01*
X137880952Y-103666666D01*
X137833333Y-103571428D01*
X137833333Y-103380952D01*
X137880952Y-103285714D01*
X137928571Y-103238095D01*
X138023809Y-103190476D01*
G04 #@! TO.C,R17*
X139952380Y-101857142D02*
X139476190Y-101523809D01*
X139952380Y-101285714D02*
X138952380Y-101285714D01*
X138952380Y-101666666D01*
X139000000Y-101761904D01*
X139047619Y-101809523D01*
X139142857Y-101857142D01*
X139285714Y-101857142D01*
X139380952Y-101809523D01*
X139428571Y-101761904D01*
X139476190Y-101666666D01*
X139476190Y-101285714D01*
X139952380Y-102809523D02*
X139952380Y-102238095D01*
X139952380Y-102523809D02*
X138952380Y-102523809D01*
X139095238Y-102428571D01*
X139190476Y-102333333D01*
X139238095Y-102238095D01*
X138952380Y-103142857D02*
X138952380Y-103809523D01*
X139952380Y-103380952D01*
G04 #@! TO.C,R18*
X150142857Y-102452380D02*
X150476190Y-101976190D01*
X150714285Y-102452380D02*
X150714285Y-101452380D01*
X150333333Y-101452380D01*
X150238095Y-101500000D01*
X150190476Y-101547619D01*
X150142857Y-101642857D01*
X150142857Y-101785714D01*
X150190476Y-101880952D01*
X150238095Y-101928571D01*
X150333333Y-101976190D01*
X150714285Y-101976190D01*
X149190476Y-102452380D02*
X149761904Y-102452380D01*
X149476190Y-102452380D02*
X149476190Y-101452380D01*
X149571428Y-101595238D01*
X149666666Y-101690476D01*
X149761904Y-101738095D01*
X148619047Y-101880952D02*
X148714285Y-101833333D01*
X148761904Y-101785714D01*
X148809523Y-101690476D01*
X148809523Y-101642857D01*
X148761904Y-101547619D01*
X148714285Y-101500000D01*
X148619047Y-101452380D01*
X148428571Y-101452380D01*
X148333333Y-101500000D01*
X148285714Y-101547619D01*
X148238095Y-101642857D01*
X148238095Y-101690476D01*
X148285714Y-101785714D01*
X148333333Y-101833333D01*
X148428571Y-101880952D01*
X148619047Y-101880952D01*
X148714285Y-101928571D01*
X148761904Y-101976190D01*
X148809523Y-102071428D01*
X148809523Y-102261904D01*
X148761904Y-102357142D01*
X148714285Y-102404761D01*
X148619047Y-102452380D01*
X148428571Y-102452380D01*
X148333333Y-102404761D01*
X148285714Y-102357142D01*
X148238095Y-102261904D01*
X148238095Y-102071428D01*
X148285714Y-101976190D01*
X148333333Y-101928571D01*
X148428571Y-101880952D01*
G04 #@! TO.C,C4*
X138666666Y-115857142D02*
X138714285Y-115904761D01*
X138857142Y-115952380D01*
X138952380Y-115952380D01*
X139095238Y-115904761D01*
X139190476Y-115809523D01*
X139238095Y-115714285D01*
X139285714Y-115523809D01*
X139285714Y-115380952D01*
X139238095Y-115190476D01*
X139190476Y-115095238D01*
X139095238Y-115000000D01*
X138952380Y-114952380D01*
X138857142Y-114952380D01*
X138714285Y-115000000D01*
X138666666Y-115047619D01*
X137809523Y-115285714D02*
X137809523Y-115952380D01*
X138047619Y-114904761D02*
X138285714Y-115619047D01*
X137666666Y-115619047D01*
G04 #@! TO.C,C9*
X146357142Y-105833333D02*
X146404761Y-105785714D01*
X146452380Y-105642857D01*
X146452380Y-105547619D01*
X146404761Y-105404761D01*
X146309523Y-105309523D01*
X146214285Y-105261904D01*
X146023809Y-105214285D01*
X145880952Y-105214285D01*
X145690476Y-105261904D01*
X145595238Y-105309523D01*
X145500000Y-105404761D01*
X145452380Y-105547619D01*
X145452380Y-105642857D01*
X145500000Y-105785714D01*
X145547619Y-105833333D01*
X146452380Y-106309523D02*
X146452380Y-106500000D01*
X146404761Y-106595238D01*
X146357142Y-106642857D01*
X146214285Y-106738095D01*
X146023809Y-106785714D01*
X145642857Y-106785714D01*
X145547619Y-106738095D01*
X145500000Y-106690476D01*
X145452380Y-106595238D01*
X145452380Y-106404761D01*
X145500000Y-106309523D01*
X145547619Y-106261904D01*
X145642857Y-106214285D01*
X145880952Y-106214285D01*
X145976190Y-106261904D01*
X146023809Y-106309523D01*
X146071428Y-106404761D01*
X146071428Y-106595238D01*
X146023809Y-106690476D01*
X145976190Y-106738095D01*
X145880952Y-106785714D01*
G04 #@! TO.C,C10*
X150142857Y-115857142D02*
X150190476Y-115904761D01*
X150333333Y-115952380D01*
X150428571Y-115952380D01*
X150571428Y-115904761D01*
X150666666Y-115809523D01*
X150714285Y-115714285D01*
X150761904Y-115523809D01*
X150761904Y-115380952D01*
X150714285Y-115190476D01*
X150666666Y-115095238D01*
X150571428Y-115000000D01*
X150428571Y-114952380D01*
X150333333Y-114952380D01*
X150190476Y-115000000D01*
X150142857Y-115047619D01*
X149190476Y-115952380D02*
X149761904Y-115952380D01*
X149476190Y-115952380D02*
X149476190Y-114952380D01*
X149571428Y-115095238D01*
X149666666Y-115190476D01*
X149761904Y-115238095D01*
X148571428Y-114952380D02*
X148476190Y-114952380D01*
X148380952Y-115000000D01*
X148333333Y-115047619D01*
X148285714Y-115142857D01*
X148238095Y-115333333D01*
X148238095Y-115571428D01*
X148285714Y-115761904D01*
X148333333Y-115857142D01*
X148380952Y-115904761D01*
X148476190Y-115952380D01*
X148571428Y-115952380D01*
X148666666Y-115904761D01*
X148714285Y-115857142D01*
X148761904Y-115761904D01*
X148809523Y-115571428D01*
X148809523Y-115333333D01*
X148761904Y-115142857D01*
X148714285Y-115047619D01*
X148666666Y-115000000D01*
X148571428Y-114952380D01*
G04 #@! TO.C,C12*
X147857142Y-105857142D02*
X147904761Y-105809523D01*
X147952380Y-105666666D01*
X147952380Y-105571428D01*
X147904761Y-105428571D01*
X147809523Y-105333333D01*
X147714285Y-105285714D01*
X147523809Y-105238095D01*
X147380952Y-105238095D01*
X147190476Y-105285714D01*
X147095238Y-105333333D01*
X147000000Y-105428571D01*
X146952380Y-105571428D01*
X146952380Y-105666666D01*
X147000000Y-105809523D01*
X147047619Y-105857142D01*
X147952380Y-106809523D02*
X147952380Y-106238095D01*
X147952380Y-106523809D02*
X146952380Y-106523809D01*
X147095238Y-106428571D01*
X147190476Y-106333333D01*
X147238095Y-106238095D01*
X147047619Y-107190476D02*
X147000000Y-107238095D01*
X146952380Y-107333333D01*
X146952380Y-107571428D01*
X147000000Y-107666666D01*
X147047619Y-107714285D01*
X147142857Y-107761904D01*
X147238095Y-107761904D01*
X147380952Y-107714285D01*
X147952380Y-107142857D01*
X147952380Y-107761904D01*
G04 #@! TO.C,C17*
X159857142Y-105857142D02*
X159904761Y-105809523D01*
X159952380Y-105666666D01*
X159952380Y-105571428D01*
X159904761Y-105428571D01*
X159809523Y-105333333D01*
X159714285Y-105285714D01*
X159523809Y-105238095D01*
X159380952Y-105238095D01*
X159190476Y-105285714D01*
X159095238Y-105333333D01*
X159000000Y-105428571D01*
X158952380Y-105571428D01*
X158952380Y-105666666D01*
X159000000Y-105809523D01*
X159047619Y-105857142D01*
X159952380Y-106809523D02*
X159952380Y-106238095D01*
X159952380Y-106523809D02*
X158952380Y-106523809D01*
X159095238Y-106428571D01*
X159190476Y-106333333D01*
X159238095Y-106238095D01*
X158952380Y-107142857D02*
X158952380Y-107809523D01*
X159952380Y-107380952D01*
G04 #@! TO.C,C18*
X166527142Y-112857142D02*
X166574761Y-112809523D01*
X166622380Y-112666666D01*
X166622380Y-112571428D01*
X166574761Y-112428571D01*
X166479523Y-112333333D01*
X166384285Y-112285714D01*
X166193809Y-112238095D01*
X166050952Y-112238095D01*
X165860476Y-112285714D01*
X165765238Y-112333333D01*
X165670000Y-112428571D01*
X165622380Y-112571428D01*
X165622380Y-112666666D01*
X165670000Y-112809523D01*
X165717619Y-112857142D01*
X166622380Y-113809523D02*
X166622380Y-113238095D01*
X166622380Y-113523809D02*
X165622380Y-113523809D01*
X165765238Y-113428571D01*
X165860476Y-113333333D01*
X165908095Y-113238095D01*
X166050952Y-114380952D02*
X166003333Y-114285714D01*
X165955714Y-114238095D01*
X165860476Y-114190476D01*
X165812857Y-114190476D01*
X165717619Y-114238095D01*
X165670000Y-114285714D01*
X165622380Y-114380952D01*
X165622380Y-114571428D01*
X165670000Y-114666666D01*
X165717619Y-114714285D01*
X165812857Y-114761904D01*
X165860476Y-114761904D01*
X165955714Y-114714285D01*
X166003333Y-114666666D01*
X166050952Y-114571428D01*
X166050952Y-114380952D01*
X166098571Y-114285714D01*
X166146190Y-114238095D01*
X166241428Y-114190476D01*
X166431904Y-114190476D01*
X166527142Y-114238095D01*
X166574761Y-114285714D01*
X166622380Y-114380952D01*
X166622380Y-114571428D01*
X166574761Y-114666666D01*
X166527142Y-114714285D01*
X166431904Y-114761904D01*
X166241428Y-114761904D01*
X166146190Y-114714285D01*
X166098571Y-114666666D01*
X166050952Y-114571428D01*
G04 #@! TO.C,C19*
X133357142Y-101857142D02*
X133404761Y-101809523D01*
X133452380Y-101666666D01*
X133452380Y-101571428D01*
X133404761Y-101428571D01*
X133309523Y-101333333D01*
X133214285Y-101285714D01*
X133023809Y-101238095D01*
X132880952Y-101238095D01*
X132690476Y-101285714D01*
X132595238Y-101333333D01*
X132500000Y-101428571D01*
X132452380Y-101571428D01*
X132452380Y-101666666D01*
X132500000Y-101809523D01*
X132547619Y-101857142D01*
X133452380Y-102809523D02*
X133452380Y-102238095D01*
X133452380Y-102523809D02*
X132452380Y-102523809D01*
X132595238Y-102428571D01*
X132690476Y-102333333D01*
X132738095Y-102238095D01*
X133452380Y-103285714D02*
X133452380Y-103476190D01*
X133404761Y-103571428D01*
X133357142Y-103619047D01*
X133214285Y-103714285D01*
X133023809Y-103761904D01*
X132642857Y-103761904D01*
X132547619Y-103714285D01*
X132500000Y-103666666D01*
X132452380Y-103571428D01*
X132452380Y-103380952D01*
X132500000Y-103285714D01*
X132547619Y-103238095D01*
X132642857Y-103190476D01*
X132880952Y-103190476D01*
X132976190Y-103238095D01*
X133023809Y-103285714D01*
X133071428Y-103380952D01*
X133071428Y-103571428D01*
X133023809Y-103666666D01*
X132976190Y-103714285D01*
X132880952Y-103761904D01*
G04 #@! TO.C,C23*
X138642857Y-94357142D02*
X138690476Y-94404761D01*
X138833333Y-94452380D01*
X138928571Y-94452380D01*
X139071428Y-94404761D01*
X139166666Y-94309523D01*
X139214285Y-94214285D01*
X139261904Y-94023809D01*
X139261904Y-93880952D01*
X139214285Y-93690476D01*
X139166666Y-93595238D01*
X139071428Y-93500000D01*
X138928571Y-93452380D01*
X138833333Y-93452380D01*
X138690476Y-93500000D01*
X138642857Y-93547619D01*
X138261904Y-93547619D02*
X138214285Y-93500000D01*
X138119047Y-93452380D01*
X137880952Y-93452380D01*
X137785714Y-93500000D01*
X137738095Y-93547619D01*
X137690476Y-93642857D01*
X137690476Y-93738095D01*
X137738095Y-93880952D01*
X138309523Y-94452380D01*
X137690476Y-94452380D01*
X137357142Y-93452380D02*
X136738095Y-93452380D01*
X137071428Y-93833333D01*
X136928571Y-93833333D01*
X136833333Y-93880952D01*
X136785714Y-93928571D01*
X136738095Y-94023809D01*
X136738095Y-94261904D01*
X136785714Y-94357142D01*
X136833333Y-94404761D01*
X136928571Y-94452380D01*
X137214285Y-94452380D01*
X137309523Y-94404761D01*
X137357142Y-94357142D01*
G04 #@! TO.C,C24*
X141357142Y-101857142D02*
X141404761Y-101809523D01*
X141452380Y-101666666D01*
X141452380Y-101571428D01*
X141404761Y-101428571D01*
X141309523Y-101333333D01*
X141214285Y-101285714D01*
X141023809Y-101238095D01*
X140880952Y-101238095D01*
X140690476Y-101285714D01*
X140595238Y-101333333D01*
X140500000Y-101428571D01*
X140452380Y-101571428D01*
X140452380Y-101666666D01*
X140500000Y-101809523D01*
X140547619Y-101857142D01*
X140547619Y-102238095D02*
X140500000Y-102285714D01*
X140452380Y-102380952D01*
X140452380Y-102619047D01*
X140500000Y-102714285D01*
X140547619Y-102761904D01*
X140642857Y-102809523D01*
X140738095Y-102809523D01*
X140880952Y-102761904D01*
X141452380Y-102190476D01*
X141452380Y-102809523D01*
X140785714Y-103666666D02*
X141452380Y-103666666D01*
X140404761Y-103428571D02*
X141119047Y-103190476D01*
X141119047Y-103809523D01*
G04 #@! TO.C,C27*
X146357142Y-101857142D02*
X146404761Y-101809523D01*
X146452380Y-101666666D01*
X146452380Y-101571428D01*
X146404761Y-101428571D01*
X146309523Y-101333333D01*
X146214285Y-101285714D01*
X146023809Y-101238095D01*
X145880952Y-101238095D01*
X145690476Y-101285714D01*
X145595238Y-101333333D01*
X145500000Y-101428571D01*
X145452380Y-101571428D01*
X145452380Y-101666666D01*
X145500000Y-101809523D01*
X145547619Y-101857142D01*
X145547619Y-102238095D02*
X145500000Y-102285714D01*
X145452380Y-102380952D01*
X145452380Y-102619047D01*
X145500000Y-102714285D01*
X145547619Y-102761904D01*
X145642857Y-102809523D01*
X145738095Y-102809523D01*
X145880952Y-102761904D01*
X146452380Y-102190476D01*
X146452380Y-102809523D01*
X145452380Y-103142857D02*
X145452380Y-103809523D01*
X146452380Y-103380952D01*
G04 #@! TO.C,C33*
X161642857Y-98357142D02*
X161690476Y-98404761D01*
X161833333Y-98452380D01*
X161928571Y-98452380D01*
X162071428Y-98404761D01*
X162166666Y-98309523D01*
X162214285Y-98214285D01*
X162261904Y-98023809D01*
X162261904Y-97880952D01*
X162214285Y-97690476D01*
X162166666Y-97595238D01*
X162071428Y-97500000D01*
X161928571Y-97452380D01*
X161833333Y-97452380D01*
X161690476Y-97500000D01*
X161642857Y-97547619D01*
X161309523Y-97452380D02*
X160690476Y-97452380D01*
X161023809Y-97833333D01*
X160880952Y-97833333D01*
X160785714Y-97880952D01*
X160738095Y-97928571D01*
X160690476Y-98023809D01*
X160690476Y-98261904D01*
X160738095Y-98357142D01*
X160785714Y-98404761D01*
X160880952Y-98452380D01*
X161166666Y-98452380D01*
X161261904Y-98404761D01*
X161309523Y-98357142D01*
X160357142Y-97452380D02*
X159738095Y-97452380D01*
X160071428Y-97833333D01*
X159928571Y-97833333D01*
X159833333Y-97880952D01*
X159785714Y-97928571D01*
X159738095Y-98023809D01*
X159738095Y-98261904D01*
X159785714Y-98357142D01*
X159833333Y-98404761D01*
X159928571Y-98452380D01*
X160214285Y-98452380D01*
X160309523Y-98404761D01*
X160357142Y-98357142D01*
G04 #@! TO.C,C34*
X161642857Y-94357142D02*
X161690476Y-94404761D01*
X161833333Y-94452380D01*
X161928571Y-94452380D01*
X162071428Y-94404761D01*
X162166666Y-94309523D01*
X162214285Y-94214285D01*
X162261904Y-94023809D01*
X162261904Y-93880952D01*
X162214285Y-93690476D01*
X162166666Y-93595238D01*
X162071428Y-93500000D01*
X161928571Y-93452380D01*
X161833333Y-93452380D01*
X161690476Y-93500000D01*
X161642857Y-93547619D01*
X161309523Y-93452380D02*
X160690476Y-93452380D01*
X161023809Y-93833333D01*
X160880952Y-93833333D01*
X160785714Y-93880952D01*
X160738095Y-93928571D01*
X160690476Y-94023809D01*
X160690476Y-94261904D01*
X160738095Y-94357142D01*
X160785714Y-94404761D01*
X160880952Y-94452380D01*
X161166666Y-94452380D01*
X161261904Y-94404761D01*
X161309523Y-94357142D01*
X159833333Y-93785714D02*
X159833333Y-94452380D01*
X160071428Y-93404761D02*
X160309523Y-94119047D01*
X159690476Y-94119047D01*
G04 #@! TO.C,C35*
X159857142Y-101857142D02*
X159904761Y-101809523D01*
X159952380Y-101666666D01*
X159952380Y-101571428D01*
X159904761Y-101428571D01*
X159809523Y-101333333D01*
X159714285Y-101285714D01*
X159523809Y-101238095D01*
X159380952Y-101238095D01*
X159190476Y-101285714D01*
X159095238Y-101333333D01*
X159000000Y-101428571D01*
X158952380Y-101571428D01*
X158952380Y-101666666D01*
X159000000Y-101809523D01*
X159047619Y-101857142D01*
X158952380Y-102190476D02*
X158952380Y-102809523D01*
X159333333Y-102476190D01*
X159333333Y-102619047D01*
X159380952Y-102714285D01*
X159428571Y-102761904D01*
X159523809Y-102809523D01*
X159761904Y-102809523D01*
X159857142Y-102761904D01*
X159904761Y-102714285D01*
X159952380Y-102619047D01*
X159952380Y-102333333D01*
X159904761Y-102238095D01*
X159857142Y-102190476D01*
X158952380Y-103714285D02*
X158952380Y-103238095D01*
X159428571Y-103190476D01*
X159380952Y-103238095D01*
X159333333Y-103333333D01*
X159333333Y-103571428D01*
X159380952Y-103666666D01*
X159428571Y-103714285D01*
X159523809Y-103761904D01*
X159761904Y-103761904D01*
X159857142Y-103714285D01*
X159904761Y-103666666D01*
X159952380Y-103571428D01*
X159952380Y-103333333D01*
X159904761Y-103238095D01*
X159857142Y-103190476D01*
G04 #@! TO.C,C36*
X166527142Y-95357142D02*
X166574761Y-95309523D01*
X166622380Y-95166666D01*
X166622380Y-95071428D01*
X166574761Y-94928571D01*
X166479523Y-94833333D01*
X166384285Y-94785714D01*
X166193809Y-94738095D01*
X166050952Y-94738095D01*
X165860476Y-94785714D01*
X165765238Y-94833333D01*
X165670000Y-94928571D01*
X165622380Y-95071428D01*
X165622380Y-95166666D01*
X165670000Y-95309523D01*
X165717619Y-95357142D01*
X165622380Y-95690476D02*
X165622380Y-96309523D01*
X166003333Y-95976190D01*
X166003333Y-96119047D01*
X166050952Y-96214285D01*
X166098571Y-96261904D01*
X166193809Y-96309523D01*
X166431904Y-96309523D01*
X166527142Y-96261904D01*
X166574761Y-96214285D01*
X166622380Y-96119047D01*
X166622380Y-95833333D01*
X166574761Y-95738095D01*
X166527142Y-95690476D01*
X165622380Y-97166666D02*
X165622380Y-96976190D01*
X165670000Y-96880952D01*
X165717619Y-96833333D01*
X165860476Y-96738095D01*
X166050952Y-96690476D01*
X166431904Y-96690476D01*
X166527142Y-96738095D01*
X166574761Y-96785714D01*
X166622380Y-96880952D01*
X166622380Y-97071428D01*
X166574761Y-97166666D01*
X166527142Y-97214285D01*
X166431904Y-97261904D01*
X166193809Y-97261904D01*
X166098571Y-97214285D01*
X166050952Y-97166666D01*
X166003333Y-97071428D01*
X166003333Y-96880952D01*
X166050952Y-96785714D01*
X166098571Y-96738095D01*
X166193809Y-96690476D01*
G04 #@! TO.C,R19*
X153142857Y-102452380D02*
X153476190Y-101976190D01*
X153714285Y-102452380D02*
X153714285Y-101452380D01*
X153333333Y-101452380D01*
X153238095Y-101500000D01*
X153190476Y-101547619D01*
X153142857Y-101642857D01*
X153142857Y-101785714D01*
X153190476Y-101880952D01*
X153238095Y-101928571D01*
X153333333Y-101976190D01*
X153714285Y-101976190D01*
X152190476Y-102452380D02*
X152761904Y-102452380D01*
X152476190Y-102452380D02*
X152476190Y-101452380D01*
X152571428Y-101595238D01*
X152666666Y-101690476D01*
X152761904Y-101738095D01*
X151714285Y-102452380D02*
X151523809Y-102452380D01*
X151428571Y-102404761D01*
X151380952Y-102357142D01*
X151285714Y-102214285D01*
X151238095Y-102023809D01*
X151238095Y-101642857D01*
X151285714Y-101547619D01*
X151333333Y-101500000D01*
X151428571Y-101452380D01*
X151619047Y-101452380D01*
X151714285Y-101500000D01*
X151761904Y-101547619D01*
X151809523Y-101642857D01*
X151809523Y-101880952D01*
X151761904Y-101976190D01*
X151714285Y-102023809D01*
X151619047Y-102071428D01*
X151428571Y-102071428D01*
X151333333Y-102023809D01*
X151285714Y-101976190D01*
X151238095Y-101880952D01*
G04 #@! TO.C,R20*
X150142857Y-103952380D02*
X150476190Y-103476190D01*
X150714285Y-103952380D02*
X150714285Y-102952380D01*
X150333333Y-102952380D01*
X150238095Y-103000000D01*
X150190476Y-103047619D01*
X150142857Y-103142857D01*
X150142857Y-103285714D01*
X150190476Y-103380952D01*
X150238095Y-103428571D01*
X150333333Y-103476190D01*
X150714285Y-103476190D01*
X149761904Y-103047619D02*
X149714285Y-103000000D01*
X149619047Y-102952380D01*
X149380952Y-102952380D01*
X149285714Y-103000000D01*
X149238095Y-103047619D01*
X149190476Y-103142857D01*
X149190476Y-103238095D01*
X149238095Y-103380952D01*
X149809523Y-103952380D01*
X149190476Y-103952380D01*
X148571428Y-102952380D02*
X148476190Y-102952380D01*
X148380952Y-103000000D01*
X148333333Y-103047619D01*
X148285714Y-103142857D01*
X148238095Y-103333333D01*
X148238095Y-103571428D01*
X148285714Y-103761904D01*
X148333333Y-103857142D01*
X148380952Y-103904761D01*
X148476190Y-103952380D01*
X148571428Y-103952380D01*
X148666666Y-103904761D01*
X148714285Y-103857142D01*
X148761904Y-103761904D01*
X148809523Y-103571428D01*
X148809523Y-103333333D01*
X148761904Y-103142857D01*
X148714285Y-103047619D01*
X148666666Y-103000000D01*
X148571428Y-102952380D01*
G04 #@! TO.C,R21*
X154452380Y-95357142D02*
X153976190Y-95023809D01*
X154452380Y-94785714D02*
X153452380Y-94785714D01*
X153452380Y-95166666D01*
X153500000Y-95261904D01*
X153547619Y-95309523D01*
X153642857Y-95357142D01*
X153785714Y-95357142D01*
X153880952Y-95309523D01*
X153928571Y-95261904D01*
X153976190Y-95166666D01*
X153976190Y-94785714D01*
X153547619Y-95738095D02*
X153500000Y-95785714D01*
X153452380Y-95880952D01*
X153452380Y-96119047D01*
X153500000Y-96214285D01*
X153547619Y-96261904D01*
X153642857Y-96309523D01*
X153738095Y-96309523D01*
X153880952Y-96261904D01*
X154452380Y-95690476D01*
X154452380Y-96309523D01*
X154452380Y-97261904D02*
X154452380Y-96690476D01*
X154452380Y-96976190D02*
X153452380Y-96976190D01*
X153595238Y-96880952D01*
X153690476Y-96785714D01*
X153738095Y-96690476D01*
G04 #@! TO.C,R22*
X158452380Y-101857142D02*
X157976190Y-101523809D01*
X158452380Y-101285714D02*
X157452380Y-101285714D01*
X157452380Y-101666666D01*
X157500000Y-101761904D01*
X157547619Y-101809523D01*
X157642857Y-101857142D01*
X157785714Y-101857142D01*
X157880952Y-101809523D01*
X157928571Y-101761904D01*
X157976190Y-101666666D01*
X157976190Y-101285714D01*
X157547619Y-102238095D02*
X157500000Y-102285714D01*
X157452380Y-102380952D01*
X157452380Y-102619047D01*
X157500000Y-102714285D01*
X157547619Y-102761904D01*
X157642857Y-102809523D01*
X157738095Y-102809523D01*
X157880952Y-102761904D01*
X158452380Y-102190476D01*
X158452380Y-102809523D01*
X157547619Y-103190476D02*
X157500000Y-103238095D01*
X157452380Y-103333333D01*
X157452380Y-103571428D01*
X157500000Y-103666666D01*
X157547619Y-103714285D01*
X157642857Y-103761904D01*
X157738095Y-103761904D01*
X157880952Y-103714285D01*
X158452380Y-103142857D01*
X158452380Y-103761904D01*
G04 #@! TO.C,R23*
X165142857Y-102452380D02*
X165476190Y-101976190D01*
X165714285Y-102452380D02*
X165714285Y-101452380D01*
X165333333Y-101452380D01*
X165238095Y-101500000D01*
X165190476Y-101547619D01*
X165142857Y-101642857D01*
X165142857Y-101785714D01*
X165190476Y-101880952D01*
X165238095Y-101928571D01*
X165333333Y-101976190D01*
X165714285Y-101976190D01*
X164761904Y-101547619D02*
X164714285Y-101500000D01*
X164619047Y-101452380D01*
X164380952Y-101452380D01*
X164285714Y-101500000D01*
X164238095Y-101547619D01*
X164190476Y-101642857D01*
X164190476Y-101738095D01*
X164238095Y-101880952D01*
X164809523Y-102452380D01*
X164190476Y-102452380D01*
X163857142Y-101452380D02*
X163238095Y-101452380D01*
X163571428Y-101833333D01*
X163428571Y-101833333D01*
X163333333Y-101880952D01*
X163285714Y-101928571D01*
X163238095Y-102023809D01*
X163238095Y-102261904D01*
X163285714Y-102357142D01*
X163333333Y-102404761D01*
X163428571Y-102452380D01*
X163714285Y-102452380D01*
X163809523Y-102404761D01*
X163857142Y-102357142D01*
G04 #@! TO.C,R24*
X165142857Y-103952380D02*
X165476190Y-103476190D01*
X165714285Y-103952380D02*
X165714285Y-102952380D01*
X165333333Y-102952380D01*
X165238095Y-103000000D01*
X165190476Y-103047619D01*
X165142857Y-103142857D01*
X165142857Y-103285714D01*
X165190476Y-103380952D01*
X165238095Y-103428571D01*
X165333333Y-103476190D01*
X165714285Y-103476190D01*
X164761904Y-103047619D02*
X164714285Y-103000000D01*
X164619047Y-102952380D01*
X164380952Y-102952380D01*
X164285714Y-103000000D01*
X164238095Y-103047619D01*
X164190476Y-103142857D01*
X164190476Y-103238095D01*
X164238095Y-103380952D01*
X164809523Y-103952380D01*
X164190476Y-103952380D01*
X163333333Y-103285714D02*
X163333333Y-103952380D01*
X163571428Y-102904761D02*
X163809523Y-103619047D01*
X163190476Y-103619047D01*
G04 #@! TO.C,R25*
X162952380Y-101857142D02*
X162476190Y-101523809D01*
X162952380Y-101285714D02*
X161952380Y-101285714D01*
X161952380Y-101666666D01*
X162000000Y-101761904D01*
X162047619Y-101809523D01*
X162142857Y-101857142D01*
X162285714Y-101857142D01*
X162380952Y-101809523D01*
X162428571Y-101761904D01*
X162476190Y-101666666D01*
X162476190Y-101285714D01*
X162047619Y-102238095D02*
X162000000Y-102285714D01*
X161952380Y-102380952D01*
X161952380Y-102619047D01*
X162000000Y-102714285D01*
X162047619Y-102761904D01*
X162142857Y-102809523D01*
X162238095Y-102809523D01*
X162380952Y-102761904D01*
X162952380Y-102190476D01*
X162952380Y-102809523D01*
X161952380Y-103714285D02*
X161952380Y-103238095D01*
X162428571Y-103190476D01*
X162380952Y-103238095D01*
X162333333Y-103333333D01*
X162333333Y-103571428D01*
X162380952Y-103666666D01*
X162428571Y-103714285D01*
X162523809Y-103761904D01*
X162761904Y-103761904D01*
X162857142Y-103714285D01*
X162904761Y-103666666D01*
X162952380Y-103571428D01*
X162952380Y-103333333D01*
X162904761Y-103238095D01*
X162857142Y-103190476D01*
G04 #@! TO.C,R26*
X161452380Y-101857142D02*
X160976190Y-101523809D01*
X161452380Y-101285714D02*
X160452380Y-101285714D01*
X160452380Y-101666666D01*
X160500000Y-101761904D01*
X160547619Y-101809523D01*
X160642857Y-101857142D01*
X160785714Y-101857142D01*
X160880952Y-101809523D01*
X160928571Y-101761904D01*
X160976190Y-101666666D01*
X160976190Y-101285714D01*
X160547619Y-102238095D02*
X160500000Y-102285714D01*
X160452380Y-102380952D01*
X160452380Y-102619047D01*
X160500000Y-102714285D01*
X160547619Y-102761904D01*
X160642857Y-102809523D01*
X160738095Y-102809523D01*
X160880952Y-102761904D01*
X161452380Y-102190476D01*
X161452380Y-102809523D01*
X160452380Y-103666666D02*
X160452380Y-103476190D01*
X160500000Y-103380952D01*
X160547619Y-103333333D01*
X160690476Y-103238095D01*
X160880952Y-103190476D01*
X161261904Y-103190476D01*
X161357142Y-103238095D01*
X161404761Y-103285714D01*
X161452380Y-103380952D01*
X161452380Y-103571428D01*
X161404761Y-103666666D01*
X161357142Y-103714285D01*
X161261904Y-103761904D01*
X161023809Y-103761904D01*
X160928571Y-103714285D01*
X160880952Y-103666666D01*
X160833333Y-103571428D01*
X160833333Y-103380952D01*
X160880952Y-103285714D01*
X160928571Y-103238095D01*
X161023809Y-103190476D01*
G04 #@! TO.C,R27*
X144952380Y-105857142D02*
X144476190Y-105523809D01*
X144952380Y-105285714D02*
X143952380Y-105285714D01*
X143952380Y-105666666D01*
X144000000Y-105761904D01*
X144047619Y-105809523D01*
X144142857Y-105857142D01*
X144285714Y-105857142D01*
X144380952Y-105809523D01*
X144428571Y-105761904D01*
X144476190Y-105666666D01*
X144476190Y-105285714D01*
X144047619Y-106238095D02*
X144000000Y-106285714D01*
X143952380Y-106380952D01*
X143952380Y-106619047D01*
X144000000Y-106714285D01*
X144047619Y-106761904D01*
X144142857Y-106809523D01*
X144238095Y-106809523D01*
X144380952Y-106761904D01*
X144952380Y-106190476D01*
X144952380Y-106809523D01*
X143952380Y-107142857D02*
X143952380Y-107809523D01*
X144952380Y-107380952D01*
G04 #@! TO.C,R28*
X144952380Y-101857142D02*
X144476190Y-101523809D01*
X144952380Y-101285714D02*
X143952380Y-101285714D01*
X143952380Y-101666666D01*
X144000000Y-101761904D01*
X144047619Y-101809523D01*
X144142857Y-101857142D01*
X144285714Y-101857142D01*
X144380952Y-101809523D01*
X144428571Y-101761904D01*
X144476190Y-101666666D01*
X144476190Y-101285714D01*
X144047619Y-102238095D02*
X144000000Y-102285714D01*
X143952380Y-102380952D01*
X143952380Y-102619047D01*
X144000000Y-102714285D01*
X144047619Y-102761904D01*
X144142857Y-102809523D01*
X144238095Y-102809523D01*
X144380952Y-102761904D01*
X144952380Y-102190476D01*
X144952380Y-102809523D01*
X144380952Y-103380952D02*
X144333333Y-103285714D01*
X144285714Y-103238095D01*
X144190476Y-103190476D01*
X144142857Y-103190476D01*
X144047619Y-103238095D01*
X144000000Y-103285714D01*
X143952380Y-103380952D01*
X143952380Y-103571428D01*
X144000000Y-103666666D01*
X144047619Y-103714285D01*
X144142857Y-103761904D01*
X144190476Y-103761904D01*
X144285714Y-103714285D01*
X144333333Y-103666666D01*
X144380952Y-103571428D01*
X144380952Y-103380952D01*
X144428571Y-103285714D01*
X144476190Y-103238095D01*
X144571428Y-103190476D01*
X144761904Y-103190476D01*
X144857142Y-103238095D01*
X144904761Y-103285714D01*
X144952380Y-103380952D01*
X144952380Y-103571428D01*
X144904761Y-103666666D01*
X144857142Y-103714285D01*
X144761904Y-103761904D01*
X144571428Y-103761904D01*
X144476190Y-103714285D01*
X144428571Y-103666666D01*
X144380952Y-103571428D01*
G04 #@! TO.C,C7*
X156166666Y-105857142D02*
X156214285Y-105904761D01*
X156357142Y-105952380D01*
X156452380Y-105952380D01*
X156595238Y-105904761D01*
X156690476Y-105809523D01*
X156738095Y-105714285D01*
X156785714Y-105523809D01*
X156785714Y-105380952D01*
X156738095Y-105190476D01*
X156690476Y-105095238D01*
X156595238Y-105000000D01*
X156452380Y-104952380D01*
X156357142Y-104952380D01*
X156214285Y-105000000D01*
X156166666Y-105047619D01*
X155833333Y-104952380D02*
X155166666Y-104952380D01*
X155595238Y-105952380D01*
G04 #@! TO.C,C8*
X156166666Y-103857142D02*
X156214285Y-103904761D01*
X156357142Y-103952380D01*
X156452380Y-103952380D01*
X156595238Y-103904761D01*
X156690476Y-103809523D01*
X156738095Y-103714285D01*
X156785714Y-103523809D01*
X156785714Y-103380952D01*
X156738095Y-103190476D01*
X156690476Y-103095238D01*
X156595238Y-103000000D01*
X156452380Y-102952380D01*
X156357142Y-102952380D01*
X156214285Y-103000000D01*
X156166666Y-103047619D01*
X155595238Y-103380952D02*
X155690476Y-103333333D01*
X155738095Y-103285714D01*
X155785714Y-103190476D01*
X155785714Y-103142857D01*
X155738095Y-103047619D01*
X155690476Y-103000000D01*
X155595238Y-102952380D01*
X155404761Y-102952380D01*
X155309523Y-103000000D01*
X155261904Y-103047619D01*
X155214285Y-103142857D01*
X155214285Y-103190476D01*
X155261904Y-103285714D01*
X155309523Y-103333333D01*
X155404761Y-103380952D01*
X155595238Y-103380952D01*
X155690476Y-103428571D01*
X155738095Y-103476190D01*
X155785714Y-103571428D01*
X155785714Y-103761904D01*
X155738095Y-103857142D01*
X155690476Y-103904761D01*
X155595238Y-103952380D01*
X155404761Y-103952380D01*
X155309523Y-103904761D01*
X155261904Y-103857142D01*
X155214285Y-103761904D01*
X155214285Y-103571428D01*
X155261904Y-103476190D01*
X155309523Y-103428571D01*
X155404761Y-103380952D01*
G04 #@! TD*
M02*
