G04 #@! TF.GenerationSoftware,KiCad,Pcbnew,(5.0.1)-rc2*
G04 #@! TF.CreationDate,2019-04-28T00:00:37+02:00*
G04 #@! TF.ProjectId,RIAA,524941412E6B696361645F7063620000,rev?*
G04 #@! TF.SameCoordinates,Original*
G04 #@! TF.FileFunction,Copper,L1,Top,Signal*
G04 #@! TF.FilePolarity,Positive*
%FSLAX46Y46*%
G04 Gerber Fmt 4.6, Leading zero omitted, Abs format (unit mm)*
G04 Created by KiCad (PCBNEW (5.0.1)-rc2) date 28-04-2019 00:00:37*
%MOMM*%
%LPD*%
G01*
G04 APERTURE LIST*
G04 #@! TA.AperFunction,ComponentPad*
%ADD10C,1.600000*%
G04 #@! TD*
G04 #@! TA.AperFunction,ComponentPad*
%ADD11R,1.600000X1.600000*%
G04 #@! TD*
G04 #@! TA.AperFunction,ComponentPad*
%ADD12C,6.400000*%
G04 #@! TD*
G04 #@! TA.AperFunction,ComponentPad*
%ADD13C,6.440000*%
G04 #@! TD*
G04 #@! TA.AperFunction,ComponentPad*
%ADD14O,1.600000X1.600000*%
G04 #@! TD*
G04 #@! TA.AperFunction,Conductor*
%ADD15C,0.100000*%
G04 #@! TD*
G04 #@! TA.AperFunction,ComponentPad*
%ADD16C,2.000000*%
G04 #@! TD*
G04 #@! TA.AperFunction,ComponentPad*
%ADD17C,2.100000*%
G04 #@! TD*
G04 #@! TA.AperFunction,ComponentPad*
%ADD18R,2.000000X3.400000*%
G04 #@! TD*
G04 #@! TA.AperFunction,ComponentPad*
%ADD19C,1.200000*%
G04 #@! TD*
G04 #@! TA.AperFunction,ComponentPad*
%ADD20O,1.200000X1.750000*%
G04 #@! TD*
G04 #@! TA.AperFunction,ComponentPad*
%ADD21O,1.750000X1.200000*%
G04 #@! TD*
G04 #@! TA.AperFunction,ViaPad*
%ADD22C,0.600000*%
G04 #@! TD*
G04 #@! TA.AperFunction,Conductor*
%ADD23C,1.000000*%
G04 #@! TD*
G04 #@! TA.AperFunction,Conductor*
%ADD24C,0.400000*%
G04 #@! TD*
G04 #@! TA.AperFunction,Conductor*
%ADD25C,0.200000*%
G04 #@! TD*
G04 APERTURE END LIST*
D10*
G04 #@! TO.P,C3,2*
G04 #@! TO.N,-15V*
X170500000Y-91500000D03*
D11*
G04 #@! TO.P,C3,1*
G04 #@! TO.N,GNDA*
X170500000Y-93500000D03*
G04 #@! TD*
D12*
G04 #@! TO.P,PCB1,1*
G04 #@! TO.N,GNDA*
X128500000Y-90000000D03*
G04 #@! TO.P,PCB1,2*
X128500000Y-119000000D03*
D13*
G04 #@! TO.P,PCB1,3*
X180500000Y-119000000D03*
D12*
G04 #@! TO.P,PCB1,4*
X180500000Y-90000000D03*
G04 #@! TD*
D14*
G04 #@! TO.P,U1,8*
G04 #@! TO.N,N/C*
X142500000Y-117120000D03*
G04 #@! TO.P,U1,4*
G04 #@! TO.N,-15V*
X134880000Y-109500000D03*
G04 #@! TO.P,U1,7*
G04 #@! TO.N,+15V*
X139960000Y-117120000D03*
G04 #@! TO.P,U1,3*
G04 #@! TO.N,/RIAA_R/In*
X137420000Y-109500000D03*
G04 #@! TO.P,U1,6*
G04 #@! TO.N,Net-(C6-Pad1)*
X137420000Y-117120000D03*
G04 #@! TO.P,U1,2*
G04 #@! TO.N,Net-(C6-Pad2)*
X139960000Y-109500000D03*
G04 #@! TO.P,U1,5*
G04 #@! TO.N,N/C*
X134880000Y-117120000D03*
D11*
G04 #@! TO.P,U1,1*
X142500000Y-109500000D03*
G04 #@! TD*
D14*
G04 #@! TO.P,U2,8*
G04 #@! TO.N,N/C*
X154000000Y-117120000D03*
G04 #@! TO.P,U2,4*
G04 #@! TO.N,-15V*
X146380000Y-109500000D03*
G04 #@! TO.P,U2,7*
G04 #@! TO.N,+15V*
X151460000Y-117120000D03*
G04 #@! TO.P,U2,3*
G04 #@! TO.N,Net-(C12-Pad1)*
X148920000Y-109500000D03*
G04 #@! TO.P,U2,6*
G04 #@! TO.N,Net-(C7-Pad2)*
X148920000Y-117120000D03*
G04 #@! TO.P,U2,2*
G04 #@! TO.N,Net-(R6-Pad1)*
X151460000Y-109500000D03*
G04 #@! TO.P,U2,5*
G04 #@! TO.N,N/C*
X146380000Y-117120000D03*
D11*
G04 #@! TO.P,U2,1*
X154000000Y-109500000D03*
G04 #@! TD*
G04 #@! TO.P,U3,1*
G04 #@! TO.N,N/C*
X165500000Y-109500000D03*
D14*
G04 #@! TO.P,U3,5*
X157880000Y-117120000D03*
G04 #@! TO.P,U3,2*
G04 #@! TO.N,Net-(C17-Pad2)*
X162960000Y-109500000D03*
G04 #@! TO.P,U3,6*
G04 #@! TO.N,/RIAA_R/Out*
X160420000Y-117120000D03*
G04 #@! TO.P,U3,3*
G04 #@! TO.N,GNDA*
X160420000Y-109500000D03*
G04 #@! TO.P,U3,7*
G04 #@! TO.N,+15V*
X162960000Y-117120000D03*
G04 #@! TO.P,U3,4*
G04 #@! TO.N,-15V*
X157880000Y-109500000D03*
G04 #@! TO.P,U3,8*
G04 #@! TO.N,N/C*
X165500000Y-117120000D03*
G04 #@! TD*
D11*
G04 #@! TO.P,U4,1*
G04 #@! TO.N,N/C*
X142500000Y-92000000D03*
D14*
G04 #@! TO.P,U4,5*
X134880000Y-99620000D03*
G04 #@! TO.P,U4,2*
G04 #@! TO.N,Net-(C24-Pad2)*
X139960000Y-92000000D03*
G04 #@! TO.P,U4,6*
G04 #@! TO.N,Net-(C24-Pad1)*
X137420000Y-99620000D03*
G04 #@! TO.P,U4,3*
G04 #@! TO.N,/RIAA_L/In*
X137420000Y-92000000D03*
G04 #@! TO.P,U4,7*
G04 #@! TO.N,+15V*
X139960000Y-99620000D03*
G04 #@! TO.P,U4,4*
G04 #@! TO.N,-15V*
X134880000Y-92000000D03*
G04 #@! TO.P,U4,8*
G04 #@! TO.N,N/C*
X142500000Y-99620000D03*
G04 #@! TD*
D10*
G04 #@! TO.P,C2,2*
G04 #@! TO.N,GNDA*
X170500000Y-98000000D03*
D11*
G04 #@! TO.P,C2,1*
G04 #@! TO.N,+15V*
X170500000Y-100000000D03*
G04 #@! TD*
D15*
G04 #@! TO.N,GNDA*
G04 #@! TO.C,J1*
G36*
X131749009Y-92052408D02*
X131797545Y-92059607D01*
X131845142Y-92071530D01*
X131891342Y-92088060D01*
X131935698Y-92109039D01*
X131977785Y-92134265D01*
X132017197Y-92163495D01*
X132053553Y-92196447D01*
X132086505Y-92232803D01*
X132115735Y-92272215D01*
X132140961Y-92314302D01*
X132161940Y-92358658D01*
X132178470Y-92404858D01*
X132190393Y-92452455D01*
X132197592Y-92500991D01*
X132200000Y-92550000D01*
X132200000Y-93550000D01*
X132197592Y-93599009D01*
X132190393Y-93647545D01*
X132178470Y-93695142D01*
X132161940Y-93741342D01*
X132140961Y-93785698D01*
X132115735Y-93827785D01*
X132086505Y-93867197D01*
X132053553Y-93903553D01*
X132017197Y-93936505D01*
X131977785Y-93965735D01*
X131935698Y-93990961D01*
X131891342Y-94011940D01*
X131845142Y-94028470D01*
X131797545Y-94040393D01*
X131749009Y-94047592D01*
X131700000Y-94050000D01*
X129300000Y-94050000D01*
X129250991Y-94047592D01*
X129202455Y-94040393D01*
X129154858Y-94028470D01*
X129108658Y-94011940D01*
X129064302Y-93990961D01*
X129022215Y-93965735D01*
X128982803Y-93936505D01*
X128946447Y-93903553D01*
X128913495Y-93867197D01*
X128884265Y-93827785D01*
X128859039Y-93785698D01*
X128838060Y-93741342D01*
X128821530Y-93695142D01*
X128809607Y-93647545D01*
X128802408Y-93599009D01*
X128800000Y-93550000D01*
X128800000Y-92550000D01*
X128802408Y-92500991D01*
X128809607Y-92452455D01*
X128821530Y-92404858D01*
X128838060Y-92358658D01*
X128859039Y-92314302D01*
X128884265Y-92272215D01*
X128913495Y-92232803D01*
X128946447Y-92196447D01*
X128982803Y-92163495D01*
X129022215Y-92134265D01*
X129064302Y-92109039D01*
X129108658Y-92088060D01*
X129154858Y-92071530D01*
X129202455Y-92059607D01*
X129250991Y-92052408D01*
X129300000Y-92050000D01*
X131700000Y-92050000D01*
X131749009Y-92052408D01*
X131749009Y-92052408D01*
G37*
D16*
G04 #@! TD*
G04 #@! TO.P,J1,S*
G04 #@! TO.N,GNDA*
X130500000Y-93050000D03*
D17*
G04 #@! TO.P,J1,T*
G04 #@! TO.N,/RIAA_L/In*
X130500000Y-98000000D03*
D15*
G04 #@! TD*
G04 #@! TO.N,GNDA*
G04 #@! TO.C,J1*
G36*
X131749009Y-101952408D02*
X131797545Y-101959607D01*
X131845142Y-101971530D01*
X131891342Y-101988060D01*
X131935698Y-102009039D01*
X131977785Y-102034265D01*
X132017197Y-102063495D01*
X132053553Y-102096447D01*
X132086505Y-102132803D01*
X132115735Y-102172215D01*
X132140961Y-102214302D01*
X132161940Y-102258658D01*
X132178470Y-102304858D01*
X132190393Y-102352455D01*
X132197592Y-102400991D01*
X132200000Y-102450000D01*
X132200000Y-103450000D01*
X132197592Y-103499009D01*
X132190393Y-103547545D01*
X132178470Y-103595142D01*
X132161940Y-103641342D01*
X132140961Y-103685698D01*
X132115735Y-103727785D01*
X132086505Y-103767197D01*
X132053553Y-103803553D01*
X132017197Y-103836505D01*
X131977785Y-103865735D01*
X131935698Y-103890961D01*
X131891342Y-103911940D01*
X131845142Y-103928470D01*
X131797545Y-103940393D01*
X131749009Y-103947592D01*
X131700000Y-103950000D01*
X129300000Y-103950000D01*
X129250991Y-103947592D01*
X129202455Y-103940393D01*
X129154858Y-103928470D01*
X129108658Y-103911940D01*
X129064302Y-103890961D01*
X129022215Y-103865735D01*
X128982803Y-103836505D01*
X128946447Y-103803553D01*
X128913495Y-103767197D01*
X128884265Y-103727785D01*
X128859039Y-103685698D01*
X128838060Y-103641342D01*
X128821530Y-103595142D01*
X128809607Y-103547545D01*
X128802408Y-103499009D01*
X128800000Y-103450000D01*
X128800000Y-102450000D01*
X128802408Y-102400991D01*
X128809607Y-102352455D01*
X128821530Y-102304858D01*
X128838060Y-102258658D01*
X128859039Y-102214302D01*
X128884265Y-102172215D01*
X128913495Y-102132803D01*
X128946447Y-102096447D01*
X128982803Y-102063495D01*
X129022215Y-102034265D01*
X129064302Y-102009039D01*
X129108658Y-101988060D01*
X129154858Y-101971530D01*
X129202455Y-101959607D01*
X129250991Y-101952408D01*
X129300000Y-101950000D01*
X131700000Y-101950000D01*
X131749009Y-101952408D01*
X131749009Y-101952408D01*
G37*
D16*
G04 #@! TO.P,J1,S*
G04 #@! TO.N,GNDA*
X130500000Y-102950000D03*
D18*
X125500000Y-98000000D03*
G04 #@! TD*
G04 #@! TO.P,J2,S*
G04 #@! TO.N,GNDA*
X125500000Y-111000000D03*
D15*
G04 #@! TD*
G04 #@! TO.N,GNDA*
G04 #@! TO.C,J2*
G36*
X131749009Y-114952408D02*
X131797545Y-114959607D01*
X131845142Y-114971530D01*
X131891342Y-114988060D01*
X131935698Y-115009039D01*
X131977785Y-115034265D01*
X132017197Y-115063495D01*
X132053553Y-115096447D01*
X132086505Y-115132803D01*
X132115735Y-115172215D01*
X132140961Y-115214302D01*
X132161940Y-115258658D01*
X132178470Y-115304858D01*
X132190393Y-115352455D01*
X132197592Y-115400991D01*
X132200000Y-115450000D01*
X132200000Y-116450000D01*
X132197592Y-116499009D01*
X132190393Y-116547545D01*
X132178470Y-116595142D01*
X132161940Y-116641342D01*
X132140961Y-116685698D01*
X132115735Y-116727785D01*
X132086505Y-116767197D01*
X132053553Y-116803553D01*
X132017197Y-116836505D01*
X131977785Y-116865735D01*
X131935698Y-116890961D01*
X131891342Y-116911940D01*
X131845142Y-116928470D01*
X131797545Y-116940393D01*
X131749009Y-116947592D01*
X131700000Y-116950000D01*
X129300000Y-116950000D01*
X129250991Y-116947592D01*
X129202455Y-116940393D01*
X129154858Y-116928470D01*
X129108658Y-116911940D01*
X129064302Y-116890961D01*
X129022215Y-116865735D01*
X128982803Y-116836505D01*
X128946447Y-116803553D01*
X128913495Y-116767197D01*
X128884265Y-116727785D01*
X128859039Y-116685698D01*
X128838060Y-116641342D01*
X128821530Y-116595142D01*
X128809607Y-116547545D01*
X128802408Y-116499009D01*
X128800000Y-116450000D01*
X128800000Y-115450000D01*
X128802408Y-115400991D01*
X128809607Y-115352455D01*
X128821530Y-115304858D01*
X128838060Y-115258658D01*
X128859039Y-115214302D01*
X128884265Y-115172215D01*
X128913495Y-115132803D01*
X128946447Y-115096447D01*
X128982803Y-115063495D01*
X129022215Y-115034265D01*
X129064302Y-115009039D01*
X129108658Y-114988060D01*
X129154858Y-114971530D01*
X129202455Y-114959607D01*
X129250991Y-114952408D01*
X129300000Y-114950000D01*
X131700000Y-114950000D01*
X131749009Y-114952408D01*
X131749009Y-114952408D01*
G37*
D16*
G04 #@! TO.P,J2,S*
G04 #@! TO.N,GNDA*
X130500000Y-115950000D03*
D17*
G04 #@! TO.P,J2,T*
G04 #@! TO.N,/RIAA_R/In*
X130500000Y-111000000D03*
D15*
G04 #@! TD*
G04 #@! TO.N,GNDA*
G04 #@! TO.C,J2*
G36*
X131749009Y-105052408D02*
X131797545Y-105059607D01*
X131845142Y-105071530D01*
X131891342Y-105088060D01*
X131935698Y-105109039D01*
X131977785Y-105134265D01*
X132017197Y-105163495D01*
X132053553Y-105196447D01*
X132086505Y-105232803D01*
X132115735Y-105272215D01*
X132140961Y-105314302D01*
X132161940Y-105358658D01*
X132178470Y-105404858D01*
X132190393Y-105452455D01*
X132197592Y-105500991D01*
X132200000Y-105550000D01*
X132200000Y-106550000D01*
X132197592Y-106599009D01*
X132190393Y-106647545D01*
X132178470Y-106695142D01*
X132161940Y-106741342D01*
X132140961Y-106785698D01*
X132115735Y-106827785D01*
X132086505Y-106867197D01*
X132053553Y-106903553D01*
X132017197Y-106936505D01*
X131977785Y-106965735D01*
X131935698Y-106990961D01*
X131891342Y-107011940D01*
X131845142Y-107028470D01*
X131797545Y-107040393D01*
X131749009Y-107047592D01*
X131700000Y-107050000D01*
X129300000Y-107050000D01*
X129250991Y-107047592D01*
X129202455Y-107040393D01*
X129154858Y-107028470D01*
X129108658Y-107011940D01*
X129064302Y-106990961D01*
X129022215Y-106965735D01*
X128982803Y-106936505D01*
X128946447Y-106903553D01*
X128913495Y-106867197D01*
X128884265Y-106827785D01*
X128859039Y-106785698D01*
X128838060Y-106741342D01*
X128821530Y-106695142D01*
X128809607Y-106647545D01*
X128802408Y-106599009D01*
X128800000Y-106550000D01*
X128800000Y-105550000D01*
X128802408Y-105500991D01*
X128809607Y-105452455D01*
X128821530Y-105404858D01*
X128838060Y-105358658D01*
X128859039Y-105314302D01*
X128884265Y-105272215D01*
X128913495Y-105232803D01*
X128946447Y-105196447D01*
X128982803Y-105163495D01*
X129022215Y-105134265D01*
X129064302Y-105109039D01*
X129108658Y-105088060D01*
X129154858Y-105071530D01*
X129202455Y-105059607D01*
X129250991Y-105052408D01*
X129300000Y-105050000D01*
X131700000Y-105050000D01*
X131749009Y-105052408D01*
X131749009Y-105052408D01*
G37*
D16*
G04 #@! TO.P,J2,S*
G04 #@! TO.N,GNDA*
X130500000Y-106050000D03*
G04 #@! TD*
D18*
G04 #@! TO.P,J4,S*
G04 #@! TO.N,GNDA*
X183500000Y-98000000D03*
D15*
G04 #@! TD*
G04 #@! TO.N,GNDA*
G04 #@! TO.C,J4*
G36*
X179749009Y-92052408D02*
X179797545Y-92059607D01*
X179845142Y-92071530D01*
X179891342Y-92088060D01*
X179935698Y-92109039D01*
X179977785Y-92134265D01*
X180017197Y-92163495D01*
X180053553Y-92196447D01*
X180086505Y-92232803D01*
X180115735Y-92272215D01*
X180140961Y-92314302D01*
X180161940Y-92358658D01*
X180178470Y-92404858D01*
X180190393Y-92452455D01*
X180197592Y-92500991D01*
X180200000Y-92550000D01*
X180200000Y-93550000D01*
X180197592Y-93599009D01*
X180190393Y-93647545D01*
X180178470Y-93695142D01*
X180161940Y-93741342D01*
X180140961Y-93785698D01*
X180115735Y-93827785D01*
X180086505Y-93867197D01*
X180053553Y-93903553D01*
X180017197Y-93936505D01*
X179977785Y-93965735D01*
X179935698Y-93990961D01*
X179891342Y-94011940D01*
X179845142Y-94028470D01*
X179797545Y-94040393D01*
X179749009Y-94047592D01*
X179700000Y-94050000D01*
X177300000Y-94050000D01*
X177250991Y-94047592D01*
X177202455Y-94040393D01*
X177154858Y-94028470D01*
X177108658Y-94011940D01*
X177064302Y-93990961D01*
X177022215Y-93965735D01*
X176982803Y-93936505D01*
X176946447Y-93903553D01*
X176913495Y-93867197D01*
X176884265Y-93827785D01*
X176859039Y-93785698D01*
X176838060Y-93741342D01*
X176821530Y-93695142D01*
X176809607Y-93647545D01*
X176802408Y-93599009D01*
X176800000Y-93550000D01*
X176800000Y-92550000D01*
X176802408Y-92500991D01*
X176809607Y-92452455D01*
X176821530Y-92404858D01*
X176838060Y-92358658D01*
X176859039Y-92314302D01*
X176884265Y-92272215D01*
X176913495Y-92232803D01*
X176946447Y-92196447D01*
X176982803Y-92163495D01*
X177022215Y-92134265D01*
X177064302Y-92109039D01*
X177108658Y-92088060D01*
X177154858Y-92071530D01*
X177202455Y-92059607D01*
X177250991Y-92052408D01*
X177300000Y-92050000D01*
X179700000Y-92050000D01*
X179749009Y-92052408D01*
X179749009Y-92052408D01*
G37*
D16*
G04 #@! TO.P,J4,S*
G04 #@! TO.N,GNDA*
X178500000Y-93050000D03*
D17*
G04 #@! TO.P,J4,T*
G04 #@! TO.N,/RIAA_L/Out*
X178500000Y-98000000D03*
D15*
G04 #@! TD*
G04 #@! TO.N,GNDA*
G04 #@! TO.C,J4*
G36*
X179749009Y-101952408D02*
X179797545Y-101959607D01*
X179845142Y-101971530D01*
X179891342Y-101988060D01*
X179935698Y-102009039D01*
X179977785Y-102034265D01*
X180017197Y-102063495D01*
X180053553Y-102096447D01*
X180086505Y-102132803D01*
X180115735Y-102172215D01*
X180140961Y-102214302D01*
X180161940Y-102258658D01*
X180178470Y-102304858D01*
X180190393Y-102352455D01*
X180197592Y-102400991D01*
X180200000Y-102450000D01*
X180200000Y-103450000D01*
X180197592Y-103499009D01*
X180190393Y-103547545D01*
X180178470Y-103595142D01*
X180161940Y-103641342D01*
X180140961Y-103685698D01*
X180115735Y-103727785D01*
X180086505Y-103767197D01*
X180053553Y-103803553D01*
X180017197Y-103836505D01*
X179977785Y-103865735D01*
X179935698Y-103890961D01*
X179891342Y-103911940D01*
X179845142Y-103928470D01*
X179797545Y-103940393D01*
X179749009Y-103947592D01*
X179700000Y-103950000D01*
X177300000Y-103950000D01*
X177250991Y-103947592D01*
X177202455Y-103940393D01*
X177154858Y-103928470D01*
X177108658Y-103911940D01*
X177064302Y-103890961D01*
X177022215Y-103865735D01*
X176982803Y-103836505D01*
X176946447Y-103803553D01*
X176913495Y-103767197D01*
X176884265Y-103727785D01*
X176859039Y-103685698D01*
X176838060Y-103641342D01*
X176821530Y-103595142D01*
X176809607Y-103547545D01*
X176802408Y-103499009D01*
X176800000Y-103450000D01*
X176800000Y-102450000D01*
X176802408Y-102400991D01*
X176809607Y-102352455D01*
X176821530Y-102304858D01*
X176838060Y-102258658D01*
X176859039Y-102214302D01*
X176884265Y-102172215D01*
X176913495Y-102132803D01*
X176946447Y-102096447D01*
X176982803Y-102063495D01*
X177022215Y-102034265D01*
X177064302Y-102009039D01*
X177108658Y-101988060D01*
X177154858Y-101971530D01*
X177202455Y-101959607D01*
X177250991Y-101952408D01*
X177300000Y-101950000D01*
X179700000Y-101950000D01*
X179749009Y-101952408D01*
X179749009Y-101952408D01*
G37*
D16*
G04 #@! TO.P,J4,S*
G04 #@! TO.N,GNDA*
X178500000Y-102950000D03*
G04 #@! TD*
D11*
G04 #@! TO.P,C20,1*
G04 #@! TO.N,+15V*
X170500000Y-117500000D03*
D10*
G04 #@! TO.P,C20,2*
G04 #@! TO.N,GNDA*
X170500000Y-115500000D03*
G04 #@! TD*
D11*
G04 #@! TO.P,C21,1*
G04 #@! TO.N,GNDA*
X170500000Y-111000000D03*
D10*
G04 #@! TO.P,C21,2*
G04 #@! TO.N,-15V*
X170500000Y-109000000D03*
G04 #@! TD*
D15*
G04 #@! TO.N,GNDA*
G04 #@! TO.C,J5*
G36*
X179749009Y-114952408D02*
X179797545Y-114959607D01*
X179845142Y-114971530D01*
X179891342Y-114988060D01*
X179935698Y-115009039D01*
X179977785Y-115034265D01*
X180017197Y-115063495D01*
X180053553Y-115096447D01*
X180086505Y-115132803D01*
X180115735Y-115172215D01*
X180140961Y-115214302D01*
X180161940Y-115258658D01*
X180178470Y-115304858D01*
X180190393Y-115352455D01*
X180197592Y-115400991D01*
X180200000Y-115450000D01*
X180200000Y-116450000D01*
X180197592Y-116499009D01*
X180190393Y-116547545D01*
X180178470Y-116595142D01*
X180161940Y-116641342D01*
X180140961Y-116685698D01*
X180115735Y-116727785D01*
X180086505Y-116767197D01*
X180053553Y-116803553D01*
X180017197Y-116836505D01*
X179977785Y-116865735D01*
X179935698Y-116890961D01*
X179891342Y-116911940D01*
X179845142Y-116928470D01*
X179797545Y-116940393D01*
X179749009Y-116947592D01*
X179700000Y-116950000D01*
X177300000Y-116950000D01*
X177250991Y-116947592D01*
X177202455Y-116940393D01*
X177154858Y-116928470D01*
X177108658Y-116911940D01*
X177064302Y-116890961D01*
X177022215Y-116865735D01*
X176982803Y-116836505D01*
X176946447Y-116803553D01*
X176913495Y-116767197D01*
X176884265Y-116727785D01*
X176859039Y-116685698D01*
X176838060Y-116641342D01*
X176821530Y-116595142D01*
X176809607Y-116547545D01*
X176802408Y-116499009D01*
X176800000Y-116450000D01*
X176800000Y-115450000D01*
X176802408Y-115400991D01*
X176809607Y-115352455D01*
X176821530Y-115304858D01*
X176838060Y-115258658D01*
X176859039Y-115214302D01*
X176884265Y-115172215D01*
X176913495Y-115132803D01*
X176946447Y-115096447D01*
X176982803Y-115063495D01*
X177022215Y-115034265D01*
X177064302Y-115009039D01*
X177108658Y-114988060D01*
X177154858Y-114971530D01*
X177202455Y-114959607D01*
X177250991Y-114952408D01*
X177300000Y-114950000D01*
X179700000Y-114950000D01*
X179749009Y-114952408D01*
X179749009Y-114952408D01*
G37*
D16*
G04 #@! TD*
G04 #@! TO.P,J5,S*
G04 #@! TO.N,GNDA*
X178500000Y-115950000D03*
D17*
G04 #@! TO.P,J5,T*
G04 #@! TO.N,/RIAA_R/Out*
X178500000Y-111000000D03*
D15*
G04 #@! TD*
G04 #@! TO.N,GNDA*
G04 #@! TO.C,J5*
G36*
X179749009Y-105052408D02*
X179797545Y-105059607D01*
X179845142Y-105071530D01*
X179891342Y-105088060D01*
X179935698Y-105109039D01*
X179977785Y-105134265D01*
X180017197Y-105163495D01*
X180053553Y-105196447D01*
X180086505Y-105232803D01*
X180115735Y-105272215D01*
X180140961Y-105314302D01*
X180161940Y-105358658D01*
X180178470Y-105404858D01*
X180190393Y-105452455D01*
X180197592Y-105500991D01*
X180200000Y-105550000D01*
X180200000Y-106550000D01*
X180197592Y-106599009D01*
X180190393Y-106647545D01*
X180178470Y-106695142D01*
X180161940Y-106741342D01*
X180140961Y-106785698D01*
X180115735Y-106827785D01*
X180086505Y-106867197D01*
X180053553Y-106903553D01*
X180017197Y-106936505D01*
X179977785Y-106965735D01*
X179935698Y-106990961D01*
X179891342Y-107011940D01*
X179845142Y-107028470D01*
X179797545Y-107040393D01*
X179749009Y-107047592D01*
X179700000Y-107050000D01*
X177300000Y-107050000D01*
X177250991Y-107047592D01*
X177202455Y-107040393D01*
X177154858Y-107028470D01*
X177108658Y-107011940D01*
X177064302Y-106990961D01*
X177022215Y-106965735D01*
X176982803Y-106936505D01*
X176946447Y-106903553D01*
X176913495Y-106867197D01*
X176884265Y-106827785D01*
X176859039Y-106785698D01*
X176838060Y-106741342D01*
X176821530Y-106695142D01*
X176809607Y-106647545D01*
X176802408Y-106599009D01*
X176800000Y-106550000D01*
X176800000Y-105550000D01*
X176802408Y-105500991D01*
X176809607Y-105452455D01*
X176821530Y-105404858D01*
X176838060Y-105358658D01*
X176859039Y-105314302D01*
X176884265Y-105272215D01*
X176913495Y-105232803D01*
X176946447Y-105196447D01*
X176982803Y-105163495D01*
X177022215Y-105134265D01*
X177064302Y-105109039D01*
X177108658Y-105088060D01*
X177154858Y-105071530D01*
X177202455Y-105059607D01*
X177250991Y-105052408D01*
X177300000Y-105050000D01*
X179700000Y-105050000D01*
X179749009Y-105052408D01*
X179749009Y-105052408D01*
G37*
D16*
G04 #@! TO.P,J5,S*
G04 #@! TO.N,GNDA*
X178500000Y-106050000D03*
D18*
X183500000Y-111000000D03*
G04 #@! TD*
D11*
G04 #@! TO.P,U5,1*
G04 #@! TO.N,N/C*
X154000000Y-92000000D03*
D14*
G04 #@! TO.P,U5,5*
X146380000Y-99620000D03*
G04 #@! TO.P,U5,2*
G04 #@! TO.N,Net-(R19-Pad1)*
X151460000Y-92000000D03*
G04 #@! TO.P,U5,6*
G04 #@! TO.N,Net-(C8-Pad2)*
X148920000Y-99620000D03*
G04 #@! TO.P,U5,3*
G04 #@! TO.N,Net-(C30-Pad1)*
X148920000Y-92000000D03*
G04 #@! TO.P,U5,7*
G04 #@! TO.N,+15V*
X151460000Y-99620000D03*
G04 #@! TO.P,U5,4*
G04 #@! TO.N,-15V*
X146380000Y-92000000D03*
G04 #@! TO.P,U5,8*
G04 #@! TO.N,N/C*
X154000000Y-99620000D03*
G04 #@! TD*
G04 #@! TO.P,U6,8*
G04 #@! TO.N,N/C*
X165500000Y-99620000D03*
G04 #@! TO.P,U6,4*
G04 #@! TO.N,-15V*
X157880000Y-92000000D03*
G04 #@! TO.P,U6,7*
G04 #@! TO.N,+15V*
X162960000Y-99620000D03*
G04 #@! TO.P,U6,3*
G04 #@! TO.N,GNDA*
X160420000Y-92000000D03*
G04 #@! TO.P,U6,6*
G04 #@! TO.N,/RIAA_L/Out*
X160420000Y-99620000D03*
G04 #@! TO.P,U6,2*
G04 #@! TO.N,Net-(C35-Pad2)*
X162960000Y-92000000D03*
G04 #@! TO.P,U6,5*
G04 #@! TO.N,N/C*
X157880000Y-99620000D03*
D11*
G04 #@! TO.P,U6,1*
X165500000Y-92000000D03*
G04 #@! TD*
D15*
G04 #@! TO.N,+15V*
G04 #@! TO.C,J3*
G36*
X166874505Y-103126204D02*
X166898773Y-103129804D01*
X166922572Y-103135765D01*
X166945671Y-103144030D01*
X166967850Y-103154520D01*
X166988893Y-103167132D01*
X167008599Y-103181747D01*
X167026777Y-103198223D01*
X167043253Y-103216401D01*
X167057868Y-103236107D01*
X167070480Y-103257150D01*
X167080970Y-103279329D01*
X167089235Y-103302428D01*
X167095196Y-103326227D01*
X167098796Y-103350495D01*
X167100000Y-103374999D01*
X167100000Y-104625001D01*
X167098796Y-104649505D01*
X167095196Y-104673773D01*
X167089235Y-104697572D01*
X167080970Y-104720671D01*
X167070480Y-104742850D01*
X167057868Y-104763893D01*
X167043253Y-104783599D01*
X167026777Y-104801777D01*
X167008599Y-104818253D01*
X166988893Y-104832868D01*
X166967850Y-104845480D01*
X166945671Y-104855970D01*
X166922572Y-104864235D01*
X166898773Y-104870196D01*
X166874505Y-104873796D01*
X166850001Y-104875000D01*
X166149999Y-104875000D01*
X166125495Y-104873796D01*
X166101227Y-104870196D01*
X166077428Y-104864235D01*
X166054329Y-104855970D01*
X166032150Y-104845480D01*
X166011107Y-104832868D01*
X165991401Y-104818253D01*
X165973223Y-104801777D01*
X165956747Y-104783599D01*
X165942132Y-104763893D01*
X165929520Y-104742850D01*
X165919030Y-104720671D01*
X165910765Y-104697572D01*
X165904804Y-104673773D01*
X165901204Y-104649505D01*
X165900000Y-104625001D01*
X165900000Y-103374999D01*
X165901204Y-103350495D01*
X165904804Y-103326227D01*
X165910765Y-103302428D01*
X165919030Y-103279329D01*
X165929520Y-103257150D01*
X165942132Y-103236107D01*
X165956747Y-103216401D01*
X165973223Y-103198223D01*
X165991401Y-103181747D01*
X166011107Y-103167132D01*
X166032150Y-103154520D01*
X166054329Y-103144030D01*
X166077428Y-103135765D01*
X166101227Y-103129804D01*
X166125495Y-103126204D01*
X166149999Y-103125000D01*
X166850001Y-103125000D01*
X166874505Y-103126204D01*
X166874505Y-103126204D01*
G37*
D19*
G04 #@! TD*
G04 #@! TO.P,J3,1*
G04 #@! TO.N,+15V*
X166500000Y-104000000D03*
D20*
G04 #@! TO.P,J3,2*
G04 #@! TO.N,GNDA*
X168500000Y-104000000D03*
G04 #@! TO.P,J3,3*
G04 #@! TO.N,-15V*
X170500000Y-104000000D03*
G04 #@! TD*
D15*
G04 #@! TO.N,/RIAA_R/Out*
G04 #@! TO.C,J6*
G36*
X175649505Y-105901204D02*
X175673773Y-105904804D01*
X175697572Y-105910765D01*
X175720671Y-105919030D01*
X175742850Y-105929520D01*
X175763893Y-105942132D01*
X175783599Y-105956747D01*
X175801777Y-105973223D01*
X175818253Y-105991401D01*
X175832868Y-106011107D01*
X175845480Y-106032150D01*
X175855970Y-106054329D01*
X175864235Y-106077428D01*
X175870196Y-106101227D01*
X175873796Y-106125495D01*
X175875000Y-106149999D01*
X175875000Y-106850001D01*
X175873796Y-106874505D01*
X175870196Y-106898773D01*
X175864235Y-106922572D01*
X175855970Y-106945671D01*
X175845480Y-106967850D01*
X175832868Y-106988893D01*
X175818253Y-107008599D01*
X175801777Y-107026777D01*
X175783599Y-107043253D01*
X175763893Y-107057868D01*
X175742850Y-107070480D01*
X175720671Y-107080970D01*
X175697572Y-107089235D01*
X175673773Y-107095196D01*
X175649505Y-107098796D01*
X175625001Y-107100000D01*
X174374999Y-107100000D01*
X174350495Y-107098796D01*
X174326227Y-107095196D01*
X174302428Y-107089235D01*
X174279329Y-107080970D01*
X174257150Y-107070480D01*
X174236107Y-107057868D01*
X174216401Y-107043253D01*
X174198223Y-107026777D01*
X174181747Y-107008599D01*
X174167132Y-106988893D01*
X174154520Y-106967850D01*
X174144030Y-106945671D01*
X174135765Y-106922572D01*
X174129804Y-106898773D01*
X174126204Y-106874505D01*
X174125000Y-106850001D01*
X174125000Y-106149999D01*
X174126204Y-106125495D01*
X174129804Y-106101227D01*
X174135765Y-106077428D01*
X174144030Y-106054329D01*
X174154520Y-106032150D01*
X174167132Y-106011107D01*
X174181747Y-105991401D01*
X174198223Y-105973223D01*
X174216401Y-105956747D01*
X174236107Y-105942132D01*
X174257150Y-105929520D01*
X174279329Y-105919030D01*
X174302428Y-105910765D01*
X174326227Y-105904804D01*
X174350495Y-105901204D01*
X174374999Y-105900000D01*
X175625001Y-105900000D01*
X175649505Y-105901204D01*
X175649505Y-105901204D01*
G37*
D19*
G04 #@! TD*
G04 #@! TO.P,J6,1*
G04 #@! TO.N,/RIAA_R/Out*
X175000000Y-106500000D03*
D21*
G04 #@! TO.P,J6,2*
G04 #@! TO.N,GNDA*
X175000000Y-104500000D03*
G04 #@! TO.P,J6,3*
G04 #@! TO.N,/RIAA_L/Out*
X175000000Y-102500000D03*
G04 #@! TD*
D22*
G04 #@! TO.N,GNDA*
X152500000Y-122000000D03*
X163000000Y-122000000D03*
X166000000Y-87000000D03*
X163000000Y-87000000D03*
X133000000Y-87000000D03*
X136000000Y-87000000D03*
X134500000Y-87000000D03*
X175000000Y-87000000D03*
X148000000Y-87000000D03*
X155500000Y-87000000D03*
X139000000Y-87000000D03*
X152500000Y-87000000D03*
X172000000Y-87000000D03*
X170500000Y-87000000D03*
X173500000Y-87000000D03*
X167500000Y-87000000D03*
X176500000Y-87000000D03*
X140500000Y-87000000D03*
X158500000Y-87000000D03*
X137500000Y-87000000D03*
X149500000Y-87000000D03*
X169000000Y-87000000D03*
X142000000Y-87000000D03*
X145000000Y-87000000D03*
X146500000Y-87000000D03*
X143500000Y-87000000D03*
X151000000Y-87000000D03*
X154000000Y-87000000D03*
X160000000Y-87000000D03*
X157000000Y-87000000D03*
X161500000Y-87000000D03*
X164500000Y-87000000D03*
X133000000Y-122000000D03*
X134500000Y-122000000D03*
X136000000Y-122000000D03*
X137500000Y-122000000D03*
X139000000Y-122000000D03*
X140500000Y-122000000D03*
X142000000Y-122000000D03*
X143500000Y-122000000D03*
X145000000Y-122000000D03*
X146500000Y-122000000D03*
X148000000Y-122000000D03*
X154000000Y-122000000D03*
X155500000Y-122000000D03*
X157000000Y-122000000D03*
X158500000Y-122000000D03*
X160000000Y-122000000D03*
X161500000Y-122000000D03*
X164500000Y-122000000D03*
X166000000Y-122000000D03*
X167500000Y-122000000D03*
X169000000Y-122000000D03*
X170500000Y-122000000D03*
X172000000Y-122000000D03*
X173500000Y-122000000D03*
X175000000Y-122000000D03*
X176500000Y-122000000D03*
X183500000Y-115500000D03*
X183500000Y-114000000D03*
X183500000Y-107500000D03*
X183500000Y-106000000D03*
X183500000Y-104500000D03*
X183500000Y-103000000D03*
X183500000Y-101500000D03*
X183500000Y-95000000D03*
X183500000Y-93500000D03*
X125500000Y-104500000D03*
X125500000Y-106000000D03*
X125500000Y-107500000D03*
X125500000Y-103000000D03*
X125500000Y-101500000D03*
X125500000Y-114000000D03*
X125500000Y-115500000D03*
X125500000Y-95000000D03*
X125500000Y-93500000D03*
X151000000Y-122000000D03*
X149500000Y-122000000D03*
X136000000Y-93000000D03*
X136000000Y-96500000D03*
X142000000Y-98000000D03*
X147500000Y-93000000D03*
X153500000Y-98000000D03*
X150000000Y-94500000D03*
X159000000Y-93000000D03*
X165000000Y-98000000D03*
X159000000Y-110500000D03*
X165000000Y-115500000D03*
X153500000Y-115500000D03*
X150000000Y-112000000D03*
X147500000Y-110500000D03*
X142000000Y-115500000D03*
X136000000Y-114000000D03*
X136000000Y-110500000D03*
X173500000Y-93500000D03*
X173500000Y-97000000D03*
X173500000Y-98000000D03*
X167500000Y-114500000D03*
X167500000Y-115500000D03*
X167500000Y-111000000D03*
X173500000Y-94500000D03*
X167500000Y-112000000D03*
G04 #@! TD*
D23*
G04 #@! TO.N,+15V*
X170279998Y-117500000D02*
X170500000Y-117500000D01*
X168999999Y-116220001D02*
X170279998Y-117500000D01*
X168999999Y-107474999D02*
X168999999Y-116220001D01*
X166500000Y-104975000D02*
X168999999Y-107474999D01*
X166500000Y-104000000D02*
X166500000Y-104975000D01*
X168700000Y-100000000D02*
X170500000Y-100000000D01*
X166500000Y-102200000D02*
X168700000Y-100000000D01*
X166500000Y-104000000D02*
X166500000Y-102200000D01*
G04 #@! TO.N,-15V*
X170500000Y-104000000D02*
X170500000Y-109000000D01*
X171631370Y-91500000D02*
X170500000Y-91500000D01*
X172000001Y-91868631D02*
X171631370Y-91500000D01*
X172000001Y-102224999D02*
X172000001Y-91868631D01*
X170500000Y-103725000D02*
X172000001Y-102224999D01*
X170500000Y-104000000D02*
X170500000Y-103725000D01*
D24*
G04 #@! TO.N,GNDA*
X176950000Y-104500000D02*
X178500000Y-102950000D01*
X176950000Y-104500000D02*
X178500000Y-106050000D01*
X175000000Y-104500000D02*
X176950000Y-104500000D01*
G04 #@! TD*
D25*
G04 #@! TO.N,GNDA*
G36*
X181208306Y-86549391D02*
X181887684Y-86762295D01*
X182510370Y-87107456D01*
X183050932Y-87570774D01*
X183487297Y-88133331D01*
X183801629Y-88772138D01*
X183982567Y-89466769D01*
X184025000Y-90018246D01*
X184025001Y-118975931D01*
X183950609Y-119708307D01*
X183737705Y-120387683D01*
X183392547Y-121010367D01*
X182929221Y-121550937D01*
X182366669Y-121987297D01*
X181727864Y-122301628D01*
X181033232Y-122482566D01*
X180481754Y-122525000D01*
X128524059Y-122525000D01*
X127791693Y-122450609D01*
X127112317Y-122237705D01*
X126489633Y-121892547D01*
X125949063Y-121429221D01*
X125512703Y-120866669D01*
X125198372Y-120227864D01*
X125017434Y-119533232D01*
X124975000Y-118981754D01*
X124975000Y-117120000D01*
X133656491Y-117120000D01*
X133749625Y-117588217D01*
X134014848Y-117985152D01*
X134411783Y-118250375D01*
X134761812Y-118320000D01*
X134998188Y-118320000D01*
X135348217Y-118250375D01*
X135745152Y-117985152D01*
X136010375Y-117588217D01*
X136103509Y-117120000D01*
X136196491Y-117120000D01*
X136289625Y-117588217D01*
X136554848Y-117985152D01*
X136951783Y-118250375D01*
X137301812Y-118320000D01*
X137538188Y-118320000D01*
X137888217Y-118250375D01*
X138285152Y-117985152D01*
X138550375Y-117588217D01*
X138643509Y-117120000D01*
X138736491Y-117120000D01*
X138829625Y-117588217D01*
X139094848Y-117985152D01*
X139491783Y-118250375D01*
X139841812Y-118320000D01*
X140078188Y-118320000D01*
X140428217Y-118250375D01*
X140825152Y-117985152D01*
X141090375Y-117588217D01*
X141183509Y-117120000D01*
X141276491Y-117120000D01*
X141369625Y-117588217D01*
X141634848Y-117985152D01*
X142031783Y-118250375D01*
X142381812Y-118320000D01*
X142618188Y-118320000D01*
X142968217Y-118250375D01*
X143365152Y-117985152D01*
X143630375Y-117588217D01*
X143723509Y-117120000D01*
X145156491Y-117120000D01*
X145249625Y-117588217D01*
X145514848Y-117985152D01*
X145911783Y-118250375D01*
X146261812Y-118320000D01*
X146498188Y-118320000D01*
X146848217Y-118250375D01*
X147245152Y-117985152D01*
X147510375Y-117588217D01*
X147603509Y-117120000D01*
X147696491Y-117120000D01*
X147789625Y-117588217D01*
X148054848Y-117985152D01*
X148451783Y-118250375D01*
X148801812Y-118320000D01*
X149038188Y-118320000D01*
X149388217Y-118250375D01*
X149785152Y-117985152D01*
X150050375Y-117588217D01*
X150143509Y-117120000D01*
X150236491Y-117120000D01*
X150329625Y-117588217D01*
X150594848Y-117985152D01*
X150991783Y-118250375D01*
X151341812Y-118320000D01*
X151578188Y-118320000D01*
X151928217Y-118250375D01*
X152325152Y-117985152D01*
X152590375Y-117588217D01*
X152683509Y-117120000D01*
X152776491Y-117120000D01*
X152869625Y-117588217D01*
X153134848Y-117985152D01*
X153531783Y-118250375D01*
X153881812Y-118320000D01*
X154118188Y-118320000D01*
X154468217Y-118250375D01*
X154865152Y-117985152D01*
X155130375Y-117588217D01*
X155223509Y-117120000D01*
X156656491Y-117120000D01*
X156749625Y-117588217D01*
X157014848Y-117985152D01*
X157411783Y-118250375D01*
X157761812Y-118320000D01*
X157998188Y-118320000D01*
X158348217Y-118250375D01*
X158745152Y-117985152D01*
X159010375Y-117588217D01*
X159103509Y-117120000D01*
X159196491Y-117120000D01*
X159289625Y-117588217D01*
X159554848Y-117985152D01*
X159951783Y-118250375D01*
X160301812Y-118320000D01*
X160538188Y-118320000D01*
X160888217Y-118250375D01*
X161285152Y-117985152D01*
X161550375Y-117588217D01*
X161643509Y-117120000D01*
X161736491Y-117120000D01*
X161829625Y-117588217D01*
X162094848Y-117985152D01*
X162491783Y-118250375D01*
X162841812Y-118320000D01*
X163078188Y-118320000D01*
X163428217Y-118250375D01*
X163825152Y-117985152D01*
X164090375Y-117588217D01*
X164183509Y-117120000D01*
X164276491Y-117120000D01*
X164369625Y-117588217D01*
X164634848Y-117985152D01*
X165031783Y-118250375D01*
X165381812Y-118320000D01*
X165618188Y-118320000D01*
X165968217Y-118250375D01*
X166365152Y-117985152D01*
X166630375Y-117588217D01*
X166723509Y-117120000D01*
X166630375Y-116651783D01*
X166365152Y-116254848D01*
X165968217Y-115989625D01*
X165618188Y-115920000D01*
X165381812Y-115920000D01*
X165031783Y-115989625D01*
X164634848Y-116254848D01*
X164369625Y-116651783D01*
X164276491Y-117120000D01*
X164183509Y-117120000D01*
X164090375Y-116651783D01*
X163825152Y-116254848D01*
X163428217Y-115989625D01*
X163078188Y-115920000D01*
X162841812Y-115920000D01*
X162491783Y-115989625D01*
X162094848Y-116254848D01*
X161829625Y-116651783D01*
X161736491Y-117120000D01*
X161643509Y-117120000D01*
X161550375Y-116651783D01*
X161285152Y-116254848D01*
X160888217Y-115989625D01*
X160538188Y-115920000D01*
X160301812Y-115920000D01*
X159951783Y-115989625D01*
X159554848Y-116254848D01*
X159289625Y-116651783D01*
X159196491Y-117120000D01*
X159103509Y-117120000D01*
X159010375Y-116651783D01*
X158745152Y-116254848D01*
X158348217Y-115989625D01*
X157998188Y-115920000D01*
X157761812Y-115920000D01*
X157411783Y-115989625D01*
X157014848Y-116254848D01*
X156749625Y-116651783D01*
X156656491Y-117120000D01*
X155223509Y-117120000D01*
X155130375Y-116651783D01*
X154865152Y-116254848D01*
X154468217Y-115989625D01*
X154118188Y-115920000D01*
X153881812Y-115920000D01*
X153531783Y-115989625D01*
X153134848Y-116254848D01*
X152869625Y-116651783D01*
X152776491Y-117120000D01*
X152683509Y-117120000D01*
X152590375Y-116651783D01*
X152325152Y-116254848D01*
X151928217Y-115989625D01*
X151578188Y-115920000D01*
X151341812Y-115920000D01*
X150991783Y-115989625D01*
X150594848Y-116254848D01*
X150329625Y-116651783D01*
X150236491Y-117120000D01*
X150143509Y-117120000D01*
X150050375Y-116651783D01*
X149785152Y-116254848D01*
X149388217Y-115989625D01*
X149038188Y-115920000D01*
X148801812Y-115920000D01*
X148451783Y-115989625D01*
X148054848Y-116254848D01*
X147789625Y-116651783D01*
X147696491Y-117120000D01*
X147603509Y-117120000D01*
X147510375Y-116651783D01*
X147245152Y-116254848D01*
X146848217Y-115989625D01*
X146498188Y-115920000D01*
X146261812Y-115920000D01*
X145911783Y-115989625D01*
X145514848Y-116254848D01*
X145249625Y-116651783D01*
X145156491Y-117120000D01*
X143723509Y-117120000D01*
X143630375Y-116651783D01*
X143365152Y-116254848D01*
X142968217Y-115989625D01*
X142618188Y-115920000D01*
X142381812Y-115920000D01*
X142031783Y-115989625D01*
X141634848Y-116254848D01*
X141369625Y-116651783D01*
X141276491Y-117120000D01*
X141183509Y-117120000D01*
X141090375Y-116651783D01*
X140825152Y-116254848D01*
X140428217Y-115989625D01*
X140078188Y-115920000D01*
X139841812Y-115920000D01*
X139491783Y-115989625D01*
X139094848Y-116254848D01*
X138829625Y-116651783D01*
X138736491Y-117120000D01*
X138643509Y-117120000D01*
X138550375Y-116651783D01*
X138285152Y-116254848D01*
X137888217Y-115989625D01*
X137538188Y-115920000D01*
X137301812Y-115920000D01*
X136951783Y-115989625D01*
X136554848Y-116254848D01*
X136289625Y-116651783D01*
X136196491Y-117120000D01*
X136103509Y-117120000D01*
X136010375Y-116651783D01*
X135745152Y-116254848D01*
X135348217Y-115989625D01*
X134998188Y-115920000D01*
X134761812Y-115920000D01*
X134411783Y-115989625D01*
X134014848Y-116254848D01*
X133749625Y-116651783D01*
X133656491Y-117120000D01*
X124975000Y-117120000D01*
X124975000Y-110711577D01*
X129050000Y-110711577D01*
X129050000Y-111288423D01*
X129270750Y-111821359D01*
X129678641Y-112229250D01*
X130211577Y-112450000D01*
X130788423Y-112450000D01*
X131321359Y-112229250D01*
X131729250Y-111821359D01*
X131950000Y-111288423D01*
X131950000Y-110711577D01*
X131729250Y-110178641D01*
X131321359Y-109770750D01*
X130788423Y-109550000D01*
X130211577Y-109550000D01*
X129678641Y-109770750D01*
X129270750Y-110178641D01*
X129050000Y-110711577D01*
X124975000Y-110711577D01*
X124975000Y-109500000D01*
X133656491Y-109500000D01*
X133749625Y-109968217D01*
X134014848Y-110365152D01*
X134411783Y-110630375D01*
X134761812Y-110700000D01*
X134998188Y-110700000D01*
X135348217Y-110630375D01*
X135745152Y-110365152D01*
X136010375Y-109968217D01*
X136103509Y-109500000D01*
X136196491Y-109500000D01*
X136289625Y-109968217D01*
X136554848Y-110365152D01*
X136951783Y-110630375D01*
X137301812Y-110700000D01*
X137538188Y-110700000D01*
X137888217Y-110630375D01*
X138285152Y-110365152D01*
X138550375Y-109968217D01*
X138643509Y-109500000D01*
X138736491Y-109500000D01*
X138829625Y-109968217D01*
X139094848Y-110365152D01*
X139491783Y-110630375D01*
X139841812Y-110700000D01*
X140078188Y-110700000D01*
X140428217Y-110630375D01*
X140825152Y-110365152D01*
X141090375Y-109968217D01*
X141183509Y-109500000D01*
X141090375Y-109031783D01*
X140868686Y-108700000D01*
X141292164Y-108700000D01*
X141292164Y-110300000D01*
X141323209Y-110456072D01*
X141411616Y-110588384D01*
X141543928Y-110676791D01*
X141700000Y-110707836D01*
X143300000Y-110707836D01*
X143456072Y-110676791D01*
X143588384Y-110588384D01*
X143676791Y-110456072D01*
X143707836Y-110300000D01*
X143707836Y-109500000D01*
X145156491Y-109500000D01*
X145249625Y-109968217D01*
X145514848Y-110365152D01*
X145911783Y-110630375D01*
X146261812Y-110700000D01*
X146498188Y-110700000D01*
X146848217Y-110630375D01*
X147245152Y-110365152D01*
X147510375Y-109968217D01*
X147603509Y-109500000D01*
X147696491Y-109500000D01*
X147789625Y-109968217D01*
X148054848Y-110365152D01*
X148451783Y-110630375D01*
X148801812Y-110700000D01*
X149038188Y-110700000D01*
X149388217Y-110630375D01*
X149785152Y-110365152D01*
X150050375Y-109968217D01*
X150143509Y-109500000D01*
X150236491Y-109500000D01*
X150329625Y-109968217D01*
X150594848Y-110365152D01*
X150991783Y-110630375D01*
X151341812Y-110700000D01*
X151578188Y-110700000D01*
X151928217Y-110630375D01*
X152325152Y-110365152D01*
X152590375Y-109968217D01*
X152683509Y-109500000D01*
X152590375Y-109031783D01*
X152368686Y-108700000D01*
X152792164Y-108700000D01*
X152792164Y-110300000D01*
X152823209Y-110456072D01*
X152911616Y-110588384D01*
X153043928Y-110676791D01*
X153200000Y-110707836D01*
X154800000Y-110707836D01*
X154956072Y-110676791D01*
X155088384Y-110588384D01*
X155176791Y-110456072D01*
X155207836Y-110300000D01*
X155207836Y-109500000D01*
X156656491Y-109500000D01*
X156749625Y-109968217D01*
X157014848Y-110365152D01*
X157411783Y-110630375D01*
X157761812Y-110700000D01*
X157998188Y-110700000D01*
X158348217Y-110630375D01*
X158745152Y-110365152D01*
X159010375Y-109968217D01*
X159103509Y-109500000D01*
X161736491Y-109500000D01*
X161829625Y-109968217D01*
X162094848Y-110365152D01*
X162491783Y-110630375D01*
X162841812Y-110700000D01*
X163078188Y-110700000D01*
X163428217Y-110630375D01*
X163825152Y-110365152D01*
X164090375Y-109968217D01*
X164183509Y-109500000D01*
X164090375Y-109031783D01*
X163868686Y-108700000D01*
X164292164Y-108700000D01*
X164292164Y-110300000D01*
X164323209Y-110456072D01*
X164411616Y-110588384D01*
X164543928Y-110676791D01*
X164700000Y-110707836D01*
X166300000Y-110707836D01*
X166456072Y-110676791D01*
X166588384Y-110588384D01*
X166676791Y-110456072D01*
X166707836Y-110300000D01*
X166707836Y-108700000D01*
X166676791Y-108543928D01*
X166588384Y-108411616D01*
X166456072Y-108323209D01*
X166300000Y-108292164D01*
X164700000Y-108292164D01*
X164543928Y-108323209D01*
X164411616Y-108411616D01*
X164323209Y-108543928D01*
X164292164Y-108700000D01*
X163868686Y-108700000D01*
X163825152Y-108634848D01*
X163428217Y-108369625D01*
X163078188Y-108300000D01*
X162841812Y-108300000D01*
X162491783Y-108369625D01*
X162094848Y-108634848D01*
X161829625Y-109031783D01*
X161736491Y-109500000D01*
X159103509Y-109500000D01*
X159010375Y-109031783D01*
X158745152Y-108634848D01*
X158348217Y-108369625D01*
X157998188Y-108300000D01*
X157761812Y-108300000D01*
X157411783Y-108369625D01*
X157014848Y-108634848D01*
X156749625Y-109031783D01*
X156656491Y-109500000D01*
X155207836Y-109500000D01*
X155207836Y-108700000D01*
X155176791Y-108543928D01*
X155088384Y-108411616D01*
X154956072Y-108323209D01*
X154800000Y-108292164D01*
X153200000Y-108292164D01*
X153043928Y-108323209D01*
X152911616Y-108411616D01*
X152823209Y-108543928D01*
X152792164Y-108700000D01*
X152368686Y-108700000D01*
X152325152Y-108634848D01*
X151928217Y-108369625D01*
X151578188Y-108300000D01*
X151341812Y-108300000D01*
X150991783Y-108369625D01*
X150594848Y-108634848D01*
X150329625Y-109031783D01*
X150236491Y-109500000D01*
X150143509Y-109500000D01*
X150050375Y-109031783D01*
X149785152Y-108634848D01*
X149388217Y-108369625D01*
X149038188Y-108300000D01*
X148801812Y-108300000D01*
X148451783Y-108369625D01*
X148054848Y-108634848D01*
X147789625Y-109031783D01*
X147696491Y-109500000D01*
X147603509Y-109500000D01*
X147510375Y-109031783D01*
X147245152Y-108634848D01*
X146848217Y-108369625D01*
X146498188Y-108300000D01*
X146261812Y-108300000D01*
X145911783Y-108369625D01*
X145514848Y-108634848D01*
X145249625Y-109031783D01*
X145156491Y-109500000D01*
X143707836Y-109500000D01*
X143707836Y-108700000D01*
X143676791Y-108543928D01*
X143588384Y-108411616D01*
X143456072Y-108323209D01*
X143300000Y-108292164D01*
X141700000Y-108292164D01*
X141543928Y-108323209D01*
X141411616Y-108411616D01*
X141323209Y-108543928D01*
X141292164Y-108700000D01*
X140868686Y-108700000D01*
X140825152Y-108634848D01*
X140428217Y-108369625D01*
X140078188Y-108300000D01*
X139841812Y-108300000D01*
X139491783Y-108369625D01*
X139094848Y-108634848D01*
X138829625Y-109031783D01*
X138736491Y-109500000D01*
X138643509Y-109500000D01*
X138550375Y-109031783D01*
X138285152Y-108634848D01*
X137888217Y-108369625D01*
X137538188Y-108300000D01*
X137301812Y-108300000D01*
X136951783Y-108369625D01*
X136554848Y-108634848D01*
X136289625Y-109031783D01*
X136196491Y-109500000D01*
X136103509Y-109500000D01*
X136010375Y-109031783D01*
X135745152Y-108634848D01*
X135348217Y-108369625D01*
X134998188Y-108300000D01*
X134761812Y-108300000D01*
X134411783Y-108369625D01*
X134014848Y-108634848D01*
X133749625Y-109031783D01*
X133656491Y-109500000D01*
X124975000Y-109500000D01*
X124975000Y-103374999D01*
X165492164Y-103374999D01*
X165492164Y-104625001D01*
X165542239Y-104876744D01*
X165588223Y-104945564D01*
X165582368Y-104975000D01*
X165652219Y-105326161D01*
X165652220Y-105326162D01*
X165652220Y-105326163D01*
X165851137Y-105623864D01*
X165926285Y-105674076D01*
X168099999Y-107847792D01*
X168100000Y-116131355D01*
X168082367Y-116220001D01*
X168152218Y-116571162D01*
X168152219Y-116571163D01*
X168152219Y-116571164D01*
X168351136Y-116868865D01*
X168426284Y-116919077D01*
X169292164Y-117784958D01*
X169292164Y-118300000D01*
X169323209Y-118456072D01*
X169411616Y-118588384D01*
X169543928Y-118676791D01*
X169700000Y-118707836D01*
X171300000Y-118707836D01*
X171456072Y-118676791D01*
X171588384Y-118588384D01*
X171676791Y-118456072D01*
X171707836Y-118300000D01*
X171707836Y-116700000D01*
X171676791Y-116543928D01*
X171588384Y-116411616D01*
X171456072Y-116323209D01*
X171300000Y-116292164D01*
X170344954Y-116292164D01*
X169899999Y-115847210D01*
X169899999Y-110711577D01*
X177050000Y-110711577D01*
X177050000Y-111288423D01*
X177270750Y-111821359D01*
X177678641Y-112229250D01*
X178211577Y-112450000D01*
X178788423Y-112450000D01*
X179321359Y-112229250D01*
X179729250Y-111821359D01*
X179950000Y-111288423D01*
X179950000Y-110711577D01*
X179729250Y-110178641D01*
X179321359Y-109770750D01*
X178788423Y-109550000D01*
X178211577Y-109550000D01*
X177678641Y-109770750D01*
X177270750Y-110178641D01*
X177050000Y-110711577D01*
X169899999Y-110711577D01*
X169899999Y-110050342D01*
X170261305Y-110200000D01*
X170738695Y-110200000D01*
X171179745Y-110017311D01*
X171517311Y-109679745D01*
X171700000Y-109238695D01*
X171700000Y-108761305D01*
X171517311Y-108320255D01*
X171400000Y-108202944D01*
X171400000Y-106149999D01*
X173717164Y-106149999D01*
X173717164Y-106850001D01*
X173767239Y-107101744D01*
X173909839Y-107315161D01*
X174123256Y-107457761D01*
X174374999Y-107507836D01*
X175625001Y-107507836D01*
X175876744Y-107457761D01*
X176090161Y-107315161D01*
X176232761Y-107101744D01*
X176282836Y-106850001D01*
X176282836Y-106149999D01*
X176232761Y-105898256D01*
X176090161Y-105684839D01*
X175876744Y-105542239D01*
X175625001Y-105492164D01*
X174374999Y-105492164D01*
X174123256Y-105542239D01*
X173909839Y-105684839D01*
X173767239Y-105898256D01*
X173717164Y-106149999D01*
X171400000Y-106149999D01*
X171400000Y-104728007D01*
X171441979Y-104665181D01*
X171500000Y-104373489D01*
X171500000Y-103997791D01*
X172573717Y-102924075D01*
X172648865Y-102873863D01*
X172847782Y-102576162D01*
X172862931Y-102500000D01*
X173705409Y-102500000D01*
X173783021Y-102890181D01*
X174004040Y-103220960D01*
X174334819Y-103441979D01*
X174626510Y-103500000D01*
X175373490Y-103500000D01*
X175665181Y-103441979D01*
X175995960Y-103220960D01*
X176216979Y-102890181D01*
X176294591Y-102500000D01*
X176216979Y-102109819D01*
X175995960Y-101779040D01*
X175665181Y-101558021D01*
X175373490Y-101500000D01*
X174626510Y-101500000D01*
X174334819Y-101558021D01*
X174004040Y-101779040D01*
X173783021Y-102109819D01*
X173705409Y-102500000D01*
X172862931Y-102500000D01*
X172900001Y-102313641D01*
X172900001Y-102313640D01*
X172917633Y-102224999D01*
X172900001Y-102136358D01*
X172900001Y-97711577D01*
X177050000Y-97711577D01*
X177050000Y-98288423D01*
X177270750Y-98821359D01*
X177678641Y-99229250D01*
X178211577Y-99450000D01*
X178788423Y-99450000D01*
X179321359Y-99229250D01*
X179729250Y-98821359D01*
X179950000Y-98288423D01*
X179950000Y-97711577D01*
X179729250Y-97178641D01*
X179321359Y-96770750D01*
X178788423Y-96550000D01*
X178211577Y-96550000D01*
X177678641Y-96770750D01*
X177270750Y-97178641D01*
X177050000Y-97711577D01*
X172900001Y-97711577D01*
X172900001Y-91957272D01*
X172917633Y-91868631D01*
X172847782Y-91517469D01*
X172847782Y-91517468D01*
X172648865Y-91219767D01*
X172573713Y-91169552D01*
X172330449Y-90926288D01*
X172280234Y-90851136D01*
X171982533Y-90652219D01*
X171720012Y-90600000D01*
X171720011Y-90600000D01*
X171631370Y-90582368D01*
X171542729Y-90600000D01*
X171297056Y-90600000D01*
X171179745Y-90482689D01*
X170738695Y-90300000D01*
X170261305Y-90300000D01*
X169820255Y-90482689D01*
X169482689Y-90820255D01*
X169300000Y-91261305D01*
X169300000Y-91738695D01*
X169482689Y-92179745D01*
X169820255Y-92517311D01*
X170261305Y-92700000D01*
X170738695Y-92700000D01*
X171100002Y-92550342D01*
X171100001Y-98792164D01*
X169700000Y-98792164D01*
X169543928Y-98823209D01*
X169411616Y-98911616D01*
X169323209Y-99043928D01*
X169312055Y-99100000D01*
X168788641Y-99100000D01*
X168700000Y-99082368D01*
X168611359Y-99100000D01*
X168611358Y-99100000D01*
X168348837Y-99152219D01*
X168051136Y-99351136D01*
X168000923Y-99426285D01*
X165926285Y-101500924D01*
X165851137Y-101551136D01*
X165800925Y-101626284D01*
X165652219Y-101848839D01*
X165582368Y-102200000D01*
X165600001Y-102288646D01*
X165600001Y-103036809D01*
X165542239Y-103123256D01*
X165492164Y-103374999D01*
X124975000Y-103374999D01*
X124975000Y-99620000D01*
X133656491Y-99620000D01*
X133749625Y-100088217D01*
X134014848Y-100485152D01*
X134411783Y-100750375D01*
X134761812Y-100820000D01*
X134998188Y-100820000D01*
X135348217Y-100750375D01*
X135745152Y-100485152D01*
X136010375Y-100088217D01*
X136103509Y-99620000D01*
X136196491Y-99620000D01*
X136289625Y-100088217D01*
X136554848Y-100485152D01*
X136951783Y-100750375D01*
X137301812Y-100820000D01*
X137538188Y-100820000D01*
X137888217Y-100750375D01*
X138285152Y-100485152D01*
X138550375Y-100088217D01*
X138643509Y-99620000D01*
X138736491Y-99620000D01*
X138829625Y-100088217D01*
X139094848Y-100485152D01*
X139491783Y-100750375D01*
X139841812Y-100820000D01*
X140078188Y-100820000D01*
X140428217Y-100750375D01*
X140825152Y-100485152D01*
X141090375Y-100088217D01*
X141183509Y-99620000D01*
X141276491Y-99620000D01*
X141369625Y-100088217D01*
X141634848Y-100485152D01*
X142031783Y-100750375D01*
X142381812Y-100820000D01*
X142618188Y-100820000D01*
X142968217Y-100750375D01*
X143365152Y-100485152D01*
X143630375Y-100088217D01*
X143723509Y-99620000D01*
X145156491Y-99620000D01*
X145249625Y-100088217D01*
X145514848Y-100485152D01*
X145911783Y-100750375D01*
X146261812Y-100820000D01*
X146498188Y-100820000D01*
X146848217Y-100750375D01*
X147245152Y-100485152D01*
X147510375Y-100088217D01*
X147603509Y-99620000D01*
X147696491Y-99620000D01*
X147789625Y-100088217D01*
X148054848Y-100485152D01*
X148451783Y-100750375D01*
X148801812Y-100820000D01*
X149038188Y-100820000D01*
X149388217Y-100750375D01*
X149785152Y-100485152D01*
X150050375Y-100088217D01*
X150143509Y-99620000D01*
X150236491Y-99620000D01*
X150329625Y-100088217D01*
X150594848Y-100485152D01*
X150991783Y-100750375D01*
X151341812Y-100820000D01*
X151578188Y-100820000D01*
X151928217Y-100750375D01*
X152325152Y-100485152D01*
X152590375Y-100088217D01*
X152683509Y-99620000D01*
X152776491Y-99620000D01*
X152869625Y-100088217D01*
X153134848Y-100485152D01*
X153531783Y-100750375D01*
X153881812Y-100820000D01*
X154118188Y-100820000D01*
X154468217Y-100750375D01*
X154865152Y-100485152D01*
X155130375Y-100088217D01*
X155223509Y-99620000D01*
X156656491Y-99620000D01*
X156749625Y-100088217D01*
X157014848Y-100485152D01*
X157411783Y-100750375D01*
X157761812Y-100820000D01*
X157998188Y-100820000D01*
X158348217Y-100750375D01*
X158745152Y-100485152D01*
X159010375Y-100088217D01*
X159103509Y-99620000D01*
X159196491Y-99620000D01*
X159289625Y-100088217D01*
X159554848Y-100485152D01*
X159951783Y-100750375D01*
X160301812Y-100820000D01*
X160538188Y-100820000D01*
X160888217Y-100750375D01*
X161285152Y-100485152D01*
X161550375Y-100088217D01*
X161643509Y-99620000D01*
X161736491Y-99620000D01*
X161829625Y-100088217D01*
X162094848Y-100485152D01*
X162491783Y-100750375D01*
X162841812Y-100820000D01*
X163078188Y-100820000D01*
X163428217Y-100750375D01*
X163825152Y-100485152D01*
X164090375Y-100088217D01*
X164183509Y-99620000D01*
X164276491Y-99620000D01*
X164369625Y-100088217D01*
X164634848Y-100485152D01*
X165031783Y-100750375D01*
X165381812Y-100820000D01*
X165618188Y-100820000D01*
X165968217Y-100750375D01*
X166365152Y-100485152D01*
X166630375Y-100088217D01*
X166723509Y-99620000D01*
X166630375Y-99151783D01*
X166365152Y-98754848D01*
X165968217Y-98489625D01*
X165618188Y-98420000D01*
X165381812Y-98420000D01*
X165031783Y-98489625D01*
X164634848Y-98754848D01*
X164369625Y-99151783D01*
X164276491Y-99620000D01*
X164183509Y-99620000D01*
X164090375Y-99151783D01*
X163825152Y-98754848D01*
X163428217Y-98489625D01*
X163078188Y-98420000D01*
X162841812Y-98420000D01*
X162491783Y-98489625D01*
X162094848Y-98754848D01*
X161829625Y-99151783D01*
X161736491Y-99620000D01*
X161643509Y-99620000D01*
X161550375Y-99151783D01*
X161285152Y-98754848D01*
X160888217Y-98489625D01*
X160538188Y-98420000D01*
X160301812Y-98420000D01*
X159951783Y-98489625D01*
X159554848Y-98754848D01*
X159289625Y-99151783D01*
X159196491Y-99620000D01*
X159103509Y-99620000D01*
X159010375Y-99151783D01*
X158745152Y-98754848D01*
X158348217Y-98489625D01*
X157998188Y-98420000D01*
X157761812Y-98420000D01*
X157411783Y-98489625D01*
X157014848Y-98754848D01*
X156749625Y-99151783D01*
X156656491Y-99620000D01*
X155223509Y-99620000D01*
X155130375Y-99151783D01*
X154865152Y-98754848D01*
X154468217Y-98489625D01*
X154118188Y-98420000D01*
X153881812Y-98420000D01*
X153531783Y-98489625D01*
X153134848Y-98754848D01*
X152869625Y-99151783D01*
X152776491Y-99620000D01*
X152683509Y-99620000D01*
X152590375Y-99151783D01*
X152325152Y-98754848D01*
X151928217Y-98489625D01*
X151578188Y-98420000D01*
X151341812Y-98420000D01*
X150991783Y-98489625D01*
X150594848Y-98754848D01*
X150329625Y-99151783D01*
X150236491Y-99620000D01*
X150143509Y-99620000D01*
X150050375Y-99151783D01*
X149785152Y-98754848D01*
X149388217Y-98489625D01*
X149038188Y-98420000D01*
X148801812Y-98420000D01*
X148451783Y-98489625D01*
X148054848Y-98754848D01*
X147789625Y-99151783D01*
X147696491Y-99620000D01*
X147603509Y-99620000D01*
X147510375Y-99151783D01*
X147245152Y-98754848D01*
X146848217Y-98489625D01*
X146498188Y-98420000D01*
X146261812Y-98420000D01*
X145911783Y-98489625D01*
X145514848Y-98754848D01*
X145249625Y-99151783D01*
X145156491Y-99620000D01*
X143723509Y-99620000D01*
X143630375Y-99151783D01*
X143365152Y-98754848D01*
X142968217Y-98489625D01*
X142618188Y-98420000D01*
X142381812Y-98420000D01*
X142031783Y-98489625D01*
X141634848Y-98754848D01*
X141369625Y-99151783D01*
X141276491Y-99620000D01*
X141183509Y-99620000D01*
X141090375Y-99151783D01*
X140825152Y-98754848D01*
X140428217Y-98489625D01*
X140078188Y-98420000D01*
X139841812Y-98420000D01*
X139491783Y-98489625D01*
X139094848Y-98754848D01*
X138829625Y-99151783D01*
X138736491Y-99620000D01*
X138643509Y-99620000D01*
X138550375Y-99151783D01*
X138285152Y-98754848D01*
X137888217Y-98489625D01*
X137538188Y-98420000D01*
X137301812Y-98420000D01*
X136951783Y-98489625D01*
X136554848Y-98754848D01*
X136289625Y-99151783D01*
X136196491Y-99620000D01*
X136103509Y-99620000D01*
X136010375Y-99151783D01*
X135745152Y-98754848D01*
X135348217Y-98489625D01*
X134998188Y-98420000D01*
X134761812Y-98420000D01*
X134411783Y-98489625D01*
X134014848Y-98754848D01*
X133749625Y-99151783D01*
X133656491Y-99620000D01*
X124975000Y-99620000D01*
X124975000Y-97711577D01*
X129050000Y-97711577D01*
X129050000Y-98288423D01*
X129270750Y-98821359D01*
X129678641Y-99229250D01*
X130211577Y-99450000D01*
X130788423Y-99450000D01*
X131321359Y-99229250D01*
X131729250Y-98821359D01*
X131950000Y-98288423D01*
X131950000Y-97711577D01*
X131729250Y-97178641D01*
X131321359Y-96770750D01*
X130788423Y-96550000D01*
X130211577Y-96550000D01*
X129678641Y-96770750D01*
X129270750Y-97178641D01*
X129050000Y-97711577D01*
X124975000Y-97711577D01*
X124975000Y-92000000D01*
X133656491Y-92000000D01*
X133749625Y-92468217D01*
X134014848Y-92865152D01*
X134411783Y-93130375D01*
X134761812Y-93200000D01*
X134998188Y-93200000D01*
X135348217Y-93130375D01*
X135745152Y-92865152D01*
X136010375Y-92468217D01*
X136103509Y-92000000D01*
X136196491Y-92000000D01*
X136289625Y-92468217D01*
X136554848Y-92865152D01*
X136951783Y-93130375D01*
X137301812Y-93200000D01*
X137538188Y-93200000D01*
X137888217Y-93130375D01*
X138285152Y-92865152D01*
X138550375Y-92468217D01*
X138643509Y-92000000D01*
X138736491Y-92000000D01*
X138829625Y-92468217D01*
X139094848Y-92865152D01*
X139491783Y-93130375D01*
X139841812Y-93200000D01*
X140078188Y-93200000D01*
X140428217Y-93130375D01*
X140825152Y-92865152D01*
X141090375Y-92468217D01*
X141183509Y-92000000D01*
X141090375Y-91531783D01*
X140868686Y-91200000D01*
X141292164Y-91200000D01*
X141292164Y-92800000D01*
X141323209Y-92956072D01*
X141411616Y-93088384D01*
X141543928Y-93176791D01*
X141700000Y-93207836D01*
X143300000Y-93207836D01*
X143456072Y-93176791D01*
X143588384Y-93088384D01*
X143676791Y-92956072D01*
X143707836Y-92800000D01*
X143707836Y-92000000D01*
X145156491Y-92000000D01*
X145249625Y-92468217D01*
X145514848Y-92865152D01*
X145911783Y-93130375D01*
X146261812Y-93200000D01*
X146498188Y-93200000D01*
X146848217Y-93130375D01*
X147245152Y-92865152D01*
X147510375Y-92468217D01*
X147603509Y-92000000D01*
X147696491Y-92000000D01*
X147789625Y-92468217D01*
X148054848Y-92865152D01*
X148451783Y-93130375D01*
X148801812Y-93200000D01*
X149038188Y-93200000D01*
X149388217Y-93130375D01*
X149785152Y-92865152D01*
X150050375Y-92468217D01*
X150143509Y-92000000D01*
X150236491Y-92000000D01*
X150329625Y-92468217D01*
X150594848Y-92865152D01*
X150991783Y-93130375D01*
X151341812Y-93200000D01*
X151578188Y-93200000D01*
X151928217Y-93130375D01*
X152325152Y-92865152D01*
X152590375Y-92468217D01*
X152683509Y-92000000D01*
X152590375Y-91531783D01*
X152368686Y-91200000D01*
X152792164Y-91200000D01*
X152792164Y-92800000D01*
X152823209Y-92956072D01*
X152911616Y-93088384D01*
X153043928Y-93176791D01*
X153200000Y-93207836D01*
X154800000Y-93207836D01*
X154956072Y-93176791D01*
X155088384Y-93088384D01*
X155176791Y-92956072D01*
X155207836Y-92800000D01*
X155207836Y-92000000D01*
X156656491Y-92000000D01*
X156749625Y-92468217D01*
X157014848Y-92865152D01*
X157411783Y-93130375D01*
X157761812Y-93200000D01*
X157998188Y-93200000D01*
X158348217Y-93130375D01*
X158745152Y-92865152D01*
X159010375Y-92468217D01*
X159103509Y-92000000D01*
X161736491Y-92000000D01*
X161829625Y-92468217D01*
X162094848Y-92865152D01*
X162491783Y-93130375D01*
X162841812Y-93200000D01*
X163078188Y-93200000D01*
X163428217Y-93130375D01*
X163825152Y-92865152D01*
X164090375Y-92468217D01*
X164183509Y-92000000D01*
X164090375Y-91531783D01*
X163868686Y-91200000D01*
X164292164Y-91200000D01*
X164292164Y-92800000D01*
X164323209Y-92956072D01*
X164411616Y-93088384D01*
X164543928Y-93176791D01*
X164700000Y-93207836D01*
X166300000Y-93207836D01*
X166456072Y-93176791D01*
X166588384Y-93088384D01*
X166676791Y-92956072D01*
X166707836Y-92800000D01*
X166707836Y-91200000D01*
X166676791Y-91043928D01*
X166588384Y-90911616D01*
X166456072Y-90823209D01*
X166300000Y-90792164D01*
X164700000Y-90792164D01*
X164543928Y-90823209D01*
X164411616Y-90911616D01*
X164323209Y-91043928D01*
X164292164Y-91200000D01*
X163868686Y-91200000D01*
X163825152Y-91134848D01*
X163428217Y-90869625D01*
X163078188Y-90800000D01*
X162841812Y-90800000D01*
X162491783Y-90869625D01*
X162094848Y-91134848D01*
X161829625Y-91531783D01*
X161736491Y-92000000D01*
X159103509Y-92000000D01*
X159010375Y-91531783D01*
X158745152Y-91134848D01*
X158348217Y-90869625D01*
X157998188Y-90800000D01*
X157761812Y-90800000D01*
X157411783Y-90869625D01*
X157014848Y-91134848D01*
X156749625Y-91531783D01*
X156656491Y-92000000D01*
X155207836Y-92000000D01*
X155207836Y-91200000D01*
X155176791Y-91043928D01*
X155088384Y-90911616D01*
X154956072Y-90823209D01*
X154800000Y-90792164D01*
X153200000Y-90792164D01*
X153043928Y-90823209D01*
X152911616Y-90911616D01*
X152823209Y-91043928D01*
X152792164Y-91200000D01*
X152368686Y-91200000D01*
X152325152Y-91134848D01*
X151928217Y-90869625D01*
X151578188Y-90800000D01*
X151341812Y-90800000D01*
X150991783Y-90869625D01*
X150594848Y-91134848D01*
X150329625Y-91531783D01*
X150236491Y-92000000D01*
X150143509Y-92000000D01*
X150050375Y-91531783D01*
X149785152Y-91134848D01*
X149388217Y-90869625D01*
X149038188Y-90800000D01*
X148801812Y-90800000D01*
X148451783Y-90869625D01*
X148054848Y-91134848D01*
X147789625Y-91531783D01*
X147696491Y-92000000D01*
X147603509Y-92000000D01*
X147510375Y-91531783D01*
X147245152Y-91134848D01*
X146848217Y-90869625D01*
X146498188Y-90800000D01*
X146261812Y-90800000D01*
X145911783Y-90869625D01*
X145514848Y-91134848D01*
X145249625Y-91531783D01*
X145156491Y-92000000D01*
X143707836Y-92000000D01*
X143707836Y-91200000D01*
X143676791Y-91043928D01*
X143588384Y-90911616D01*
X143456072Y-90823209D01*
X143300000Y-90792164D01*
X141700000Y-90792164D01*
X141543928Y-90823209D01*
X141411616Y-90911616D01*
X141323209Y-91043928D01*
X141292164Y-91200000D01*
X140868686Y-91200000D01*
X140825152Y-91134848D01*
X140428217Y-90869625D01*
X140078188Y-90800000D01*
X139841812Y-90800000D01*
X139491783Y-90869625D01*
X139094848Y-91134848D01*
X138829625Y-91531783D01*
X138736491Y-92000000D01*
X138643509Y-92000000D01*
X138550375Y-91531783D01*
X138285152Y-91134848D01*
X137888217Y-90869625D01*
X137538188Y-90800000D01*
X137301812Y-90800000D01*
X136951783Y-90869625D01*
X136554848Y-91134848D01*
X136289625Y-91531783D01*
X136196491Y-92000000D01*
X136103509Y-92000000D01*
X136010375Y-91531783D01*
X135745152Y-91134848D01*
X135348217Y-90869625D01*
X134998188Y-90800000D01*
X134761812Y-90800000D01*
X134411783Y-90869625D01*
X134014848Y-91134848D01*
X133749625Y-91531783D01*
X133656491Y-92000000D01*
X124975000Y-92000000D01*
X124975000Y-90024059D01*
X125049391Y-89291694D01*
X125262295Y-88612316D01*
X125607456Y-87989630D01*
X126070774Y-87449068D01*
X126633331Y-87012703D01*
X127272138Y-86698371D01*
X127966769Y-86517433D01*
X128518246Y-86475000D01*
X180475941Y-86475000D01*
X181208306Y-86549391D01*
X181208306Y-86549391D01*
G37*
X181208306Y-86549391D02*
X181887684Y-86762295D01*
X182510370Y-87107456D01*
X183050932Y-87570774D01*
X183487297Y-88133331D01*
X183801629Y-88772138D01*
X183982567Y-89466769D01*
X184025000Y-90018246D01*
X184025001Y-118975931D01*
X183950609Y-119708307D01*
X183737705Y-120387683D01*
X183392547Y-121010367D01*
X182929221Y-121550937D01*
X182366669Y-121987297D01*
X181727864Y-122301628D01*
X181033232Y-122482566D01*
X180481754Y-122525000D01*
X128524059Y-122525000D01*
X127791693Y-122450609D01*
X127112317Y-122237705D01*
X126489633Y-121892547D01*
X125949063Y-121429221D01*
X125512703Y-120866669D01*
X125198372Y-120227864D01*
X125017434Y-119533232D01*
X124975000Y-118981754D01*
X124975000Y-117120000D01*
X133656491Y-117120000D01*
X133749625Y-117588217D01*
X134014848Y-117985152D01*
X134411783Y-118250375D01*
X134761812Y-118320000D01*
X134998188Y-118320000D01*
X135348217Y-118250375D01*
X135745152Y-117985152D01*
X136010375Y-117588217D01*
X136103509Y-117120000D01*
X136196491Y-117120000D01*
X136289625Y-117588217D01*
X136554848Y-117985152D01*
X136951783Y-118250375D01*
X137301812Y-118320000D01*
X137538188Y-118320000D01*
X137888217Y-118250375D01*
X138285152Y-117985152D01*
X138550375Y-117588217D01*
X138643509Y-117120000D01*
X138736491Y-117120000D01*
X138829625Y-117588217D01*
X139094848Y-117985152D01*
X139491783Y-118250375D01*
X139841812Y-118320000D01*
X140078188Y-118320000D01*
X140428217Y-118250375D01*
X140825152Y-117985152D01*
X141090375Y-117588217D01*
X141183509Y-117120000D01*
X141276491Y-117120000D01*
X141369625Y-117588217D01*
X141634848Y-117985152D01*
X142031783Y-118250375D01*
X142381812Y-118320000D01*
X142618188Y-118320000D01*
X142968217Y-118250375D01*
X143365152Y-117985152D01*
X143630375Y-117588217D01*
X143723509Y-117120000D01*
X145156491Y-117120000D01*
X145249625Y-117588217D01*
X145514848Y-117985152D01*
X145911783Y-118250375D01*
X146261812Y-118320000D01*
X146498188Y-118320000D01*
X146848217Y-118250375D01*
X147245152Y-117985152D01*
X147510375Y-117588217D01*
X147603509Y-117120000D01*
X147696491Y-117120000D01*
X147789625Y-117588217D01*
X148054848Y-117985152D01*
X148451783Y-118250375D01*
X148801812Y-118320000D01*
X149038188Y-118320000D01*
X149388217Y-118250375D01*
X149785152Y-117985152D01*
X150050375Y-117588217D01*
X150143509Y-117120000D01*
X150236491Y-117120000D01*
X150329625Y-117588217D01*
X150594848Y-117985152D01*
X150991783Y-118250375D01*
X151341812Y-118320000D01*
X151578188Y-118320000D01*
X151928217Y-118250375D01*
X152325152Y-117985152D01*
X152590375Y-117588217D01*
X152683509Y-117120000D01*
X152776491Y-117120000D01*
X152869625Y-117588217D01*
X153134848Y-117985152D01*
X153531783Y-118250375D01*
X153881812Y-118320000D01*
X154118188Y-118320000D01*
X154468217Y-118250375D01*
X154865152Y-117985152D01*
X155130375Y-117588217D01*
X155223509Y-117120000D01*
X156656491Y-117120000D01*
X156749625Y-117588217D01*
X157014848Y-117985152D01*
X157411783Y-118250375D01*
X157761812Y-118320000D01*
X157998188Y-118320000D01*
X158348217Y-118250375D01*
X158745152Y-117985152D01*
X159010375Y-117588217D01*
X159103509Y-117120000D01*
X159196491Y-117120000D01*
X159289625Y-117588217D01*
X159554848Y-117985152D01*
X159951783Y-118250375D01*
X160301812Y-118320000D01*
X160538188Y-118320000D01*
X160888217Y-118250375D01*
X161285152Y-117985152D01*
X161550375Y-117588217D01*
X161643509Y-117120000D01*
X161736491Y-117120000D01*
X161829625Y-117588217D01*
X162094848Y-117985152D01*
X162491783Y-118250375D01*
X162841812Y-118320000D01*
X163078188Y-118320000D01*
X163428217Y-118250375D01*
X163825152Y-117985152D01*
X164090375Y-117588217D01*
X164183509Y-117120000D01*
X164276491Y-117120000D01*
X164369625Y-117588217D01*
X164634848Y-117985152D01*
X165031783Y-118250375D01*
X165381812Y-118320000D01*
X165618188Y-118320000D01*
X165968217Y-118250375D01*
X166365152Y-117985152D01*
X166630375Y-117588217D01*
X166723509Y-117120000D01*
X166630375Y-116651783D01*
X166365152Y-116254848D01*
X165968217Y-115989625D01*
X165618188Y-115920000D01*
X165381812Y-115920000D01*
X165031783Y-115989625D01*
X164634848Y-116254848D01*
X164369625Y-116651783D01*
X164276491Y-117120000D01*
X164183509Y-117120000D01*
X164090375Y-116651783D01*
X163825152Y-116254848D01*
X163428217Y-115989625D01*
X163078188Y-115920000D01*
X162841812Y-115920000D01*
X162491783Y-115989625D01*
X162094848Y-116254848D01*
X161829625Y-116651783D01*
X161736491Y-117120000D01*
X161643509Y-117120000D01*
X161550375Y-116651783D01*
X161285152Y-116254848D01*
X160888217Y-115989625D01*
X160538188Y-115920000D01*
X160301812Y-115920000D01*
X159951783Y-115989625D01*
X159554848Y-116254848D01*
X159289625Y-116651783D01*
X159196491Y-117120000D01*
X159103509Y-117120000D01*
X159010375Y-116651783D01*
X158745152Y-116254848D01*
X158348217Y-115989625D01*
X157998188Y-115920000D01*
X157761812Y-115920000D01*
X157411783Y-115989625D01*
X157014848Y-116254848D01*
X156749625Y-116651783D01*
X156656491Y-117120000D01*
X155223509Y-117120000D01*
X155130375Y-116651783D01*
X154865152Y-116254848D01*
X154468217Y-115989625D01*
X154118188Y-115920000D01*
X153881812Y-115920000D01*
X153531783Y-115989625D01*
X153134848Y-116254848D01*
X152869625Y-116651783D01*
X152776491Y-117120000D01*
X152683509Y-117120000D01*
X152590375Y-116651783D01*
X152325152Y-116254848D01*
X151928217Y-115989625D01*
X151578188Y-115920000D01*
X151341812Y-115920000D01*
X150991783Y-115989625D01*
X150594848Y-116254848D01*
X150329625Y-116651783D01*
X150236491Y-117120000D01*
X150143509Y-117120000D01*
X150050375Y-116651783D01*
X149785152Y-116254848D01*
X149388217Y-115989625D01*
X149038188Y-115920000D01*
X148801812Y-115920000D01*
X148451783Y-115989625D01*
X148054848Y-116254848D01*
X147789625Y-116651783D01*
X147696491Y-117120000D01*
X147603509Y-117120000D01*
X147510375Y-116651783D01*
X147245152Y-116254848D01*
X146848217Y-115989625D01*
X146498188Y-115920000D01*
X146261812Y-115920000D01*
X145911783Y-115989625D01*
X145514848Y-116254848D01*
X145249625Y-116651783D01*
X145156491Y-117120000D01*
X143723509Y-117120000D01*
X143630375Y-116651783D01*
X143365152Y-116254848D01*
X142968217Y-115989625D01*
X142618188Y-115920000D01*
X142381812Y-115920000D01*
X142031783Y-115989625D01*
X141634848Y-116254848D01*
X141369625Y-116651783D01*
X141276491Y-117120000D01*
X141183509Y-117120000D01*
X141090375Y-116651783D01*
X140825152Y-116254848D01*
X140428217Y-115989625D01*
X140078188Y-115920000D01*
X139841812Y-115920000D01*
X139491783Y-115989625D01*
X139094848Y-116254848D01*
X138829625Y-116651783D01*
X138736491Y-117120000D01*
X138643509Y-117120000D01*
X138550375Y-116651783D01*
X138285152Y-116254848D01*
X137888217Y-115989625D01*
X137538188Y-115920000D01*
X137301812Y-115920000D01*
X136951783Y-115989625D01*
X136554848Y-116254848D01*
X136289625Y-116651783D01*
X136196491Y-117120000D01*
X136103509Y-117120000D01*
X136010375Y-116651783D01*
X135745152Y-116254848D01*
X135348217Y-115989625D01*
X134998188Y-115920000D01*
X134761812Y-115920000D01*
X134411783Y-115989625D01*
X134014848Y-116254848D01*
X133749625Y-116651783D01*
X133656491Y-117120000D01*
X124975000Y-117120000D01*
X124975000Y-110711577D01*
X129050000Y-110711577D01*
X129050000Y-111288423D01*
X129270750Y-111821359D01*
X129678641Y-112229250D01*
X130211577Y-112450000D01*
X130788423Y-112450000D01*
X131321359Y-112229250D01*
X131729250Y-111821359D01*
X131950000Y-111288423D01*
X131950000Y-110711577D01*
X131729250Y-110178641D01*
X131321359Y-109770750D01*
X130788423Y-109550000D01*
X130211577Y-109550000D01*
X129678641Y-109770750D01*
X129270750Y-110178641D01*
X129050000Y-110711577D01*
X124975000Y-110711577D01*
X124975000Y-109500000D01*
X133656491Y-109500000D01*
X133749625Y-109968217D01*
X134014848Y-110365152D01*
X134411783Y-110630375D01*
X134761812Y-110700000D01*
X134998188Y-110700000D01*
X135348217Y-110630375D01*
X135745152Y-110365152D01*
X136010375Y-109968217D01*
X136103509Y-109500000D01*
X136196491Y-109500000D01*
X136289625Y-109968217D01*
X136554848Y-110365152D01*
X136951783Y-110630375D01*
X137301812Y-110700000D01*
X137538188Y-110700000D01*
X137888217Y-110630375D01*
X138285152Y-110365152D01*
X138550375Y-109968217D01*
X138643509Y-109500000D01*
X138736491Y-109500000D01*
X138829625Y-109968217D01*
X139094848Y-110365152D01*
X139491783Y-110630375D01*
X139841812Y-110700000D01*
X140078188Y-110700000D01*
X140428217Y-110630375D01*
X140825152Y-110365152D01*
X141090375Y-109968217D01*
X141183509Y-109500000D01*
X141090375Y-109031783D01*
X140868686Y-108700000D01*
X141292164Y-108700000D01*
X141292164Y-110300000D01*
X141323209Y-110456072D01*
X141411616Y-110588384D01*
X141543928Y-110676791D01*
X141700000Y-110707836D01*
X143300000Y-110707836D01*
X143456072Y-110676791D01*
X143588384Y-110588384D01*
X143676791Y-110456072D01*
X143707836Y-110300000D01*
X143707836Y-109500000D01*
X145156491Y-109500000D01*
X145249625Y-109968217D01*
X145514848Y-110365152D01*
X145911783Y-110630375D01*
X146261812Y-110700000D01*
X146498188Y-110700000D01*
X146848217Y-110630375D01*
X147245152Y-110365152D01*
X147510375Y-109968217D01*
X147603509Y-109500000D01*
X147696491Y-109500000D01*
X147789625Y-109968217D01*
X148054848Y-110365152D01*
X148451783Y-110630375D01*
X148801812Y-110700000D01*
X149038188Y-110700000D01*
X149388217Y-110630375D01*
X149785152Y-110365152D01*
X150050375Y-109968217D01*
X150143509Y-109500000D01*
X150236491Y-109500000D01*
X150329625Y-109968217D01*
X150594848Y-110365152D01*
X150991783Y-110630375D01*
X151341812Y-110700000D01*
X151578188Y-110700000D01*
X151928217Y-110630375D01*
X152325152Y-110365152D01*
X152590375Y-109968217D01*
X152683509Y-109500000D01*
X152590375Y-109031783D01*
X152368686Y-108700000D01*
X152792164Y-108700000D01*
X152792164Y-110300000D01*
X152823209Y-110456072D01*
X152911616Y-110588384D01*
X153043928Y-110676791D01*
X153200000Y-110707836D01*
X154800000Y-110707836D01*
X154956072Y-110676791D01*
X155088384Y-110588384D01*
X155176791Y-110456072D01*
X155207836Y-110300000D01*
X155207836Y-109500000D01*
X156656491Y-109500000D01*
X156749625Y-109968217D01*
X157014848Y-110365152D01*
X157411783Y-110630375D01*
X157761812Y-110700000D01*
X157998188Y-110700000D01*
X158348217Y-110630375D01*
X158745152Y-110365152D01*
X159010375Y-109968217D01*
X159103509Y-109500000D01*
X161736491Y-109500000D01*
X161829625Y-109968217D01*
X162094848Y-110365152D01*
X162491783Y-110630375D01*
X162841812Y-110700000D01*
X163078188Y-110700000D01*
X163428217Y-110630375D01*
X163825152Y-110365152D01*
X164090375Y-109968217D01*
X164183509Y-109500000D01*
X164090375Y-109031783D01*
X163868686Y-108700000D01*
X164292164Y-108700000D01*
X164292164Y-110300000D01*
X164323209Y-110456072D01*
X164411616Y-110588384D01*
X164543928Y-110676791D01*
X164700000Y-110707836D01*
X166300000Y-110707836D01*
X166456072Y-110676791D01*
X166588384Y-110588384D01*
X166676791Y-110456072D01*
X166707836Y-110300000D01*
X166707836Y-108700000D01*
X166676791Y-108543928D01*
X166588384Y-108411616D01*
X166456072Y-108323209D01*
X166300000Y-108292164D01*
X164700000Y-108292164D01*
X164543928Y-108323209D01*
X164411616Y-108411616D01*
X164323209Y-108543928D01*
X164292164Y-108700000D01*
X163868686Y-108700000D01*
X163825152Y-108634848D01*
X163428217Y-108369625D01*
X163078188Y-108300000D01*
X162841812Y-108300000D01*
X162491783Y-108369625D01*
X162094848Y-108634848D01*
X161829625Y-109031783D01*
X161736491Y-109500000D01*
X159103509Y-109500000D01*
X159010375Y-109031783D01*
X158745152Y-108634848D01*
X158348217Y-108369625D01*
X157998188Y-108300000D01*
X157761812Y-108300000D01*
X157411783Y-108369625D01*
X157014848Y-108634848D01*
X156749625Y-109031783D01*
X156656491Y-109500000D01*
X155207836Y-109500000D01*
X155207836Y-108700000D01*
X155176791Y-108543928D01*
X155088384Y-108411616D01*
X154956072Y-108323209D01*
X154800000Y-108292164D01*
X153200000Y-108292164D01*
X153043928Y-108323209D01*
X152911616Y-108411616D01*
X152823209Y-108543928D01*
X152792164Y-108700000D01*
X152368686Y-108700000D01*
X152325152Y-108634848D01*
X151928217Y-108369625D01*
X151578188Y-108300000D01*
X151341812Y-108300000D01*
X150991783Y-108369625D01*
X150594848Y-108634848D01*
X150329625Y-109031783D01*
X150236491Y-109500000D01*
X150143509Y-109500000D01*
X150050375Y-109031783D01*
X149785152Y-108634848D01*
X149388217Y-108369625D01*
X149038188Y-108300000D01*
X148801812Y-108300000D01*
X148451783Y-108369625D01*
X148054848Y-108634848D01*
X147789625Y-109031783D01*
X147696491Y-109500000D01*
X147603509Y-109500000D01*
X147510375Y-109031783D01*
X147245152Y-108634848D01*
X146848217Y-108369625D01*
X146498188Y-108300000D01*
X146261812Y-108300000D01*
X145911783Y-108369625D01*
X145514848Y-108634848D01*
X145249625Y-109031783D01*
X145156491Y-109500000D01*
X143707836Y-109500000D01*
X143707836Y-108700000D01*
X143676791Y-108543928D01*
X143588384Y-108411616D01*
X143456072Y-108323209D01*
X143300000Y-108292164D01*
X141700000Y-108292164D01*
X141543928Y-108323209D01*
X141411616Y-108411616D01*
X141323209Y-108543928D01*
X141292164Y-108700000D01*
X140868686Y-108700000D01*
X140825152Y-108634848D01*
X140428217Y-108369625D01*
X140078188Y-108300000D01*
X139841812Y-108300000D01*
X139491783Y-108369625D01*
X139094848Y-108634848D01*
X138829625Y-109031783D01*
X138736491Y-109500000D01*
X138643509Y-109500000D01*
X138550375Y-109031783D01*
X138285152Y-108634848D01*
X137888217Y-108369625D01*
X137538188Y-108300000D01*
X137301812Y-108300000D01*
X136951783Y-108369625D01*
X136554848Y-108634848D01*
X136289625Y-109031783D01*
X136196491Y-109500000D01*
X136103509Y-109500000D01*
X136010375Y-109031783D01*
X135745152Y-108634848D01*
X135348217Y-108369625D01*
X134998188Y-108300000D01*
X134761812Y-108300000D01*
X134411783Y-108369625D01*
X134014848Y-108634848D01*
X133749625Y-109031783D01*
X133656491Y-109500000D01*
X124975000Y-109500000D01*
X124975000Y-103374999D01*
X165492164Y-103374999D01*
X165492164Y-104625001D01*
X165542239Y-104876744D01*
X165588223Y-104945564D01*
X165582368Y-104975000D01*
X165652219Y-105326161D01*
X165652220Y-105326162D01*
X165652220Y-105326163D01*
X165851137Y-105623864D01*
X165926285Y-105674076D01*
X168099999Y-107847792D01*
X168100000Y-116131355D01*
X168082367Y-116220001D01*
X168152218Y-116571162D01*
X168152219Y-116571163D01*
X168152219Y-116571164D01*
X168351136Y-116868865D01*
X168426284Y-116919077D01*
X169292164Y-117784958D01*
X169292164Y-118300000D01*
X169323209Y-118456072D01*
X169411616Y-118588384D01*
X169543928Y-118676791D01*
X169700000Y-118707836D01*
X171300000Y-118707836D01*
X171456072Y-118676791D01*
X171588384Y-118588384D01*
X171676791Y-118456072D01*
X171707836Y-118300000D01*
X171707836Y-116700000D01*
X171676791Y-116543928D01*
X171588384Y-116411616D01*
X171456072Y-116323209D01*
X171300000Y-116292164D01*
X170344954Y-116292164D01*
X169899999Y-115847210D01*
X169899999Y-110711577D01*
X177050000Y-110711577D01*
X177050000Y-111288423D01*
X177270750Y-111821359D01*
X177678641Y-112229250D01*
X178211577Y-112450000D01*
X178788423Y-112450000D01*
X179321359Y-112229250D01*
X179729250Y-111821359D01*
X179950000Y-111288423D01*
X179950000Y-110711577D01*
X179729250Y-110178641D01*
X179321359Y-109770750D01*
X178788423Y-109550000D01*
X178211577Y-109550000D01*
X177678641Y-109770750D01*
X177270750Y-110178641D01*
X177050000Y-110711577D01*
X169899999Y-110711577D01*
X169899999Y-110050342D01*
X170261305Y-110200000D01*
X170738695Y-110200000D01*
X171179745Y-110017311D01*
X171517311Y-109679745D01*
X171700000Y-109238695D01*
X171700000Y-108761305D01*
X171517311Y-108320255D01*
X171400000Y-108202944D01*
X171400000Y-106149999D01*
X173717164Y-106149999D01*
X173717164Y-106850001D01*
X173767239Y-107101744D01*
X173909839Y-107315161D01*
X174123256Y-107457761D01*
X174374999Y-107507836D01*
X175625001Y-107507836D01*
X175876744Y-107457761D01*
X176090161Y-107315161D01*
X176232761Y-107101744D01*
X176282836Y-106850001D01*
X176282836Y-106149999D01*
X176232761Y-105898256D01*
X176090161Y-105684839D01*
X175876744Y-105542239D01*
X175625001Y-105492164D01*
X174374999Y-105492164D01*
X174123256Y-105542239D01*
X173909839Y-105684839D01*
X173767239Y-105898256D01*
X173717164Y-106149999D01*
X171400000Y-106149999D01*
X171400000Y-104728007D01*
X171441979Y-104665181D01*
X171500000Y-104373489D01*
X171500000Y-103997791D01*
X172573717Y-102924075D01*
X172648865Y-102873863D01*
X172847782Y-102576162D01*
X172862931Y-102500000D01*
X173705409Y-102500000D01*
X173783021Y-102890181D01*
X174004040Y-103220960D01*
X174334819Y-103441979D01*
X174626510Y-103500000D01*
X175373490Y-103500000D01*
X175665181Y-103441979D01*
X175995960Y-103220960D01*
X176216979Y-102890181D01*
X176294591Y-102500000D01*
X176216979Y-102109819D01*
X175995960Y-101779040D01*
X175665181Y-101558021D01*
X175373490Y-101500000D01*
X174626510Y-101500000D01*
X174334819Y-101558021D01*
X174004040Y-101779040D01*
X173783021Y-102109819D01*
X173705409Y-102500000D01*
X172862931Y-102500000D01*
X172900001Y-102313641D01*
X172900001Y-102313640D01*
X172917633Y-102224999D01*
X172900001Y-102136358D01*
X172900001Y-97711577D01*
X177050000Y-97711577D01*
X177050000Y-98288423D01*
X177270750Y-98821359D01*
X177678641Y-99229250D01*
X178211577Y-99450000D01*
X178788423Y-99450000D01*
X179321359Y-99229250D01*
X179729250Y-98821359D01*
X179950000Y-98288423D01*
X179950000Y-97711577D01*
X179729250Y-97178641D01*
X179321359Y-96770750D01*
X178788423Y-96550000D01*
X178211577Y-96550000D01*
X177678641Y-96770750D01*
X177270750Y-97178641D01*
X177050000Y-97711577D01*
X172900001Y-97711577D01*
X172900001Y-91957272D01*
X172917633Y-91868631D01*
X172847782Y-91517469D01*
X172847782Y-91517468D01*
X172648865Y-91219767D01*
X172573713Y-91169552D01*
X172330449Y-90926288D01*
X172280234Y-90851136D01*
X171982533Y-90652219D01*
X171720012Y-90600000D01*
X171720011Y-90600000D01*
X171631370Y-90582368D01*
X171542729Y-90600000D01*
X171297056Y-90600000D01*
X171179745Y-90482689D01*
X170738695Y-90300000D01*
X170261305Y-90300000D01*
X169820255Y-90482689D01*
X169482689Y-90820255D01*
X169300000Y-91261305D01*
X169300000Y-91738695D01*
X169482689Y-92179745D01*
X169820255Y-92517311D01*
X170261305Y-92700000D01*
X170738695Y-92700000D01*
X171100002Y-92550342D01*
X171100001Y-98792164D01*
X169700000Y-98792164D01*
X169543928Y-98823209D01*
X169411616Y-98911616D01*
X169323209Y-99043928D01*
X169312055Y-99100000D01*
X168788641Y-99100000D01*
X168700000Y-99082368D01*
X168611359Y-99100000D01*
X168611358Y-99100000D01*
X168348837Y-99152219D01*
X168051136Y-99351136D01*
X168000923Y-99426285D01*
X165926285Y-101500924D01*
X165851137Y-101551136D01*
X165800925Y-101626284D01*
X165652219Y-101848839D01*
X165582368Y-102200000D01*
X165600001Y-102288646D01*
X165600001Y-103036809D01*
X165542239Y-103123256D01*
X165492164Y-103374999D01*
X124975000Y-103374999D01*
X124975000Y-99620000D01*
X133656491Y-99620000D01*
X133749625Y-100088217D01*
X134014848Y-100485152D01*
X134411783Y-100750375D01*
X134761812Y-100820000D01*
X134998188Y-100820000D01*
X135348217Y-100750375D01*
X135745152Y-100485152D01*
X136010375Y-100088217D01*
X136103509Y-99620000D01*
X136196491Y-99620000D01*
X136289625Y-100088217D01*
X136554848Y-100485152D01*
X136951783Y-100750375D01*
X137301812Y-100820000D01*
X137538188Y-100820000D01*
X137888217Y-100750375D01*
X138285152Y-100485152D01*
X138550375Y-100088217D01*
X138643509Y-99620000D01*
X138736491Y-99620000D01*
X138829625Y-100088217D01*
X139094848Y-100485152D01*
X139491783Y-100750375D01*
X139841812Y-100820000D01*
X140078188Y-100820000D01*
X140428217Y-100750375D01*
X140825152Y-100485152D01*
X141090375Y-100088217D01*
X141183509Y-99620000D01*
X141276491Y-99620000D01*
X141369625Y-100088217D01*
X141634848Y-100485152D01*
X142031783Y-100750375D01*
X142381812Y-100820000D01*
X142618188Y-100820000D01*
X142968217Y-100750375D01*
X143365152Y-100485152D01*
X143630375Y-100088217D01*
X143723509Y-99620000D01*
X145156491Y-99620000D01*
X145249625Y-100088217D01*
X145514848Y-100485152D01*
X145911783Y-100750375D01*
X146261812Y-100820000D01*
X146498188Y-100820000D01*
X146848217Y-100750375D01*
X147245152Y-100485152D01*
X147510375Y-100088217D01*
X147603509Y-99620000D01*
X147696491Y-99620000D01*
X147789625Y-100088217D01*
X148054848Y-100485152D01*
X148451783Y-100750375D01*
X148801812Y-100820000D01*
X149038188Y-100820000D01*
X149388217Y-100750375D01*
X149785152Y-100485152D01*
X150050375Y-100088217D01*
X150143509Y-99620000D01*
X150236491Y-99620000D01*
X150329625Y-100088217D01*
X150594848Y-100485152D01*
X150991783Y-100750375D01*
X151341812Y-100820000D01*
X151578188Y-100820000D01*
X151928217Y-100750375D01*
X152325152Y-100485152D01*
X152590375Y-100088217D01*
X152683509Y-99620000D01*
X152776491Y-99620000D01*
X152869625Y-100088217D01*
X153134848Y-100485152D01*
X153531783Y-100750375D01*
X153881812Y-100820000D01*
X154118188Y-100820000D01*
X154468217Y-100750375D01*
X154865152Y-100485152D01*
X155130375Y-100088217D01*
X155223509Y-99620000D01*
X156656491Y-99620000D01*
X156749625Y-100088217D01*
X157014848Y-100485152D01*
X157411783Y-100750375D01*
X157761812Y-100820000D01*
X157998188Y-100820000D01*
X158348217Y-100750375D01*
X158745152Y-100485152D01*
X159010375Y-100088217D01*
X159103509Y-99620000D01*
X159196491Y-99620000D01*
X159289625Y-100088217D01*
X159554848Y-100485152D01*
X159951783Y-100750375D01*
X160301812Y-100820000D01*
X160538188Y-100820000D01*
X160888217Y-100750375D01*
X161285152Y-100485152D01*
X161550375Y-100088217D01*
X161643509Y-99620000D01*
X161736491Y-99620000D01*
X161829625Y-100088217D01*
X162094848Y-100485152D01*
X162491783Y-100750375D01*
X162841812Y-100820000D01*
X163078188Y-100820000D01*
X163428217Y-100750375D01*
X163825152Y-100485152D01*
X164090375Y-100088217D01*
X164183509Y-99620000D01*
X164276491Y-99620000D01*
X164369625Y-100088217D01*
X164634848Y-100485152D01*
X165031783Y-100750375D01*
X165381812Y-100820000D01*
X165618188Y-100820000D01*
X165968217Y-100750375D01*
X166365152Y-100485152D01*
X166630375Y-100088217D01*
X166723509Y-99620000D01*
X166630375Y-99151783D01*
X166365152Y-98754848D01*
X165968217Y-98489625D01*
X165618188Y-98420000D01*
X165381812Y-98420000D01*
X165031783Y-98489625D01*
X164634848Y-98754848D01*
X164369625Y-99151783D01*
X164276491Y-99620000D01*
X164183509Y-99620000D01*
X164090375Y-99151783D01*
X163825152Y-98754848D01*
X163428217Y-98489625D01*
X163078188Y-98420000D01*
X162841812Y-98420000D01*
X162491783Y-98489625D01*
X162094848Y-98754848D01*
X161829625Y-99151783D01*
X161736491Y-99620000D01*
X161643509Y-99620000D01*
X161550375Y-99151783D01*
X161285152Y-98754848D01*
X160888217Y-98489625D01*
X160538188Y-98420000D01*
X160301812Y-98420000D01*
X159951783Y-98489625D01*
X159554848Y-98754848D01*
X159289625Y-99151783D01*
X159196491Y-99620000D01*
X159103509Y-99620000D01*
X159010375Y-99151783D01*
X158745152Y-98754848D01*
X158348217Y-98489625D01*
X157998188Y-98420000D01*
X157761812Y-98420000D01*
X157411783Y-98489625D01*
X157014848Y-98754848D01*
X156749625Y-99151783D01*
X156656491Y-99620000D01*
X155223509Y-99620000D01*
X155130375Y-99151783D01*
X154865152Y-98754848D01*
X154468217Y-98489625D01*
X154118188Y-98420000D01*
X153881812Y-98420000D01*
X153531783Y-98489625D01*
X153134848Y-98754848D01*
X152869625Y-99151783D01*
X152776491Y-99620000D01*
X152683509Y-99620000D01*
X152590375Y-99151783D01*
X152325152Y-98754848D01*
X151928217Y-98489625D01*
X151578188Y-98420000D01*
X151341812Y-98420000D01*
X150991783Y-98489625D01*
X150594848Y-98754848D01*
X150329625Y-99151783D01*
X150236491Y-99620000D01*
X150143509Y-99620000D01*
X150050375Y-99151783D01*
X149785152Y-98754848D01*
X149388217Y-98489625D01*
X149038188Y-98420000D01*
X148801812Y-98420000D01*
X148451783Y-98489625D01*
X148054848Y-98754848D01*
X147789625Y-99151783D01*
X147696491Y-99620000D01*
X147603509Y-99620000D01*
X147510375Y-99151783D01*
X147245152Y-98754848D01*
X146848217Y-98489625D01*
X146498188Y-98420000D01*
X146261812Y-98420000D01*
X145911783Y-98489625D01*
X145514848Y-98754848D01*
X145249625Y-99151783D01*
X145156491Y-99620000D01*
X143723509Y-99620000D01*
X143630375Y-99151783D01*
X143365152Y-98754848D01*
X142968217Y-98489625D01*
X142618188Y-98420000D01*
X142381812Y-98420000D01*
X142031783Y-98489625D01*
X141634848Y-98754848D01*
X141369625Y-99151783D01*
X141276491Y-99620000D01*
X141183509Y-99620000D01*
X141090375Y-99151783D01*
X140825152Y-98754848D01*
X140428217Y-98489625D01*
X140078188Y-98420000D01*
X139841812Y-98420000D01*
X139491783Y-98489625D01*
X139094848Y-98754848D01*
X138829625Y-99151783D01*
X138736491Y-99620000D01*
X138643509Y-99620000D01*
X138550375Y-99151783D01*
X138285152Y-98754848D01*
X137888217Y-98489625D01*
X137538188Y-98420000D01*
X137301812Y-98420000D01*
X136951783Y-98489625D01*
X136554848Y-98754848D01*
X136289625Y-99151783D01*
X136196491Y-99620000D01*
X136103509Y-99620000D01*
X136010375Y-99151783D01*
X135745152Y-98754848D01*
X135348217Y-98489625D01*
X134998188Y-98420000D01*
X134761812Y-98420000D01*
X134411783Y-98489625D01*
X134014848Y-98754848D01*
X133749625Y-99151783D01*
X133656491Y-99620000D01*
X124975000Y-99620000D01*
X124975000Y-97711577D01*
X129050000Y-97711577D01*
X129050000Y-98288423D01*
X129270750Y-98821359D01*
X129678641Y-99229250D01*
X130211577Y-99450000D01*
X130788423Y-99450000D01*
X131321359Y-99229250D01*
X131729250Y-98821359D01*
X131950000Y-98288423D01*
X131950000Y-97711577D01*
X131729250Y-97178641D01*
X131321359Y-96770750D01*
X130788423Y-96550000D01*
X130211577Y-96550000D01*
X129678641Y-96770750D01*
X129270750Y-97178641D01*
X129050000Y-97711577D01*
X124975000Y-97711577D01*
X124975000Y-92000000D01*
X133656491Y-92000000D01*
X133749625Y-92468217D01*
X134014848Y-92865152D01*
X134411783Y-93130375D01*
X134761812Y-93200000D01*
X134998188Y-93200000D01*
X135348217Y-93130375D01*
X135745152Y-92865152D01*
X136010375Y-92468217D01*
X136103509Y-92000000D01*
X136196491Y-92000000D01*
X136289625Y-92468217D01*
X136554848Y-92865152D01*
X136951783Y-93130375D01*
X137301812Y-93200000D01*
X137538188Y-93200000D01*
X137888217Y-93130375D01*
X138285152Y-92865152D01*
X138550375Y-92468217D01*
X138643509Y-92000000D01*
X138736491Y-92000000D01*
X138829625Y-92468217D01*
X139094848Y-92865152D01*
X139491783Y-93130375D01*
X139841812Y-93200000D01*
X140078188Y-93200000D01*
X140428217Y-93130375D01*
X140825152Y-92865152D01*
X141090375Y-92468217D01*
X141183509Y-92000000D01*
X141090375Y-91531783D01*
X140868686Y-91200000D01*
X141292164Y-91200000D01*
X141292164Y-92800000D01*
X141323209Y-92956072D01*
X141411616Y-93088384D01*
X141543928Y-93176791D01*
X141700000Y-93207836D01*
X143300000Y-93207836D01*
X143456072Y-93176791D01*
X143588384Y-93088384D01*
X143676791Y-92956072D01*
X143707836Y-92800000D01*
X143707836Y-92000000D01*
X145156491Y-92000000D01*
X145249625Y-92468217D01*
X145514848Y-92865152D01*
X145911783Y-93130375D01*
X146261812Y-93200000D01*
X146498188Y-93200000D01*
X146848217Y-93130375D01*
X147245152Y-92865152D01*
X147510375Y-92468217D01*
X147603509Y-92000000D01*
X147696491Y-92000000D01*
X147789625Y-92468217D01*
X148054848Y-92865152D01*
X148451783Y-93130375D01*
X148801812Y-93200000D01*
X149038188Y-93200000D01*
X149388217Y-93130375D01*
X149785152Y-92865152D01*
X150050375Y-92468217D01*
X150143509Y-92000000D01*
X150236491Y-92000000D01*
X150329625Y-92468217D01*
X150594848Y-92865152D01*
X150991783Y-93130375D01*
X151341812Y-93200000D01*
X151578188Y-93200000D01*
X151928217Y-93130375D01*
X152325152Y-92865152D01*
X152590375Y-92468217D01*
X152683509Y-92000000D01*
X152590375Y-91531783D01*
X152368686Y-91200000D01*
X152792164Y-91200000D01*
X152792164Y-92800000D01*
X152823209Y-92956072D01*
X152911616Y-93088384D01*
X153043928Y-93176791D01*
X153200000Y-93207836D01*
X154800000Y-93207836D01*
X154956072Y-93176791D01*
X155088384Y-93088384D01*
X155176791Y-92956072D01*
X155207836Y-92800000D01*
X155207836Y-92000000D01*
X156656491Y-92000000D01*
X156749625Y-92468217D01*
X157014848Y-92865152D01*
X157411783Y-93130375D01*
X157761812Y-93200000D01*
X157998188Y-93200000D01*
X158348217Y-93130375D01*
X158745152Y-92865152D01*
X159010375Y-92468217D01*
X159103509Y-92000000D01*
X161736491Y-92000000D01*
X161829625Y-92468217D01*
X162094848Y-92865152D01*
X162491783Y-93130375D01*
X162841812Y-93200000D01*
X163078188Y-93200000D01*
X163428217Y-93130375D01*
X163825152Y-92865152D01*
X164090375Y-92468217D01*
X164183509Y-92000000D01*
X164090375Y-91531783D01*
X163868686Y-91200000D01*
X164292164Y-91200000D01*
X164292164Y-92800000D01*
X164323209Y-92956072D01*
X164411616Y-93088384D01*
X164543928Y-93176791D01*
X164700000Y-93207836D01*
X166300000Y-93207836D01*
X166456072Y-93176791D01*
X166588384Y-93088384D01*
X166676791Y-92956072D01*
X166707836Y-92800000D01*
X166707836Y-91200000D01*
X166676791Y-91043928D01*
X166588384Y-90911616D01*
X166456072Y-90823209D01*
X166300000Y-90792164D01*
X164700000Y-90792164D01*
X164543928Y-90823209D01*
X164411616Y-90911616D01*
X164323209Y-91043928D01*
X164292164Y-91200000D01*
X163868686Y-91200000D01*
X163825152Y-91134848D01*
X163428217Y-90869625D01*
X163078188Y-90800000D01*
X162841812Y-90800000D01*
X162491783Y-90869625D01*
X162094848Y-91134848D01*
X161829625Y-91531783D01*
X161736491Y-92000000D01*
X159103509Y-92000000D01*
X159010375Y-91531783D01*
X158745152Y-91134848D01*
X158348217Y-90869625D01*
X157998188Y-90800000D01*
X157761812Y-90800000D01*
X157411783Y-90869625D01*
X157014848Y-91134848D01*
X156749625Y-91531783D01*
X156656491Y-92000000D01*
X155207836Y-92000000D01*
X155207836Y-91200000D01*
X155176791Y-91043928D01*
X155088384Y-90911616D01*
X154956072Y-90823209D01*
X154800000Y-90792164D01*
X153200000Y-90792164D01*
X153043928Y-90823209D01*
X152911616Y-90911616D01*
X152823209Y-91043928D01*
X152792164Y-91200000D01*
X152368686Y-91200000D01*
X152325152Y-91134848D01*
X151928217Y-90869625D01*
X151578188Y-90800000D01*
X151341812Y-90800000D01*
X150991783Y-90869625D01*
X150594848Y-91134848D01*
X150329625Y-91531783D01*
X150236491Y-92000000D01*
X150143509Y-92000000D01*
X150050375Y-91531783D01*
X149785152Y-91134848D01*
X149388217Y-90869625D01*
X149038188Y-90800000D01*
X148801812Y-90800000D01*
X148451783Y-90869625D01*
X148054848Y-91134848D01*
X147789625Y-91531783D01*
X147696491Y-92000000D01*
X147603509Y-92000000D01*
X147510375Y-91531783D01*
X147245152Y-91134848D01*
X146848217Y-90869625D01*
X146498188Y-90800000D01*
X146261812Y-90800000D01*
X145911783Y-90869625D01*
X145514848Y-91134848D01*
X145249625Y-91531783D01*
X145156491Y-92000000D01*
X143707836Y-92000000D01*
X143707836Y-91200000D01*
X143676791Y-91043928D01*
X143588384Y-90911616D01*
X143456072Y-90823209D01*
X143300000Y-90792164D01*
X141700000Y-90792164D01*
X141543928Y-90823209D01*
X141411616Y-90911616D01*
X141323209Y-91043928D01*
X141292164Y-91200000D01*
X140868686Y-91200000D01*
X140825152Y-91134848D01*
X140428217Y-90869625D01*
X140078188Y-90800000D01*
X139841812Y-90800000D01*
X139491783Y-90869625D01*
X139094848Y-91134848D01*
X138829625Y-91531783D01*
X138736491Y-92000000D01*
X138643509Y-92000000D01*
X138550375Y-91531783D01*
X138285152Y-91134848D01*
X137888217Y-90869625D01*
X137538188Y-90800000D01*
X137301812Y-90800000D01*
X136951783Y-90869625D01*
X136554848Y-91134848D01*
X136289625Y-91531783D01*
X136196491Y-92000000D01*
X136103509Y-92000000D01*
X136010375Y-91531783D01*
X135745152Y-91134848D01*
X135348217Y-90869625D01*
X134998188Y-90800000D01*
X134761812Y-90800000D01*
X134411783Y-90869625D01*
X134014848Y-91134848D01*
X133749625Y-91531783D01*
X133656491Y-92000000D01*
X124975000Y-92000000D01*
X124975000Y-90024059D01*
X125049391Y-89291694D01*
X125262295Y-88612316D01*
X125607456Y-87989630D01*
X126070774Y-87449068D01*
X126633331Y-87012703D01*
X127272138Y-86698371D01*
X127966769Y-86517433D01*
X128518246Y-86475000D01*
X180475941Y-86475000D01*
X181208306Y-86549391D01*
G36*
X169323209Y-100956072D02*
X169411616Y-101088384D01*
X169543928Y-101176791D01*
X169700000Y-101207836D01*
X171100001Y-101207836D01*
X171100001Y-101852207D01*
X170183929Y-102768280D01*
X170109819Y-102783021D01*
X169779040Y-103004040D01*
X169558021Y-103334820D01*
X169500000Y-103626511D01*
X169500000Y-104373490D01*
X169558021Y-104665181D01*
X169600000Y-104728007D01*
X169600001Y-106793486D01*
X169573718Y-106775925D01*
X167493726Y-104695935D01*
X167507836Y-104625001D01*
X167507836Y-103374999D01*
X167457761Y-103123256D01*
X167400000Y-103036810D01*
X167400000Y-102572791D01*
X169072792Y-100900000D01*
X169312055Y-100900000D01*
X169323209Y-100956072D01*
X169323209Y-100956072D01*
G37*
X169323209Y-100956072D02*
X169411616Y-101088384D01*
X169543928Y-101176791D01*
X169700000Y-101207836D01*
X171100001Y-101207836D01*
X171100001Y-101852207D01*
X170183929Y-102768280D01*
X170109819Y-102783021D01*
X169779040Y-103004040D01*
X169558021Y-103334820D01*
X169500000Y-103626511D01*
X169500000Y-104373490D01*
X169558021Y-104665181D01*
X169600000Y-104728007D01*
X169600001Y-106793486D01*
X169573718Y-106775925D01*
X167493726Y-104695935D01*
X167507836Y-104625001D01*
X167507836Y-103374999D01*
X167457761Y-103123256D01*
X167400000Y-103036810D01*
X167400000Y-102572791D01*
X169072792Y-100900000D01*
X169312055Y-100900000D01*
X169323209Y-100956072D01*
G04 #@! TD*
M02*
